<?xml version="1.0" encoding="UTF-8" standalone="no"?>
<!DOCTYPE svg PUBLIC "-//W3C//DTD SVG 1.1//EN" "http://www.w3.org/Graphics/SVG/1.1/DTD/svg11.dtd">
<!-- Gegenereerd door Microsoft Visio, SVG Export variant2_mech.svg Pagina-1 -->
<svg xmlns="http://www.w3.org/2000/svg" xmlns:xlink="http://www.w3.org/1999/xlink" xmlns:ev="http://www.w3.org/2001/xml-events"
		xmlns:v="http://schemas.microsoft.com/visio/2003/SVGExtensions/" width="2.31669in" height="1.18168in"
		viewBox="0 0 166.802 85.0807" xml:space="preserve" color-interpolation-filters="sRGB" class="st8">
	<v:documentProperties v:langID="1043" v:metric="true" v:viewMarkup="false"/>

	<style type="text/css">
	<![CDATA[
		.st1 {stroke:#000000;stroke-linecap:round;stroke-linejoin:round;stroke-width:2}
		.st2 {stroke:#000000;stroke-linecap:round;stroke-linejoin:round;stroke-width:1.2}
		.st3 {stroke:#000000;stroke-linecap:round;stroke-linejoin:round;stroke-width:0.75}
		.st4 {fill:#ffffff;stroke:#000000;stroke-linecap:round;stroke-linejoin:round;stroke-width:0.75}
		.st5 {fill:#00cc99;stroke:#000000;stroke-linecap:round;stroke-linejoin:round;stroke-width:0.75}
		.st6 {stroke:#000000;stroke-dasharray:5.25,3.75;stroke-linecap:round;stroke-linejoin:round;stroke-width:0.75}
		.st7 {fill:#ffffff;stroke:#000000;stroke-dasharray:0.75,1.5;stroke-linecap:round;stroke-linejoin:round;stroke-width:0.75}
		.st8 {fill:none;fill-rule:evenodd;font-size:12px;overflow:visible;stroke-linecap:square;stroke-miterlimit:3}
	]]>
	</style>

	<g v:mID="0" v:index="1" v:groupContext="foregroundPage">
		<title>Pagina-1</title>
		<v:pageProperties v:drawingScale="0.0393701" v:pageScale="0.0393701" v:drawingUnits="24" v:shadowOffsetX="8.50394"
				v:shadowOffsetY="-8.50394"/>
		<g id="shape1246-1" v:mID="1246" v:groupContext="shape" transform="translate(66.9479,73.3671) rotate(-90)">
			<title>Ligger, 2 pt.1246</title>
			<path d="M0 85.08 L70.87 85.08" class="st1"/>
		</g>
		<g id="group1247-4" transform="translate(81.1211,84.7057) rotate(-90)" v:mID="1247" v:groupContext="group">
			<title>Inklemming.1247</title>
			<g id="shape1248-5" v:mID="1248" v:groupContext="shape" transform="translate(96.4193,56.7342) rotate(90)">
				<title>Blad.1248</title>
				<path d="M0 85.08 L28.35 85.08" class="st2"/>
			</g>
			<g id="shape1249-8" v:mID="1249" v:groupContext="shape" transform="translate(68.6651,-3.4269) rotate(45)">
				<title>Blad.1249</title>
				<path d="M0 85.08 L4.01 85.08" class="st3"/>
			</g>
			<g id="shape1250-11" v:mID="1250" v:groupContext="shape" transform="translate(65.8304,-3.4269) rotate(45)">
				<title>Blad.1250</title>
				<path d="M0 85.08 L8.02 85.08" class="st3"/>
			</g>
			<g id="shape1251-14" v:mID="1251" v:groupContext="shape" transform="translate(62.9958,-3.4269) rotate(45)">
				<title>Blad.1251</title>
				<path d="M0 85.08 L12.03 85.08" class="st3"/>
			</g>
			<g id="shape1252-17" v:mID="1252" v:groupContext="shape" transform="translate(60.1611,-3.4269) rotate(45)">
				<title>Blad.1252</title>
				<path d="M0 85.08 L16.04 85.08" class="st3"/>
			</g>
			<g id="shape1253-20" v:mID="1253" v:groupContext="shape" transform="translate(60.1611,-0.592259) rotate(45)">
				<title>Blad.1253</title>
				<path d="M0 85.08 L16.04 85.08" class="st3"/>
			</g>
			<g id="shape1254-23" v:mID="1254" v:groupContext="shape" transform="translate(60.1611,2.24239) rotate(45)">
				<title>Blad.1254</title>
				<path d="M0 85.08 L16.04 85.08" class="st3"/>
			</g>
			<g id="shape1255-26" v:mID="1255" v:groupContext="shape" transform="translate(60.1611,5.07703) rotate(45)">
				<title>Blad.1255</title>
				<path d="M0 85.08 L16.04 85.08" class="st3"/>
			</g>
			<g id="shape1256-29" v:mID="1256" v:groupContext="shape" transform="translate(60.1611,7.91168) rotate(45)">
				<title>Blad.1256</title>
				<path d="M0 85.08 L16.04 85.08" class="st3"/>
			</g>
			<g id="shape1257-32" v:mID="1257" v:groupContext="shape" transform="translate(60.1611,10.7463) rotate(45)">
				<title>Blad.1257</title>
				<path d="M0 85.08 L16.04 85.08" class="st3"/>
			</g>
			<g id="shape1258-35" v:mID="1258" v:groupContext="shape" transform="translate(60.1611,13.581) rotate(45)">
				<title>Blad.1258</title>
				<path d="M0 85.08 L16.04 85.08" class="st3"/>
			</g>
			<g id="shape1259-38" v:mID="1259" v:groupContext="shape" transform="translate(60.1611,16.4156) rotate(45)">
				<title>Blad.1259</title>
				<path d="M0 85.08 L12.03 85.08" class="st3"/>
			</g>
			<g id="shape1260-41" v:mID="1260" v:groupContext="shape" transform="translate(60.1611,19.2503) rotate(45)">
				<title>Blad.1260</title>
				<path d="M0 85.08 L8.02 85.08" class="st3"/>
			</g>
			<g id="shape1261-44" v:mID="1261" v:groupContext="shape" transform="translate(60.1611,22.0849) rotate(45)">
				<title>Blad.1261</title>
				<path d="M0 85.08 L4.01 85.08" class="st3"/>
			</g>
		</g>
		<g id="shape1262-47" v:mID="1262" v:groupContext="shape" transform="translate(149.903,-76.9104)">
			<title>Scharnier.1262</title>
			<ellipse cx="2.12598" cy="82.9547" rx="2.12598" ry="2.12598" class="st4"/>
		</g>
		<g id="group1263-49" transform="translate(0.375,-71.2411)" v:mID="1263" v:groupContext="group">
			<title>Scharnieroplegging.1263</title>
			<g id="shape1264-50" v:mID="1264" v:groupContext="shape" transform="translate(2.83465,1.42109E-14)">
				<title>Blad.1264</title>
				<path d="M0 85.08 L14.17 85.08 L7.09 73.74 L0 85.08 Z" class="st5"/>
			</g>
			<g id="shape1265-52" v:mID="1265" v:groupContext="shape" transform="translate(2.83465,170.161) rotate(180)">
				<title>Blad.1265</title>
				<path d="M0 85.08 L2.83 85.08" class="st3"/>
			</g>
			<g id="shape1266-55" v:mID="1266" v:groupContext="shape" transform="translate(17.0079,1.42109E-14)">
				<title>Blad.1266</title>
				<path d="M0 85.08 L2.83 85.08" class="st3"/>
			</g>
		</g>
		<g id="shape1270-58" v:mID="1270" v:groupContext="shape" transform="translate(10.2963,-82.5797) rotate(8.15206E-07)">
			<title>Blad.1270</title>
			<path d="M0 85.08 L141.73 85.08" class="st6"/>
		</g>
		<g id="shape1271-61" v:mID="1271" v:groupContext="shape" transform="translate(41.8945,-76.4944) rotate(21.8014)">
			<title>Ligger, 2 pt.1271</title>
			<path d="M0 85.08 L76.33 85.08" class="st1"/>
		</g>
		<g id="shape1272-64" v:mID="1272" v:groupContext="shape" transform="translate(49.5642,-48.148) rotate(-21.8014)">
			<title>Ligger, 2 pt.1272</title>
			<path d="M0 85.08 L76.33 85.08" class="st1"/>
		</g>
		<g id="shape1273-67" v:mID="1273" v:groupContext="shape" transform="translate(79.0364,-52.1072)">
			<title>Scharnier.1273</title>
			<ellipse cx="2.12598" cy="82.9547" rx="2.12598" ry="2.12598" class="st4"/>
		</g>
		<g id="shape1274-69" v:mID="1274" v:groupContext="shape" transform="translate(79.0364,-80.4537)">
			<title>Scharnier.1274</title>
			<ellipse cx="2.12598" cy="82.9547" rx="2.12598" ry="2.12598" class="st7"/>
		</g>
	</g>
</svg>
