<?xml version="1.0" encoding="UTF-8" standalone="no"?>
<!DOCTYPE svg PUBLIC "-//W3C//DTD SVG 1.1//EN" "http://www.w3.org/Graphics/SVG/1.1/DTD/svg11.dtd">
<!-- Gegenereerd door Microsoft Visio, SVG Export Oefening_3.svg Pagina-1 -->
<svg xmlns="http://www.w3.org/2000/svg" xmlns:xlink="http://www.w3.org/1999/xlink" xmlns:ev="http://www.w3.org/2001/xml-events"
		xmlns:v="http://schemas.microsoft.com/visio/2003/SVGExtensions/" width="7.56992in" height="2.98055in"
		viewBox="0 0 545.034 214.6" xml:space="preserve" color-interpolation-filters="sRGB" class="st7">
	<v:documentProperties v:langID="1043" v:metric="true" v:viewMarkup="false"/>

	<style type="text/css">
	<![CDATA[
		.st1 {stroke:#000000;stroke-linecap:round;stroke-linejoin:round;stroke-opacity:0.5;stroke-width:2}
		.st2 {marker-start:url(#mrkr5-27);stroke:#800000;stroke-linecap:round;stroke-linejoin:round;stroke-width:2}
		.st3 {fill:#800000;fill-opacity:1;stroke:#800000;stroke-opacity:1;stroke-width:0.44247787610619}
		.st4 {marker-end:url(#mrkr5-48);stroke:#800000;stroke-linecap:round;stroke-linejoin:round;stroke-width:2}
		.st5 {fill:none;stroke:none;stroke-linecap:round;stroke-linejoin:round;stroke-width:0.75}
		.st6 {fill:#000000;font-family:Times New Roman;font-size:1.00001em}
		.st7 {fill:none;fill-rule:evenodd;font-size:12px;overflow:visible;stroke-linecap:square;stroke-miterlimit:3}
	]]>
	</style>

	<defs id="Markers">
		<g id="lend5">
			<path d="M 2 1 L 0 0 L 1.98117 -0.993387 C 1.67173 -0.364515 1.67301 0.372641 1.98465 1.00043 " style="stroke:none"/>
		</g>
		<marker id="mrkr5-27" class="st3" v:arrowType="5" v:arrowSize="2" v:setback="3.775" refX="3.775" orient="auto"
				markerUnits="strokeWidth" overflow="visible">
			<use xlink:href="#lend5" transform="scale(2.26) "/>
		</marker>
		<marker id="mrkr5-48" class="st3" v:arrowType="5" v:arrowSize="2" v:setback="3.775" refX="-3.775" orient="auto"
				markerUnits="strokeWidth" overflow="visible">
			<use xlink:href="#lend5" transform="scale(-2.26,-2.26) "/>
		</marker>
	</defs>
	<g v:mID="0" v:index="1" v:groupContext="foregroundPage">
		<title>Pagina-1</title>
		<v:pageProperties v:drawingScale="0.0393701" v:pageScale="0.0393701" v:drawingUnits="24" v:shadowOffsetX="8.50394"
				v:shadowOffsetY="-8.50394"/>
		<g id="shape550-1" v:mID="550" v:groupContext="shape" transform="translate(38.4535,-176.146)">
			<title>Ligger, 2 pt.550</title>
			<path d="M0 214.6 L85.04 214.6" class="st1"/>
		</g>
		<g id="shape551-4" v:mID="551" v:groupContext="shape" transform="translate(399.871,-176.146)">
			<title>Ligger, 2 pt.551</title>
			<path d="M0 214.6 L85.04 214.6" class="st1"/>
		</g>
		<g id="shape552-7" v:mID="552" v:groupContext="shape" transform="translate(548.455,-1.09099) rotate(59.0362)">
			<title>Ligger, 2 pt.552</title>
			<path d="M0 214.6 L82.64 214.6" class="st1"/>
		</g>
		<g id="shape553-10" v:mID="553" v:groupContext="shape" transform="translate(513.022,219.73) rotate(120.964)">
			<title>Ligger, 2 pt.553</title>
			<path d="M0 214.6 L82.64 214.6" class="st1"/>
		</g>
		<g id="shape554-13" v:mID="554" v:groupContext="shape" transform="translate(704.361,219.73) rotate(120.964)">
			<title>Ligger, 2 pt.554</title>
			<path d="M0 214.6 L82.64 214.6" class="st1"/>
		</g>
		<g id="shape555-16" v:mID="555" v:groupContext="shape" transform="translate(357.117,-1.09099) rotate(59.0362)">
			<title>Ligger, 2 pt.555</title>
			<path d="M0 214.6 L82.64 214.6" class="st1"/>
		</g>
		<g id="shape556-19" v:mID="556" v:groupContext="shape" transform="translate(208.532,-176.146)">
			<title>Ligger, 2 pt.556</title>
			<path d="M0 214.6 L85.04 214.6" class="st1"/>
		</g>
		<g id="shape557-22" v:mID="557" v:groupContext="shape" transform="translate(10.107,-176.146)">
			<title>Kracht.557</title>
			<path d="M7.55 214.6 L7.91 214.6 L28.35 214.6" class="st2"/>
		</g>
		<g id="shape558-28" v:mID="558" v:groupContext="shape" transform="translate(253.053,38.4535) rotate(90)">
			<title>Kracht.558</title>
			<path d="M7.55 214.6 L7.91 214.6 L28.35 214.6" class="st2"/>
		</g>
		<g id="shape559-33" v:mID="559" v:groupContext="shape" transform="translate(-91.1068,38.4535) rotate(-90)">
			<title>Kracht.559</title>
			<path d="M7.55 214.6 L7.91 214.6 L28.35 214.6" class="st2"/>
		</g>
		<g id="shape560-38" v:mID="560" v:groupContext="shape" transform="translate(151.839,253.053) rotate(180)">
			<title>Kracht.560</title>
			<path d="M7.55 214.6 L7.91 214.6 L28.35 214.6" class="st2"/>
		</g>
		<g id="shape561-43" v:mID="561" v:groupContext="shape" transform="translate(338.093,52.6267) rotate(90) scale(-1,1)">
			<title>Moment.561</title>
			<path d="M-0 214.6 A14.1732 14.1732 0 0 1 14.17 200.43 A14.1732 14.1732 0 0 1 26.14 207 L26.24 207.35" class="st4"/>
		</g>
		<g id="shape562-49" v:mID="562" v:groupContext="shape" transform="translate(423.132,38.4535) rotate(90)">
			<title>Kracht.562</title>
			<path d="M7.55 214.6 L7.91 214.6 L28.35 214.6" class="st2"/>
		</g>
		<g id="shape563-54" v:mID="563" v:groupContext="shape" transform="translate(180.186,-176.146)">
			<title>Kracht.563</title>
			<path d="M7.55 214.6 L7.91 214.6 L28.35 214.6" class="st2"/>
		</g>
		<g id="shape564-59" v:mID="564" v:groupContext="shape" transform="translate(-6.06747,52.6267) rotate(-90)">
			<title>Moment.564</title>
			<path d="M-0 214.6 A14.1732 14.1732 0 0 1 14.17 200.43 A14.1732 14.1732 0 0 1 26.14 207 L26.24 207.35" class="st4"/>
		</g>
		<g id="shape565-64" v:mID="565" v:groupContext="shape" transform="translate(342.533,-25.398) rotate(59.0362)">
			<title>Kracht.565</title>
			<path d="M7.55 214.6 L7.91 214.6 L28.35 214.6" class="st2"/>
		</g>
		<g id="shape566-69" v:mID="566" v:groupContext="shape" transform="translate(307.817,278.753) rotate(149.036)">
			<title>Kracht.566</title>
			<path d="M7.55 214.6 L7.91 214.6 L28.35 214.6" class="st2"/>
		</g>
		<g id="shape567-74" v:mID="567" v:groupContext="shape" transform="translate(321.918,253.053) rotate(180)">
			<title>Kracht.567</title>
			<path d="M7.55 214.6 L7.91 214.6 L28.35 214.6" class="st2"/>
		</g>
		<g id="shape568-79" v:mID="568" v:groupContext="shape" transform="translate(78.9719,38.4535) rotate(-90)">
			<title>Kracht.568</title>
			<path d="M7.55 214.6 L7.91 214.6 L28.35 214.6" class="st2"/>
		</g>
		<g id="shape569-84" v:mID="569" v:groupContext="shape" transform="translate(371.524,-176.146)">
			<title>Kracht.569</title>
			<path d="M7.55 214.6 L7.91 214.6 L28.35 214.6" class="st2"/>
		</g>
		<g id="shape570-89" v:mID="570" v:groupContext="shape" transform="translate(513.257,253.053) rotate(180)">
			<title>Kracht.570</title>
			<path d="M7.55 214.6 L7.91 214.6 L28.35 214.6" class="st2"/>
		</g>
		<g id="shape571-94" v:mID="571" v:groupContext="shape" transform="translate(718.945,195.424) rotate(120.964)">
			<title>Kracht.571</title>
			<path d="M7.55 214.6 L7.91 214.6 L28.35 214.6" class="st2"/>
		</g>
		<g id="shape572-99" v:mID="572" v:groupContext="shape" transform="translate(606.447,-89.2822) rotate(30.9638)">
			<title>Kracht.572</title>
			<path d="M7.55 214.6 L7.91 214.6 L28.35 214.6" class="st2"/>
		</g>
		<g id="shape573-104" v:mID="573" v:groupContext="shape" transform="translate(533.871,-25.398) rotate(59.0362)">
			<title>Kracht.573</title>
			<path d="M7.55 214.6 L7.91 214.6 L28.35 214.6" class="st2"/>
		</g>
		<g id="shape574-109" v:mID="574" v:groupContext="shape" transform="translate(229.72,-60.1138) rotate(-30.9638)">
			<title>Kracht.574</title>
			<path d="M7.55 214.6 L7.91 214.6 L28.35 214.6" class="st2"/>
		</g>
		<g id="shape575-114" v:mID="575" v:groupContext="shape" transform="translate(527.606,195.424) rotate(120.964)">
			<title>Kracht.575</title>
			<path d="M7.55 214.6 L7.91 214.6 L28.35 214.6" class="st2"/>
		</g>
		<g id="shape576-119" v:mID="576" v:groupContext="shape" transform="translate(415.109,-89.2821) rotate(30.9638)">
			<title>Kracht.576</title>
			<path d="M7.55 214.6 L7.91 214.6 L28.35 214.6" class="st2"/>
		</g>
		<g id="shape577-124" v:mID="577" v:groupContext="shape" transform="translate(279.222,94.0819) rotate(-59.0362)">
			<title>Kracht.577</title>
			<path d="M7.55 214.6 L7.91 214.6 L28.35 214.6" class="st2"/>
		</g>
		<g id="shape578-129" v:mID="578" v:groupContext="shape" transform="translate(563.927,-18.416) rotate(30.9638)">
			<title>Kracht.578</title>
			<path d="M7.55 214.6 L7.91 214.6 L28.35 214.6" class="st2"/>
		</g>
		<g id="shape579-134" v:mID="579" v:groupContext="shape" transform="translate(237.524,314.903) rotate(-120.964)">
			<title>Kracht.579</title>
			<path d="M7.55 214.6 L7.91 214.6 L28.35 214.6" class="st2"/>
		</g>
		<g id="shape580-139" v:mID="580" v:groupContext="shape" transform="translate(541.675,349.619) rotate(149.036)">
			<title>Kracht.580</title>
			<path d="M7.55 214.6 L7.91 214.6 L28.35 214.6" class="st2"/>
		</g>
		<g id="shape581-144" v:mID="581" v:groupContext="shape" transform="translate(379.442,371.495) rotate(-149.036)">
			<title>Moment.581</title>
			<path d="M-0 214.6 A14.1732 14.1732 0 0 1 14.17 200.43 A14.1732 14.1732 0 0 1 26.14 207 L26.24 207.35" class="st4"/>
		</g>
		<g id="shape582-149" v:mID="582" v:groupContext="shape" transform="translate(529.929,356.911) rotate(149.036)">
			<title>Moment.582</title>
			<path d="M-0 214.6 A14.1732 14.1732 0 0 1 14.17 200.43 A14.1732 14.1732 0 0 1 26.14 207 L26.24 207.35" class="st4"/>
		</g>
		<g id="shape583-154" v:mID="583" v:groupContext="shape" transform="translate(46.1854,314.903) rotate(-120.964)">
			<title>Kracht.583</title>
			<path d="M7.55 214.6 L7.91 214.6 L28.35 214.6" class="st2"/>
		</g>
		<g id="shape584-159" v:mID="584" v:groupContext="shape" transform="translate(350.336,349.619) rotate(149.036)">
			<title>Kracht.584</title>
			<path d="M7.55 214.6 L7.91 214.6 L28.35 214.6" class="st2"/>
		</g>
		<g id="shape585-164" v:mID="585" v:groupContext="shape" transform="translate(338.466,356.628) rotate(149.036)">
			<title>Moment.585</title>
			<path d="M-0 214.6 A14.1732 14.1732 0 0 1 14.17 200.43 A14.1732 14.1732 0 0 1 26.14 207 L26.24 207.35" class="st4"/>
		</g>
		<g id="shape586-169" v:mID="586" v:groupContext="shape" transform="translate(87.8832,94.0819) rotate(-59.0362)">
			<title>Kracht.586</title>
			<path d="M7.55 214.6 L7.91 214.6 L28.35 214.6" class="st2"/>
		</g>
		<g id="shape587-174" v:mID="587" v:groupContext="shape" transform="translate(372.589,-18.416) rotate(30.9638)">
			<title>Kracht.587</title>
			<path d="M7.55 214.6 L7.91 214.6 L28.35 214.6" class="st2"/>
		</g>
		<g id="shape588-179" v:mID="588" v:groupContext="shape" transform="translate(187.82,371.496) rotate(-149.036)">
			<title>Moment.588</title>
			<path d="M-0 214.6 A14.1732 14.1732 0 0 1 14.17 200.43 A14.1732 14.1732 0 0 1 26.14 207 L26.24 207.35" class="st4"/>
		</g>
		<g id="shape589-184" v:mID="589" v:groupContext="shape" transform="translate(15.7763,-148.154)">
			<title>Blad.589</title>
			<desc>2</desc>
			<v:textBlock v:margins="rect(4,4,4,4)" v:tabSpace="42.5197"/>
			<v:textRect cx="10.9843" cy="203.438" width="21.97" height="22.3228"/>
			<rect x="0" y="192.277" width="21.9685" height="22.3228" class="st5"/>
			<text x="7.98" y="207.04" class="st6" v:langID="1043"><v:paragraph v:horizAlign="1"/><v:tabList/>2</text>		</g>
		<g id="shape590-187" v:mID="590" v:groupContext="shape" transform="translate(134.831,-181.993)">
			<title>Blad.590</title>
			<desc>3</desc>
			<v:textBlock v:margins="rect(4,4,4,4)" v:tabSpace="42.5197"/>
			<v:textRect cx="10.9843" cy="203.438" width="21.97" height="22.3228"/>
			<rect x="0" y="192.277" width="21.9685" height="22.3228" class="st5"/>
			<text x="7.98" y="207.04" class="st6" v:langID="1043"><v:paragraph v:horizAlign="1"/><v:tabList/>3</text>		</g>
		<g id="shape591-190" v:mID="591" v:groupContext="shape" transform="translate(175.225,-181.993)">
			<title>Blad.591</title>
			<desc>3</desc>
			<v:textBlock v:margins="rect(4,4,4,4)" v:tabSpace="42.5197"/>
			<v:textRect cx="10.9843" cy="203.438" width="21.97" height="22.3228"/>
			<rect x="0" y="192.277" width="21.9685" height="22.3228" class="st5"/>
			<text x="7.98" y="207.04" class="st6" v:langID="1043"><v:paragraph v:horizAlign="1"/><v:tabList/>3</text>		</g>
		<g id="shape592-193" v:mID="592" v:groupContext="shape" transform="translate(297.172,-181.993)">
			<title>Blad.592</title>
			<desc>2</desc>
			<v:textBlock v:margins="rect(4,4,4,4)" v:tabSpace="42.5197"/>
			<v:textRect cx="10.9843" cy="203.438" width="21.97" height="22.3228"/>
			<rect x="0" y="192.277" width="21.9685" height="22.3228" class="st5"/>
			<text x="7.98" y="207.04" class="st6" v:langID="1043"><v:paragraph v:horizAlign="1"/><v:tabList/>2</text>		</g>
		<g id="shape593-196" v:mID="593" v:groupContext="shape" transform="translate(379.022,-179.158)">
			<title>Blad.593</title>
			<desc>1</desc>
			<v:textBlock v:margins="rect(4,4,4,4)" v:tabSpace="42.5197"/>
			<v:textRect cx="10.9843" cy="203.438" width="21.97" height="22.3228"/>
			<rect x="0" y="192.277" width="21.9685" height="22.3228" class="st5"/>
			<text x="7.98" y="207.04" class="st6" v:langID="1043"><v:paragraph v:horizAlign="1"/><v:tabList/>1</text>		</g>
		<g id="shape594-199" v:mID="594" v:groupContext="shape" transform="translate(489.573,-179.158)">
			<title>Blad.594</title>
			<desc>1</desc>
			<v:textBlock v:margins="rect(4,4,4,4)" v:tabSpace="42.5197"/>
			<v:textRect cx="10.9843" cy="203.438" width="21.97" height="22.3228"/>
			<rect x="0" y="192.277" width="21.9685" height="22.3228" class="st5"/>
			<text x="7.98" y="207.04" class="st6" v:langID="1043"><v:paragraph v:horizAlign="1"/><v:tabList/>1</text>		</g>
		<g id="shape595-202" v:mID="595" v:groupContext="shape" transform="translate(167.132,-108.469)">
			<title>Blad.595</title>
			<desc>2</desc>
			<v:textBlock v:margins="rect(4,4,4,4)" v:tabSpace="42.5197"/>
			<v:textRect cx="10.9843" cy="203.438" width="21.97" height="22.3228"/>
			<rect x="0" y="192.277" width="21.9685" height="22.3228" class="st5"/>
			<text x="7.98" y="207.04" class="st6" v:langID="1043"><v:paragraph v:horizAlign="1"/><v:tabList/>2</text>		</g>
		<g id="shape596-205" v:mID="596" v:groupContext="shape" transform="translate(314.179,-110.949)">
			<title>Blad.596</title>
			<desc>2</desc>
			<v:textBlock v:margins="rect(4,4,4,4)" v:tabSpace="42.5197"/>
			<v:textRect cx="10.9843" cy="203.438" width="21.97" height="22.3228"/>
			<rect x="0" y="192.277" width="21.9685" height="22.3228" class="st5"/>
			<text x="7.98" y="207.04" class="st6" v:langID="1043"><v:paragraph v:horizAlign="1"/><v:tabList/>2</text>		</g>
		<g id="shape597-208" v:mID="597" v:groupContext="shape" transform="translate(359.888,-108.115)">
			<title>Blad.597</title>
			<desc>2</desc>
			<v:textBlock v:margins="rect(4,4,4,4)" v:tabSpace="42.5197"/>
			<v:textRect cx="10.9843" cy="203.438" width="21.97" height="22.3228"/>
			<rect x="0" y="192.277" width="21.9685" height="22.3228" class="st5"/>
			<text x="7.98" y="207.04" class="st6" v:langID="1043"><v:paragraph v:horizAlign="1"/><v:tabList/>2</text>		</g>
		<g id="shape598-211" v:mID="598" v:groupContext="shape" transform="translate(506.581,-108.115)">
			<title>Blad.598</title>
			<desc>2</desc>
			<v:textBlock v:margins="rect(4,4,4,4)" v:tabSpace="42.5197"/>
			<v:textRect cx="10.9843" cy="203.438" width="21.97" height="22.3228"/>
			<rect x="0" y="192.277" width="21.9685" height="22.3228" class="st5"/>
			<text x="7.98" y="207.04" class="st6" v:langID="1043"><v:paragraph v:horizAlign="1"/><v:tabList/>2</text>		</g>
		<g id="shape599-214" v:mID="599" v:groupContext="shape" transform="translate(463.526,-37.0714)">
			<title>Blad.599</title>
			<desc>3</desc>
			<v:textBlock v:margins="rect(4,4,4,4)" v:tabSpace="42.5197"/>
			<v:textRect cx="10.9843" cy="203.438" width="21.97" height="22.3228"/>
			<rect x="0" y="192.277" width="21.9685" height="22.3228" class="st5"/>
			<text x="7.98" y="207.04" class="st6" v:langID="1043"><v:paragraph v:horizAlign="1"/><v:tabList/>3</text>		</g>
		<g id="shape600-217" v:mID="600" v:groupContext="shape" transform="translate(399.57,-40.4375)">
			<title>Blad.600</title>
			<desc>3</desc>
			<v:textBlock v:margins="rect(4,4,4,4)" v:tabSpace="42.5197"/>
			<v:textRect cx="10.9843" cy="203.438" width="21.97" height="22.3228"/>
			<rect x="0" y="192.277" width="21.9685" height="22.3228" class="st5"/>
			<text x="7.98" y="207.04" class="st6" v:langID="1043"><v:paragraph v:horizAlign="1"/><v:tabList/>3</text>		</g>
		<g id="shape601-220" v:mID="601" v:groupContext="shape" transform="translate(271.904,-39.906)">
			<title>Blad.601</title>
			<desc>3</desc>
			<v:textBlock v:margins="rect(4,4,4,4)" v:tabSpace="42.5197"/>
			<v:textRect cx="10.9843" cy="203.438" width="21.97" height="22.3228"/>
			<rect x="0" y="192.277" width="21.9685" height="22.3228" class="st5"/>
			<text x="7.98" y="207.04" class="st6" v:langID="1043"><v:paragraph v:horizAlign="1"/><v:tabList/>3</text>		</g>
		<g id="shape602-223" v:mID="602" v:groupContext="shape" transform="translate(208.107,-40.4375)">
			<title>Blad.602</title>
			<desc>3</desc>
			<v:textBlock v:margins="rect(4,4,4,4)" v:tabSpace="42.5197"/>
			<v:textRect cx="10.9843" cy="203.438" width="21.97" height="22.3228"/>
			<rect x="0" y="192.277" width="21.9685" height="22.3228" class="st5"/>
			<text x="7.98" y="207.04" class="st6" v:langID="1043"><v:paragraph v:horizAlign="1"/><v:tabList/>3</text>		</g>
	</g>
</svg>
