<?xml version="1.0" encoding="UTF-8" standalone="no"?>
<!DOCTYPE svg PUBLIC "-//W3C//DTD SVG 1.1//EN" "http://www.w3.org/Graphics/SVG/1.1/DTD/svg11.dtd">
<!-- Gegenereerd door Microsoft Visio, SVG Export Onbekenden.svg Pagina-1 -->
<svg xmlns="http://www.w3.org/2000/svg" xmlns:xlink="http://www.w3.org/1999/xlink" xmlns:ev="http://www.w3.org/2001/xml-events"
		xmlns:v="http://schemas.microsoft.com/visio/2003/SVGExtensions/" width="5.47516in" height="3.33794in"
		viewBox="0 0 394.211 240.331" xml:space="preserve" color-interpolation-filters="sRGB" class="st7">
	<v:documentProperties v:langID="1043" v:metric="true" v:viewMarkup="false"/>

	<style type="text/css">
	<![CDATA[
		.st1 {stroke:#000000;stroke-linecap:round;stroke-linejoin:round;stroke-opacity:0.5;stroke-width:2}
		.st2 {marker-start:url(#mrkr5-15);stroke:#800000;stroke-linecap:round;stroke-linejoin:round;stroke-width:2}
		.st3 {fill:#800000;fill-opacity:1;stroke:#800000;stroke-opacity:1;stroke-width:0.44247787610619}
		.st4 {fill:none;stroke:none;stroke-linecap:round;stroke-linejoin:round;stroke-width:0.24}
		.st5 {fill:#000000;font-family:Times New Roman;font-size:1.00001em}
		.st6 {fill:#ffffff;stroke:#000000;stroke-linecap:round;stroke-linejoin:round;stroke-opacity:0.5;stroke-width:0.75}
		.st7 {fill:none;fill-rule:evenodd;font-size:12px;overflow:visible;stroke-linecap:square;stroke-miterlimit:3}
	]]>
	</style>

	<defs id="Markers">
		<g id="lend5">
			<path d="M 2 1 L 0 0 L 1.98117 -0.993388 C 1.67173 -0.364516 1.67301 0.37264 1.98465 1.00043 " style="stroke:none"/>
		</g>
		<marker id="mrkr5-15" class="st3" v:arrowType="5" v:arrowSize="2" v:setback="3.775" refX="3.775" orient="auto"
				markerUnits="strokeWidth" overflow="visible">
			<use xlink:href="#lend5" transform="scale(2.26) "/>
		</marker>
	</defs>
	<g v:mID="0" v:index="1" v:groupContext="foregroundPage">
		<title>Pagina-1</title>
		<v:pageProperties v:drawingScale="0.0393701" v:pageScale="0.0393701" v:drawingUnits="24" v:shadowOffsetX="8.50394"
				v:shadowOffsetY="-8.50394"/>
		<g id="shape3346-1" v:mID="3346" v:groupContext="shape" transform="translate(-167.34,57.0861) rotate(-52.8052)">
			<title>Ligger, 2 pt.3346</title>
			<path d="M0 240.33 L157.71 240.33" class="st1"/>
		</g>
		<g id="shape3347-4" v:mID="3347" v:groupContext="shape" transform="translate(-68.8257,201.747) rotate(-90)">
			<title>Ligger, 2 pt.3347</title>
			<path d="M0 240.33 L109.13 240.33" class="st1"/>
		</g>
		<g id="shape3348-7" v:mID="3348" v:groupContext="shape" transform="translate(362.136,250.74) rotate(180)">
			<title>Ligger, 2 pt.3348</title>
			<path d="M0 240.33 L112.68 240.33" class="st1"/>
		</g>
		<g id="shape3393-10" v:mID="3393" v:groupContext="shape" transform="translate(-68.8257,230.224) rotate(-90)">
			<title>Kracht.3393</title>
			<path d="M7.55 240.33 L7.91 240.33 L28.35 240.33" class="st2"/>
		</g>
		<g id="shape3401-16" v:mID="3401" v:groupContext="shape" transform="translate(384.104,250.74) rotate(180)">
			<title>Kracht.3984</title>
			<path d="M7.55 240.33 L7.91 240.33 L21.26 240.33" class="st2"/>
		</g>
		<g id="shape3402-21" v:mID="3402" v:groupContext="shape" transform="translate(367.066,-200.868)">
			<title>Punt A.4077</title>
			<desc>1</desc>
			<v:textBlock v:margins="rect(4,4,4,4)" v:tabSpace="42.5197"/>
			<v:textRect cx="7.08661" cy="233.245" width="14.18" height="14.1732"/>
			<rect x="0" y="226.158" width="14.1732" height="14.1732" class="st4"/>
			<text x="4.09" y="236.84" class="st5" v:langID="1043"><v:paragraph v:horizAlign="1"/><v:tabList/>1</text>		</g>
		<g id="shape3403-24" v:mID="3403" v:groupContext="shape" transform="translate(176.775,-8.04272)">
			<title>Punt A.3403</title>
			<desc>1</desc>
			<v:textBlock v:margins="rect(4,4,4,4)" v:tabSpace="42.5197"/>
			<v:textRect cx="7.08661" cy="233.245" width="14.18" height="14.1732"/>
			<rect x="0" y="226.158" width="14.1732" height="14.1732" class="st4"/>
			<text x="4.09" y="236.84" class="st5" v:langID="1043"><v:paragraph v:horizAlign="1"/><v:tabList/>1</text>		</g>
		<g id="shape3406-27" v:mID="3406" v:groupContext="shape" transform="translate(18.4349,-17.3244)">
			<title>Punt A.3406</title>
			<desc>1</desc>
			<v:textBlock v:margins="rect(4,4,4,4)" v:tabSpace="42.5197"/>
			<v:textRect cx="7.08661" cy="233.245" width="14.18" height="14.1732"/>
			<rect x="0" y="226.158" width="14.1732" height="14.1732" class="st4"/>
			<text x="4.09" y="236.84" class="st5" v:langID="1043"><v:paragraph v:horizAlign="1"/><v:tabList/>1</text>		</g>
		<g id="shape3408-30" v:mID="3408" v:groupContext="shape" transform="translate(-32.5026,-118.515) rotate(-52.8052)">
			<title>Ligger, 2 pt.3408</title>
			<path d="M0 240.33 L17.27 240.33" class="st1"/>
		</g>
		<g id="shape3409-33" v:mID="3409" v:groupContext="shape" transform="translate(-68.8257,30.2512) rotate(-90)">
			<title>Ligger, 2 pt.3409</title>
			<path d="M0 240.33 L18.55 240.33" class="st1"/>
		</g>
		<g id="shape3410-36" v:mID="3410" v:groupContext="shape" transform="translate(188.393,250.461) rotate(180)">
			<title>Ligger, 2 pt.3410</title>
			<path d="M0 240.33 L14.83 240.33" class="st1"/>
		</g>
		<g id="shape3364-39" v:mID="3364" v:groupContext="shape" transform="translate(169.38,-227.531)">
			<title>Scharnier.3364</title>
			<ellipse cx="2.12598" cy="238.205" rx="2.12598" ry="2.12598" class="st6"/>
		</g>
		<g id="shape3411-41" v:mID="3411" v:groupContext="shape" transform="translate(327.376,200.305) rotate(127.195)">
			<title>Kracht.3411</title>
			<path d="M7.55 240.33 L7.91 240.33 L27.27 240.33" class="st2"/>
		</g>
		<g id="shape5698-46" v:mID="5698" v:groupContext="shape" transform="translate(-40.4155,-109.665) rotate(-49.7975)">
			<title>Kracht.5698</title>
			<path d="M7.55 240.33 L7.91 240.33 L24.48 240.33" class="st2"/>
		</g>
		<g id="shape5699-51" v:mID="5699" v:groupContext="shape" transform="translate(-68.8257,58.5976) rotate(-90)">
			<title>Kracht.5699</title>
			<path d="M7.55 240.33 L7.91 240.33 L28.35 240.33" class="st2"/>
		</g>
		<g id="shape5700-56" v:mID="5700" v:groupContext="shape" transform="translate(-68.8257,64.2669) rotate(-90) scale(-1,1)">
			<title>Kracht.5700</title>
			<path d="M7.55 240.33 L7.91 240.33 L28.35 240.33" class="st2"/>
		</g>
		<g id="shape5701-61" v:mID="5701" v:groupContext="shape" transform="translate(214.756,250.438) rotate(179.95)">
			<title>Kracht.5701</title>
			<path d="M7.55 240.33 L7.91 240.33 L26.15 240.33" class="st2"/>
		</g>
		<g id="shape5702-66" v:mID="5702" v:groupContext="shape" transform="translate(222.529,250.74) scale(1,-1)">
			<title>Kracht.5702</title>
			<path d="M7.55 240.33 L7.91 240.33 L26.93 240.33" class="st2"/>
		</g>
		<g id="shape5703-71" v:mID="5703" v:groupContext="shape" transform="translate(-181.337,75.5301) rotate(-52.8052)">
			<title>Kracht.5703</title>
			<path d="M7.55 240.33 L7.91 240.33 L23.15 240.33" class="st2"/>
		</g>
		<g id="shape5727-76" v:mID="5727" v:groupContext="shape" transform="translate(175.685,-171.035)">
			<title>Punt A.5727</title>
			<desc>1</desc>
			<v:textBlock v:margins="rect(4,4,4,4)" v:tabSpace="42.5197"/>
			<v:textRect cx="7.08661" cy="233.245" width="14.18" height="14.1732"/>
			<rect x="0" y="226.158" width="14.1732" height="14.1732" class="st4"/>
			<text x="4.09" y="236.84" class="st5" v:langID="1043"><v:paragraph v:horizAlign="1"/><v:tabList/>1</text>		</g>
		<g id="shape5728-79" v:mID="5728" v:groupContext="shape" transform="translate(140.252,-174.306)">
			<title>Punt A.5728</title>
			<desc>1</desc>
			<v:textBlock v:margins="rect(4,4,4,4)" v:tabSpace="42.5197"/>
			<v:textRect cx="7.08661" cy="233.245" width="14.18" height="14.1732"/>
			<rect x="0" y="226.158" width="14.1732" height="14.1732" class="st4"/>
			<text x="4.09" y="236.84" class="st5" v:langID="1043"><v:paragraph v:horizAlign="1"/><v:tabList/>1</text>		</g>
		<g id="shape5729-82" v:mID="5729" v:groupContext="shape" transform="translate(211.118,-211.374)">
			<title>Punt A.5729</title>
			<desc>1</desc>
			<v:textBlock v:margins="rect(4,4,4,4)" v:tabSpace="42.5197"/>
			<v:textRect cx="7.08661" cy="233.245" width="14.18" height="14.1732"/>
			<rect x="0" y="226.158" width="14.1732" height="14.1732" class="st4"/>
			<text x="4.09" y="236.84" class="st5" v:langID="1043"><v:paragraph v:horizAlign="1"/><v:tabList/>1</text>		</g>
	</g>
</svg>
