<?xml version="1.0" encoding="UTF-8" standalone="no"?>
<!DOCTYPE svg PUBLIC "-//W3C//DTD SVG 1.1//EN" "http://www.w3.org/Graphics/SVG/1.1/DTD/svg11.dtd">
<!-- Gegenereerd door Microsoft Visio, SVG Export Vergelijkingen.svg Pagina-1 -->
<svg xmlns="http://www.w3.org/2000/svg" xmlns:xlink="http://www.w3.org/1999/xlink" xmlns:ev="http://www.w3.org/2001/xml-events"
		xmlns:v="http://schemas.microsoft.com/visio/2003/SVGExtensions/" width="5.47516in" height="3.50183in"
		viewBox="0 0 394.211 252.132" xml:space="preserve" color-interpolation-filters="sRGB" class="st7">
	<v:documentProperties v:langID="1043" v:metric="true" v:viewMarkup="false"/>

	<style type="text/css">
	<![CDATA[
		.st1 {stroke:#000000;stroke-linecap:round;stroke-linejoin:round;stroke-width:2}
		.st2 {marker-start:url(#mrkr5-15);stroke:#800000;stroke-linecap:round;stroke-linejoin:round;stroke-opacity:0.5;stroke-width:2}
		.st3 {fill:#800000;fill-opacity:0.5;stroke:#800000;stroke-opacity:0.5;stroke-width:0.44247787610619}
		.st4 {fill:none;stroke:none;stroke-linecap:round;stroke-linejoin:round;stroke-width:0.24}
		.st5 {fill:#000000;font-family:Times New Roman;font-size:1.00001em}
		.st6 {fill:#ffffff;stroke:#000000;stroke-linecap:round;stroke-linejoin:round;stroke-width:0.75}
		.st7 {fill:none;fill-rule:evenodd;font-size:12px;overflow:visible;stroke-linecap:square;stroke-miterlimit:3}
	]]>
	</style>

	<defs id="Markers">
		<g id="lend5">
			<path d="M 2 1 L 0 0 L 1.98117 -0.993388 C 1.67173 -0.364516 1.67301 0.37264 1.98465 1.00043 " style="stroke:none"/>
		</g>
		<marker id="mrkr5-15" class="st3" v:arrowType="5" v:arrowSize="2" v:setback="3.775" refX="3.775" orient="auto"
				markerUnits="strokeWidth" overflow="visible">
			<use xlink:href="#lend5" transform="scale(2.26) "/>
		</marker>
	</defs>
	<g v:mID="0" v:index="1" v:groupContext="foregroundPage">
		<title>Pagina-1</title>
		<v:pageProperties v:drawingScale="0.0393701" v:pageScale="0.0393701" v:drawingUnits="24" v:shadowOffsetX="8.50394"
				v:shadowOffsetY="-8.50394"/>
		<g id="shape5704-1" v:mID="5704" v:groupContext="shape" transform="translate(-176.74,61.7529) rotate(-52.8052)">
			<title>Ligger, 2 pt.5704</title>
			<path d="M0 252.13 L157.71 252.13" class="st1"/>
		</g>
		<g id="shape5705-4" v:mID="5705" v:groupContext="shape" transform="translate(-80.6262,213.548) rotate(-90)">
			<title>Ligger, 2 pt.5705</title>
			<path d="M0 252.13 L109.13 252.13" class="st1"/>
		</g>
		<g id="shape5706-7" v:mID="5706" v:groupContext="shape" transform="translate(362.136,274.341) rotate(180)">
			<title>Ligger, 2 pt.5706</title>
			<path d="M0 252.13 L112.68 252.13" class="st1"/>
		</g>
		<g id="shape5711-10" v:mID="5711" v:groupContext="shape" transform="translate(-80.6262,242.025) rotate(-90)">
			<title>Kracht.5711</title>
			<path d="M7.55 252.13 L7.91 252.13 L28.35 252.13" class="st2"/>
		</g>
		<g id="shape5712-16" v:mID="5712" v:groupContext="shape" transform="translate(384.104,274.341) rotate(180)">
			<title>Kracht.5712</title>
			<path d="M7.55 252.13 L7.91 252.13 L21.26 252.13" class="st2"/>
		</g>
		<g id="shape5713-21" v:mID="5713" v:groupContext="shape" transform="translate(295.984,-212.659)">
			<title>Punt A.5713</title>
			<desc>1</desc>
			<v:textBlock v:margins="rect(4,4,4,4)" v:tabSpace="42.5197"/>
			<v:textRect cx="7.08661" cy="245.045" width="14.18" height="14.1732"/>
			<rect x="0" y="237.959" width="14.1732" height="14.1732" class="st4"/>
			<text x="4.09" y="248.65" class="st5" v:langID="1043"><v:paragraph v:horizAlign="1"/><v:tabList/>1</text>		</g>
		<g id="shape5714-24" v:mID="5714" v:groupContext="shape" transform="translate(173.099,-85.4011)">
			<title>Punt A.5714</title>
			<desc>1</desc>
			<v:textBlock v:margins="rect(4,4,4,4)" v:tabSpace="42.5197"/>
			<v:textRect cx="7.08661" cy="245.045" width="14.18" height="14.1732"/>
			<rect x="0" y="237.959" width="14.1732" height="14.1732" class="st4"/>
			<text x="4.09" y="248.65" class="st5" v:langID="1043"><v:paragraph v:horizAlign="1"/><v:tabList/>1</text>		</g>
		<g id="shape5715-27" v:mID="5715" v:groupContext="shape" transform="translate(75.5451,-90.0512)">
			<title>Punt A.5715</title>
			<desc>1</desc>
			<v:textBlock v:margins="rect(4,4,4,4)" v:tabSpace="42.5197"/>
			<v:textRect cx="7.08661" cy="245.045" width="14.18" height="14.1732"/>
			<rect x="0" y="237.959" width="14.1732" height="14.1732" class="st4"/>
			<text x="4.09" y="248.65" class="st5" v:langID="1043"><v:paragraph v:horizAlign="1"/><v:tabList/>1</text>		</g>
		<g id="shape5716-30" v:mID="5716" v:groupContext="shape" transform="translate(-41.9027,-113.848) rotate(-52.8052)">
			<title>Ligger, 2 pt.5716</title>
			<path d="M0 252.13 L17.27 252.13" class="st1"/>
		</g>
		<g id="shape5717-33" v:mID="5717" v:groupContext="shape" transform="translate(-80.6262,42.0517) rotate(-90)">
			<title>Ligger, 2 pt.5717</title>
			<path d="M0 252.13 L18.55 252.13" class="st1"/>
		</g>
		<g id="shape5718-36" v:mID="5718" v:groupContext="shape" transform="translate(188.393,274.062) rotate(180)">
			<title>Ligger, 2 pt.5718</title>
			<path d="M0 252.13 L14.83 252.13" class="st1"/>
		</g>
		<g id="shape5719-39" v:mID="5719" v:groupContext="shape" transform="translate(169.38,-227.531)">
			<title>Scharnier.5719</title>
			<ellipse cx="2.12598" cy="250.006" rx="2.12598" ry="2.12598" class="st6"/>
		</g>
		<g id="shape5720-41" v:mID="5720" v:groupContext="shape" transform="translate(336.776,219.239) rotate(127.195)">
			<title>Kracht.5720</title>
			<path d="M7.55 252.13 L7.91 252.13 L27.27 252.13" class="st2"/>
		</g>
		<g id="shape5721-46" v:mID="5721" v:groupContext="shape" transform="translate(-49.4284,-105.482) rotate(-49.7975)">
			<title>Kracht.5721</title>
			<path d="M7.55 252.13 L7.91 252.13 L24.48 252.13" class="st2"/>
		</g>
		<g id="shape5722-51" v:mID="5722" v:groupContext="shape" transform="translate(-80.6262,70.3981) rotate(-90)">
			<title>Kracht.5722</title>
			<path d="M7.55 252.13 L7.91 252.13 L28.35 252.13" class="st2"/>
		</g>
		<g id="shape5723-56" v:mID="5723" v:groupContext="shape" transform="translate(-80.6262,76.0674) rotate(-90) scale(-1,1)">
			<title>Kracht.5723</title>
			<path d="M7.55 252.13 L7.91 252.13 L28.35 252.13" class="st2"/>
		</g>
		<g id="shape5724-61" v:mID="5724" v:groupContext="shape" transform="translate(214.766,274.039) rotate(179.95)">
			<title>Kracht.5724</title>
			<path d="M7.55 252.13 L7.91 252.13 L26.15 252.13" class="st2"/>
		</g>
		<g id="shape5725-66" v:mID="5725" v:groupContext="shape" transform="translate(222.529,274.341) scale(1,-1)">
			<title>Kracht.5725</title>
			<path d="M7.55 252.13 L7.91 252.13 L26.93 252.13" class="st2"/>
		</g>
		<g id="shape5726-71" v:mID="5726" v:groupContext="shape" transform="translate(-190.738,80.1969) rotate(-52.8052)">
			<title>Kracht.5726</title>
			<path d="M7.55 252.13 L7.91 252.13 L23.15 252.13" class="st2"/>
		</g>
		<g id="shape5730-76" v:mID="5730" v:groupContext="shape" transform="translate(157.117,-237.839)">
			<title>Punt A.5730</title>
			<desc>2</desc>
			<v:textBlock v:margins="rect(4,4,4,4)" v:tabSpace="42.5197"/>
			<v:textRect cx="7.08661" cy="245.045" width="14.18" height="14.1732"/>
			<rect x="0" y="237.959" width="14.1732" height="14.1732" class="st4"/>
			<text x="4.09" y="248.65" class="st5" v:langID="1043"><v:paragraph v:horizAlign="1"/><v:tabList/>2</text>		</g>
	</g>
</svg>
