<?xml version="1.0" encoding="UTF-8" standalone="no"?>
<!DOCTYPE svg PUBLIC "-//W3C//DTD SVG 1.1//EN" "http://www.w3.org/Graphics/SVG/1.1/DTD/svg11.dtd">
<!-- Gegenereerd door Microsoft Visio, SVG Export onbekenden.svg Pagina-1 -->
<svg xmlns="http://www.w3.org/2000/svg" xmlns:xlink="http://www.w3.org/1999/xlink" xmlns:ev="http://www.w3.org/2001/xml-events"
		xmlns:v="http://schemas.microsoft.com/visio/2003/SVGExtensions/" width="3.78377in" height="3.82406in"
		viewBox="0 0 272.432 275.332" xml:space="preserve" color-interpolation-filters="sRGB" class="st10">
	<v:documentProperties v:langID="1043" v:metric="true" v:viewMarkup="false"/>

	<style type="text/css">
	<![CDATA[
		.st1 {stroke:#000000;stroke-linecap:round;stroke-linejoin:round;stroke-opacity:0.5;stroke-width:2}
		.st2 {fill:#ffffff;stroke:#000000;stroke-linecap:round;stroke-linejoin:round;stroke-opacity:0.5;stroke-width:0.75}
		.st3 {marker-start:url(#mrkr5-37);stroke:#800000;stroke-linecap:round;stroke-linejoin:round;stroke-width:2}
		.st4 {fill:#800000;fill-opacity:1;stroke:#800000;stroke-opacity:1;stroke-width:0.44247787610619}
		.st5 {marker-end:url(#mrkr5-73);stroke:#800000;stroke-linecap:round;stroke-linejoin:round;stroke-width:2}
		.st6 {marker-start:url(#mrkr5-129);stroke:#800000;stroke-linecap:round;stroke-linejoin:round;stroke-opacity:0.5;stroke-width:2}
		.st7 {fill:#800000;fill-opacity:0.5;stroke:#800000;stroke-opacity:0.5;stroke-width:0.44247787610619}
		.st8 {fill:none;stroke:none;stroke-linecap:round;stroke-linejoin:round;stroke-width:0.24}
		.st9 {fill:#000000;font-family:Times New Roman;font-size:1.00001em}
		.st10 {fill:none;fill-rule:evenodd;font-size:12px;overflow:visible;stroke-linecap:square;stroke-miterlimit:3}
	]]>
	</style>

	<defs id="Markers">
		<g id="lend5">
			<path d="M 2 1 L 0 0 L 1.98117 -0.993387 C 1.67173 -0.364515 1.67301 0.372641 1.98465 1.00043 " style="stroke:none"/>
		</g>
		<marker id="mrkr5-37" class="st4" v:arrowType="5" v:arrowSize="2" v:setback="3.775" refX="3.775" orient="auto"
				markerUnits="strokeWidth" overflow="visible">
			<use xlink:href="#lend5" transform="scale(2.26) "/>
		</marker>
		<marker id="mrkr5-73" class="st4" v:arrowType="5" v:arrowSize="2" v:setback="3.775" refX="-3.775" orient="auto"
				markerUnits="strokeWidth" overflow="visible">
			<use xlink:href="#lend5" transform="scale(-2.26,-2.26) "/>
		</marker>
		<marker id="mrkr5-129" class="st7" v:arrowType="5" v:arrowSize="2" v:setback="3.775" refX="3.775" orient="auto"
				markerUnits="strokeWidth" overflow="visible">
			<use xlink:href="#lend5" transform="scale(2.26) "/>
		</marker>
	</defs>
	<g v:mID="0" v:index="1" v:groupContext="foregroundPage">
		<title>Pagina-1</title>
		<v:pageProperties v:drawingScale="0.0393701" v:pageScale="0.0393701" v:drawingUnits="24" v:shadowOffsetX="8.50394"
				v:shadowOffsetY="-8.50394"/>
		<g id="shape126-1" v:mID="126" v:groupContext="shape" transform="translate(-253.952,236.879) rotate(-90)">
			<title>Ligger, 2 pt.126</title>
			<path d="M0 275.33 L14.17 275.33" class="st1"/>
		</g>
		<g id="shape127-4" v:mID="127" v:groupContext="shape" transform="translate(21.3798,-137.666)">
			<title>Ligger, 2 pt.127</title>
			<path d="M0 275.33 L14.17 275.33" class="st1"/>
		</g>
		<g id="shape128-7" v:mID="128" v:groupContext="shape" transform="translate(-253.952,151.839) rotate(-90)">
			<title>Ligger, 2 pt.128</title>
			<path d="M0 275.33 L14.17 275.33" class="st1"/>
		</g>
		<g id="shape129-10" v:mID="129" v:groupContext="shape" transform="translate(19.2539,-135.54)">
			<title>Scharnier.129</title>
			<ellipse cx="2.12598" cy="273.206" rx="2.12598" ry="2.12598" class="st2"/>
		</g>
		<g id="shape130-12" v:mID="130" v:groupContext="shape" transform="translate(78.0728,-137.666)">
			<title>Ligger, 2 pt.130</title>
			<path d="M0 275.33 L14.17 275.33" class="st1"/>
		</g>
		<g id="shape131-15" v:mID="131" v:groupContext="shape" transform="translate(92.246,-137.666)">
			<title>Ligger, 2 pt.131</title>
			<path d="M0 275.33 L14.17 275.33" class="st1"/>
		</g>
		<g id="shape132-18" v:mID="132" v:groupContext="shape" transform="translate(-83.8736,137.666) rotate(-90)">
			<title>Ligger, 2 pt.132</title>
			<path d="M0 275.33 L14.17 275.33" class="st1"/>
		</g>
		<g id="shape133-21" v:mID="133" v:groupContext="shape" transform="translate(177.285,-137.666)">
			<title>Ligger, 2 pt.133</title>
			<path d="M0 275.33 L14.17 275.33" class="st1"/>
		</g>
		<g id="shape134-24" v:mID="134" v:groupContext="shape" transform="translate(191.459,-137.666)">
			<title>Ligger, 2 pt.134</title>
			<path d="M0 275.33 L14.17 275.33" class="st1"/>
		</g>
		<g id="shape135-27" v:mID="135" v:groupContext="shape" transform="translate(189.333,-137.666)">
			<title>Scharnier.135</title>
			<ellipse cx="2.12598" cy="273.206" rx="2.12598" ry="2.12598" class="st2"/>
		</g>
		<g id="shape136-29" v:mID="136" v:groupContext="shape" transform="translate(248.152,-137.666)">
			<title>Ligger, 2 pt.136</title>
			<path d="M0 275.33 L14.17 275.33" class="st1"/>
		</g>
		<g id="shape137-32" v:mID="137" v:groupContext="shape" transform="translate(-253.952,180.186) rotate(-90)">
			<title>Kracht.137</title>
			<path d="M7.55 275.33 L7.91 275.33 L28.35 275.33" class="st3"/>
		</g>
		<g id="shape138-38" v:mID="138" v:groupContext="shape" transform="translate(296.712,236.879) rotate(90)">
			<title>Kracht.138</title>
			<path d="M7.55 275.33 L7.91 275.33 L28.35 275.33" class="st3"/>
		</g>
		<g id="shape139-43" v:mID="139" v:groupContext="shape" transform="translate(296.712,194.359) rotate(90)">
			<title>Kracht.139</title>
			<path d="M7.55 275.33 L7.91 275.33 L28.35 275.33" class="st3"/>
		</g>
		<g id="shape140-48" v:mID="140" v:groupContext="shape" transform="translate(-239.779,166.013) rotate(-90)">
			<title>Kracht.140</title>
			<path d="M7.55 275.33 L7.91 275.33 L28.35 275.33" class="st3"/>
		</g>
		<g id="shape142-53" v:mID="142" v:groupContext="shape" transform="translate(134.766,412.998) rotate(180)">
			<title>Kracht.142</title>
			<path d="M7.55 275.33 L7.91 275.33 L28.35 275.33" class="st3"/>
		</g>
		<g id="shape143-58" v:mID="143" v:groupContext="shape" transform="translate(-168.913,166.013) rotate(-90)">
			<title>Kracht.143</title>
			<path d="M7.55 275.33 L7.91 275.33 L28.35 275.33" class="st3"/>
		</g>
		<g id="shape144-63" v:mID="144" v:groupContext="shape" transform="translate(367.578,137.666) rotate(90)">
			<title>Kracht.144</title>
			<path d="M7.55 275.33 L7.91 275.33 L28.35 275.33" class="st3"/>
		</g>
		<g id="shape145-68" v:mID="145" v:groupContext="shape" transform="translate(-197.259,151.839) rotate(-90)">
			<title>Moment</title>
			<path d="M-0 275.33 A14.1732 14.1732 0 0 1 14.17 261.16 A14.1732 14.1732 0 0 1 26.14 267.74 L26.24 268.08" class="st5"/>
		</g>
		<g id="shape146-74" v:mID="146" v:groupContext="shape" transform="translate(381.751,151.839) rotate(90) scale(-1,1)">
			<title>Moment.146</title>
			<path d="M-0 275.33 A14.1732 14.1732 0 0 1 14.17 261.16 A14.1732 14.1732 0 0 1 26.14 267.74 L26.24 268.08" class="st5"/>
		</g>
		<g id="shape147-79" v:mID="147" v:groupContext="shape" transform="translate(49.7263,-137.666)">
			<title>Kracht.147</title>
			<path d="M7.55 275.33 L7.91 275.33 L28.35 275.33" class="st3"/>
		</g>
		<g id="shape148-84" v:mID="148" v:groupContext="shape" transform="translate(353.405,109.32) rotate(90)">
			<title>Kracht.148</title>
			<path d="M7.55 275.33 L7.91 275.33 L28.35 275.33" class="st3"/>
		</g>
		<g id="shape149-89" v:mID="149" v:groupContext="shape" transform="translate(233.978,412.998) rotate(180)">
			<title>Kracht.149</title>
			<path d="M7.55 275.33 L7.91 275.33 L28.35 275.33" class="st3"/>
		</g>
		<g id="shape150-94" v:mID="150" v:groupContext="shape" transform="translate(-69.7003,166.013) rotate(-90)">
			<title>Kracht.150</title>
			<path d="M7.55 275.33 L7.91 275.33 L28.35 275.33" class="st3"/>
		</g>
		<g id="shape151-99" v:mID="151" v:groupContext="shape" transform="translate(-98.0468,151.839) rotate(-90)">
			<title>Moment.151</title>
			<path d="M-0 275.33 A14.1732 14.1732 0 0 1 14.17 261.16 A14.1732 14.1732 0 0 1 26.14 267.74 L26.24 268.08" class="st5"/>
		</g>
		<g id="shape152-104" v:mID="152" v:groupContext="shape" transform="translate(480.964,151.839) rotate(90) scale(-1,1)">
			<title>Moment.152</title>
			<path d="M-0 275.33 A14.1732 14.1732 0 0 1 14.17 261.16 A14.1732 14.1732 0 0 1 26.14 267.74 L26.24 268.08" class="st5"/>
		</g>
		<g id="shape153-109" v:mID="153" v:groupContext="shape" transform="translate(148.939,-137.666)">
			<title>Kracht.153</title>
			<path d="M7.55 275.33 L7.91 275.33 L28.35 275.33" class="st3"/>
		</g>
		<g id="shape154-114" v:mID="154" v:groupContext="shape" transform="translate(452.618,109.32) rotate(90)">
			<title>Kracht.154</title>
			<path d="M7.55 275.33 L7.91 275.33 L28.35 275.33" class="st3"/>
		</g>
		<g id="shape158-119" v:mID="158" v:groupContext="shape" transform="translate(523.484,109.32) rotate(90)">
			<title>Kracht.158</title>
			<path d="M7.55 275.33 L7.91 275.33 L28.35 275.33" class="st3"/>
		</g>
		<g id="shape159-124" v:mID="159" v:groupContext="shape" transform="translate(-13.0074,166.013) rotate(-90)">
			<title>Kracht.159</title>
			<path d="M7.55 275.33 L7.91 275.33 L28.35 275.33" class="st6"/>
		</g>
		<g id="shape160-130" v:mID="160" v:groupContext="shape" transform="translate(466.791,38.4535) rotate(90)">
			<title>Ligger, 2 pt.160</title>
			<path d="M0 275.33 L14.17 275.33" class="st1"/>
		</g>
		<g id="shape161-133" v:mID="161" v:groupContext="shape" transform="translate(466.791,10.107) rotate(90)">
			<title>Kracht.161</title>
			<path d="M7.55 275.33 L7.91 275.33 L28.35 275.33" class="st3"/>
		</g>
		<g id="shape162-138" v:mID="162" v:groupContext="shape" transform="translate(-83.8736,80.9732) rotate(-90)">
			<title>Kracht.162</title>
			<path d="M7.55 275.33 L7.91 275.33 L28.35 275.33" class="st3"/>
		</g>
		<g id="shape219-143" v:mID="219" v:groupContext="shape" transform="translate(466.791,95.1464) rotate(90)">
			<title>Kracht.219</title>
			<path d="M7.55 275.33 L7.91 275.33 L28.35 275.33" class="st3"/>
		</g>
		<g id="shape228-148" v:mID="228" v:groupContext="shape" transform="translate(31.3011,-8.6897)">
			<title>Punt A.228</title>
			<desc>1</desc>
			<v:textBlock v:margins="rect(4,4,4,4)" v:tabSpace="42.5197"/>
			<v:textRect cx="7.08661" cy="268.246" width="14.18" height="14.1732"/>
			<rect x="0" y="261.159" width="14.1732" height="14.1732" class="st8"/>
			<text x="4.09" y="271.85" class="st9" v:langID="1043"><v:paragraph v:horizAlign="1"/><v:tabList/>1</text>		</g>
		<g id="shape229-151" v:mID="229" v:groupContext="shape" transform="translate(31.3011,-56.8787)">
			<title>Punt A.229</title>
			<desc>1</desc>
			<v:textBlock v:margins="rect(4,4,4,4)" v:tabSpace="42.5197"/>
			<v:textRect cx="7.08661" cy="268.246" width="14.18" height="14.1732"/>
			<rect x="0" y="261.159" width="14.1732" height="14.1732" class="st8"/>
			<text x="4.09" y="271.85" class="st9" v:langID="1043"><v:paragraph v:horizAlign="1"/><v:tabList/>1</text>		</g>
		<g id="shape230-154" v:mID="230" v:groupContext="shape" transform="translate(0.12,-109.32)">
			<title>Punt A.230</title>
			<desc>1</desc>
			<v:textBlock v:margins="rect(4,4,4,4)" v:tabSpace="42.5197"/>
			<v:textRect cx="7.08661" cy="268.246" width="14.18" height="14.1732"/>
			<rect x="0" y="261.159" width="14.1732" height="14.1732" class="st8"/>
			<text x="4.09" y="271.85" class="st9" v:langID="1043"><v:paragraph v:horizAlign="1"/><v:tabList/>1</text>		</g>
		<g id="shape231-157" v:mID="231" v:groupContext="shape" transform="translate(42.6397,-116.406)">
			<title>Punt A.231</title>
			<desc>1</desc>
			<v:textBlock v:margins="rect(4,4,4,4)" v:tabSpace="42.5197"/>
			<v:textRect cx="7.08661" cy="268.246" width="14.18" height="14.1732"/>
			<rect x="0" y="261.159" width="14.1732" height="14.1732" class="st8"/>
			<text x="4.09" y="271.85" class="st9" v:langID="1043"><v:paragraph v:horizAlign="1"/><v:tabList/>1</text>		</g>
		<g id="shape232-160" v:mID="232" v:groupContext="shape" transform="translate(49.7263,-151.839)">
			<title>Punt A.232</title>
			<desc>3</desc>
			<v:textBlock v:margins="rect(4,4,4,4)" v:tabSpace="42.5197"/>
			<v:textRect cx="7.08661" cy="268.246" width="14.18" height="14.1732"/>
			<rect x="0" y="261.159" width="14.1732" height="14.1732" class="st8"/>
			<text x="4.09" y="271.85" class="st9" v:langID="1043"><v:paragraph v:horizAlign="1"/><v:tabList/>3</text>		</g>
		<g id="shape233-163" v:mID="233" v:groupContext="shape" transform="translate(120.592,-109.32)">
			<title>Punt A.233</title>
			<desc>3</desc>
			<v:textBlock v:margins="rect(4,4,4,4)" v:tabSpace="42.5197"/>
			<v:textRect cx="7.08661" cy="268.246" width="14.18" height="14.1732"/>
			<rect x="0" y="261.159" width="14.1732" height="14.1732" class="st8"/>
			<text x="4.09" y="271.85" class="st9" v:langID="1043"><v:paragraph v:horizAlign="1"/><v:tabList/>3</text>		</g>
		<g id="shape234-166" v:mID="234" v:groupContext="shape" transform="translate(78.0727,-95.1464)">
			<title>Punt A.234</title>
			<desc>2</desc>
			<v:textBlock v:margins="rect(4,4,4,4)" v:tabSpace="42.5197"/>
			<v:textRect cx="7.08661" cy="268.246" width="14.18" height="14.1732"/>
			<rect x="0" y="261.159" width="14.1732" height="14.1732" class="st8"/>
			<text x="4.09" y="271.85" class="st9" v:langID="1043"><v:paragraph v:horizAlign="1"/><v:tabList/>2</text>		</g>
		<g id="shape235-169" v:mID="235" v:groupContext="shape" transform="translate(92.246,415.833) rotate(180)">
			<title>Kracht.235</title>
			<path d="M7.55 275.33 L7.91 275.33 L28.35 275.33" class="st3"/>
		</g>
		<g id="shape237-174" v:mID="237" v:groupContext="shape" transform="translate(148.939,-151.839)">
			<title>Punt A.237</title>
			<desc>3</desc>
			<v:textBlock v:margins="rect(4,4,4,4)" v:tabSpace="42.5197"/>
			<v:textRect cx="7.08661" cy="268.246" width="14.18" height="14.1732"/>
			<rect x="0" y="261.159" width="14.1732" height="14.1732" class="st8"/>
			<text x="4.09" y="271.85" class="st9" v:langID="1043"><v:paragraph v:horizAlign="1"/><v:tabList/>3</text>		</g>
		<g id="shape238-177" v:mID="238" v:groupContext="shape" transform="translate(219.805,-109.32)">
			<title>Punt A.238</title>
			<desc>3</desc>
			<v:textBlock v:margins="rect(4,4,4,4)" v:tabSpace="42.5197"/>
			<v:textRect cx="7.08661" cy="268.246" width="14.18" height="14.1732"/>
			<rect x="0" y="261.159" width="14.1732" height="14.1732" class="st8"/>
			<text x="4.09" y="271.85" class="st9" v:langID="1043"><v:paragraph v:horizAlign="1"/><v:tabList/>3</text>		</g>
		<g id="shape239-180" v:mID="239" v:groupContext="shape" transform="translate(255.238,-144.753)">
			<title>Punt A.239</title>
			<desc>1</desc>
			<v:textBlock v:margins="rect(4,4,4,4)" v:tabSpace="42.5197"/>
			<v:textRect cx="7.08661" cy="268.246" width="14.18" height="14.1732"/>
			<rect x="0" y="261.159" width="14.1732" height="14.1732" class="st8"/>
			<text x="4.09" y="271.85" class="st9" v:langID="1043"><v:paragraph v:horizAlign="1"/><v:tabList/>1</text>		</g>
		<g id="shape240-183" v:mID="240" v:groupContext="shape" transform="translate(198.545,-158.926)">
			<title>Punt A.240</title>
			<desc>1</desc>
			<v:textBlock v:margins="rect(4,4,4,4)" v:tabSpace="42.5197"/>
			<v:textRect cx="7.08661" cy="268.246" width="14.18" height="14.1732"/>
			<rect x="0" y="261.159" width="14.1732" height="14.1732" class="st8"/>
			<text x="4.09" y="271.85" class="st9" v:langID="1043"><v:paragraph v:horizAlign="1"/><v:tabList/>1</text>		</g>
		<g id="shape241-186" v:mID="241" v:groupContext="shape" transform="translate(198.545,-201.446)">
			<title>Punt A.241</title>
			<desc>1</desc>
			<v:textBlock v:margins="rect(4,4,4,4)" v:tabSpace="42.5197"/>
			<v:textRect cx="7.08661" cy="268.246" width="14.18" height="14.1732"/>
			<rect x="0" y="261.159" width="14.1732" height="14.1732" class="st8"/>
			<text x="4.09" y="271.85" class="st9" v:langID="1043"><v:paragraph v:horizAlign="1"/><v:tabList/>1</text>		</g>
		<g id="shape242-189" v:mID="242" v:groupContext="shape" transform="translate(198.545,-243.965)">
			<title>Punt A.242</title>
			<desc>1</desc>
			<v:textBlock v:margins="rect(4,4,4,4)" v:tabSpace="42.5197"/>
			<v:textRect cx="7.08661" cy="268.246" width="14.18" height="14.1732"/>
			<rect x="0" y="261.159" width="14.1732" height="14.1732" class="st8"/>
			<text x="4.09" y="271.85" class="st9" v:langID="1043"><v:paragraph v:horizAlign="1"/><v:tabList/>1</text>		</g>
	</g>
</svg>
