<?xml version="1.0" encoding="UTF-8" standalone="no"?>
<!DOCTYPE svg PUBLIC "-//W3C//DTD SVG 1.1//EN" "http://www.w3.org/Graphics/SVG/1.1/DTD/svg11.dtd">
<!-- Gegenereerd door Microsoft Visio, SVG Export optie_5.svg Pagina-1 -->
<svg xmlns="http://www.w3.org/2000/svg" xmlns:xlink="http://www.w3.org/1999/xlink" xmlns:ev="http://www.w3.org/2001/xml-events"
		xmlns:v="http://schemas.microsoft.com/visio/2003/SVGExtensions/" width="3.72826in" height="0.765662in"
		viewBox="0 0 268.435 55.1277" xml:space="preserve" color-interpolation-filters="sRGB" class="st10">
	<v:documentProperties v:langID="1043" v:metric="true" v:viewMarkup="false"/>

	<style type="text/css">
	<![CDATA[
		.st1 {stroke:#000000;stroke-dasharray:6,3;stroke-linecap:butt;stroke-width:0.75}
		.st2 {fill:#00cc99;stroke:#000000;stroke-linecap:round;stroke-linejoin:round;stroke-width:0.75}
		.st3 {stroke:#000000;stroke-linecap:round;stroke-linejoin:round;stroke-width:0.75}
		.st4 {marker-end:url(#mrkr5-22);stroke:#800000;stroke-linecap:round;stroke-linejoin:round;stroke-width:2}
		.st5 {fill:#800000;fill-opacity:1;stroke:#800000;stroke-opacity:1;stroke-width:0.44247787610619}
		.st6 {fill:#ffffff;stroke:#000000;stroke-dasharray:0.75,1.5;stroke-linecap:round;stroke-linejoin:round;stroke-width:0.75}
		.st7 {stroke:#000000;stroke-linecap:round;stroke-linejoin:round;stroke-width:4}
		.st8 {stroke:#000000;stroke-linecap:round;stroke-linejoin:round;stroke-width:2}
		.st9 {fill:#ffffff;stroke:#000000;stroke-linecap:round;stroke-linejoin:round;stroke-width:0.75}
		.st10 {fill:none;fill-rule:evenodd;font-size:12px;overflow:visible;stroke-linecap:square;stroke-miterlimit:3}
	]]>
	</style>

	<defs id="Markers">
		<g id="lend5">
			<path d="M 2 1 L 0 0 L 1.98117 -0.993387 C 1.67173 -0.364515 1.67301 0.372641 1.98465 1.00043 " style="stroke:none"/>
		</g>
		<marker id="mrkr5-22" class="st5" v:arrowType="5" v:arrowSize="2" v:setback="3.775" refX="-3.775" orient="auto"
				markerUnits="strokeWidth" overflow="visible">
			<use xlink:href="#lend5" transform="scale(-2.26,-2.26) "/>
		</marker>
	</defs>
	<g v:mID="0" v:index="1" v:groupContext="foregroundPage">
		<title>Pagina-1</title>
		<v:pageProperties v:drawingScale="0.0393701" v:pageScale="0.0393701" v:drawingUnits="24" v:shadowOffsetX="8.50394"
				v:shadowOffsetY="-8.50394"/>
		<g id="shape495-1" v:mID="495" v:groupContext="shape" transform="translate(31.3669,-30.8474)">
			<title>Ligger, 2 pt.495</title>
			<path d="M0 55.13 L226.77 55.13" class="st1"/>
		</g>
		<g id="group496-4" transform="translate(248.217,-16.6742)" v:mID="496" v:groupContext="group">
			<title>Rol.496</title>
			<g id="group497-5" transform="translate(0.261477,-2.83465)" v:mID="497" v:groupContext="group">
				<title>Scharnier</title>
				<g id="shape498-6" v:mID="498" v:groupContext="shape" transform="translate(2.79729,0)">
					<title>Blad.498</title>
					<path d="M0 55.13 L13.99 55.13 L6.99 43.79 L0 55.13 Z" class="st2"/>
				</g>
				<g id="shape499-8" v:mID="499" v:groupContext="shape" transform="translate(2.79729,110.255) rotate(180)">
					<title>Blad.499</title>
					<path d="M0 55.13 L2.8 55.13" class="st3"/>
				</g>
				<g id="shape500-11" v:mID="500" v:groupContext="shape" transform="translate(16.7838,-7.10543E-15)">
					<title>Blad.500</title>
					<path d="M0 55.13 L2.8 55.13" class="st3"/>
				</g>
			</g>
			<g id="shape501-14" v:mID="501" v:groupContext="shape">
				<title>Blad.501</title>
				<path d="M0 55.13 L19.84 55.13" class="st3"/>
			</g>
		</g>
		<g id="shape503-17" v:mID="503" v:groupContext="shape" transform="translate(-30.8474,38.4535) rotate(-90)">
			<title>Moment.503</title>
			<path d="M-0 55.13 A14.1732 14.1732 0 0 1 14.17 40.95 A14.1732 14.1732 0 0 1 26.14 47.53 L26.24 47.88" class="st4"/>
		</g>
		<g id="group505-23" transform="translate(21.4456,-19.5088)" v:mID="505" v:groupContext="group">
			<title>Scharnieroplegging.505</title>
			<g id="shape506-24" v:mID="506" v:groupContext="shape" transform="translate(2.83465,0)">
				<title>Blad.506</title>
				<path d="M0 55.13 L14.17 55.13 L7.09 43.79 L0 55.13 Z" class="st2"/>
			</g>
			<g id="shape507-26" v:mID="507" v:groupContext="shape" transform="translate(2.83465,110.255) rotate(180)">
				<title>Blad.507</title>
				<path d="M0 55.13 L2.83 55.13" class="st3"/>
			</g>
			<g id="shape508-29" v:mID="508" v:groupContext="shape" transform="translate(17.0079,-7.10543E-15)">
				<title>Blad.508</title>
				<path d="M0 55.13 L2.83 55.13" class="st3"/>
			</g>
		</g>
		<g id="shape509-32" v:mID="509" v:groupContext="shape" transform="translate(142.627,-28.7215)">
			<title>Scharnier.509</title>
			<ellipse cx="2.12598" cy="53.0017" rx="2.12598" ry="2.12598" class="st6"/>
		</g>
		<g id="shape510-34" v:mID="510" v:groupContext="shape" transform="translate(110.885,38.4535) rotate(-90)">
			<title>Moment.510</title>
			<path d="M-0 55.13 A14.1732 14.1732 0 0 1 14.17 40.95 A14.1732 14.1732 0 0 1 26.14 47.53 L26.24 47.88" class="st4"/>
		</g>
		<g id="shape511-39" v:mID="511" v:groupContext="shape" transform="translate(178.621,38.4535) rotate(90) scale(-1,1)">
			<title>Moment.511</title>
			<path d="M-0 55.13 A14.1732 14.1732 0 0 1 14.17 40.95 A14.1732 14.1732 0 0 1 26.14 47.53 L26.24 47.88" class="st4"/>
		</g>
		<g id="shape513-44" v:mID="513" v:groupContext="shape" transform="translate(44.7373,-29.2014) rotate(14.0363)">
			<title>Blad.513</title>
			<path d="M0 55.13 L116.88 55.13" class="st7"/>
		</g>
		<g id="shape514-47" v:mID="514" v:groupContext="shape" transform="translate(131.397,-0.858604) rotate(-14.0207)">
			<title>Blad.514</title>
			<path d="M0 55.13 L117 55.13" class="st8"/>
		</g>
		<g id="shape512-50" v:mID="512" v:groupContext="shape" transform="translate(142.627,-0.375)">
			<title>Scharnier.512</title>
			<ellipse cx="2.12598" cy="53.0017" rx="2.12598" ry="2.12598" class="st9"/>
		</g>
	</g>
</svg>
