<?xml version="1.0" encoding="UTF-8" standalone="no"?>
<!DOCTYPE svg PUBLIC "-//W3C//DTD SVG 1.1//EN" "http://www.w3.org/Graphics/SVG/1.1/DTD/svg11.dtd">
<!-- Gegenereerd door Microsoft Visio, SVG Export structure_1.svg Pagina-1 -->
<svg xmlns="http://www.w3.org/2000/svg" xmlns:xlink="http://www.w3.org/1999/xlink" xmlns:ev="http://www.w3.org/2001/xml-events"
		xmlns:v="http://schemas.microsoft.com/visio/2003/SVGExtensions/" width="4.27944in" height="1.74991in"
		viewBox="0 0 308.12 125.994" xml:space="preserve" color-interpolation-filters="sRGB" class="st15">
	<v:documentProperties v:langID="1043" v:metric="true" v:viewMarkup="false"/>

	<style type="text/css">
	<![CDATA[
		.st1 {fill:#00cc99;stroke:#000000;stroke-linecap:round;stroke-linejoin:round;stroke-width:0.75}
		.st2 {stroke:#000000;stroke-linecap:round;stroke-linejoin:round;stroke-width:0.75}
		.st3 {stroke:#000000;stroke-linecap:round;stroke-linejoin:round;stroke-width:2}
		.st4 {fill:#ffffff;stroke:#000000;stroke-linecap:round;stroke-linejoin:round;stroke-width:0.75}
		.st5 {stroke:#000000;stroke-linecap:round;stroke-linejoin:round;stroke-width:0.25}
		.st6 {marker-end:url(#mrkr4-62);marker-start:url(#mrkr4-60);stroke:#000000;stroke-linecap:round;stroke-linejoin:round;stroke-width:0.25}
		.st7 {fill:#000000;fill-opacity:1;stroke:#000000;stroke-opacity:1;stroke-width:0.12195121951219}
		.st8 {fill:none;stroke:none;stroke-linecap:round;stroke-linejoin:round;stroke-width:0.75}
		.st9 {fill:#000000;font-family:Times New Roman;font-size:1.00001em}
		.st10 {marker-start:url(#mrkr5-89);stroke:#800000;stroke-linecap:round;stroke-linejoin:round;stroke-width:2}
		.st11 {fill:#800000;fill-opacity:1;stroke:#800000;stroke-opacity:1;stroke-width:0.44247787610619}
		.st12 {fill:none;marker-start:url(#mrkr13-98);stroke:none;stroke-linecap:round;stroke-linejoin:round;stroke-width:0.75}
		.st13 {fill:#000000;fill-opacity:1;stroke:#000000;stroke-opacity:1;stroke-width:0.22935779816514}
		.st14 {fill:none;stroke:none;stroke-linecap:round;stroke-linejoin:round;stroke-width:0.24}
		.st15 {fill:none;fill-rule:evenodd;font-size:12px;overflow:visible;stroke-linecap:square;stroke-miterlimit:3}
	]]>
	</style>

	<defs id="Markers">
		<g id="lend4">
			<path d="M 2 1 L 0 0 L 2 -1 L 2 1 " style="stroke:none"/>
		</g>
		<marker id="mrkr4-60" class="st7" v:arrowType="4" v:arrowSize="1" v:setback="14.96" refX="14.96" orient="auto"
				markerUnits="strokeWidth" overflow="visible">
			<use xlink:href="#lend4" transform="scale(8.2) "/>
		</marker>
		<marker id="mrkr4-62" class="st7" v:arrowType="4" v:arrowSize="1" v:setback="16.4" refX="-16.4" orient="auto"
				markerUnits="strokeWidth" overflow="visible">
			<use xlink:href="#lend4" transform="scale(-8.2,-8.2) "/>
		</marker>
		<g id="lend5">
			<path d="M 2 1 L 0 0 L 1.98117 -0.993387 C 1.67173 -0.364515 1.67301 0.372641 1.98465 1.00043 " style="stroke:none"/>
		</g>
		<marker id="mrkr5-89" class="st11" v:arrowType="5" v:arrowSize="2" v:setback="3.775" refX="3.775" orient="auto"
				markerUnits="strokeWidth" overflow="visible">
			<use xlink:href="#lend5" transform="scale(2.26) "/>
		</marker>
		<g id="lend13">
			<path d="M 3 1 L 0 0 L 3 -1 L 3 1 " style="stroke:none"/>
		</g>
		<marker id="mrkr13-98" class="st13" v:arrowType="13" v:arrowSize="2" v:setback="13.08" refX="13.08" orient="auto"
				markerUnits="strokeWidth" overflow="visible">
			<use xlink:href="#lend13" transform="scale(4.36) "/>
		</marker>
	</defs>
	<g v:mID="0" v:index="1" v:groupContext="foregroundPage">
		<title>Pagina-1</title>
		<v:pageProperties v:drawingScale="0.0393701" v:pageScale="0.0393701" v:drawingUnits="24" v:shadowOffsetX="8.50394"
				v:shadowOffsetY="-8.50394"/>
		<g id="group2-1" transform="translate(56.8787,-74.0758)" v:mID="2" v:groupContext="group">
			<title>Scharnieroplegging</title>
			<g id="shape3-2" v:mID="3" v:groupContext="shape" transform="translate(2.83465,0)">
				<title>Blad.3</title>
				<path d="M0 125.99 L14.17 125.99 L7.09 114.66 L0 125.99 Z" class="st1"/>
			</g>
			<g id="shape4-4" v:mID="4" v:groupContext="shape" transform="translate(2.83465,251.988) rotate(180)">
				<title>Blad.4</title>
				<path d="M0 125.99 L2.83 125.99" class="st2"/>
			</g>
			<g id="shape5-7" v:mID="5" v:groupContext="shape" transform="translate(17.0079,0)">
				<title>Blad.5</title>
				<path d="M0 125.99 L2.83 125.99" class="st2"/>
			</g>
		</g>
		<g id="shape6-10" v:mID="6" v:groupContext="shape" transform="translate(10.107,-85.4143)">
			<title>Ligger, 2 pt</title>
			<path d="M0 125.99 L56.69 125.99" class="st3"/>
		</g>
		<g id="shape7-13" v:mID="7" v:groupContext="shape" transform="translate(66.7999,-85.4143)">
			<title>Ligger, 2 pt.7</title>
			<path d="M0 125.99 L170.08 125.99" class="st3"/>
		</g>
		<g id="shape8-16" v:mID="8" v:groupContext="shape" transform="translate(159.97,-67.4594) rotate(30.9637)">
			<title>Ligger, 2 pt.8</title>
			<path d="M0 125.99 L82.64 125.99" class="st3"/>
		</g>
		<g id="shape9-19" v:mID="9" v:groupContext="shape" transform="translate(101.189,-24.9397) rotate(-30.9637)">
			<title>Ligger, 2 pt.9</title>
			<path d="M0 125.99 L82.64 125.99" class="st3"/>
		</g>
		<g id="group10-22" transform="translate(226.957,-71.2411)" v:mID="10" v:groupContext="group">
			<title>Rol</title>
			<g id="group11-23" transform="translate(0.261477,-2.83465)" v:mID="11" v:groupContext="group">
				<title>Scharnier</title>
				<g id="shape12-24" v:mID="12" v:groupContext="shape" transform="translate(2.79729,0)">
					<title>Blad.12</title>
					<path d="M0 125.99 L13.99 125.99 L6.99 114.66 L0 125.99 Z" class="st1"/>
				</g>
				<g id="shape13-26" v:mID="13" v:groupContext="shape" transform="translate(2.79729,251.988) rotate(180)">
					<title>Blad.13</title>
					<path d="M0 125.99 L2.8 125.99" class="st2"/>
				</g>
				<g id="shape14-29" v:mID="14" v:groupContext="shape" transform="translate(16.7838,0)">
					<title>Blad.14</title>
					<path d="M0 125.99 L2.8 125.99" class="st2"/>
				</g>
			</g>
			<g id="shape15-32" v:mID="15" v:groupContext="shape">
				<title>Blad.15</title>
				<path d="M0 125.99 L19.84 125.99" class="st2"/>
			</g>
		</g>
		<g id="shape16-35" v:mID="16" v:groupContext="shape" transform="translate(127.036,-83.2884)">
			<title>Scharnier</title>
			<ellipse cx="2.12598" cy="123.868" rx="2.12598" ry="2.12598" class="st4"/>
		</g>
		<g id="shape17-37" v:mID="17" v:groupContext="shape" transform="translate(40.0187,83.0991) rotate(-90)">
			<title>Ligger, 2 pt.17</title>
			<path d="M0 125.99 L42.52 125.99" class="st3"/>
		</g>
		<g id="shape18-40" v:mID="18" v:groupContext="shape" transform="translate(163.887,-40.7687)">
			<title>Scharnier.18</title>
			<ellipse cx="2.12598" cy="123.868" rx="2.12598" ry="2.12598" class="st4"/>
		</g>
		<g id="shape19-42" v:mID="19" v:groupContext="shape" transform="translate(163.887,-81.1624)">
			<title>Scharnier.19</title>
			<ellipse cx="2.12598" cy="123.868" rx="2.12598" ry="2.12598" class="st4"/>
		</g>
		<g id="shape20-44" v:mID="20" v:groupContext="shape" transform="translate(95.1464,-81.1624)">
			<title>Scharnier.20</title>
			<ellipse cx="2.12598" cy="123.868" rx="2.12598" ry="2.12598" class="st4"/>
		</g>
		<g id="group21-46" transform="translate(260.973,-42.8947)" v:mID="21" v:groupContext="group">
			<title>Maatlijn verticaal</title>
			<g id="group22-47" transform="translate(-117.49,125.994) rotate(-90)" v:mID="22" v:groupContext="group">
				<title>Maatlijn.31</title>
				<g id="shape23-48" v:mID="23" v:groupContext="shape" transform="translate(125.994,117.49) rotate(90)">
					<title>Blad.23</title>
					<path d="M0 125.99 L8.5 125.99" class="st5"/>
				</g>
				<g id="shape24-51" v:mID="24" v:groupContext="shape" transform="translate(168.513,117.49) rotate(90)">
					<title>Blad.24</title>
					<path d="M0 125.99 L8.5 125.99" class="st5"/>
				</g>
				<g id="shape25-54" v:mID="25" v:groupContext="shape" transform="translate(0,-4.25197)">
					<title>Blad.25</title>
					<path d="M3.74 125.99 L4.1 125.99 L38.42 125.99" class="st6"/>
				</g>
			</g>
			<g id="shape26-63" v:mID="26" v:groupContext="shape" transform="translate(4.25197,-17.0079)">
				<title>Blad.26</title>
				<desc>1.4 m</desc>
				<v:textBlock v:margins="rect(4,4,4,4)" v:tabSpace="42.5197"/>
				<v:textRect cx="21.2598" cy="121.742" width="42.52" height="8.50393"/>
				<rect x="0" y="117.49" width="42.5197" height="8.50393" class="st8"/>
				<text x="7.59" y="125.34" class="st9" v:langID="1043"><v:paragraph v:horizAlign="1"/><v:tabList/>1.4 m</text>			</g>
		</g>
		<g id="group27-66" transform="translate(10.107,-0.375)" v:mID="27" v:groupContext="group">
			<title>Maatlijn</title>
			<g id="group28-67" transform="translate(0,-9.92126)" v:mID="28" v:groupContext="group">
				<title>Maatlijn.31</title>
				<g id="shape29-68" v:mID="29" v:groupContext="shape" transform="translate(125.994,117.49) rotate(90)">
					<title>Blad.29</title>
					<path d="M0 125.99 L8.5 125.99" class="st5"/>
				</g>
				<g id="shape30-71" v:mID="30" v:groupContext="shape" transform="translate(182.687,117.49) rotate(90)">
					<title>Blad.30</title>
					<path d="M0 125.99 L8.5 125.99" class="st5"/>
				</g>
				<g id="shape31-74" v:mID="31" v:groupContext="shape" transform="translate(0,-4.25197)">
					<title>Blad.31</title>
					<path d="M3.74 125.99 L4.1 125.99 L52.59 125.99" class="st6"/>
				</g>
			</g>
			<g id="shape32-81" v:mID="32" v:groupContext="shape">
				<title>Blad.32</title>
				<desc>2 m</desc>
				<v:textBlock v:margins="rect(4,4,4,4)" v:tabSpace="42.5197"/>
				<v:textRect cx="28.3465" cy="118.907" width="56.7" height="14.1732"/>
				<rect x="0" y="111.821" width="56.6929" height="14.1732" class="st8"/>
				<text x="19.18" y="122.51" class="st9" v:langID="1043"><v:paragraph v:horizAlign="1"/><v:tabList/>2 m</text>			</g>
		</g>
		<g id="shape33-84" v:mID="33" v:groupContext="shape" transform="translate(3.1683,38.4535) rotate(-90)">
			<title>Kracht</title>
			<path d="M7.55 125.99 L7.91 125.99 L28.35 125.99" class="st10"/>
		</g>
		<g id="shape34-90" v:mID="34" v:groupContext="shape" transform="translate(136.101,40.5795) rotate(90)">
			<title>Kracht.34</title>
			<path d="M7.55 125.99 L7.91 125.99 L21.26 125.99" class="st10"/>
		</g>
		<g id="shape35-95" v:mID="35" v:groupContext="shape" transform="translate(10.107,-57.0679)">
			<title>F_1</title>
			<desc>10 kN</desc>
			<v:textBlock v:margins="rect(4,4,4,4)" v:tabSpace="42.5197"/>
			<v:textRect cx="21.2598" cy="117.49" width="42.52" height="17.0079"/>
			<rect x="0" y="108.986" width="42.5197" height="17.0079" class="st12"/>
			<text x="6.43" y="121.09" class="st9" v:langID="1043"><v:paragraph v:horizAlign="1"/><v:tabList/>10 kN</text>		</g>
		<g id="shape36-100" v:mID="36" v:groupContext="shape" transform="translate(129.162,-99.5876)">
			<title>F_1.36</title>
			<desc>30 kN</desc>
			<v:textBlock v:margins="rect(4,4,4,4)" v:tabSpace="42.5197"/>
			<v:textRect cx="21.2598" cy="117.49" width="42.52" height="17.0079"/>
			<rect x="0" y="108.986" width="42.5197" height="17.0079" class="st12"/>
			<text x="6.43" y="121.09" class="st9" v:langID="1043"><v:paragraph v:horizAlign="1"/><v:tabList/>30 kN</text>		</g>
		<g id="group37-104" transform="translate(66.7999,-0.375)" v:mID="37" v:groupContext="group">
			<title>Maatlijn.37</title>
			<g id="group38-105" transform="translate(0,-9.92126)" v:mID="38" v:groupContext="group">
				<title>Maatlijn.31</title>
				<g id="shape39-106" v:mID="39" v:groupContext="shape" transform="translate(125.994,117.49) rotate(90)">
					<title>Blad.39</title>
					<path d="M0 125.99 L8.5 125.99" class="st5"/>
				</g>
				<g id="shape40-109" v:mID="40" v:groupContext="shape" transform="translate(154.34,117.49) rotate(90)">
					<title>Blad.40</title>
					<path d="M0 125.99 L8.5 125.99" class="st5"/>
				</g>
				<g id="shape41-112" v:mID="41" v:groupContext="shape" transform="translate(0,-4.25197)">
					<title>Blad.41</title>
					<path d="M3.74 125.99 L4.1 125.99 L24.25 125.99" class="st6"/>
				</g>
			</g>
			<g id="shape42-119" v:mID="42" v:groupContext="shape">
				<title>Blad.42</title>
				<desc>1 m</desc>
				<v:textBlock v:margins="rect(4,4,4,4)" v:tabSpace="42.5197"/>
				<v:textRect cx="14.1732" cy="118.907" width="28.35" height="14.1732"/>
				<rect x="0" y="111.821" width="28.3465" height="14.1732" class="st8"/>
				<text x="5.01" y="122.51" class="st9" v:langID="1043"><v:paragraph v:horizAlign="1"/><v:tabList/>1 m</text>			</g>
		</g>
		<g id="group43-122" transform="translate(95.1464,-0.375)" v:mID="43" v:groupContext="group">
			<title>Maatlijn.43</title>
			<g id="group44-123" transform="translate(0,-9.92126)" v:mID="44" v:groupContext="group">
				<title>Maatlijn.31</title>
				<g id="shape45-124" v:mID="45" v:groupContext="shape" transform="translate(125.994,117.49) rotate(90)">
					<title>Blad.45</title>
					<path d="M0 125.99 L8.5 125.99" class="st5"/>
				</g>
				<g id="shape46-127" v:mID="46" v:groupContext="shape" transform="translate(160.01,117.49) rotate(90)">
					<title>Blad.46</title>
					<path d="M0 125.99 L8.5 125.99" class="st5"/>
				</g>
				<g id="shape47-130" v:mID="47" v:groupContext="shape" transform="translate(0,-4.25197)">
					<title>Blad.47</title>
					<path d="M3.74 125.99 L4.1 125.99 L29.92 125.99" class="st6"/>
				</g>
			</g>
			<g id="shape48-137" v:mID="48" v:groupContext="shape" transform="translate(-4.25197,2.84217E-14)">
				<title>Blad.48</title>
				<desc>1.2 m</desc>
				<v:textBlock v:margins="rect(4,4,4,4)" v:tabSpace="42.5197"/>
				<v:textRect cx="21.2598" cy="118.907" width="42.52" height="14.1732"/>
				<rect x="0" y="111.821" width="42.5197" height="14.1732" class="st8"/>
				<text x="7.59" y="122.51" class="st9" v:langID="1043"><v:paragraph v:horizAlign="1"/><v:tabList/>1.2 m</text>			</g>
		</g>
		<g id="group49-140" transform="translate(129.162,-0.375)" v:mID="49" v:groupContext="group">
			<title>Maatlijn.49</title>
			<g id="group50-141" transform="translate(0,-9.92126)" v:mID="50" v:groupContext="group">
				<title>Maatlijn.31</title>
				<g id="shape51-142" v:mID="51" v:groupContext="shape" transform="translate(125.994,117.49) rotate(90)">
					<title>Blad.51</title>
					<path d="M0 125.99 L8.5 125.99" class="st5"/>
				</g>
				<g id="shape52-145" v:mID="52" v:groupContext="shape" transform="translate(162.844,117.49) rotate(90)">
					<title>Blad.52</title>
					<path d="M0 125.99 L8.5 125.99" class="st5"/>
				</g>
				<g id="shape53-148" v:mID="53" v:groupContext="shape" transform="translate(0,-4.25197)">
					<title>Blad.53</title>
					<path d="M3.74 125.99 L4.1 125.99 L32.75 125.99" class="st6"/>
				</g>
			</g>
			<g id="shape54-155" v:mID="54" v:groupContext="shape">
				<title>Blad.54</title>
				<desc>1.3 m</desc>
				<v:textBlock v:margins="rect(4,4,4,4)" v:tabSpace="42.5197"/>
				<v:textRect cx="18.4252" cy="118.907" width="36.86" height="14.1732"/>
				<rect x="0" y="111.821" width="36.8504" height="14.1732" class="st8"/>
				<text x="4.76" y="122.51" class="st9" v:langID="1043"><v:paragraph v:horizAlign="1"/><v:tabList/>1.3 m</text>			</g>
		</g>
		<g id="group55-158" transform="translate(166.013,-0.375)" v:mID="55" v:groupContext="group">
			<title>Maatlijn.55</title>
			<g id="group56-159" transform="translate(0,-9.92126)" v:mID="56" v:groupContext="group">
				<title>Maatlijn.31</title>
				<g id="shape57-160" v:mID="57" v:groupContext="shape" transform="translate(125.994,117.49) rotate(90)">
					<title>Blad.57</title>
					<path d="M0 125.99 L8.5 125.99" class="st5"/>
				</g>
				<g id="shape58-163" v:mID="58" v:groupContext="shape" transform="translate(196.86,117.49) rotate(90)">
					<title>Blad.58</title>
					<path d="M0 125.99 L8.5 125.99" class="st5"/>
				</g>
				<g id="shape59-166" v:mID="59" v:groupContext="shape" transform="translate(0,-4.25197)">
					<title>Blad.59</title>
					<path d="M3.74 125.99 L4.1 125.99 L66.77 125.99" class="st6"/>
				</g>
			</g>
			<g id="shape60-173" v:mID="60" v:groupContext="shape">
				<title>Blad.60</title>
				<desc>2.5 m</desc>
				<v:textBlock v:margins="rect(4,4,4,4)" v:tabSpace="42.5197"/>
				<v:textRect cx="35.4331" cy="118.907" width="70.87" height="14.1732"/>
				<rect x="0" y="111.821" width="70.8661" height="14.1732" class="st8"/>
				<text x="21.77" y="122.51" class="st9" v:langID="1043"><v:paragraph v:horizAlign="1"/><v:tabList/>2.5 m</text>			</g>
		</g>
		<g id="shape61-176" v:mID="61" v:groupContext="shape" transform="translate(234.753,-83.2884)">
			<title>Scharnier.61</title>
			<ellipse cx="2.12598" cy="123.868" rx="2.12598" ry="2.12598" class="st4"/>
		</g>
		<g id="shape62-178" v:mID="62" v:groupContext="shape" transform="translate(158.926,-28.7215)">
			<title>Punt A</title>
			<desc>C</desc>
			<v:textBlock v:margins="rect(4,4,4,4)" v:tabSpace="42.5197"/>
			<v:textRect cx="7.08661" cy="118.907" width="14.18" height="14.1732"/>
			<rect x="0" y="111.821" width="14.1732" height="14.1732" class="st14"/>
			<text x="4" y="122.51" class="st9" v:langID="1043"><v:paragraph v:horizAlign="1"/><v:tabList/>C</text>		</g>
		<g id="shape63-181" v:mID="63" v:groupContext="shape" transform="translate(88.0598,-64.1545)">
			<title>Punt A.63</title>
			<desc>D</desc>
			<v:textBlock v:margins="rect(4,4,4,4)" v:tabSpace="42.5197"/>
			<v:textRect cx="7.08661" cy="118.907" width="14.18" height="14.1732"/>
			<rect x="0" y="111.821" width="14.1732" height="14.1732" class="st14"/>
			<text x="4" y="122.51" class="st9" v:langID="1043"><v:paragraph v:horizAlign="1"/><v:tabList/>D</text>		</g>
		<g id="shape64-184" v:mID="64" v:groupContext="shape" transform="translate(229.792,-85.4144)">
			<title>Punt A.64</title>
			<desc>B</desc>
			<v:textBlock v:margins="rect(4,4,4,4)" v:tabSpace="42.5197"/>
			<v:textRect cx="7.08661" cy="118.907" width="14.18" height="14.1732"/>
			<rect x="0" y="111.821" width="14.1732" height="14.1732" class="st14"/>
			<text x="4" y="122.51" class="st9" v:langID="1043"><v:paragraph v:horizAlign="1"/><v:tabList/>B</text>		</g>
		<g id="shape65-187" v:mID="65" v:groupContext="shape" transform="translate(59.7133,-85.4144)">
			<title>Punt A.65</title>
			<desc>A</desc>
			<v:textBlock v:margins="rect(4,4,4,4)" v:tabSpace="42.5197"/>
			<v:textRect cx="7.08661" cy="118.907" width="14.18" height="14.1732"/>
			<rect x="0" y="111.821" width="14.1732" height="14.1732" class="st14"/>
			<text x="4" y="122.51" class="st9" v:langID="1043"><v:paragraph v:horizAlign="1"/><v:tabList/>A</text>		</g>
	</g>
</svg>
