<?xml version="1.0" encoding="UTF-8" standalone="no"?>
<!DOCTYPE svg PUBLIC "-//W3C//DTD SVG 1.1//EN" "http://www.w3.org/Graphics/SVG/1.1/DTD/svg11.dtd">
<!-- Gegenereerd door Microsoft Visio, SVG Export CM3 figuren matrixframe oefeningen.svg Pagina-1 -->
<svg xmlns="http://www.w3.org/2000/svg" xmlns:xlink="http://www.w3.org/1999/xlink" xmlns:ev="http://www.w3.org/2001/xml-events"
		xmlns:v="http://schemas.microsoft.com/visio/2003/SVGExtensions/" width="4.01435in" height="1.61259in"
		viewBox="0 0 289.033 116.106" xml:space="preserve" color-interpolation-filters="sRGB" class="st20">
	<v:documentProperties v:langID="1043" v:metric="true" v:viewMarkup="false"/>

	<style type="text/css">
	<![CDATA[
		.st1 {stroke:#000000;stroke-linecap:round;stroke-linejoin:round;stroke-width:0.75}
		.st2 {stroke:#000000;stroke-linecap:round;stroke-linejoin:round;stroke-width:2}
		.st3 {fill:#00cc99;stroke:#000000;stroke-linecap:round;stroke-linejoin:round;stroke-width:0.75}
		.st4 {stroke:#000000;stroke-linecap:round;stroke-linejoin:round;stroke-width:1.2}
		.st5 {stroke:#800000;stroke-linecap:round;stroke-linejoin:round;stroke-width:1.2}
		.st6 {marker-end:url(#mrkr5-74);stroke:#800000;stroke-linecap:round;stroke-linejoin:round;stroke-width:1.2}
		.st7 {fill:#800000;fill-opacity:1;stroke:#800000;stroke-opacity:1;stroke-width:0.45454545454546}
		.st8 {fill:none;marker-start:url(#mrkr13-92);stroke:none;stroke-linecap:round;stroke-linejoin:round;stroke-width:0.75}
		.st9 {fill:#000000;fill-opacity:1;stroke:#000000;stroke-opacity:1;stroke-width:0.22935779816514}
		.st10 {fill:#000000;font-family:Times New Roman;font-size:1.00001em;font-style:italic}
		.st11 {font-size:1em;font-style:normal}
		.st12 {baseline-shift:32.4941%;font-size:0.649882em;font-style:normal}
		.st13 {fill:#000000;font-family:Times New Roman;font-size:1.00001em}
		.st14 {fill:none;stroke:none;stroke-linecap:round;stroke-linejoin:round;stroke-width:0.24}
		.st15 {fill:#ffffff;stroke:#000000;stroke-linecap:round;stroke-linejoin:round;stroke-width:0.75}
		.st16 {stroke:#000000;stroke-linecap:round;stroke-linejoin:round;stroke-width:0.25}
		.st17 {marker-end:url(#mrkr4-156);marker-start:url(#mrkr4-154);stroke:#000000;stroke-linecap:round;stroke-linejoin:round;stroke-width:0.25}
		.st18 {fill:#000000;fill-opacity:1;stroke:#000000;stroke-opacity:1;stroke-width:0.1219512195122}
		.st19 {fill:none;stroke:none;stroke-linecap:round;stroke-linejoin:round;stroke-width:0.75}
		.st20 {fill:none;fill-rule:evenodd;font-size:12px;overflow:visible;stroke-linecap:square;stroke-miterlimit:3}
	]]>
	</style>

	<defs id="Markers">
		<g id="lend5">
			<path d="M 2 1 L 0 0 L 1.98117 -0.993388 C 1.67173 -0.364516 1.67301 0.37264 1.98465 1.00043 " style="stroke:none"/>
		</g>
		<marker id="mrkr5-74" class="st7" v:arrowType="5" v:arrowSize="0" v:setback="3.85" refX="-3.85" orient="auto"
				markerUnits="strokeWidth" overflow="visible">
			<use xlink:href="#lend5" transform="scale(-2.2,-2.2) "/>
		</marker>
		<g id="lend13">
			<path d="M 3 1 L 0 0 L 3 -1 L 3 1 " style="stroke:none"/>
		</g>
		<marker id="mrkr13-92" class="st9" v:arrowType="13" v:arrowSize="2" v:setback="13.08" refX="13.08" orient="auto"
				markerUnits="strokeWidth" overflow="visible">
			<use xlink:href="#lend13" transform="scale(4.36) "/>
		</marker>
		<g id="lend4">
			<path d="M 2 1 L 0 0 L 2 -1 L 2 1 " style="stroke:none"/>
		</g>
		<marker id="mrkr4-154" class="st18" v:arrowType="4" v:arrowSize="1" v:setback="14.96" refX="14.96" orient="auto"
				markerUnits="strokeWidth" overflow="visible">
			<use xlink:href="#lend4" transform="scale(8.2) "/>
		</marker>
		<marker id="mrkr4-156" class="st18" v:arrowType="4" v:arrowSize="1" v:setback="16.4" refX="-16.4" orient="auto"
				markerUnits="strokeWidth" overflow="visible">
			<use xlink:href="#lend4" transform="scale(-8.2,-8.2) "/>
		</marker>
	</defs>
	<g v:mID="0" v:index="1" v:groupContext="foregroundPage">
		<title>Pagina-1</title>
		<v:pageProperties v:drawingScale="0.0393701" v:pageScale="0.0393701" v:drawingUnits="24" v:shadowOffsetX="8.50394"
				v:shadowOffsetY="-8.50394"/>
		<g id="shape188-1" v:mID="188" v:groupContext="shape" transform="translate(42.8947,-47.1467)">
			<title>Rotatieveer</title>
			<path d="M7.76 106.18 L7.76 103.7 A2.60026 2.48498 -180 0 0 5.16 106.18 A2.60026 2.59104 -180 0 0 7.76 108.78 A3.84545
						 3.9396 -180 0 0 11.61 104.84 A3.84545 3.71231 -180 0 0 7.76 101.12 A5.16389 5.06087 -180 0 0 2.6 106.18
						 A5.16389 5.09117 -180 0 0 7.76 111.28 A6.40908 6.51549 -180 0 0 14.17 104.76 A6.40908 6.15183 -180 0 0 7.76
						 98.61 A7.76415 7.57615 -180 0 0 0 106.18 A7.76415 7.57615 -180 0 0 7.76 113.76 L7.76 116.11" class="st1"/>
		</g>
		<g id="shape189-4" v:mID="189" v:groupContext="shape" transform="translate(50.5482,-57.0679)">
			<title>Ligger, 2 pt.189</title>
			<path d="M0 116.11 L42.52 116.11" class="st2"/>
		</g>
		<g id="group196-7" transform="translate(40.627,-35.8081)" v:mID="196" v:groupContext="group">
			<title>Scharnieroplegging.196</title>
			<g id="shape197-8" v:mID="197" v:groupContext="shape" transform="translate(2.83465,1.42109E-14)">
				<title>Blad.197</title>
				<path d="M0 116.11 L14.17 116.11 L7.09 104.77 L0 116.11 Z" class="st3"/>
			</g>
			<g id="shape198-10" v:mID="198" v:groupContext="shape" transform="translate(2.83465,232.212) rotate(180)">
				<title>Blad.198</title>
				<path d="M0 116.11 L2.83 116.11" class="st1"/>
			</g>
			<g id="shape199-13" v:mID="199" v:groupContext="shape" transform="translate(17.0079,1.42109E-14)">
				<title>Blad.199</title>
				<path d="M0 116.11 L2.83 116.11" class="st1"/>
			</g>
		</g>
		<g id="shape200-16" v:mID="200" v:groupContext="shape" transform="translate(93.0679,-57.0679)">
			<title>Ligger, 2 pt.200</title>
			<path d="M0 116.11 L85.04 116.11" class="st2"/>
		</g>
		<g id="shape201-19" v:mID="201" v:groupContext="shape" transform="translate(178.107,-57.0679)">
			<title>Ligger, 2 pt.201</title>
			<path d="M0 116.11 L99.21 116.11" class="st2"/>
		</g>
		<g id="group202-22" transform="translate(288.658,160.971) rotate(180)" v:mID="202" v:groupContext="group">
			<title>Inklemming.202</title>
			<g id="shape203-23" v:mID="203" v:groupContext="shape" transform="translate(127.445,87.7597) rotate(90)">
				<title>Blad.203</title>
				<path d="M0 116.11 L28.35 116.11" class="st4"/>
			</g>
			<g id="shape204-26" v:mID="204" v:groupContext="shape" transform="translate(90.6034,5.66024) rotate(45)">
				<title>Blad.204</title>
				<path d="M0 116.11 L4.01 116.11" class="st1"/>
			</g>
			<g id="shape205-29" v:mID="205" v:groupContext="shape" transform="translate(87.7687,5.66024) rotate(45)">
				<title>Blad.205</title>
				<path d="M0 116.11 L8.02 116.11" class="st1"/>
			</g>
			<g id="shape206-32" v:mID="206" v:groupContext="shape" transform="translate(84.9341,5.66024) rotate(45)">
				<title>Blad.206</title>
				<path d="M0 116.11 L12.03 116.11" class="st1"/>
			</g>
			<g id="shape207-35" v:mID="207" v:groupContext="shape" transform="translate(82.0994,5.66024) rotate(45)">
				<title>Blad.207</title>
				<path d="M0 116.11 L16.04 116.11" class="st1"/>
			</g>
			<g id="shape208-38" v:mID="208" v:groupContext="shape" transform="translate(82.0994,8.49489) rotate(45)">
				<title>Blad.208</title>
				<path d="M0 116.11 L16.04 116.11" class="st1"/>
			</g>
			<g id="shape209-41" v:mID="209" v:groupContext="shape" transform="translate(82.0994,11.3295) rotate(45)">
				<title>Blad.209</title>
				<path d="M0 116.11 L16.04 116.11" class="st1"/>
			</g>
			<g id="shape210-44" v:mID="210" v:groupContext="shape" transform="translate(82.0994,14.1642) rotate(45)">
				<title>Blad.210</title>
				<path d="M0 116.11 L16.04 116.11" class="st1"/>
			</g>
			<g id="shape211-47" v:mID="211" v:groupContext="shape" transform="translate(82.0994,16.9988) rotate(45)">
				<title>Blad.211</title>
				<path d="M0 116.11 L16.04 116.11" class="st1"/>
			</g>
			<g id="shape212-50" v:mID="212" v:groupContext="shape" transform="translate(82.0994,19.8335) rotate(45)">
				<title>Blad.212</title>
				<path d="M0 116.11 L16.04 116.11" class="st1"/>
			</g>
			<g id="shape213-53" v:mID="213" v:groupContext="shape" transform="translate(82.0994,22.6681) rotate(45)">
				<title>Blad.213</title>
				<path d="M0 116.11 L16.04 116.11" class="st1"/>
			</g>
			<g id="shape214-56" v:mID="214" v:groupContext="shape" transform="translate(82.0994,25.5028) rotate(45)">
				<title>Blad.214</title>
				<path d="M0 116.11 L12.03 116.11" class="st1"/>
			</g>
			<g id="shape215-59" v:mID="215" v:groupContext="shape" transform="translate(82.0994,28.3374) rotate(45)">
				<title>Blad.215</title>
				<path d="M0 116.11 L8.02 116.11" class="st1"/>
			</g>
			<g id="shape216-62" v:mID="216" v:groupContext="shape" transform="translate(82.0994,31.1721) rotate(45)">
				<title>Blad.216</title>
				<path d="M0 116.11 L4.01 116.11" class="st1"/>
			</g>
		</g>
		<g id="group218-65" transform="translate(93.0679,-57.0679)" v:mID="218" v:groupContext="group">
			<title>q-last, linear</title>
			<g id="shape219-66" v:mID="219" v:groupContext="shape" transform="translate(-44.0548,8.68264) rotate(-22.2987)">
				<title>Blad.219</title>
				<path d="M0 116.11 L45.96 116.11" class="st5"/>
			</g>
			<g id="shape220-69" v:mID="220" v:groupContext="shape" transform="translate(143.37,104.925) rotate(90)">
				<title>Kracht.54</title>
				<path d="M0 116.11 L6.56 116.11" class="st6"/>
			</g>
			<g id="shape221-75" v:mID="221" v:groupContext="shape" transform="translate(158.626,98.6686) rotate(90)">
				<title>Kracht.6</title>
				<path d="M0 116.11 L12.82 116.11" class="st6"/>
			</g>
		</g>
		<g id="group224-80" transform="translate(178.107,-57.0679) scale(-1,1)" v:mID="224" v:groupContext="group">
			<title>q-last, linear.224</title>
			<g id="shape225-81" v:mID="225" v:groupContext="shape" transform="translate(-44.0548,8.68264) rotate(-22.2987)">
				<title>Blad.225</title>
				<path d="M0 116.11 L45.96 116.11" class="st5"/>
			</g>
			<g id="shape226-84" v:mID="226" v:groupContext="shape" transform="translate(143.37,104.925) rotate(90)">
				<title>Kracht.54</title>
				<path d="M0 116.11 L6.56 116.11" class="st6"/>
			</g>
		</g>
		<g id="shape228-89" v:mID="228" v:groupContext="shape" transform="translate(71.8081,-99.5876)">
			<title>EI = oo.228</title>
			<desc>EA = 800 kN, EI = 3 MNm2</desc>
			<v:textBlock v:margins="rect(4,4,4,4)" v:tabSpace="42.5197"/>
			<v:textRect cx="92.126" cy="109.02" width="184.26" height="14.1732"/>
			<rect x="0" y="101.933" width="184.252" height="14.1732" class="st8"/>
			<text x="24.75" y="112.62" class="st10" v:langID="1043"><v:paragraph v:horizAlign="1"/><v:tabList/>EA <tspan
						class="st11">= 800 kN, </tspan>EI<tspan class="st11"> </tspan><tspan class="st11">= 3 MNm</tspan><tspan
						dy="-0.198em" class="st12" v:baseFontSize="12">2</tspan></text>		</g>
		<g id="shape230-98" v:mID="230" v:groupContext="shape" transform="translate(85.9813,-74.0758)">
			<title>EI = oo.230</title>
			<desc>3 kN</desc>
			<v:textBlock v:margins="rect(4,4,4,4)" v:tabSpace="42.5197"/>
			<v:textRect cx="49.6063" cy="109.02" width="99.22" height="14.1732"/>
			<rect x="0" y="101.933" width="99.2126" height="14.1732" class="st8"/>
			<text x="37.77" y="112.62" class="st13" v:langID="1043"><v:paragraph v:horizAlign="1"/><v:tabList/>3 kN</text>		</g>
		<g id="group231-102" transform="translate(178.107,-64.1545)" v:mID="231" v:groupContext="group">
			<title>q-last constant parallel</title>
			<g id="shape233-103" v:mID="233" v:groupContext="shape" transform="translate(0,7.08662)">
				<title>Blad.233</title>
				<path d="M0 116.11 L0 101.93 L99.21 101.93 L99.21 116.11" class="st5"/>
			</g>
			<g id="shape232-106" v:mID="232" v:groupContext="shape" transform="translate(3.45058E-06,1.42109E-14)">
				<title>Kracht.5</title>
				<path d="M0 116.11 L7.78 116.11" class="st6"/>
			</g>
			<g id="shape234-111" v:mID="234" v:groupContext="shape" transform="translate(21.7028,1.42109E-14)">
				<title>Kracht.4</title>
				<path d="M0 116.11 L7.78 116.11" class="st6"/>
			</g>
			<g id="shape235-116" v:mID="235" v:groupContext="shape" transform="translate(43.4055,1.42109E-14)">
				<title>Kracht.9</title>
				<path d="M0 116.11 L7.78 116.11" class="st6"/>
			</g>
			<g id="shape236-121" v:mID="236" v:groupContext="shape" transform="translate(65.1083,7.10543E-14)">
				<title>Kracht.6</title>
				<path d="M0 116.11 L7.78 116.11" class="st6"/>
			</g>
			<g id="shape237-126" v:mID="237" v:groupContext="shape" transform="translate(86.811,1.42109E-14)">
				<title>Kracht.7</title>
				<path d="M0 116.11 L7.78 116.11" class="st6"/>
			</g>
			<g id="shape238-131" v:mID="238" v:groupContext="shape" transform="translate(3.45058E-06,-7.08661)">
				<title>A.58</title>
				<desc>5 kN/m</desc>
				<v:textBlock v:margins="rect(4,4,4,4)" v:tabSpace="42.5197"/>
				<v:textRect cx="49.6063" cy="109.02" width="99.22" height="14.1732"/>
				<rect x="0" y="101.933" width="99.2126" height="14.1732" class="st14"/>
				<text x="31.44" y="112.62" class="st13" v:langID="1043"><v:paragraph v:horizAlign="1"/><v:tabList/>5 kN/m</text>			</g>
		</g>
		<g id="shape217-134" v:mID="217" v:groupContext="shape" transform="translate(175.981,-54.9419)">
			<title>Scharnier.217</title>
			<ellipse cx="2.12598" cy="113.98" rx="2.12598" ry="2.12598" class="st15"/>
		</g>
		<g id="shape239-136" v:mID="239" v:groupContext="shape" transform="translate(0.375,-71.2411)">
			<title>EI = oo.239</title>
			<desc>1.5 MNm/rad</desc>
			<v:textBlock v:margins="rect(4,4,4,4)" v:tabSpace="42.5197"/>
			<v:textRect cx="49.6063" cy="109.02" width="99.22" height="14.1732"/>
			<rect x="0" y="101.933" width="99.2126" height="14.1732" class="st8"/>
			<text x="16.94" y="112.62" class="st13" v:langID="1043"><v:paragraph v:horizAlign="1"/><v:tabList/>1.5 MNm/rad</text>		</g>
		<g id="group240-140" transform="translate(50.5482,-0.375)" v:mID="240" v:groupContext="group">
			<title>Maatlijn.240</title>
			<g id="group241-141" transform="translate(0,-9.92126)" v:mID="241" v:groupContext="group">
				<title>Maatlijn.31</title>
				<g id="shape242-142" v:mID="242" v:groupContext="shape" transform="translate(116.106,107.602) rotate(90)">
					<title>Blad.242</title>
					<path d="M0 116.11 L8.5 116.11" class="st16"/>
				</g>
				<g id="shape243-145" v:mID="243" v:groupContext="shape" transform="translate(158.626,107.602) rotate(90)">
					<title>Blad.243</title>
					<path d="M0 116.11 L8.5 116.11" class="st16"/>
				</g>
				<g id="shape244-148" v:mID="244" v:groupContext="shape" transform="translate(0,-4.25197)">
					<title>Blad.244</title>
					<path d="M3.74 116.11 L4.1 116.11 L38.42 116.11" class="st17"/>
				</g>
			</g>
			<g id="shape245-157" v:mID="245" v:groupContext="shape">
				<title>Blad.245</title>
				<desc>3 m</desc>
				<v:textBlock v:margins="rect(4,4,4,4)" v:tabSpace="42.5197"/>
				<v:textRect cx="21.2598" cy="109.02" width="42.52" height="14.1732"/>
				<rect x="0" y="101.933" width="42.5197" height="14.1732" class="st19"/>
				<text x="12.09" y="112.62" class="st13" v:langID="1043"><v:paragraph v:horizAlign="1"/><v:tabList/>3 m</text>			</g>
		</g>
		<g id="group246-160" transform="translate(93.0679,-0.375)" v:mID="246" v:groupContext="group">
			<title>Maatlijn.246</title>
			<g id="group247-161" transform="translate(0,-9.92126)" v:mID="247" v:groupContext="group">
				<title>Maatlijn.31</title>
				<g id="shape248-162" v:mID="248" v:groupContext="shape" transform="translate(116.106,107.602) rotate(90)">
					<title>Blad.248</title>
					<path d="M0 116.11 L8.5 116.11" class="st16"/>
				</g>
				<g id="shape249-165" v:mID="249" v:groupContext="shape" transform="translate(158.626,107.602) rotate(90)">
					<title>Blad.249</title>
					<path d="M0 116.11 L8.5 116.11" class="st16"/>
				</g>
				<g id="shape250-168" v:mID="250" v:groupContext="shape" transform="translate(0,-4.25197)">
					<title>Blad.250</title>
					<path d="M3.74 116.11 L4.1 116.11 L38.42 116.11" class="st17"/>
				</g>
			</g>
			<g id="shape251-175" v:mID="251" v:groupContext="shape">
				<title>Blad.251</title>
				<desc>3 m</desc>
				<v:textBlock v:margins="rect(4,4,4,4)" v:tabSpace="42.5197"/>
				<v:textRect cx="21.2598" cy="109.02" width="42.52" height="14.1732"/>
				<rect x="0" y="101.933" width="42.5197" height="14.1732" class="st19"/>
				<text x="12.09" y="112.62" class="st13" v:langID="1043"><v:paragraph v:horizAlign="1"/><v:tabList/>3 m</text>			</g>
		</g>
		<g id="group252-178" transform="translate(135.588,-0.375)" v:mID="252" v:groupContext="group">
			<title>Maatlijn.252</title>
			<g id="group253-179" transform="translate(0,-9.92126)" v:mID="253" v:groupContext="group">
				<title>Maatlijn.31</title>
				<g id="shape254-180" v:mID="254" v:groupContext="shape" transform="translate(116.106,107.602) rotate(90)">
					<title>Blad.254</title>
					<path d="M0 116.11 L8.5 116.11" class="st16"/>
				</g>
				<g id="shape255-183" v:mID="255" v:groupContext="shape" transform="translate(158.626,107.602) rotate(90)">
					<title>Blad.255</title>
					<path d="M0 116.11 L8.5 116.11" class="st16"/>
				</g>
				<g id="shape256-186" v:mID="256" v:groupContext="shape" transform="translate(0,-4.25197)">
					<title>Blad.256</title>
					<path d="M3.74 116.11 L4.1 116.11 L38.42 116.11" class="st17"/>
				</g>
			</g>
			<g id="shape257-193" v:mID="257" v:groupContext="shape">
				<title>Blad.257</title>
				<desc>3 m</desc>
				<v:textBlock v:margins="rect(4,4,4,4)" v:tabSpace="42.5197"/>
				<v:textRect cx="21.2598" cy="109.02" width="42.52" height="14.1732"/>
				<rect x="0" y="101.933" width="42.5197" height="14.1732" class="st19"/>
				<text x="12.09" y="112.62" class="st13" v:langID="1043"><v:paragraph v:horizAlign="1"/><v:tabList/>3 m</text>			</g>
		</g>
		<g id="group258-196" transform="translate(178.107,-0.375)" v:mID="258" v:groupContext="group">
			<title>Maatlijn.258</title>
			<g id="group259-197" transform="translate(0,-9.92126)" v:mID="259" v:groupContext="group">
				<title>Maatlijn.31</title>
				<g id="shape260-198" v:mID="260" v:groupContext="shape" transform="translate(116.106,107.602) rotate(90)">
					<title>Blad.260</title>
					<path d="M0 116.11 L8.5 116.11" class="st16"/>
				</g>
				<g id="shape261-201" v:mID="261" v:groupContext="shape" transform="translate(215.319,107.602) rotate(90)">
					<title>Blad.261</title>
					<path d="M0 116.11 L8.5 116.11" class="st16"/>
				</g>
				<g id="shape262-204" v:mID="262" v:groupContext="shape" transform="translate(0,-4.25197)">
					<title>Blad.262</title>
					<path d="M3.74 116.11 L4.1 116.11 L95.11 116.11" class="st17"/>
				</g>
			</g>
			<g id="shape263-211" v:mID="263" v:groupContext="shape">
				<title>Blad.263</title>
				<desc>7 m</desc>
				<v:textBlock v:margins="rect(4,4,4,4)" v:tabSpace="42.5197"/>
				<v:textRect cx="49.6063" cy="109.02" width="99.22" height="14.1732"/>
				<rect x="0" y="101.933" width="99.2126" height="14.1732" class="st19"/>
				<text x="40.44" y="112.62" class="st13" v:langID="1043"><v:paragraph v:horizAlign="1"/><v:tabList/>7 m</text>			</g>
		</g>
		<g id="shape264-214" v:mID="264" v:groupContext="shape" transform="translate(22.2018,-49.9813)">
			<title>Punt A.264</title>
			<desc>A</desc>
			<v:textBlock v:margins="rect(4,4,4,4)" v:tabSpace="42.5197"/>
			<v:textRect cx="7.08661" cy="109.02" width="14.18" height="14.1732"/>
			<rect x="0" y="101.933" width="14.1732" height="14.1732" class="st14"/>
			<text x="4" y="112.62" class="st13" v:langID="1043"><v:paragraph v:horizAlign="1"/><v:tabList/>A</text>		</g>
		<g id="shape265-217" v:mID="265" v:groupContext="shape" transform="translate(85.9813,-42.8947)">
			<title>Punt A.265</title>
			<desc>C</desc>
			<v:textBlock v:margins="rect(4,4,4,4)" v:tabSpace="42.5197"/>
			<v:textRect cx="7.08661" cy="109.02" width="14.18" height="14.1732"/>
			<rect x="0" y="101.933" width="14.1732" height="14.1732" class="st14"/>
			<text x="4" y="112.62" class="st13" v:langID="1043"><v:paragraph v:horizAlign="1"/><v:tabList/>C</text>		</g>
		<g id="shape266-220" v:mID="266" v:groupContext="shape" transform="translate(129.068,-42.8947)">
			<title>Punt A.266</title>
			<desc>D</desc>
			<v:textBlock v:margins="rect(4,4,4,4)" v:tabSpace="42.5197"/>
			<v:textRect cx="7.08661" cy="109.02" width="14.18" height="14.1732"/>
			<rect x="0" y="101.933" width="14.1732" height="14.1732" class="st14"/>
			<text x="4" y="112.62" class="st13" v:langID="1043"><v:paragraph v:horizAlign="1"/><v:tabList/>D</text>		</g>
		<g id="shape267-223" v:mID="267" v:groupContext="shape" transform="translate(171.021,-42.8947)">
			<title>Punt A.267</title>
			<desc>E</desc>
			<v:textBlock v:margins="rect(4,4,4,4)" v:tabSpace="42.5197"/>
			<v:textRect cx="7.08661" cy="109.02" width="14.18" height="14.1732"/>
			<rect x="0" y="101.933" width="14.1732" height="14.1732" class="st14"/>
			<text x="4" y="112.62" class="st13" v:langID="1043"><v:paragraph v:horizAlign="1"/><v:tabList/>E</text>		</g>
		<g id="shape268-226" v:mID="268" v:groupContext="shape" transform="translate(263.147,-42.8947)">
			<title>Punt A.268</title>
			<desc>B</desc>
			<v:textBlock v:margins="rect(4,4,4,4)" v:tabSpace="42.5197"/>
			<v:textRect cx="7.08661" cy="109.02" width="14.18" height="14.1732"/>
			<rect x="0" y="101.933" width="14.1732" height="14.1732" class="st14"/>
			<text x="4" y="112.62" class="st13" v:langID="1043"><v:paragraph v:horizAlign="1"/><v:tabList/>B</text>		</g>
	</g>
</svg>
