<?xml version="1.0" encoding="UTF-8" standalone="no"?>
<!DOCTYPE svg PUBLIC "-//W3C//DTD SVG 1.1//EN" "http://www.w3.org/Graphics/SVG/1.1/DTD/svg11.dtd">
<!-- Generated by Microsoft Visio, SVG Export Oefening_8.svg Page-1 -->
<svg xmlns="http://www.w3.org/2000/svg" xmlns:xlink="http://www.w3.org/1999/xlink" xmlns:ev="http://www.w3.org/2001/xml-events"
		xmlns:v="http://schemas.microsoft.com/visio/2003/SVGExtensions/" width="7.56422in" height="1.12918in"
		viewBox="0 0 544.624 81.3007" xml:space="preserve" color-interpolation-filters="sRGB" class="st13">
	<v:documentProperties v:langID="1043" v:metric="true" v:viewMarkup="false"/>

	<style type="text/css">
	<![CDATA[
		.st1 {stroke:#000000;stroke-linecap:round;stroke-linejoin:round;stroke-opacity:0.5;stroke-width:2}
		.st2 {fill:#ffffff;stroke:#000000;stroke-linecap:round;stroke-linejoin:round;stroke-opacity:0.5;stroke-width:0.75}
		.st3 {marker-start:url(#mrkr5-24);stroke:#00cc99;stroke-linecap:round;stroke-linejoin:round;stroke-width:2}
		.st4 {fill:#00cc99;fill-opacity:1;stroke:#00cc99;stroke-opacity:1;stroke-width:0.4424778761062}
		.st5 {marker-end:url(#mrkr5-35);stroke:#00cc99;stroke-linecap:round;stroke-linejoin:round;stroke-width:2}
		.st6 {marker-start:url(#mrkr5-41);stroke:#31859b;stroke-linecap:round;stroke-linejoin:round;stroke-width:2}
		.st7 {fill:#31859b;fill-opacity:1;stroke:#31859b;stroke-opacity:1;stroke-width:0.4424778761062}
		.st8 {fill:none;stroke:none;stroke-linecap:round;stroke-linejoin:round;stroke-width:0.75}
		.st9 {fill:#000000;font-family:Times New Roman;font-size:1.00001em}
		.st10 {marker-end:url(#mrkr5-143);stroke:#800000;stroke-linecap:round;stroke-linejoin:round;stroke-opacity:0.5;stroke-width:1.2}
		.st11 {fill:#800000;fill-opacity:0.5;stroke:#800000;stroke-opacity:0.5;stroke-width:0.45454545454546}
		.st12 {stroke:#800000;stroke-linecap:round;stroke-linejoin:round;stroke-opacity:0.5;stroke-width:1.2}
		.st13 {fill:none;fill-rule:evenodd;font-size:12px;overflow:visible;stroke-linecap:square;stroke-miterlimit:3}
	]]>
	</style>

	<defs id="Markers">
		<g id="lend5">
			<path d="M 2 1 L 0 0 L 1.98117 -0.993387 C 1.67173 -0.364515 1.67301 0.372641 1.98465 1.00043 " style="stroke:none"/>
		</g>
		<marker id="mrkr5-24" class="st4" v:arrowType="5" v:arrowSize="2" v:setback="3.775" refX="3.775" orient="auto"
				markerUnits="strokeWidth" overflow="visible">
			<use xlink:href="#lend5" transform="scale(2.26) "/>
		</marker>
		<marker id="mrkr5-35" class="st4" v:arrowType="5" v:arrowSize="2" v:setback="3.775" refX="-3.775" orient="auto"
				markerUnits="strokeWidth" overflow="visible">
			<use xlink:href="#lend5" transform="scale(-2.26,-2.26) "/>
		</marker>
		<marker id="mrkr5-41" class="st7" v:arrowType="5" v:arrowSize="2" v:setback="3.775" refX="3.775" orient="auto"
				markerUnits="strokeWidth" overflow="visible">
			<use xlink:href="#lend5" transform="scale(2.26) "/>
		</marker>
		<marker id="mrkr5-143" class="st11" v:arrowType="5" v:arrowSize="0" v:setback="3.85" refX="-3.85" orient="auto"
				markerUnits="strokeWidth" overflow="visible">
			<use xlink:href="#lend5" transform="scale(-2.2,-2.2) "/>
		</marker>
	</defs>
	<g v:mID="0" v:index="1" v:groupContext="foregroundPage">
		<title>Page-1</title>
		<v:pageProperties v:drawingScale="0.0393701" v:pageScale="0.0393701" v:drawingUnits="24" v:shadowOffsetX="8.50394"
				v:shadowOffsetY="-8.50394"/>
		<g id="shape641-1" v:mID="641" v:groupContext="shape" transform="translate(356.642,-40.5795)">
			<title>Ligger, 2 pt.81</title>
			<path d="M0 81.3 L77.95 81.3" class="st1"/>
		</g>
		<g id="shape642-4" v:mID="642" v:groupContext="shape" transform="translate(38.4535,-40.5795)">
			<title>Ligger, 2 pt.72</title>
			<path d="M0 81.3 L70.87 81.3" class="st1"/>
		</g>
		<g id="shape643-7" v:mID="643" v:groupContext="shape" transform="translate(107.194,-38.4535)">
			<title>Scharnier.68</title>
			<ellipse cx="2.12598" cy="79.1747" rx="2.12598" ry="2.12598" class="st2"/>
		</g>
		<g id="shape644-9" v:mID="644" v:groupContext="shape" transform="translate(180.186,-40.5795)">
			<title>Ligger, 2 pt.73</title>
			<path d="M0 81.3 L106.3 81.3" class="st1"/>
		</g>
		<g id="shape645-12" v:mID="645" v:groupContext="shape" transform="translate(354.516,-38.4535)">
			<title>Scharnier.79</title>
			<ellipse cx="2.12598" cy="79.1747" rx="2.12598" ry="2.12598" class="st2"/>
		</g>
		<g id="shape646-14" v:mID="646" v:groupContext="shape" transform="translate(432.469,-38.4535)">
			<title>Scharnier.80</title>
			<ellipse cx="2.12598" cy="79.1747" rx="2.12598" ry="2.12598" class="st2"/>
		</g>
		<g id="shape647-16" v:mID="647" v:groupContext="shape" transform="translate(506.17,-40.5795) rotate(4.65288E-05)">
			<title>Ligger, 2 pt.82</title>
			<path d="M0 81.3 L28.35 81.3" class="st1"/>
		</g>
		<g id="shape648-19" v:mID="648" v:groupContext="shape" transform="translate(119.754,40.7212) rotate(90)">
			<title>Kracht.83</title>
			<path d="M7.55 81.3 L7.91 81.3 L28.35 81.3" class="st3"/>
		</g>
		<g id="shape649-25" v:mID="649" v:groupContext="shape" transform="translate(38.4535,122.022) rotate(180)">
			<title>Kracht.84</title>
			<path d="M7.55 81.3 L7.91 81.3 L28.35 81.3" class="st3"/>
		</g>
		<g id="shape650-30" v:mID="650" v:groupContext="shape" transform="translate(-42.8472,54.8944) rotate(-90)">
			<title>Moment</title>
			<path d="M-0 81.3 A14.1732 14.1732 0 0 1 14.17 67.13 A14.1732 14.1732 0 0 1 26.14 73.7 L26.24 74.05" class="st5"/>
		</g>
		<g id="shape651-36" v:mID="651" v:groupContext="shape" transform="translate(180.186,122.022) rotate(180)">
			<title>Kracht.87</title>
			<path d="M7.55 81.3 L7.91 81.3 L28.35 81.3" class="st6"/>
		</g>
		<g id="shape652-42" v:mID="652" v:groupContext="shape" transform="translate(190.62,42.8472) rotate(90)">
			<title>Kracht.89</title>
			<path d="M7.55 81.3 L7.91 81.3 L28.35 81.3" class="st3"/>
		</g>
		<g id="shape653-47" v:mID="653" v:groupContext="shape" transform="translate(111.446,-40.5795)">
			<title>Kracht.90</title>
			<path d="M7.55 81.3 L7.91 81.3 L28.35 81.3" class="st6"/>
		</g>
		<g id="shape654-52" v:mID="654" v:groupContext="shape" transform="translate(28.019,38.5952) rotate(-90)">
			<title>Kracht.92</title>
			<path d="M7.55 81.3 L7.91 81.3 L28.35 81.3" class="st6"/>
		</g>
		<g id="shape655-57" v:mID="655" v:groupContext="shape" transform="translate(261.486,40.7212) rotate(90)">
			<title>Kracht.93</title>
			<path d="M7.55 81.3 L7.91 81.3 L28.35 81.3" class="st6"/>
		</g>
		<g id="shape656-62" v:mID="656" v:groupContext="shape" transform="translate(367.786,40.7212) rotate(90)">
			<title>Kracht.94</title>
			<path d="M7.55 81.3 L7.91 81.3 L28.35 81.3" class="st6"/>
		</g>
		<g id="shape657-67" v:mID="657" v:groupContext="shape" transform="translate(286.485,-40.5795)">
			<title>Kracht.95</title>
			<path d="M7.55 81.3 L7.91 81.3 L28.35 81.3" class="st6"/>
		</g>
		<g id="shape658-72" v:mID="658" v:groupContext="shape" transform="translate(354.516,122.022) rotate(180)">
			<title>Kracht.96</title>
			<path d="M7.55 81.3 L7.91 81.3 L28.35 81.3" class="st6"/>
		</g>
		<g id="shape659-77" v:mID="659" v:groupContext="shape" transform="translate(275.342,38.5952) rotate(-90)">
			<title>Kracht.97</title>
			<path d="M7.55 81.3 L7.91 81.3 L28.35 81.3" class="st6"/>
		</g>
		<g id="shape660-82" v:mID="660" v:groupContext="shape" transform="translate(474.085,40.7212) rotate(90)">
			<title>Kracht.98</title>
			<path d="M7.55 81.3 L7.91 81.3 L28.35 81.3" class="st3"/>
		</g>
		<g id="shape661-87" v:mID="661" v:groupContext="shape" transform="translate(392.784,-37.7448)">
			<title>Kracht.99</title>
			<path d="M7.55 81.3 L7.91 81.3 L28.35 81.3" class="st3"/>
		</g>
		<g id="shape662-92" v:mID="662" v:groupContext="shape" transform="translate(437.005,-40.5795)">
			<title>Kracht.100</title>
			<path d="M7.55 81.3 L7.91 81.3 L28.35 81.3" class="st6"/>
		</g>
		<g id="shape663-97" v:mID="663" v:groupContext="shape" transform="translate(353.295,38.4535) rotate(-90)">
			<title>Kracht.101</title>
			<path d="M7.55 81.3 L7.91 81.3 L28.35 81.3" class="st6"/>
		</g>
		<g id="shape664-102" v:mID="664" v:groupContext="shape" transform="translate(506.17,122.022) rotate(180)">
			<title>Kracht.102</title>
			<path d="M7.55 81.3 L7.91 81.3 L28.35 81.3" class="st6"/>
		</g>
		<g id="shape665-107" v:mID="665" v:groupContext="shape" transform="translate(587.471,40.7212) rotate(90)">
			<title>Kracht.103</title>
			<path d="M7.55 81.3 L7.91 81.3 L28.35 81.3" class="st6"/>
		</g>
		<g id="shape666-112" v:mID="666" v:groupContext="shape" transform="translate(615.817,40.7212) rotate(90)">
			<title>Kracht.104</title>
			<path d="M7.55 81.3 L7.91 81.3 L28.35 81.3" class="st3"/>
		</g>
		<g id="shape667-117" v:mID="667" v:groupContext="shape" transform="translate(13.6503,-15.7763)">
			<title>Sheet.667</title>
			<desc>3</desc>
			<v:textBlock v:margins="rect(4,4,4,4)" v:tabSpace="42.5197"/>
			<v:textRect cx="7.08661" cy="74.214" width="14.18" height="14.1732"/>
			<rect x="0" y="67.1274" width="14.1732" height="14.1732" class="st8"/>
			<text x="4.09" y="77.81" class="st9" v:langID="1043"><v:paragraph v:horizAlign="1"/><v:tabList/>3</text>		</g>
		<g id="shape668-120" v:mID="668" v:groupContext="shape" transform="translate(91.6031,-15.7763)">
			<title>Sheet.668</title>
			<desc>1</desc>
			<v:textBlock v:margins="rect(4,4,4,4)" v:tabSpace="42.5197"/>
			<v:textRect cx="7.08661" cy="74.214" width="14.18" height="14.1732"/>
			<rect x="0" y="67.1274" width="14.1732" height="14.1732" class="st8"/>
			<text x="4.09" y="77.81" class="st9" v:langID="1043"><v:paragraph v:horizAlign="1"/><v:tabList/>1</text>		</g>
		<g id="shape669-123" v:mID="669" v:groupContext="shape" transform="translate(139.083,-47.6661)">
			<title>Sheet.669</title>
			<desc>2</desc>
			<v:textBlock v:margins="rect(4,4,4,4)" v:tabSpace="42.5197"/>
			<v:textRect cx="7.08661" cy="74.214" width="14.18" height="14.1732"/>
			<rect x="0" y="67.1274" width="14.1732" height="14.1732" class="st8"/>
			<text x="4.09" y="77.81" class="st9" v:langID="1043"><v:paragraph v:horizAlign="1"/><v:tabList/>2</text>		</g>
		<g id="shape670-126" v:mID="670" v:groupContext="shape" transform="translate(314.831,-19.3196)">
			<title>Sheet.670</title>
			<desc>2</desc>
			<v:textBlock v:margins="rect(4,4,4,4)" v:tabSpace="42.5197"/>
			<v:textRect cx="7.08661" cy="74.214" width="14.18" height="14.1732"/>
			<rect x="0" y="67.1274" width="14.1732" height="14.1732" class="st8"/>
			<text x="4.09" y="77.81" class="st9" v:langID="1043"><v:paragraph v:horizAlign="1"/><v:tabList/>2</text>		</g>
		<g id="shape671-129" v:mID="671" v:groupContext="shape" transform="translate(399.871,-19.3196)">
			<title>Sheet.671</title>
			<desc>2</desc>
			<v:textBlock v:margins="rect(4,4,4,4)" v:tabSpace="42.5197"/>
			<v:textRect cx="7.08661" cy="74.214" width="14.18" height="14.1732"/>
			<rect x="0" y="67.1274" width="14.1732" height="14.1732" class="st8"/>
			<text x="4.09" y="77.81" class="st9" v:langID="1043"><v:paragraph v:horizAlign="1"/><v:tabList/>2</text>		</g>
		<g id="shape672-132" v:mID="672" v:groupContext="shape" transform="translate(463.65,-47.6661)">
			<title>Sheet.672</title>
			<desc>2</desc>
			<v:textBlock v:margins="rect(4,4,4,4)" v:tabSpace="42.5197"/>
			<v:textRect cx="7.08661" cy="74.214" width="14.18" height="14.1732"/>
			<rect x="0" y="67.1274" width="14.1732" height="14.1732" class="st8"/>
			<text x="4.09" y="77.81" class="st9" v:langID="1043"><v:paragraph v:horizAlign="1"/><v:tabList/>2</text>		</g>
		<g id="shape673-135" v:mID="673" v:groupContext="shape" transform="translate(520.343,-19.3196)">
			<title>Sheet.673</title>
			<desc>1</desc>
			<v:textBlock v:margins="rect(4,4,4,4)" v:tabSpace="42.5197"/>
			<v:textRect cx="7.08661" cy="74.214" width="14.18" height="14.1732"/>
			<rect x="0" y="67.1274" width="14.1732" height="14.1732" class="st8"/>
			<text x="4.09" y="77.81" class="st9" v:langID="1043"><v:paragraph v:horizAlign="1"/><v:tabList/>1</text>		</g>
		<g id="shape674-138" v:mID="674" v:groupContext="shape" transform="translate(261.486,26.548) rotate(90)">
			<title>Kracht.170</title>
			<path d="M0 81.3 L7.43 81.3" class="st10"/>
		</g>
		<g id="shape675-144" v:mID="675" v:groupContext="shape" transform="translate(289.833,26.548) rotate(90)">
			<title>Kracht.171</title>
			<path d="M0 81.3 L9.55 81.3" class="st10"/>
		</g>
		<g id="shape676-149" v:mID="676" v:groupContext="shape" transform="translate(318.179,26.548) rotate(90)">
			<title>Kracht.172</title>
			<path d="M0 81.3 L9.55 81.3" class="st10"/>
		</g>
		<g id="shape677-154" v:mID="677" v:groupContext="shape" transform="translate(346.526,26.548) rotate(90)">
			<title>Kracht.173</title>
			<path d="M0 81.3 L9.55 81.3" class="st10"/>
		</g>
		<g id="shape678-159" v:mID="678" v:groupContext="shape" transform="translate(180.186,-54.7527)">
			<title>Sheet.678</title>
			<path d="M0 81.3 L106.3 81.3" class="st12"/>
		</g>
		<g id="shape679-162" v:mID="679" v:groupContext="shape" transform="translate(357.351,-54.7527)">
			<title>Sheet.679</title>
			<path d="M0 81.3 L35.43 81.3" class="st12"/>
		</g>
		<g id="shape680-165" v:mID="680" v:groupContext="shape" transform="translate(474.085,26.548) rotate(90)">
			<title>Kracht.177</title>
			<path d="M0 81.3 L9.55 81.3" class="st10"/>
		</g>
		<g id="shape681-170" v:mID="681" v:groupContext="shape" transform="translate(445.738,26.548) rotate(90)">
			<title>Kracht.178</title>
			<path d="M0 81.3 L9.55 81.3" class="st10"/>
		</g>
	</g>
</svg>
