<?xml version="1.0" encoding="UTF-8" standalone="no"?>
<!DOCTYPE svg PUBLIC "-//W3C//DTD SVG 1.1//EN" "http://www.w3.org/Graphics/SVG/1.1/DTD/svg11.dtd">
<!-- Gegenereerd door Microsoft Visio, SVG Export Oefening_13.svg Pagina-1 -->
<svg xmlns="http://www.w3.org/2000/svg" xmlns:xlink="http://www.w3.org/1999/xlink" xmlns:ev="http://www.w3.org/2001/xml-events"
		xmlns:v="http://schemas.microsoft.com/visio/2003/SVGExtensions/" width="3.48449in" height="2.86933in"
		viewBox="0 0 250.883 206.592" xml:space="preserve" color-interpolation-filters="sRGB" class="st10">
	<v:documentProperties v:langID="1043" v:metric="true" v:viewMarkup="false"/>

	<style type="text/css">
	<![CDATA[
		.st1 {stroke:#000000;stroke-linecap:round;stroke-linejoin:round;stroke-opacity:0.5;stroke-width:2}
		.st2 {fill:#ffffff;stroke:#000000;stroke-linecap:round;stroke-linejoin:round;stroke-opacity:0.5;stroke-width:0.75}
		.st3 {marker-start:url(#mrkr5-34);stroke:#800000;stroke-linecap:round;stroke-linejoin:round;stroke-opacity:0.5;stroke-width:2}
		.st4 {fill:#800000;fill-opacity:0.5;stroke:#800000;stroke-opacity:0.5;stroke-width:0.44247787610619}
		.st5 {marker-start:url(#mrkr5-40);stroke:#800000;stroke-linecap:round;stroke-linejoin:round;stroke-width:2}
		.st6 {fill:#800000;fill-opacity:1;stroke:#800000;stroke-opacity:1;stroke-width:0.44247787610619}
		.st7 {marker-end:url(#mrkr5-61);stroke:#800000;stroke-linecap:round;stroke-linejoin:round;stroke-width:2}
		.st8 {fill:none;stroke:none;stroke-linecap:round;stroke-linejoin:round;stroke-width:0.75}
		.st9 {fill:#000000;font-family:Times New Roman;font-size:1.00001em}
		.st10 {fill:none;fill-rule:evenodd;font-size:12px;overflow:visible;stroke-linecap:square;stroke-miterlimit:3}
	]]>
	</style>

	<defs id="Markers">
		<g id="lend5">
			<path d="M 2 1 L 0 0 L 1.98117 -0.993387 C 1.67173 -0.364515 1.67301 0.372641 1.98465 1.00043 " style="stroke:none"/>
		</g>
		<marker id="mrkr5-34" class="st4" v:arrowType="5" v:arrowSize="2" v:setback="3.775" refX="3.775" orient="auto"
				markerUnits="strokeWidth" overflow="visible">
			<use xlink:href="#lend5" transform="scale(2.26) "/>
		</marker>
		<marker id="mrkr5-40" class="st6" v:arrowType="5" v:arrowSize="2" v:setback="3.775" refX="3.775" orient="auto"
				markerUnits="strokeWidth" overflow="visible">
			<use xlink:href="#lend5" transform="scale(2.26) "/>
		</marker>
		<marker id="mrkr5-61" class="st6" v:arrowType="5" v:arrowSize="2" v:setback="3.775" refX="-3.775" orient="auto"
				markerUnits="strokeWidth" overflow="visible">
			<use xlink:href="#lend5" transform="scale(-2.26,-2.26) "/>
		</marker>
	</defs>
	<g v:mID="0" v:index="1" v:groupContext="foregroundPage">
		<title>Pagina-1</title>
		<v:pageProperties v:drawingScale="0.0393701" v:pageScale="0.0393701" v:drawingUnits="24" v:shadowOffsetX="8.50394"
				v:shadowOffsetY="-8.50394"/>
		<g id="shape265-1" v:mID="265" v:groupContext="shape" transform="translate(198.257,-168.139)">
			<title>Ligger, 2 pt.265</title>
			<path d="M0 206.59 L14.17 206.59" class="st1"/>
		</g>
		<g id="shape266-4" v:mID="266" v:groupContext="shape" transform="translate(5.83786,52.6267) rotate(-90)">
			<title>Ligger, 2 pt.266</title>
			<path d="M0 206.59 L14.17 206.59" class="st1"/>
		</g>
		<g id="shape267-7" v:mID="267" v:groupContext="shape" transform="translate(77.1361,-118.316) rotate(-36.8699)">
			<title>Ligger, 2 pt.267</title>
			<path d="M0 206.59 L14.17 206.59" class="st1"/>
		</g>
		<g id="shape268-10" v:mID="268" v:groupContext="shape" transform="translate(205.343,-166.013)">
			<title>Scharnier.268</title>
			<ellipse cx="2.12598" cy="204.466" rx="2.12598" ry="2.12598" class="st2"/>
		</g>
		<g id="shape269-12" v:mID="269" v:groupContext="shape" transform="translate(5.83788,166.013) rotate(-90)">
			<title>Ligger, 2 pt.269</title>
			<path d="M0 206.59 L14.17 206.59" class="st1"/>
		</g>
		<g id="shape270-15" v:mID="270" v:groupContext="shape" transform="translate(-166.013,166.013) rotate(-90)">
			<title>Ligger, 2 pt.270</title>
			<path d="M0 206.59 L14.17 206.59" class="st1"/>
		</g>
		<g id="shape271-18" v:mID="271" v:groupContext="shape" transform="translate(-83.3757,0.738956) rotate(-36.8699)">
			<title>Ligger, 2 pt.271</title>
			<path d="M0 206.59 L14.17 206.59" class="st1"/>
		</g>
		<g id="shape272-21" v:mID="272" v:groupContext="shape" transform="translate(38.4535,-38.4535)">
			<title>Scharnier.272</title>
			<ellipse cx="2.12598" cy="204.466" rx="2.12598" ry="2.12598" class="st2"/>
		</g>
		<g id="shape273-23" v:mID="273" v:groupContext="shape" transform="translate(-164.241,52.6267) rotate(-90)">
			<title>Ligger, 2 pt.273</title>
			<path d="M0 206.59 L14.17 206.59" class="st1"/>
		</g>
		<g id="shape274-26" v:mID="274" v:groupContext="shape" transform="translate(42.3511,-168.139)">
			<title>Ligger, 2 pt.274</title>
			<path d="M0 206.59 L14.17 206.59" class="st1"/>
		</g>
		<g id="shape275-29" v:mID="275" v:groupContext="shape" transform="translate(-164.241,38.4535) rotate(-90)">
			<title>Kracht.275</title>
			<path d="M7.55 206.59 L7.91 206.59 L28.35 206.59" class="st3"/>
		</g>
		<g id="shape276-35" v:mID="276" v:groupContext="shape" transform="translate(-164.241,80.9732) rotate(-90)">
			<title>Kracht.276</title>
			<path d="M7.55 206.59 L7.91 206.59 L28.35 206.59" class="st5"/>
		</g>
		<g id="shape277-41" v:mID="277" v:groupContext="shape" transform="translate(263.116,10.107) rotate(90)">
			<title>Kracht.277</title>
			<path d="M7.55 206.59 L7.91 206.59 L28.35 206.59" class="st5"/>
		</g>
		<g id="shape278-46" v:mID="278" v:groupContext="shape" transform="translate(14.0047,-153.965)">
			<title>Kracht.278</title>
			<path d="M7.55 206.59 L7.91 206.59 L28.35 206.59" class="st5"/>
		</g>
		<g id="shape279-51" v:mID="279" v:groupContext="shape" transform="translate(84.8708,245.045) rotate(180)">
			<title>Kracht.279</title>
			<path d="M7.55 206.59 L7.91 206.59 L28.35 206.59" class="st5"/>
		</g>
		<g id="shape280-56" v:mID="280" v:groupContext="shape" transform="translate(263.116,24.2803) rotate(90)">
			<title>Moment.280</title>
			<path d="M-0 206.59 A14.1732 14.1732 0 0 1 14.17 192.42 A14.1732 14.1732 0 0 1 26.14 199 L26.24 199.34" class="st7"/>
		</g>
		<g id="shape281-62" v:mID="281" v:groupContext="shape" transform="translate(56.5243,259.219) rotate(180)">
			<title>Moment.281</title>
			<path d="M-0 206.59 A14.1732 14.1732 0 0 1 14.17 192.42 A14.1732 14.1732 0 0 1 26.14 199 L26.24 199.34" class="st7"/>
		</g>
		<g id="shape282-67" v:mID="282" v:groupContext="shape" transform="translate(169.91,-168.139)">
			<title>Kracht.282</title>
			<path d="M7.55 206.59 L7.91 206.59 L28.35 206.59" class="st5"/>
		</g>
		<g id="shape283-72" v:mID="283" v:groupContext="shape" transform="translate(-8.33537,66.7999) rotate(-90)">
			<title>Kracht.283</title>
			<path d="M7.55 206.59 L7.91 206.59 L28.35 206.59" class="st5"/>
		</g>
		<g id="shape284-77" v:mID="284" v:groupContext="shape" transform="translate(5.83788,80.9732) rotate(-90)">
			<title>Kracht.284</title>
			<path d="M7.55 206.59 L7.91 206.59 L28.35 206.59" class="st5"/>
		</g>
		<g id="shape285-82" v:mID="285" v:groupContext="shape" transform="translate(240.776,259.219) rotate(180)">
			<title>Kracht.285</title>
			<path d="M7.55 206.59 L7.91 206.59 L28.35 206.59" class="st5"/>
		</g>
		<g id="shape286-87" v:mID="286" v:groupContext="shape" transform="translate(54.4589,-101.308) rotate(-36.8699)">
			<title>Kracht.286</title>
			<path d="M7.55 206.59 L7.91 206.59 L28.35 206.59" class="st5"/>
		</g>
		<g id="shape287-92" v:mID="287" v:groupContext="shape" transform="translate(52.8256,193.59) rotate(-126.87)">
			<title>Kracht.287</title>
			<path d="M7.55 206.59 L7.91 206.59 L28.35 206.59" class="st5"/>
		</g>
		<g id="shape288-97" v:mID="288" v:groupContext="shape" transform="translate(44.3216,182.96) rotate(-126.87)">
			<title>Moment.288</title>
			<path d="M-0 206.59 A14.1732 14.1732 0 0 1 14.17 192.42 A14.1732 14.1732 0 0 1 26.14 199 L26.24 199.34" class="st7"/>
		</g>
		<g id="shape289-102" v:mID="289" v:groupContext="shape" transform="translate(198.257,259.219) scale(1,-1)">
			<title>Moment.289</title>
			<path d="M-0 206.59 A14.1732 14.1732 0 0 1 14.17 192.42 A14.1732 14.1732 0 0 1 26.14 199 L26.24 199.34" class="st7"/>
		</g>
		<g id="shape290-107" v:mID="290" v:groupContext="shape" transform="translate(247.171,123.493) rotate(90)">
			<title>Kracht.290</title>
			<path d="M7.55 206.59 L7.91 206.59 L28.35 206.59" class="st5"/>
		</g>
		<g id="shape291-112" v:mID="291" v:groupContext="shape" transform="translate(68.9259,358.431) rotate(180)">
			<title>Kracht.291</title>
			<path d="M7.55 206.59 L7.91 206.59 L28.35 206.59" class="st5"/>
		</g>
		<g id="shape292-117" v:mID="292" v:groupContext="shape" transform="translate(198.55,305.774) rotate(143.13)">
			<title>Kracht.292</title>
			<path d="M7.55 206.59 L7.91 206.59 L28.35 206.59" class="st5"/>
		</g>
		<g id="shape293-122" v:mID="293" v:groupContext="shape" transform="translate(200.184,10.8762) rotate(53.1301)">
			<title>Kracht.293</title>
			<path d="M7.55 206.59 L7.91 206.59 L28.35 206.59" class="st5"/>
		</g>
		<g id="shape294-127" v:mID="294" v:groupContext="shape" transform="translate(419.022,123.493) rotate(90)">
			<title>Kracht.294</title>
			<path d="M7.55 206.59 L7.91 206.59 L28.35 206.59" class="st5"/>
		</g>
		<g id="shape295-132" v:mID="295" v:groupContext="shape" transform="translate(419.022,166.013) rotate(90)">
			<title>Kracht.295</title>
			<path d="M7.55 206.59 L7.91 206.59 L28.35 206.59" class="st5"/>
		</g>
		<g id="shape296-137" v:mID="296" v:groupContext="shape" transform="translate(38.4535,372.605) rotate(180)">
			<title>Kracht.296</title>
			<path d="M7.55 206.59 L7.91 206.59 L28.35 206.59" class="st5"/>
		</g>
		<g id="shape297-142" v:mID="297" v:groupContext="shape" transform="translate(247.171,168.139) rotate(90)">
			<title>Kracht.297</title>
			<path d="M7.55 206.59 L7.91 206.59 L28.35 206.59" class="st5"/>
		</g>
		<g id="shape298-147" v:mID="298" v:groupContext="shape" transform="translate(70.6976,-182.312)">
			<title>Blad.298</title>
			<desc>3</desc>
			<v:textBlock v:margins="rect(4,4,4,4)" v:tabSpace="42.5197"/>
			<v:textRect cx="7.08661" cy="199.505" width="14.18" height="14.1732"/>
			<rect x="0" y="192.419" width="14.1732" height="14.1732" class="st8"/>
			<text x="4.09" y="203.11" class="st9" v:langID="1043"><v:paragraph v:horizAlign="1"/><v:tabList/>3</text>		</g>
		<g id="shape299-150" v:mID="299" v:groupContext="shape" transform="translate(14.0047,-125.619)">
			<title>Blad.299</title>
			<desc>3</desc>
			<v:textBlock v:margins="rect(4,4,4,4)" v:tabSpace="42.5197"/>
			<v:textRect cx="7.08661" cy="199.505" width="14.18" height="14.1732"/>
			<rect x="0" y="192.419" width="14.1732" height="14.1732" class="st8"/>
			<text x="4.09" y="203.11" class="st9" v:langID="1043"><v:paragraph v:horizAlign="1"/><v:tabList/>3</text>		</g>
		<g id="shape300-153" v:mID="300" v:groupContext="shape" transform="translate(77.7842,-54.7527)">
			<title>Blad.300</title>
			<desc>2</desc>
			<v:textBlock v:margins="rect(4,4,4,4)" v:tabSpace="42.5197"/>
			<v:textRect cx="7.08661" cy="199.505" width="14.18" height="14.1732"/>
			<rect x="0" y="192.419" width="14.1732" height="14.1732" class="st8"/>
			<text x="4.09" y="203.11" class="st9" v:langID="1043"><v:paragraph v:horizAlign="1"/><v:tabList/>2</text>		</g>
		<g id="shape301-156" v:mID="301" v:groupContext="shape" transform="translate(42.3511,-76.0125)">
			<title>Blad.301</title>
			<desc>2</desc>
			<v:textBlock v:margins="rect(4,4,4,4)" v:tabSpace="42.5197"/>
			<v:textRect cx="7.08661" cy="199.505" width="14.18" height="14.1732"/>
			<rect x="0" y="192.419" width="14.1732" height="14.1732" class="st8"/>
			<text x="4.09" y="203.11" class="st9" v:langID="1043"><v:paragraph v:horizAlign="1"/><v:tabList/>2</text>		</g>
		<g id="shape302-159" v:mID="302" v:groupContext="shape" transform="translate(184.083,-175.225)">
			<title>Blad.302</title>
			<desc>2</desc>
			<v:textBlock v:margins="rect(4,4,4,4)" v:tabSpace="42.5197"/>
			<v:textRect cx="7.08661" cy="199.505" width="14.18" height="14.1732"/>
			<rect x="0" y="192.419" width="14.1732" height="14.1732" class="st8"/>
			<text x="4.09" y="203.11" class="st9" v:langID="1043"><v:paragraph v:horizAlign="1"/><v:tabList/>2</text>		</g>
		<g id="shape303-162" v:mID="303" v:groupContext="shape" transform="translate(226.603,-125.619)">
			<title>Blad.303</title>
			<desc>3</desc>
			<v:textBlock v:margins="rect(4,4,4,4)" v:tabSpace="42.5197"/>
			<v:textRect cx="7.08661" cy="199.505" width="14.18" height="14.1732"/>
			<rect x="0" y="192.419" width="14.1732" height="14.1732" class="st8"/>
			<text x="4.09" y="203.11" class="st9" v:langID="1043"><v:paragraph v:horizAlign="1"/><v:tabList/>3</text>		</g>
		<g id="shape304-165" v:mID="304" v:groupContext="shape" transform="translate(184.083,-125.619)">
			<title>Blad.304</title>
			<desc>3</desc>
			<v:textBlock v:margins="rect(4,4,4,4)" v:tabSpace="42.5197"/>
			<v:textRect cx="7.08661" cy="199.505" width="14.18" height="14.1732"/>
			<rect x="0" y="192.419" width="14.1732" height="14.1732" class="st8"/>
			<text x="4.09" y="203.11" class="st9" v:langID="1043"><v:paragraph v:horizAlign="1"/><v:tabList/>3</text>		</g>
		<g id="shape305-168" v:mID="305" v:groupContext="shape" transform="translate(219.516,-54.7527)">
			<title>Blad.305</title>
			<desc>1</desc>
			<v:textBlock v:margins="rect(4,4,4,4)" v:tabSpace="42.5197"/>
			<v:textRect cx="7.08661" cy="199.505" width="14.18" height="14.1732"/>
			<rect x="0" y="192.419" width="14.1732" height="14.1732" class="st8"/>
			<text x="4.09" y="203.11" class="st9" v:langID="1043"><v:paragraph v:horizAlign="1"/><v:tabList/>1</text>		</g>
		<g id="shape306-171" v:mID="306" v:groupContext="shape" transform="translate(219.516,-19.3196)">
			<title>Blad.306</title>
			<desc>1</desc>
			<v:textBlock v:margins="rect(4,4,4,4)" v:tabSpace="42.5197"/>
			<v:textRect cx="7.08661" cy="199.505" width="14.18" height="14.1732"/>
			<rect x="0" y="192.419" width="14.1732" height="14.1732" class="st8"/>
			<text x="4.09" y="203.11" class="st9" v:langID="1043"><v:paragraph v:horizAlign="1"/><v:tabList/>1</text>		</g>
		<g id="shape307-174" v:mID="307" v:groupContext="shape" transform="translate(14.0047,-19.3196)">
			<title>Blad.307</title>
			<desc>2</desc>
			<v:textBlock v:margins="rect(4,4,4,4)" v:tabSpace="42.5197"/>
			<v:textRect cx="7.08661" cy="199.505" width="14.18" height="14.1732"/>
			<rect x="0" y="192.419" width="14.1732" height="14.1732" class="st8"/>
			<text x="4.09" y="203.11" class="st9" v:langID="1043"><v:paragraph v:horizAlign="1"/><v:tabList/>2</text>		</g>
	</g>
</svg>
