<?xml version="1.0" encoding="UTF-8" standalone="no"?>
<!DOCTYPE svg PUBLIC "-//W3C//DTD SVG 1.1//EN" "http://www.w3.org/Graphics/SVG/1.1/DTD/svg11.dtd">
<!-- Generated by Microsoft Visio, SVG Export Oefening_14.svg Page-1 -->
<svg xmlns="http://www.w3.org/2000/svg" xmlns:xlink="http://www.w3.org/1999/xlink" xmlns:ev="http://www.w3.org/2001/xml-events"
		xmlns:v="http://schemas.microsoft.com/visio/2003/SVGExtensions/" width="3.48449in" height="2.86933in"
		viewBox="0 0 250.883 206.592" xml:space="preserve" color-interpolation-filters="sRGB" class="st12">
	<v:documentProperties v:langID="1043" v:metric="true" v:viewMarkup="false"/>

	<style type="text/css">
	<![CDATA[
		.st1 {stroke:#000000;stroke-linecap:round;stroke-linejoin:round;stroke-opacity:0.5;stroke-width:2}
		.st2 {fill:#ffffff;stroke:#000000;stroke-linecap:round;stroke-linejoin:round;stroke-opacity:0.5;stroke-width:0.75}
		.st3 {marker-start:url(#mrkr5-34);stroke:#800000;stroke-linecap:round;stroke-linejoin:round;stroke-opacity:0.5;stroke-width:2}
		.st4 {fill:#800000;fill-opacity:0.5;stroke:#800000;stroke-opacity:0.5;stroke-width:0.4424778761062}
		.st5 {marker-start:url(#mrkr5-40);stroke:#31859b;stroke-linecap:round;stroke-linejoin:round;stroke-width:2}
		.st6 {fill:#31859b;fill-opacity:1;stroke:#31859b;stroke-opacity:1;stroke-width:0.4424778761062}
		.st7 {marker-end:url(#mrkr5-61);stroke:#31859b;stroke-linecap:round;stroke-linejoin:round;stroke-width:2}
		.st8 {marker-start:url(#mrkr5-137);stroke:#00cc99;stroke-linecap:round;stroke-linejoin:round;stroke-width:2}
		.st9 {fill:#00cc99;fill-opacity:1;stroke:#00cc99;stroke-opacity:1;stroke-width:0.4424778761062}
		.st10 {fill:none;stroke:none;stroke-linecap:round;stroke-linejoin:round;stroke-width:0.75}
		.st11 {fill:#000000;font-family:Times New Roman;font-size:1.00001em}
		.st12 {fill:none;fill-rule:evenodd;font-size:12px;overflow:visible;stroke-linecap:square;stroke-miterlimit:3}
	]]>
	</style>

	<defs id="Markers">
		<g id="lend5">
			<path d="M 2 1 L 0 0 L 1.98117 -0.993387 C 1.67173 -0.364515 1.67301 0.372641 1.98465 1.00043 " style="stroke:none"/>
		</g>
		<marker id="mrkr5-34" class="st4" v:arrowType="5" v:arrowSize="2" v:setback="3.775" refX="3.775" orient="auto"
				markerUnits="strokeWidth" overflow="visible">
			<use xlink:href="#lend5" transform="scale(2.26) "/>
		</marker>
		<marker id="mrkr5-40" class="st6" v:arrowType="5" v:arrowSize="2" v:setback="3.775" refX="3.775" orient="auto"
				markerUnits="strokeWidth" overflow="visible">
			<use xlink:href="#lend5" transform="scale(2.26) "/>
		</marker>
		<marker id="mrkr5-61" class="st6" v:arrowType="5" v:arrowSize="2" v:setback="3.775" refX="-3.775" orient="auto"
				markerUnits="strokeWidth" overflow="visible">
			<use xlink:href="#lend5" transform="scale(-2.26,-2.26) "/>
		</marker>
		<marker id="mrkr5-137" class="st9" v:arrowType="5" v:arrowSize="2" v:setback="3.775" refX="3.775" orient="auto"
				markerUnits="strokeWidth" overflow="visible">
			<use xlink:href="#lend5" transform="scale(2.26) "/>
		</marker>
	</defs>
	<g v:mID="0" v:index="1" v:groupContext="foregroundPage">
		<title>Page-1</title>
		<v:pageProperties v:drawingScale="0.0393701" v:pageScale="0.0393701" v:drawingUnits="24" v:shadowOffsetX="8.50394"
				v:shadowOffsetY="-8.50394"/>
		<g id="shape792-1" v:mID="792" v:groupContext="shape" transform="translate(198.257,-168.139)">
			<title>Ligger, 2 pt.265</title>
			<path d="M0 206.59 L14.17 206.59" class="st1"/>
		</g>
		<g id="shape793-4" v:mID="793" v:groupContext="shape" transform="translate(5.83786,52.6267) rotate(-90)">
			<title>Ligger, 2 pt.266</title>
			<path d="M0 206.59 L14.17 206.59" class="st1"/>
		</g>
		<g id="shape794-7" v:mID="794" v:groupContext="shape" transform="translate(77.1361,-118.316) rotate(-36.8699)">
			<title>Ligger, 2 pt.267</title>
			<path d="M0 206.59 L14.17 206.59" class="st1"/>
		</g>
		<g id="shape795-10" v:mID="795" v:groupContext="shape" transform="translate(205.343,-166.013)">
			<title>Scharnier.268</title>
			<ellipse cx="2.12598" cy="204.466" rx="2.12598" ry="2.12598" class="st2"/>
		</g>
		<g id="shape796-12" v:mID="796" v:groupContext="shape" transform="translate(5.83788,166.013) rotate(-90)">
			<title>Ligger, 2 pt.269</title>
			<path d="M0 206.59 L14.17 206.59" class="st1"/>
		</g>
		<g id="shape797-15" v:mID="797" v:groupContext="shape" transform="translate(-166.013,166.013) rotate(-90)">
			<title>Ligger, 2 pt.270</title>
			<path d="M0 206.59 L14.17 206.59" class="st1"/>
		</g>
		<g id="shape798-18" v:mID="798" v:groupContext="shape" transform="translate(-83.3757,0.738956) rotate(-36.8699)">
			<title>Ligger, 2 pt.271</title>
			<path d="M0 206.59 L14.17 206.59" class="st1"/>
		</g>
		<g id="shape799-21" v:mID="799" v:groupContext="shape" transform="translate(38.4535,-38.4535)">
			<title>Scharnier.272</title>
			<ellipse cx="2.12598" cy="204.466" rx="2.12598" ry="2.12598" class="st2"/>
		</g>
		<g id="shape800-23" v:mID="800" v:groupContext="shape" transform="translate(-164.241,52.6267) rotate(-90)">
			<title>Ligger, 2 pt.273</title>
			<path d="M0 206.59 L14.17 206.59" class="st1"/>
		</g>
		<g id="shape801-26" v:mID="801" v:groupContext="shape" transform="translate(42.3511,-168.139)">
			<title>Ligger, 2 pt.274</title>
			<path d="M0 206.59 L14.17 206.59" class="st1"/>
		</g>
		<g id="shape802-29" v:mID="802" v:groupContext="shape" transform="translate(-164.241,38.4535) rotate(-90)">
			<title>Kracht.275</title>
			<path d="M7.55 206.59 L7.91 206.59 L28.35 206.59" class="st3"/>
		</g>
		<g id="shape803-35" v:mID="803" v:groupContext="shape" transform="translate(-164.241,80.9732) rotate(-90)">
			<title>Kracht.276</title>
			<path d="M7.55 206.59 L7.91 206.59 L28.35 206.59" class="st5"/>
		</g>
		<g id="shape804-41" v:mID="804" v:groupContext="shape" transform="translate(263.116,10.107) rotate(90)">
			<title>Kracht.277</title>
			<path d="M7.55 206.59 L7.91 206.59 L28.35 206.59" class="st5"/>
		</g>
		<g id="shape805-46" v:mID="805" v:groupContext="shape" transform="translate(14.0047,-153.965)">
			<title>Kracht.278</title>
			<path d="M7.55 206.59 L7.91 206.59 L28.35 206.59" class="st5"/>
		</g>
		<g id="shape806-51" v:mID="806" v:groupContext="shape" transform="translate(84.8708,245.045) rotate(180)">
			<title>Kracht.279</title>
			<path d="M7.55 206.59 L7.91 206.59 L28.35 206.59" class="st5"/>
		</g>
		<g id="shape807-56" v:mID="807" v:groupContext="shape" transform="translate(263.116,24.2803) rotate(90)">
			<title>Moment.280</title>
			<path d="M-0 206.59 A14.1732 14.1732 0 0 1 14.17 192.42 A14.1732 14.1732 0 0 1 26.14 199 L26.24 199.34" class="st7"/>
		</g>
		<g id="shape808-62" v:mID="808" v:groupContext="shape" transform="translate(56.5243,259.219) rotate(180)">
			<title>Moment.281</title>
			<path d="M-0 206.59 A14.1732 14.1732 0 0 1 14.17 192.42 A14.1732 14.1732 0 0 1 26.14 199 L26.24 199.34" class="st7"/>
		</g>
		<g id="shape809-67" v:mID="809" v:groupContext="shape" transform="translate(169.91,-168.139)">
			<title>Kracht.282</title>
			<path d="M7.55 206.59 L7.91 206.59 L28.35 206.59" class="st5"/>
		</g>
		<g id="shape810-72" v:mID="810" v:groupContext="shape" transform="translate(-8.33537,66.7999) rotate(-90)">
			<title>Kracht.283</title>
			<path d="M7.55 206.59 L7.91 206.59 L28.35 206.59" class="st5"/>
		</g>
		<g id="shape811-77" v:mID="811" v:groupContext="shape" transform="translate(5.83788,80.9732) rotate(-90)">
			<title>Kracht.284</title>
			<path d="M7.55 206.59 L7.91 206.59 L28.35 206.59" class="st5"/>
		</g>
		<g id="shape812-82" v:mID="812" v:groupContext="shape" transform="translate(240.776,259.219) rotate(180)">
			<title>Kracht.285</title>
			<path d="M7.55 206.59 L7.91 206.59 L28.35 206.59" class="st5"/>
		</g>
		<g id="shape813-87" v:mID="813" v:groupContext="shape" transform="translate(54.4589,-101.308) rotate(-36.8699)">
			<title>Kracht.286</title>
			<path d="M7.55 206.59 L7.91 206.59 L28.35 206.59" class="st5"/>
		</g>
		<g id="shape814-92" v:mID="814" v:groupContext="shape" transform="translate(52.8256,193.59) rotate(-126.87)">
			<title>Kracht.287</title>
			<path d="M7.55 206.59 L7.91 206.59 L28.35 206.59" class="st5"/>
		</g>
		<g id="shape815-97" v:mID="815" v:groupContext="shape" transform="translate(44.3216,182.96) rotate(-126.87)">
			<title>Moment.288</title>
			<path d="M-0 206.59 A14.1732 14.1732 0 0 1 14.17 192.42 A14.1732 14.1732 0 0 1 26.14 199 L26.24 199.34" class="st7"/>
		</g>
		<g id="shape816-102" v:mID="816" v:groupContext="shape" transform="translate(198.257,259.219) scale(1,-1)">
			<title>Moment.289</title>
			<path d="M-0 206.59 A14.1732 14.1732 0 0 1 14.17 192.42 A14.1732 14.1732 0 0 1 26.14 199 L26.24 199.34" class="st7"/>
		</g>
		<g id="shape817-107" v:mID="817" v:groupContext="shape" transform="translate(247.171,123.493) rotate(90)">
			<title>Kracht.290</title>
			<path d="M7.55 206.59 L7.91 206.59 L28.35 206.59" class="st5"/>
		</g>
		<g id="shape818-112" v:mID="818" v:groupContext="shape" transform="translate(68.9259,358.431) rotate(180)">
			<title>Kracht.291</title>
			<path d="M7.55 206.59 L7.91 206.59 L28.35 206.59" class="st5"/>
		</g>
		<g id="shape819-117" v:mID="819" v:groupContext="shape" transform="translate(198.55,305.774) rotate(143.13)">
			<title>Kracht.292</title>
			<path d="M7.55 206.59 L7.91 206.59 L28.35 206.59" class="st5"/>
		</g>
		<g id="shape820-122" v:mID="820" v:groupContext="shape" transform="translate(200.184,10.8762) rotate(53.1301)">
			<title>Kracht.293</title>
			<path d="M7.55 206.59 L7.91 206.59 L28.35 206.59" class="st5"/>
		</g>
		<g id="shape821-127" v:mID="821" v:groupContext="shape" transform="translate(419.022,123.493) rotate(90)">
			<title>Kracht.294</title>
			<path d="M7.55 206.59 L7.91 206.59 L28.35 206.59" class="st5"/>
		</g>
		<g id="shape822-132" v:mID="822" v:groupContext="shape" transform="translate(419.022,166.013) rotate(90)">
			<title>Kracht.295</title>
			<path d="M7.55 206.59 L7.91 206.59 L28.35 206.59" class="st8"/>
		</g>
		<g id="shape823-138" v:mID="823" v:groupContext="shape" transform="translate(38.4535,372.605) rotate(180)">
			<title>Kracht.296</title>
			<path d="M7.55 206.59 L7.91 206.59 L28.35 206.59" class="st8"/>
		</g>
		<g id="shape824-143" v:mID="824" v:groupContext="shape" transform="translate(247.171,168.139) rotate(90)">
			<title>Kracht.297</title>
			<path d="M7.55 206.59 L7.91 206.59 L28.35 206.59" class="st8"/>
		</g>
		<g id="shape825-148" v:mID="825" v:groupContext="shape" transform="translate(70.6976,-182.312)">
			<title>Sheet.825</title>
			<desc>3</desc>
			<v:textBlock v:margins="rect(4,4,4,4)" v:tabSpace="42.5197"/>
			<v:textRect cx="7.08661" cy="199.505" width="14.18" height="14.1732"/>
			<rect x="0" y="192.419" width="14.1732" height="14.1732" class="st10"/>
			<text x="4.09" y="203.11" class="st11" v:langID="1043"><v:paragraph v:horizAlign="1"/><v:tabList/>3</text>		</g>
		<g id="shape826-151" v:mID="826" v:groupContext="shape" transform="translate(14.0047,-125.619)">
			<title>Sheet.826</title>
			<desc>3</desc>
			<v:textBlock v:margins="rect(4,4,4,4)" v:tabSpace="42.5197"/>
			<v:textRect cx="7.08661" cy="199.505" width="14.18" height="14.1732"/>
			<rect x="0" y="192.419" width="14.1732" height="14.1732" class="st10"/>
			<text x="4.09" y="203.11" class="st11" v:langID="1043"><v:paragraph v:horizAlign="1"/><v:tabList/>3</text>		</g>
		<g id="shape827-154" v:mID="827" v:groupContext="shape" transform="translate(77.7842,-54.7527)">
			<title>Sheet.827</title>
			<desc>2</desc>
			<v:textBlock v:margins="rect(4,4,4,4)" v:tabSpace="42.5197"/>
			<v:textRect cx="7.08661" cy="199.505" width="14.18" height="14.1732"/>
			<rect x="0" y="192.419" width="14.1732" height="14.1732" class="st10"/>
			<text x="4.09" y="203.11" class="st11" v:langID="1043"><v:paragraph v:horizAlign="1"/><v:tabList/>2</text>		</g>
		<g id="shape828-157" v:mID="828" v:groupContext="shape" transform="translate(42.3511,-76.0125)">
			<title>Sheet.828</title>
			<desc>2</desc>
			<v:textBlock v:margins="rect(4,4,4,4)" v:tabSpace="42.5197"/>
			<v:textRect cx="7.08661" cy="199.505" width="14.18" height="14.1732"/>
			<rect x="0" y="192.419" width="14.1732" height="14.1732" class="st10"/>
			<text x="4.09" y="203.11" class="st11" v:langID="1043"><v:paragraph v:horizAlign="1"/><v:tabList/>2</text>		</g>
		<g id="shape829-160" v:mID="829" v:groupContext="shape" transform="translate(184.083,-175.225)">
			<title>Sheet.829</title>
			<desc>2</desc>
			<v:textBlock v:margins="rect(4,4,4,4)" v:tabSpace="42.5197"/>
			<v:textRect cx="7.08661" cy="199.505" width="14.18" height="14.1732"/>
			<rect x="0" y="192.419" width="14.1732" height="14.1732" class="st10"/>
			<text x="4.09" y="203.11" class="st11" v:langID="1043"><v:paragraph v:horizAlign="1"/><v:tabList/>2</text>		</g>
		<g id="shape830-163" v:mID="830" v:groupContext="shape" transform="translate(226.603,-125.619)">
			<title>Sheet.830</title>
			<desc>3</desc>
			<v:textBlock v:margins="rect(4,4,4,4)" v:tabSpace="42.5197"/>
			<v:textRect cx="7.08661" cy="199.505" width="14.18" height="14.1732"/>
			<rect x="0" y="192.419" width="14.1732" height="14.1732" class="st10"/>
			<text x="4.09" y="203.11" class="st11" v:langID="1043"><v:paragraph v:horizAlign="1"/><v:tabList/>3</text>		</g>
		<g id="shape831-166" v:mID="831" v:groupContext="shape" transform="translate(184.083,-125.619)">
			<title>Sheet.831</title>
			<desc>3</desc>
			<v:textBlock v:margins="rect(4,4,4,4)" v:tabSpace="42.5197"/>
			<v:textRect cx="7.08661" cy="199.505" width="14.18" height="14.1732"/>
			<rect x="0" y="192.419" width="14.1732" height="14.1732" class="st10"/>
			<text x="4.09" y="203.11" class="st11" v:langID="1043"><v:paragraph v:horizAlign="1"/><v:tabList/>3</text>		</g>
		<g id="shape832-169" v:mID="832" v:groupContext="shape" transform="translate(219.516,-54.7527)">
			<title>Sheet.832</title>
			<desc>1</desc>
			<v:textBlock v:margins="rect(4,4,4,4)" v:tabSpace="42.5197"/>
			<v:textRect cx="7.08661" cy="199.505" width="14.18" height="14.1732"/>
			<rect x="0" y="192.419" width="14.1732" height="14.1732" class="st10"/>
			<text x="4.09" y="203.11" class="st11" v:langID="1043"><v:paragraph v:horizAlign="1"/><v:tabList/>1</text>		</g>
		<g id="shape833-172" v:mID="833" v:groupContext="shape" transform="translate(219.516,-19.3196)">
			<title>Sheet.833</title>
			<desc>1</desc>
			<v:textBlock v:margins="rect(4,4,4,4)" v:tabSpace="42.5197"/>
			<v:textRect cx="7.08661" cy="199.505" width="14.18" height="14.1732"/>
			<rect x="0" y="192.419" width="14.1732" height="14.1732" class="st10"/>
			<text x="4.09" y="203.11" class="st11" v:langID="1043"><v:paragraph v:horizAlign="1"/><v:tabList/>1</text>		</g>
		<g id="shape834-175" v:mID="834" v:groupContext="shape" transform="translate(14.0047,-19.3196)">
			<title>Sheet.834</title>
			<desc>2</desc>
			<v:textBlock v:margins="rect(4,4,4,4)" v:tabSpace="42.5197"/>
			<v:textRect cx="7.08661" cy="199.505" width="14.18" height="14.1732"/>
			<rect x="0" y="192.419" width="14.1732" height="14.1732" class="st10"/>
			<text x="4.09" y="203.11" class="st11" v:langID="1043"><v:paragraph v:horizAlign="1"/><v:tabList/>2</text>		</g>
	</g>
</svg>
