<?xml version="1.0" encoding="UTF-8" standalone="no"?>
<!DOCTYPE svg PUBLIC "-//W3C//DTD SVG 1.1//EN" "http://www.w3.org/Graphics/SVG/1.1/DTD/svg11.dtd">
<!-- Generated by Microsoft Visio, SVG Export Oefening_15.svg Page-1 -->
<svg xmlns="http://www.w3.org/2000/svg" xmlns:xlink="http://www.w3.org/1999/xlink" xmlns:ev="http://www.w3.org/2001/xml-events"
		xmlns:v="http://schemas.microsoft.com/visio/2003/SVGExtensions/" width="4.67314in" height="3.43036in"
		viewBox="0 0 336.466 246.986" xml:space="preserve" color-interpolation-filters="sRGB" class="st11">
	<v:documentProperties v:langID="1043" v:metric="true" v:viewMarkup="false"/>

	<style type="text/css">
	<![CDATA[
		.st1 {stroke:#000000;stroke-linecap:round;stroke-linejoin:round;stroke-opacity:0.5;stroke-width:2}
		.st2 {marker-end:url(#mrkr5-18);stroke:#800000;stroke-linecap:round;stroke-linejoin:round;stroke-opacity:0.5;stroke-width:1.2}
		.st3 {fill:#800000;fill-opacity:0.5;stroke:#800000;stroke-opacity:0.5;stroke-width:0.45454545454546}
		.st4 {stroke:#800000;stroke-linecap:round;stroke-linejoin:round;stroke-opacity:0.5;stroke-width:1.2}
		.st5 {marker-start:url(#mrkr5-52);stroke:#31859b;stroke-linecap:round;stroke-linejoin:round;stroke-width:2}
		.st6 {fill:#31859b;fill-opacity:1;stroke:#31859b;stroke-opacity:1;stroke-width:0.4424778761062}
		.st7 {marker-end:url(#mrkr5-63);stroke:#31859b;stroke-linecap:round;stroke-linejoin:round;stroke-width:2}
		.st8 {fill:none;stroke:none;stroke-linecap:round;stroke-linejoin:round;stroke-width:0.75}
		.st9 {fill:#000000;font-family:Times New Roman;font-size:1.00001em}
		.st10 {fill:none;stroke:#ffffff;stroke-linecap:round;stroke-linejoin:round;stroke-width:0.75}
		.st11 {fill:none;fill-rule:evenodd;font-size:12px;overflow:visible;stroke-linecap:square;stroke-miterlimit:3}
	]]>
	</style>

	<defs id="Markers">
		<g id="lend5">
			<path d="M 2 1 L 0 0 L 1.98117 -0.993387 C 1.67173 -0.364515 1.67301 0.372641 1.98465 1.00043 " style="stroke:none"/>
		</g>
		<marker id="mrkr5-18" class="st3" v:arrowType="5" v:arrowSize="0" v:setback="3.85" refX="-3.85" orient="auto"
				markerUnits="strokeWidth" overflow="visible">
			<use xlink:href="#lend5" transform="scale(-2.2,-2.2) "/>
		</marker>
		<marker id="mrkr5-52" class="st6" v:arrowType="5" v:arrowSize="2" v:setback="3.775" refX="3.775" orient="auto"
				markerUnits="strokeWidth" overflow="visible">
			<use xlink:href="#lend5" transform="scale(2.26) "/>
		</marker>
		<marker id="mrkr5-63" class="st6" v:arrowType="5" v:arrowSize="2" v:setback="3.775" refX="-3.775" orient="auto"
				markerUnits="strokeWidth" overflow="visible">
			<use xlink:href="#lend5" transform="scale(-2.26,-2.26) "/>
		</marker>
	</defs>
	<g v:mID="0" v:index="1" v:groupContext="foregroundPage">
		<title>Page-1</title>
		<v:pageProperties v:drawingScale="0.0393701" v:pageScale="0.0393701" v:drawingUnits="24" v:shadowOffsetX="8.50394"
				v:shadowOffsetY="-8.50394"/>
		<g id="shape903-1" v:mID="903" v:groupContext="shape" transform="translate(80.9732,-208.532)">
			<title>Ligger, 2 pt.345</title>
			<path d="M0 246.99 L170.08 246.99" class="st1"/>
		</g>
		<g id="shape904-4" v:mID="904" v:groupContext="shape" transform="translate(-208.532,208.532) rotate(-90)">
			<title>Ligger, 2 pt.346</title>
			<path d="M0 246.99 L127.56 246.99" class="st1"/>
		</g>
		<g id="shape905-7" v:mID="905" v:groupContext="shape" transform="translate(60.7591,208.532) rotate(-90)">
			<title>Ligger, 2 pt.347</title>
			<path d="M0 246.99 L127.56 246.99" class="st1"/>
		</g>
		<g id="shape906-10" v:mID="906" v:groupContext="shape" transform="translate(-67.2183,10.9437) rotate(-36.8699)">
			<title>Ligger, 2 pt.348</title>
			<path d="M0 246.99 L212.6 246.99" class="st1"/>
		</g>
		<g id="shape907-13" v:mID="907" v:groupContext="shape" transform="translate(321.918,327.959) rotate(180)">
			<title>Kracht.5</title>
			<path d="M0 246.99 L9.55 246.99" class="st2"/>
		</g>
		<g id="shape908-19" v:mID="908" v:groupContext="shape" transform="translate(568.904,80.9732) rotate(90)">
			<title>Sheet.908</title>
			<path d="M0 246.99 L127.56 246.99" class="st4"/>
		</g>
		<g id="shape909-22" v:mID="909" v:groupContext="shape" transform="translate(321.918,353.471) rotate(180)">
			<title>Kracht.4</title>
			<path d="M0 246.99 L9.55 246.99" class="st2"/>
		</g>
		<g id="shape910-27" v:mID="910" v:groupContext="shape" transform="translate(321.918,378.983) rotate(180)">
			<title>Kracht.9</title>
			<path d="M0 246.99 L9.55 246.99" class="st2"/>
		</g>
		<g id="shape911-32" v:mID="911" v:groupContext="shape" transform="translate(321.918,455.518) rotate(180)">
			<title>Kracht.6</title>
			<path d="M0 246.99 L9.55 246.99" class="st2"/>
		</g>
		<g id="shape912-37" v:mID="912" v:groupContext="shape" transform="translate(321.918,430.006) rotate(180)">
			<title>Kracht.37</title>
			<path d="M0 246.99 L9.55 246.99" class="st2"/>
		</g>
		<g id="shape913-42" v:mID="913" v:groupContext="shape" transform="translate(321.918,404.494) rotate(180)">
			<title>Kracht.7</title>
			<path d="M0 246.99 L9.55 246.99" class="st2"/>
		</g>
		<g id="shape914-47" v:mID="914" v:groupContext="shape" transform="translate(52.6267,-208.532)">
			<title>Kracht.357</title>
			<path d="M7.55 246.99 L7.91 246.99 L28.35 246.99" class="st5"/>
		</g>
		<g id="shape915-53" v:mID="915" v:groupContext="shape" transform="translate(-166.013,66.7999) rotate(-90)">
			<title>Kracht.358</title>
			<path d="M7.55 246.99 L7.91 246.99 L28.35 246.99" class="st5"/>
		</g>
		<g id="shape916-58" v:mID="916" v:groupContext="shape" transform="translate(-166.013,24.2803) rotate(-90) scale(-1,1)">
			<title>Moment.359</title>
			<path d="M-0 246.99 A14.1732 14.1732 0 0 1 14.17 232.81 A14.1732 14.1732 0 0 1 26.14 239.39 L26.24 239.74" class="st7"/>
		</g>
		<g id="shape917-64" v:mID="917" v:groupContext="shape" transform="translate(285.439,52.6267) rotate(90)">
			<title>Kracht.360</title>
			<path d="M7.55 246.99 L7.91 246.99 L28.35 246.99" class="st5"/>
		</g>
		<g id="shape918-69" v:mID="918" v:groupContext="shape" transform="translate(66.7999,327.959) rotate(180)">
			<title>Kracht.361</title>
			<path d="M7.55 246.99 L7.91 246.99 L28.35 246.99" class="st5"/>
		</g>
		<g id="shape919-74" v:mID="919" v:groupContext="shape" transform="translate(52.6267,-166.013) scale(-1,1)">
			<title>Moment.362</title>
			<path d="M-0 246.99 A14.1732 14.1732 0 0 1 14.17 232.81 A14.1732 14.1732 0 0 1 26.14 239.39 L26.24 239.74" class="st7"/>
		</g>
		<g id="shape920-79" v:mID="920" v:groupContext="shape" transform="translate(498.038,10.107) rotate(90)">
			<title>Kracht.363</title>
			<path d="M7.55 246.99 L7.91 246.99 L28.35 246.99" class="st5"/>
		</g>
		<g id="shape921-84" v:mID="921" v:groupContext="shape" transform="translate(279.398,285.439) rotate(180)">
			<title>Kracht.364</title>
			<path d="M7.55 246.99 L7.91 246.99 L28.35 246.99" class="st5"/>
		</g>
		<g id="shape922-89" v:mID="922" v:groupContext="shape" transform="translate(554.731,52.6267) rotate(90)">
			<title>Kracht.365</title>
			<path d="M7.55 246.99 L7.91 246.99 L28.35 246.99" class="st5"/>
		</g>
		<g id="shape923-94" v:mID="923" v:groupContext="shape" transform="translate(279.398,-166.013)">
			<title>Kracht.366</title>
			<path d="M7.55 246.99 L7.91 246.99 L28.35 246.99" class="st5"/>
		</g>
		<g id="shape924-99" v:mID="924" v:groupContext="shape" transform="translate(293.572,-166.013)">
			<title>Moment.367</title>
			<path d="M-0 246.99 A14.1732 14.1732 0 0 1 14.17 232.81 A14.1732 14.1732 0 0 1 26.14 239.39 L26.24 239.74" class="st7"/>
		</g>
		<g id="shape925-104" v:mID="925" v:groupContext="shape" transform="translate(421.921,261.554) rotate(143.13)">
			<title>Kracht.368</title>
			<path d="M7.55 246.99 L7.91 246.99 L28.35 246.99" class="st5"/>
		</g>
		<g id="shape926-109" v:mID="926" v:groupContext="shape" transform="translate(431.633,-89.8954) rotate(53.1301)">
			<title>Kracht.369</title>
			<path d="M7.55 246.99 L7.91 246.99 L28.35 246.99" class="st5"/>
		</g>
		<g id="shape927-114" v:mID="927" v:groupContext="shape" transform="translate(457.144,-56.1631) rotate(53.1301) scale(-1,1)">
			<title>Moment.370</title>
			<path d="M-0 246.99 A14.1732 14.1732 0 0 1 14.17 232.81 A14.1732 14.1732 0 0 1 26.14 239.39 L26.24 239.74" class="st7"/>
		</g>
		<g id="shape928-119" v:mID="928" v:groupContext="shape" transform="translate(-89.8954,27.9515) rotate(-36.8699)">
			<title>Kracht.371</title>
			<path d="M7.55 246.99 L7.91 246.99 L28.35 246.99" class="st5"/>
		</g>
		<g id="shape929-124" v:mID="929" v:groupContext="shape" transform="translate(-99.6075,379.401) rotate(-126.87)">
			<title>Kracht.372</title>
			<path d="M7.55 246.99 L7.91 246.99 L28.35 246.99" class="st5"/>
		</g>
		<g id="shape930-129" v:mID="930" v:groupContext="shape" transform="translate(-208.532,236.879) rotate(-90)">
			<title>Kracht.373</title>
			<path d="M7.55 246.99 L7.91 246.99 L28.35 246.99" class="st5"/>
		</g>
		<g id="shape931-134" v:mID="931" v:groupContext="shape" transform="translate(10.107,-38.4535)">
			<title>Kracht.374</title>
			<path d="M7.55 246.99 L7.91 246.99 L28.35 246.99" class="st5"/>
		</g>
		<g id="shape932-139" v:mID="932" v:groupContext="shape" transform="translate(60.7591,236.879) rotate(-90)">
			<title>Kracht.375</title>
			<path d="M7.55 246.99 L7.91 246.99 L28.35 246.99" class="st5"/>
		</g>
		<g id="shape933-144" v:mID="933" v:groupContext="shape" transform="translate(73.8866,-10.107)">
			<title>Sheet.933</title>
			<desc>2</desc>
			<v:textBlock v:margins="rect(4,4,4,4)" v:tabSpace="42.5197"/>
			<v:textRect cx="7.08661" cy="239.899" width="14.18" height="14.1732"/>
			<rect x="0" y="232.812" width="14.1732" height="14.1732" class="st8"/>
			<text x="4.09" y="243.5" class="st9" v:langID="1043"><v:paragraph v:horizAlign="1"/><v:tabList/>2</text>		</g>
		<g id="shape934-147" v:mID="934" v:groupContext="shape" transform="translate(17.1937,-15.7763)">
			<title>Sheet.934</title>
			<desc>2</desc>
			<v:textBlock v:margins="rect(4,4,4,4)" v:tabSpace="42.5197"/>
			<v:textRect cx="7.08661" cy="239.899" width="14.18" height="14.1732"/>
			<rect x="0" y="232.812" width="14.1732" height="14.1732" class="st8"/>
			<text x="4.09" y="243.5" class="st9" v:langID="1043"><v:paragraph v:horizAlign="1"/><v:tabList/>2</text>		</g>
		<g id="shape935-150" v:mID="935" v:groupContext="shape" transform="translate(52.6267,-222.705)">
			<title>Sheet.935</title>
			<desc>3</desc>
			<v:textBlock v:margins="rect(4,4,4,4)" v:tabSpace="42.5197"/>
			<v:textRect cx="7.08661" cy="239.899" width="14.18" height="14.1732"/>
			<rect x="0" y="232.812" width="14.1732" height="14.1732" class="st10"/>
			<text x="4.09" y="243.5" class="st9" v:langID="1043"><v:paragraph v:horizAlign="1"/><v:tabList/>3</text>		</g>
		<g id="shape936-153" v:mID="936" v:groupContext="shape" transform="translate(52.6267,-173.099)">
			<title>Sheet.936</title>
			<desc>3</desc>
			<v:textBlock v:margins="rect(4,4,4,4)" v:tabSpace="42.5197"/>
			<v:textRect cx="7.08661" cy="239.899" width="14.18" height="14.1732"/>
			<rect x="0" y="232.812" width="14.1732" height="14.1732" class="st10"/>
			<text x="4.09" y="243.5" class="st9" v:langID="1043"><v:paragraph v:horizAlign="1"/><v:tabList/>3</text>		</g>
		<g id="shape937-156" v:mID="937" v:groupContext="shape" transform="translate(265.225,-222.705)">
			<title>Sheet.937</title>
			<desc>2</desc>
			<v:textBlock v:margins="rect(4,4,4,4)" v:tabSpace="42.5197"/>
			<v:textRect cx="7.08661" cy="239.899" width="14.18" height="14.1732"/>
			<rect x="0" y="232.812" width="14.1732" height="14.1732" class="st8"/>
			<text x="4.09" y="243.5" class="st9" v:langID="1043"><v:paragraph v:horizAlign="1"/><v:tabList/>2</text>		</g>
		<g id="shape938-159" v:mID="938" v:groupContext="shape" transform="translate(321.918,-180.186)">
			<title>Sheet.938</title>
			<desc>3</desc>
			<v:textBlock v:margins="rect(4,4,4,4)" v:tabSpace="42.5197"/>
			<v:textRect cx="7.08661" cy="239.899" width="14.18" height="14.1732"/>
			<rect x="0" y="232.812" width="14.1732" height="14.1732" class="st8"/>
			<text x="4.09" y="243.5" class="st9" v:langID="1043"><v:paragraph v:horizAlign="1"/><v:tabList/>3</text>		</g>
		<g id="shape939-162" v:mID="939" v:groupContext="shape" transform="translate(215.619,-166.013)">
			<title>Sheet.939</title>
			<desc>3</desc>
			<v:textBlock v:margins="rect(4,4,4,4)" v:tabSpace="42.5197"/>
			<v:textRect cx="7.08661" cy="239.899" width="14.18" height="14.1732"/>
			<rect x="0" y="232.812" width="14.1732" height="14.1732" class="st8"/>
			<text x="4.09" y="243.5" class="st9" v:langID="1043"><v:paragraph v:horizAlign="1"/><v:tabList/>3</text>		</g>
		<g id="shape940-165" v:mID="940" v:groupContext="shape" transform="translate(314.831,-17.1936)">
			<title>Sheet.940</title>
			<desc>1</desc>
			<v:textBlock v:margins="rect(4,4,4,4)" v:tabSpace="42.5197"/>
			<v:textRect cx="7.08661" cy="239.899" width="14.18" height="14.1732"/>
			<rect x="0" y="232.812" width="14.1732" height="14.1732" class="st8"/>
			<text x="4.09" y="243.5" class="st9" v:langID="1043"><v:paragraph v:horizAlign="1"/><v:tabList/>1</text>		</g>
	</g>
</svg>
