<?xml version="1.0" encoding="UTF-8" standalone="no"?>
<!DOCTYPE svg PUBLIC "-//W3C//DTD SVG 1.1//EN" "http://www.w3.org/Graphics/SVG/1.1/DTD/svg11.dtd">
<!-- Gegenereerd door Microsoft Visio, SVG Export Oefening_16.svg Pagina-1 -->
<svg xmlns="http://www.w3.org/2000/svg" xmlns:xlink="http://www.w3.org/1999/xlink" xmlns:ev="http://www.w3.org/2001/xml-events"
		xmlns:v="http://schemas.microsoft.com/visio/2003/SVGExtensions/" width="4.61146in" height="3.43036in"
		viewBox="0 0 332.025 246.986" xml:space="preserve" color-interpolation-filters="sRGB" class="st10">
	<v:documentProperties v:langID="1043" v:metric="true" v:viewMarkup="false"/>

	<style type="text/css">
	<![CDATA[
		.st1 {stroke:#000000;stroke-linecap:round;stroke-linejoin:round;stroke-width:2}
		.st2 {marker-end:url(#mrkr5-18);stroke:#800000;stroke-linecap:round;stroke-linejoin:round;stroke-opacity:0.5;stroke-width:1.2}
		.st3 {fill:#800000;fill-opacity:0.5;stroke:#800000;stroke-opacity:0.5;stroke-width:0.45454545454546}
		.st4 {stroke:#800000;stroke-linecap:round;stroke-linejoin:round;stroke-opacity:0.5;stroke-width:1.2}
		.st5 {marker-start:url(#mrkr5-52);stroke:#800000;stroke-linecap:round;stroke-linejoin:round;stroke-opacity:0.5;stroke-width:2}
		.st6 {fill:#800000;fill-opacity:0.5;stroke:#800000;stroke-opacity:0.5;stroke-width:0.44247787610619}
		.st7 {marker-end:url(#mrkr5-63);stroke:#800000;stroke-linecap:round;stroke-linejoin:round;stroke-opacity:0.5;stroke-width:2}
		.st8 {fill:none;stroke:none;stroke-linecap:round;stroke-linejoin:round;stroke-width:0.75}
		.st9 {fill:#000000;font-family:Times New Roman;font-size:1.00001em}
		.st10 {fill:none;fill-rule:evenodd;font-size:12px;overflow:visible;stroke-linecap:square;stroke-miterlimit:3}
	]]>
	</style>

	<defs id="Markers">
		<g id="lend5">
			<path d="M 2 1 L 0 0 L 1.98117 -0.993387 C 1.67173 -0.364515 1.67301 0.372641 1.98465 1.00043 " style="stroke:none"/>
		</g>
		<marker id="mrkr5-18" class="st3" v:arrowType="5" v:arrowSize="0" v:setback="3.85" refX="-3.85" orient="auto"
				markerUnits="strokeWidth" overflow="visible">
			<use xlink:href="#lend5" transform="scale(-2.2,-2.2) "/>
		</marker>
		<marker id="mrkr5-52" class="st6" v:arrowType="5" v:arrowSize="2" v:setback="3.775" refX="3.775" orient="auto"
				markerUnits="strokeWidth" overflow="visible">
			<use xlink:href="#lend5" transform="scale(2.26) "/>
		</marker>
		<marker id="mrkr5-63" class="st6" v:arrowType="5" v:arrowSize="2" v:setback="3.775" refX="-3.775" orient="auto"
				markerUnits="strokeWidth" overflow="visible">
			<use xlink:href="#lend5" transform="scale(-2.26,-2.26) "/>
		</marker>
	</defs>
	<g v:mID="0" v:index="1" v:groupContext="foregroundPage">
		<title>Pagina-1</title>
		<v:pageProperties v:drawingScale="0.0393701" v:pageScale="0.0393701" v:drawingUnits="24" v:shadowOffsetX="8.50394"
				v:shadowOffsetY="-8.50394"/>
		<g id="shape384-1" v:mID="384" v:groupContext="shape" transform="translate(80.9732,-208.532)">
			<title>Ligger, 2 pt.384</title>
			<path d="M0 246.99 L170.08 246.99" class="st1"/>
		</g>
		<g id="shape385-4" v:mID="385" v:groupContext="shape" transform="translate(-208.532,208.532) rotate(-90)">
			<title>Ligger, 2 pt.385</title>
			<path d="M0 246.99 L127.56 246.99" class="st1"/>
		</g>
		<g id="shape386-7" v:mID="386" v:groupContext="shape" transform="translate(60.7591,208.532) rotate(-90)">
			<title>Ligger, 2 pt.386</title>
			<path d="M0 246.99 L127.56 246.99" class="st1"/>
		</g>
		<g id="shape387-10" v:mID="387" v:groupContext="shape" transform="translate(-67.2183,10.9437) rotate(-36.8699)">
			<title>Ligger, 2 pt.387</title>
			<path d="M0 246.99 L212.6 246.99" class="st1"/>
		</g>
		<g id="shape389-13" v:mID="389" v:groupContext="shape" transform="translate(321.918,327.959) rotate(180)">
			<title>Kracht.389</title>
			<path d="M0 246.99 L9.55 246.99" class="st2"/>
		</g>
		<g id="shape390-19" v:mID="390" v:groupContext="shape" transform="translate(568.904,80.9732) rotate(90)">
			<title>Blad.390</title>
			<path d="M0 246.99 L127.56 246.99" class="st4"/>
		</g>
		<g id="shape391-22" v:mID="391" v:groupContext="shape" transform="translate(321.918,353.471) rotate(180)">
			<title>Kracht.391</title>
			<path d="M0 246.99 L9.55 246.99" class="st2"/>
		</g>
		<g id="shape392-27" v:mID="392" v:groupContext="shape" transform="translate(321.918,378.983) rotate(180)">
			<title>Kracht.392</title>
			<path d="M0 246.99 L9.55 246.99" class="st2"/>
		</g>
		<g id="shape393-32" v:mID="393" v:groupContext="shape" transform="translate(321.918,455.518) rotate(180)">
			<title>Kracht.393</title>
			<path d="M0 246.99 L9.55 246.99" class="st2"/>
		</g>
		<g id="shape394-37" v:mID="394" v:groupContext="shape" transform="translate(321.918,430.006) rotate(180)">
			<title>Kracht.394</title>
			<path d="M0 246.99 L9.55 246.99" class="st2"/>
		</g>
		<g id="shape395-42" v:mID="395" v:groupContext="shape" transform="translate(321.918,404.494) rotate(180)">
			<title>Kracht.395</title>
			<path d="M0 246.99 L9.55 246.99" class="st2"/>
		</g>
		<g id="shape396-47" v:mID="396" v:groupContext="shape" transform="translate(52.6267,-208.532)">
			<title>Kracht.396</title>
			<path d="M7.55 246.99 L7.91 246.99 L28.35 246.99" class="st5"/>
		</g>
		<g id="shape397-53" v:mID="397" v:groupContext="shape" transform="translate(-166.013,66.7999) rotate(-90)">
			<title>Kracht.397</title>
			<path d="M7.55 246.99 L7.91 246.99 L28.35 246.99" class="st5"/>
		</g>
		<g id="shape398-58" v:mID="398" v:groupContext="shape" transform="translate(-166.013,24.2803) rotate(-90) scale(-1,1)">
			<title>Moment.398</title>
			<path d="M-0 246.99 A14.1732 14.1732 0 0 1 14.17 232.81 A14.1732 14.1732 0 0 1 26.14 239.39 L26.24 239.74" class="st7"/>
		</g>
		<g id="shape399-64" v:mID="399" v:groupContext="shape" transform="translate(285.439,52.6267) rotate(90)">
			<title>Kracht.399</title>
			<path d="M7.55 246.99 L7.91 246.99 L28.35 246.99" class="st5"/>
		</g>
		<g id="shape400-69" v:mID="400" v:groupContext="shape" transform="translate(66.7999,327.959) rotate(180)">
			<title>Kracht.400</title>
			<path d="M7.55 246.99 L7.91 246.99 L28.35 246.99" class="st5"/>
		</g>
		<g id="shape401-74" v:mID="401" v:groupContext="shape" transform="translate(52.6267,-166.013) scale(-1,1)">
			<title>Moment.401</title>
			<path d="M-0 246.99 A14.1732 14.1732 0 0 1 14.17 232.81 A14.1732 14.1732 0 0 1 26.14 239.39 L26.24 239.74" class="st7"/>
		</g>
		<g id="shape402-79" v:mID="402" v:groupContext="shape" transform="translate(498.038,10.107) rotate(90)">
			<title>Kracht.402</title>
			<path d="M7.55 246.99 L7.91 246.99 L28.35 246.99" class="st5"/>
		</g>
		<g id="shape403-84" v:mID="403" v:groupContext="shape" transform="translate(279.398,285.439) rotate(180)">
			<title>Kracht.403</title>
			<path d="M7.55 246.99 L7.91 246.99 L28.35 246.99" class="st5"/>
		</g>
		<g id="shape404-89" v:mID="404" v:groupContext="shape" transform="translate(554.731,52.6267) rotate(90)">
			<title>Kracht.404</title>
			<path d="M7.55 246.99 L7.91 246.99 L28.35 246.99" class="st5"/>
		</g>
		<g id="shape405-94" v:mID="405" v:groupContext="shape" transform="translate(279.398,-166.013)">
			<title>Kracht.405</title>
			<path d="M7.55 246.99 L7.91 246.99 L28.35 246.99" class="st5"/>
		</g>
		<g id="shape406-99" v:mID="406" v:groupContext="shape" transform="translate(293.572,-166.013)">
			<title>Moment.406</title>
			<path d="M-0 246.99 A14.1732 14.1732 0 0 1 14.17 232.81 A14.1732 14.1732 0 0 1 26.14 239.39 L26.24 239.74" class="st7"/>
		</g>
		<g id="shape407-104" v:mID="407" v:groupContext="shape" transform="translate(421.921,261.554) rotate(143.13)">
			<title>Kracht.407</title>
			<path d="M7.55 246.99 L7.91 246.99 L28.35 246.99" class="st5"/>
		</g>
		<g id="shape408-109" v:mID="408" v:groupContext="shape" transform="translate(431.633,-89.8954) rotate(53.1301)">
			<title>Kracht.408</title>
			<path d="M7.55 246.99 L7.91 246.99 L28.35 246.99" class="st5"/>
		</g>
		<g id="shape409-114" v:mID="409" v:groupContext="shape" transform="translate(457.144,-56.1631) rotate(53.1301) scale(-1,1)">
			<title>Moment.409</title>
			<path d="M-0 246.99 A14.1732 14.1732 0 0 1 14.17 232.81 A14.1732 14.1732 0 0 1 26.14 239.39 L26.24 239.74" class="st7"/>
		</g>
		<g id="shape410-119" v:mID="410" v:groupContext="shape" transform="translate(-89.8954,27.9515) rotate(-36.8699)">
			<title>Kracht.410</title>
			<path d="M7.55 246.99 L7.91 246.99 L28.35 246.99" class="st5"/>
		</g>
		<g id="shape411-124" v:mID="411" v:groupContext="shape" transform="translate(-99.6075,379.401) rotate(-126.87)">
			<title>Kracht.411</title>
			<path d="M7.55 246.99 L7.91 246.99 L28.35 246.99" class="st5"/>
		</g>
		<g id="shape412-129" v:mID="412" v:groupContext="shape" transform="translate(-208.532,236.879) rotate(-90)">
			<title>Kracht.412</title>
			<path d="M7.55 246.99 L7.91 246.99 L28.35 246.99" class="st5"/>
		</g>
		<g id="shape413-134" v:mID="413" v:groupContext="shape" transform="translate(10.107,-38.4535)">
			<title>Kracht.413</title>
			<path d="M7.55 246.99 L7.91 246.99 L28.35 246.99" class="st5"/>
		</g>
		<g id="shape414-139" v:mID="414" v:groupContext="shape" transform="translate(60.7591,236.879) rotate(-90)">
			<title>Kracht.414</title>
			<path d="M7.55 246.99 L7.91 246.99 L28.35 246.99" class="st5"/>
		</g>
		<g id="shape415-144" v:mID="415" v:groupContext="shape" transform="translate(158.926,-215.619)">
			<title>Blad.415</title>
			<desc>3</desc>
			<v:textBlock v:margins="rect(4,4,4,4)" v:tabSpace="42.5197"/>
			<v:textRect cx="7.08661" cy="239.899" width="14.18" height="14.1732"/>
			<rect x="0" y="232.812" width="14.1732" height="14.1732" class="st8"/>
			<text x="4.09" y="243.5" class="st9" v:langID="1043"><v:paragraph v:horizAlign="1"/><v:tabList/>3</text>		</g>
		<g id="shape416-147" v:mID="416" v:groupContext="shape" transform="translate(17.1937,-95.1464)">
			<title>Blad.416</title>
			<desc>3</desc>
			<v:textBlock v:margins="rect(4,4,4,4)" v:tabSpace="42.5197"/>
			<v:textRect cx="7.08661" cy="239.899" width="14.18" height="14.1732"/>
			<rect x="0" y="232.812" width="14.1732" height="14.1732" class="st8"/>
			<text x="4.09" y="243.5" class="st9" v:langID="1043"><v:paragraph v:horizAlign="1"/><v:tabList/>3</text>		</g>
		<g id="shape417-150" v:mID="417" v:groupContext="shape" transform="translate(166.013,-80.9732)">
			<title>Blad.417</title>
			<desc>3</desc>
			<v:textBlock v:margins="rect(4,4,4,4)" v:tabSpace="42.5197"/>
			<v:textRect cx="7.08661" cy="239.899" width="14.18" height="14.1732"/>
			<rect x="0" y="232.812" width="14.1732" height="14.1732" class="st8"/>
			<text x="4.09" y="243.5" class="st9" v:langID="1043"><v:paragraph v:horizAlign="1"/><v:tabList/>3</text>		</g>
		<g id="shape418-153" v:mID="418" v:groupContext="shape" transform="translate(286.485,-95.1464)">
			<title>Blad.418</title>
			<desc>3</desc>
			<v:textBlock v:margins="rect(4,4,4,4)" v:tabSpace="42.5197"/>
			<v:textRect cx="7.08661" cy="239.899" width="14.18" height="14.1732"/>
			<rect x="0" y="232.812" width="14.1732" height="14.1732" class="st8"/>
			<text x="4.09" y="243.5" class="st9" v:langID="1043"><v:paragraph v:horizAlign="1"/><v:tabList/>3</text>		</g>
	</g>
</svg>
