<?xml version="1.0" encoding="UTF-8" standalone="no"?>
<!DOCTYPE svg PUBLIC "-//W3C//DTD SVG 1.1//EN" "http://www.w3.org/Graphics/SVG/1.1/DTD/svg11.dtd">
<!-- Generated by Microsoft Visio, SVG Export Oefening_9.svg Page-1 -->
<svg xmlns="http://www.w3.org/2000/svg" xmlns:xlink="http://www.w3.org/1999/xlink" xmlns:ev="http://www.w3.org/2001/xml-events"
		xmlns:v="http://schemas.microsoft.com/visio/2003/SVGExtensions/" width="7.56422in" height="1.12918in"
		viewBox="0 0 544.624 81.3007" xml:space="preserve" color-interpolation-filters="sRGB" class="st13">
	<v:documentProperties v:langID="1043" v:metric="true" v:viewMarkup="false"/>

	<style type="text/css">
	<![CDATA[
		.st1 {stroke:#000000;stroke-linecap:round;stroke-linejoin:round;stroke-width:2}
		.st2 {fill:#ffffff;stroke:#000000;stroke-linecap:round;stroke-linejoin:round;stroke-width:0.75}
		.st3 {marker-start:url(#mrkr5-24);stroke:#00cc99;stroke-linecap:round;stroke-linejoin:round;stroke-opacity:0.5;stroke-width:2}
		.st4 {fill:#00cc99;fill-opacity:0.5;stroke:#00cc99;stroke-opacity:0.5;stroke-width:0.4424778761062}
		.st5 {marker-end:url(#mrkr5-35);stroke:#00cc99;stroke-linecap:round;stroke-linejoin:round;stroke-opacity:0.5;stroke-width:2}
		.st6 {marker-start:url(#mrkr5-41);stroke:#31859b;stroke-linecap:round;stroke-linejoin:round;stroke-opacity:0.5;stroke-width:2}
		.st7 {fill:#31859b;fill-opacity:0.5;stroke:#31859b;stroke-opacity:0.5;stroke-width:0.4424778761062}
		.st8 {marker-end:url(#mrkr5-122);stroke:#800000;stroke-linecap:round;stroke-linejoin:round;stroke-opacity:0.5;stroke-width:1.2}
		.st9 {fill:#800000;fill-opacity:0.5;stroke:#800000;stroke-opacity:0.5;stroke-width:0.45454545454546}
		.st10 {stroke:#800000;stroke-linecap:round;stroke-linejoin:round;stroke-opacity:0.5;stroke-width:1.2}
		.st11 {fill:none;stroke:none;stroke-linecap:round;stroke-linejoin:round;stroke-width:0.75}
		.st12 {fill:#000000;font-family:Times New Roman;font-size:1.00001em}
		.st13 {fill:none;fill-rule:evenodd;font-size:12px;overflow:visible;stroke-linecap:square;stroke-miterlimit:3}
	]]>
	</style>

	<defs id="Markers">
		<g id="lend5">
			<path d="M 2 1 L 0 0 L 1.98117 -0.993387 C 1.67173 -0.364515 1.67301 0.372641 1.98465 1.00043 " style="stroke:none"/>
		</g>
		<marker id="mrkr5-24" class="st4" v:arrowType="5" v:arrowSize="2" v:setback="3.775" refX="3.775" orient="auto"
				markerUnits="strokeWidth" overflow="visible">
			<use xlink:href="#lend5" transform="scale(2.26) "/>
		</marker>
		<marker id="mrkr5-35" class="st4" v:arrowType="5" v:arrowSize="2" v:setback="3.775" refX="-3.775" orient="auto"
				markerUnits="strokeWidth" overflow="visible">
			<use xlink:href="#lend5" transform="scale(-2.26,-2.26) "/>
		</marker>
		<marker id="mrkr5-41" class="st7" v:arrowType="5" v:arrowSize="2" v:setback="3.775" refX="3.775" orient="auto"
				markerUnits="strokeWidth" overflow="visible">
			<use xlink:href="#lend5" transform="scale(2.26) "/>
		</marker>
		<marker id="mrkr5-122" class="st9" v:arrowType="5" v:arrowSize="0" v:setback="3.85" refX="-3.85" orient="auto"
				markerUnits="strokeWidth" overflow="visible">
			<use xlink:href="#lend5" transform="scale(-2.2,-2.2) "/>
		</marker>
	</defs>
	<g v:mID="0" v:index="1" v:groupContext="foregroundPage">
		<title>Page-1</title>
		<v:pageProperties v:drawingScale="0.0393701" v:pageScale="0.0393701" v:drawingUnits="24" v:shadowOffsetX="8.50394"
				v:shadowOffsetY="-8.50394"/>
		<g id="shape682-1" v:mID="682" v:groupContext="shape" transform="translate(356.642,-40.5795)">
			<title>Ligger, 2 pt.179</title>
			<path d="M0 81.3 L77.95 81.3" class="st1"/>
		</g>
		<g id="shape683-4" v:mID="683" v:groupContext="shape" transform="translate(38.4535,-40.5795)">
			<title>Ligger, 2 pt.180</title>
			<path d="M0 81.3 L70.87 81.3" class="st1"/>
		</g>
		<g id="shape684-7" v:mID="684" v:groupContext="shape" transform="translate(107.194,-38.4535)">
			<title>Scharnier.181</title>
			<ellipse cx="2.12598" cy="79.1747" rx="2.12598" ry="2.12598" class="st2"/>
		</g>
		<g id="shape685-9" v:mID="685" v:groupContext="shape" transform="translate(180.186,-40.5795)">
			<title>Ligger, 2 pt.182</title>
			<path d="M0 81.3 L106.3 81.3" class="st1"/>
		</g>
		<g id="shape686-12" v:mID="686" v:groupContext="shape" transform="translate(354.516,-38.4535)">
			<title>Scharnier.183</title>
			<ellipse cx="2.12598" cy="79.1747" rx="2.12598" ry="2.12598" class="st2"/>
		</g>
		<g id="shape687-14" v:mID="687" v:groupContext="shape" transform="translate(432.469,-38.4535)">
			<title>Scharnier.184</title>
			<ellipse cx="2.12598" cy="79.1747" rx="2.12598" ry="2.12598" class="st2"/>
		</g>
		<g id="shape688-16" v:mID="688" v:groupContext="shape" transform="translate(506.17,-40.5795) rotate(4.65288E-05)">
			<title>Ligger, 2 pt.185</title>
			<path d="M0 81.3 L28.35 81.3" class="st1"/>
		</g>
		<g id="shape689-19" v:mID="689" v:groupContext="shape" transform="translate(119.754,40.7212) rotate(90)">
			<title>Kracht.186</title>
			<path d="M7.55 81.3 L7.91 81.3 L28.35 81.3" class="st3"/>
		</g>
		<g id="shape690-25" v:mID="690" v:groupContext="shape" transform="translate(38.4535,122.022) rotate(180)">
			<title>Kracht.187</title>
			<path d="M7.55 81.3 L7.91 81.3 L28.35 81.3" class="st3"/>
		</g>
		<g id="shape691-30" v:mID="691" v:groupContext="shape" transform="translate(-42.8472,54.8944) rotate(-90)">
			<title>Moment.188</title>
			<path d="M-0 81.3 A14.1732 14.1732 0 0 1 14.17 67.13 A14.1732 14.1732 0 0 1 26.14 73.7 L26.24 74.05" class="st5"/>
		</g>
		<g id="shape692-36" v:mID="692" v:groupContext="shape" transform="translate(180.186,122.022) rotate(180)">
			<title>Kracht.189</title>
			<path d="M7.55 81.3 L7.91 81.3 L28.35 81.3" class="st6"/>
		</g>
		<g id="shape693-42" v:mID="693" v:groupContext="shape" transform="translate(190.62,42.8472) rotate(90)">
			<title>Kracht.190</title>
			<path d="M7.55 81.3 L7.91 81.3 L28.35 81.3" class="st3"/>
		</g>
		<g id="shape694-47" v:mID="694" v:groupContext="shape" transform="translate(111.446,-40.5795)">
			<title>Kracht.191</title>
			<path d="M7.55 81.3 L7.91 81.3 L28.35 81.3" class="st6"/>
		</g>
		<g id="shape695-52" v:mID="695" v:groupContext="shape" transform="translate(28.019,38.5952) rotate(-90)">
			<title>Kracht.192</title>
			<path d="M7.55 81.3 L7.91 81.3 L28.35 81.3" class="st6"/>
		</g>
		<g id="shape696-57" v:mID="696" v:groupContext="shape" transform="translate(261.486,40.7212) rotate(90)">
			<title>Kracht.193</title>
			<path d="M7.55 81.3 L7.91 81.3 L28.35 81.3" class="st6"/>
		</g>
		<g id="shape697-62" v:mID="697" v:groupContext="shape" transform="translate(367.786,40.7212) rotate(90)">
			<title>Kracht.194</title>
			<path d="M7.55 81.3 L7.91 81.3 L28.35 81.3" class="st6"/>
		</g>
		<g id="shape698-67" v:mID="698" v:groupContext="shape" transform="translate(286.485,-40.5795)">
			<title>Kracht.195</title>
			<path d="M7.55 81.3 L7.91 81.3 L28.35 81.3" class="st6"/>
		</g>
		<g id="shape699-72" v:mID="699" v:groupContext="shape" transform="translate(354.516,122.022) rotate(180)">
			<title>Kracht.196</title>
			<path d="M7.55 81.3 L7.91 81.3 L28.35 81.3" class="st6"/>
		</g>
		<g id="shape700-77" v:mID="700" v:groupContext="shape" transform="translate(275.342,38.5952) rotate(-90)">
			<title>Kracht.197</title>
			<path d="M7.55 81.3 L7.91 81.3 L28.35 81.3" class="st6"/>
		</g>
		<g id="shape701-82" v:mID="701" v:groupContext="shape" transform="translate(474.085,40.7212) rotate(90)">
			<title>Kracht.198</title>
			<path d="M7.55 81.3 L7.91 81.3 L28.35 81.3" class="st3"/>
		</g>
		<g id="shape702-87" v:mID="702" v:groupContext="shape" transform="translate(392.784,-37.7448)">
			<title>Kracht.199</title>
			<path d="M7.55 81.3 L7.91 81.3 L28.35 81.3" class="st3"/>
		</g>
		<g id="shape703-92" v:mID="703" v:groupContext="shape" transform="translate(437.005,-40.5795)">
			<title>Kracht.200</title>
			<path d="M7.55 81.3 L7.91 81.3 L28.35 81.3" class="st6"/>
		</g>
		<g id="shape704-97" v:mID="704" v:groupContext="shape" transform="translate(353.295,38.4535) rotate(-90)">
			<title>Kracht.201</title>
			<path d="M7.55 81.3 L7.91 81.3 L28.35 81.3" class="st6"/>
		</g>
		<g id="shape705-102" v:mID="705" v:groupContext="shape" transform="translate(506.17,122.022) rotate(180)">
			<title>Kracht.202</title>
			<path d="M7.55 81.3 L7.91 81.3 L28.35 81.3" class="st6"/>
		</g>
		<g id="shape706-107" v:mID="706" v:groupContext="shape" transform="translate(587.471,40.7212) rotate(90)">
			<title>Kracht.203</title>
			<path d="M7.55 81.3 L7.91 81.3 L28.35 81.3" class="st6"/>
		</g>
		<g id="shape707-112" v:mID="707" v:groupContext="shape" transform="translate(615.817,40.7212) rotate(90)">
			<title>Kracht.204</title>
			<path d="M7.55 81.3 L7.91 81.3 L28.35 81.3" class="st3"/>
		</g>
		<g id="shape708-117" v:mID="708" v:groupContext="shape" transform="translate(261.486,26.4771) rotate(90)">
			<title>Kracht.205</title>
			<path d="M0 81.3 L7.43 81.3" class="st8"/>
		</g>
		<g id="shape709-123" v:mID="709" v:groupContext="shape" transform="translate(357.351,-54.8236)">
			<title>Sheet.709</title>
			<path d="M0 81.3 L35.43 81.3" class="st10"/>
		</g>
		<g id="shape710-126" v:mID="710" v:groupContext="shape" transform="translate(289.833,26.4771) rotate(90)">
			<title>Kracht.207</title>
			<path d="M0 81.3 L9.55 81.3" class="st8"/>
		</g>
		<g id="shape711-131" v:mID="711" v:groupContext="shape" transform="translate(318.179,26.4771) rotate(90)">
			<title>Kracht.208</title>
			<path d="M0 81.3 L9.55 81.3" class="st8"/>
		</g>
		<g id="shape712-136" v:mID="712" v:groupContext="shape" transform="translate(474.085,26.4771) rotate(90)">
			<title>Kracht.209</title>
			<path d="M0 81.3 L9.55 81.3" class="st8"/>
		</g>
		<g id="shape713-141" v:mID="713" v:groupContext="shape" transform="translate(445.738,26.4771) rotate(90)">
			<title>Kracht.210</title>
			<path d="M0 81.3 L9.55 81.3" class="st8"/>
		</g>
		<g id="shape714-146" v:mID="714" v:groupContext="shape" transform="translate(346.526,26.4771) rotate(90)">
			<title>Kracht.211</title>
			<path d="M0 81.3 L9.55 81.3" class="st8"/>
		</g>
		<g id="shape715-151" v:mID="715" v:groupContext="shape" transform="translate(180.186,-54.8236)">
			<title>Sheet.715</title>
			<path d="M0 81.3 L106.3 81.3" class="st10"/>
		</g>
		<g id="shape716-154" v:mID="716" v:groupContext="shape" transform="translate(66.7999,-19.3905)">
			<title>Sheet.716</title>
			<desc>3</desc>
			<v:textBlock v:margins="rect(4,4,4,4)" v:tabSpace="42.5197"/>
			<v:textRect cx="7.08661" cy="74.214" width="14.18" height="14.1732"/>
			<rect x="0" y="67.1274" width="14.1732" height="14.1732" class="st11"/>
			<text x="4.09" y="77.81" class="st12" v:langID="1043"><v:paragraph v:horizAlign="1"/><v:tabList/>3</text>		</g>
		<g id="shape717-157" v:mID="717" v:groupContext="shape" transform="translate(229.792,-19.3905)">
			<title>Sheet.717</title>
			<desc>3</desc>
			<v:textBlock v:margins="rect(4,4,4,4)" v:tabSpace="42.5197"/>
			<v:textRect cx="7.08661" cy="74.214" width="14.18" height="14.1732"/>
			<rect x="0" y="67.1274" width="14.1732" height="14.1732" class="st11"/>
			<text x="4.09" y="77.81" class="st12" v:langID="1043"><v:paragraph v:horizAlign="1"/><v:tabList/>3</text>		</g>
		<g id="shape718-160" v:mID="718" v:groupContext="shape" transform="translate(371.524,-19.3905)">
			<title>Sheet.718</title>
			<desc>3</desc>
			<v:textBlock v:margins="rect(4,4,4,4)" v:tabSpace="42.5197"/>
			<v:textRect cx="7.08661" cy="74.214" width="14.18" height="14.1732"/>
			<rect x="0" y="67.1274" width="14.1732" height="14.1732" class="st11"/>
			<text x="4.09" y="77.81" class="st12" v:langID="1043"><v:paragraph v:horizAlign="1"/><v:tabList/>3</text>		</g>
		<g id="shape719-163" v:mID="719" v:groupContext="shape" transform="translate(513.257,-19.3905)">
			<title>Sheet.719</title>
			<desc>3</desc>
			<v:textBlock v:margins="rect(4,4,4,4)" v:tabSpace="42.5197"/>
			<v:textRect cx="7.08661" cy="74.214" width="14.18" height="14.1732"/>
			<rect x="0" y="67.1274" width="14.1732" height="14.1732" class="st11"/>
			<text x="4.09" y="77.81" class="st12" v:langID="1043"><v:paragraph v:horizAlign="1"/><v:tabList/>3</text>		</g>
	</g>
</svg>
