<?xml version="1.0" encoding="UTF-8" standalone="no"?>
<!DOCTYPE svg PUBLIC "-//W3C//DTD SVG 1.1//EN" "http://www.w3.org/Graphics/SVG/1.1/DTD/svg11.dtd">
<!-- Generated by Microsoft Visio, SVG Export Oefening_14.svg Page-1 -->
<svg xmlns="http://www.w3.org/2000/svg" xmlns:xlink="http://www.w3.org/1999/xlink" xmlns:ev="http://www.w3.org/2001/xml-events"
		xmlns:v="http://schemas.microsoft.com/visio/2003/SVGExtensions/" width="3.48449in" height="2.86933in"
		viewBox="0 0 250.883 206.592" xml:space="preserve" color-interpolation-filters="sRGB" class="st12">
	<v:documentProperties v:langID="1043" v:metric="true" v:viewMarkup="false"/>

	<style type="text/css">
	<![CDATA[
		.st1 {stroke:#000000;stroke-linecap:round;stroke-linejoin:round;stroke-width:2}
		.st2 {fill:#ffffff;stroke:#000000;stroke-linecap:round;stroke-linejoin:round;stroke-width:0.75}
		.st3 {marker-start:url(#mrkr5-34);stroke:#800000;stroke-linecap:round;stroke-linejoin:round;stroke-opacity:0.5;stroke-width:2}
		.st4 {fill:#800000;fill-opacity:0.5;stroke:#800000;stroke-opacity:0.5;stroke-width:0.4424778761062}
		.st5 {marker-start:url(#mrkr5-40);stroke:#31859b;stroke-linecap:round;stroke-linejoin:round;stroke-opacity:0.5;stroke-width:2}
		.st6 {fill:#31859b;fill-opacity:0.5;stroke:#31859b;stroke-opacity:0.5;stroke-width:0.4424778761062}
		.st7 {marker-end:url(#mrkr5-61);stroke:#31859b;stroke-linecap:round;stroke-linejoin:round;stroke-opacity:0.5;stroke-width:2}
		.st8 {marker-start:url(#mrkr5-137);stroke:#00cc99;stroke-linecap:round;stroke-linejoin:round;stroke-opacity:0.5;stroke-width:2}
		.st9 {fill:#00cc99;fill-opacity:0.5;stroke:#00cc99;stroke-opacity:0.5;stroke-width:0.4424778761062}
		.st10 {fill:none;stroke:none;stroke-linecap:round;stroke-linejoin:round;stroke-width:0.75}
		.st11 {fill:#000000;font-family:Times New Roman;font-size:1.00001em}
		.st12 {fill:none;fill-rule:evenodd;font-size:12px;overflow:visible;stroke-linecap:square;stroke-miterlimit:3}
	]]>
	</style>

	<defs id="Markers">
		<g id="lend5">
			<path d="M 2 1 L 0 0 L 1.98117 -0.993387 C 1.67173 -0.364515 1.67301 0.372641 1.98465 1.00043 " style="stroke:none"/>
		</g>
		<marker id="mrkr5-34" class="st4" v:arrowType="5" v:arrowSize="2" v:setback="3.775" refX="3.775" orient="auto"
				markerUnits="strokeWidth" overflow="visible">
			<use xlink:href="#lend5" transform="scale(2.26) "/>
		</marker>
		<marker id="mrkr5-40" class="st6" v:arrowType="5" v:arrowSize="2" v:setback="3.775" refX="3.775" orient="auto"
				markerUnits="strokeWidth" overflow="visible">
			<use xlink:href="#lend5" transform="scale(2.26) "/>
		</marker>
		<marker id="mrkr5-61" class="st6" v:arrowType="5" v:arrowSize="2" v:setback="3.775" refX="-3.775" orient="auto"
				markerUnits="strokeWidth" overflow="visible">
			<use xlink:href="#lend5" transform="scale(-2.26,-2.26) "/>
		</marker>
		<marker id="mrkr5-137" class="st9" v:arrowType="5" v:arrowSize="2" v:setback="3.775" refX="3.775" orient="auto"
				markerUnits="strokeWidth" overflow="visible">
			<use xlink:href="#lend5" transform="scale(2.26) "/>
		</marker>
	</defs>
	<g v:mID="0" v:index="1" v:groupContext="foregroundPage">
		<title>Page-1</title>
		<v:pageProperties v:drawingScale="0.0393701" v:pageScale="0.0393701" v:drawingUnits="24" v:shadowOffsetX="8.50394"
				v:shadowOffsetY="-8.50394"/>
		<g id="shape835-1" v:mID="835" v:groupContext="shape" transform="translate(198.257,-168.139)">
			<title>Ligger, 2 pt.308</title>
			<path d="M0 206.59 L14.17 206.59" class="st1"/>
		</g>
		<g id="shape836-4" v:mID="836" v:groupContext="shape" transform="translate(5.83786,52.6267) rotate(-90)">
			<title>Ligger, 2 pt.309</title>
			<path d="M0 206.59 L14.17 206.59" class="st1"/>
		</g>
		<g id="shape837-7" v:mID="837" v:groupContext="shape" transform="translate(77.1361,-118.316) rotate(-36.8699)">
			<title>Ligger, 2 pt.310</title>
			<path d="M0 206.59 L14.17 206.59" class="st1"/>
		</g>
		<g id="shape838-10" v:mID="838" v:groupContext="shape" transform="translate(205.343,-166.013)">
			<title>Scharnier.311</title>
			<ellipse cx="2.12598" cy="204.466" rx="2.12598" ry="2.12598" class="st2"/>
		</g>
		<g id="shape839-12" v:mID="839" v:groupContext="shape" transform="translate(5.83788,166.013) rotate(-90)">
			<title>Ligger, 2 pt.312</title>
			<path d="M0 206.59 L14.17 206.59" class="st1"/>
		</g>
		<g id="shape840-15" v:mID="840" v:groupContext="shape" transform="translate(-166.013,166.013) rotate(-90)">
			<title>Ligger, 2 pt.313</title>
			<path d="M0 206.59 L14.17 206.59" class="st1"/>
		</g>
		<g id="shape841-18" v:mID="841" v:groupContext="shape" transform="translate(-83.3757,0.738956) rotate(-36.8699)">
			<title>Ligger, 2 pt.314</title>
			<path d="M0 206.59 L14.17 206.59" class="st1"/>
		</g>
		<g id="shape842-21" v:mID="842" v:groupContext="shape" transform="translate(38.4535,-38.4535)">
			<title>Scharnier.315</title>
			<ellipse cx="2.12598" cy="204.466" rx="2.12598" ry="2.12598" class="st2"/>
		</g>
		<g id="shape843-23" v:mID="843" v:groupContext="shape" transform="translate(-164.241,52.6267) rotate(-90)">
			<title>Ligger, 2 pt.316</title>
			<path d="M0 206.59 L14.17 206.59" class="st1"/>
		</g>
		<g id="shape844-26" v:mID="844" v:groupContext="shape" transform="translate(42.3511,-168.139)">
			<title>Ligger, 2 pt.317</title>
			<path d="M0 206.59 L14.17 206.59" class="st1"/>
		</g>
		<g id="shape845-29" v:mID="845" v:groupContext="shape" transform="translate(-164.241,38.4535) rotate(-90)">
			<title>Kracht.318</title>
			<path d="M7.55 206.59 L7.91 206.59 L28.35 206.59" class="st3"/>
		</g>
		<g id="shape846-35" v:mID="846" v:groupContext="shape" transform="translate(-164.241,80.9732) rotate(-90)">
			<title>Kracht.319</title>
			<path d="M7.55 206.59 L7.91 206.59 L28.35 206.59" class="st5"/>
		</g>
		<g id="shape847-41" v:mID="847" v:groupContext="shape" transform="translate(263.116,10.107) rotate(90)">
			<title>Kracht.320</title>
			<path d="M7.55 206.59 L7.91 206.59 L28.35 206.59" class="st5"/>
		</g>
		<g id="shape848-46" v:mID="848" v:groupContext="shape" transform="translate(14.0047,-153.965)">
			<title>Kracht.321</title>
			<path d="M7.55 206.59 L7.91 206.59 L28.35 206.59" class="st5"/>
		</g>
		<g id="shape849-51" v:mID="849" v:groupContext="shape" transform="translate(84.8708,245.045) rotate(180)">
			<title>Kracht.322</title>
			<path d="M7.55 206.59 L7.91 206.59 L28.35 206.59" class="st5"/>
		</g>
		<g id="shape850-56" v:mID="850" v:groupContext="shape" transform="translate(263.116,24.2803) rotate(90)">
			<title>Moment.323</title>
			<path d="M-0 206.59 A14.1732 14.1732 0 0 1 14.17 192.42 A14.1732 14.1732 0 0 1 26.14 199 L26.24 199.34" class="st7"/>
		</g>
		<g id="shape851-62" v:mID="851" v:groupContext="shape" transform="translate(56.5243,259.219) rotate(180)">
			<title>Moment.324</title>
			<path d="M-0 206.59 A14.1732 14.1732 0 0 1 14.17 192.42 A14.1732 14.1732 0 0 1 26.14 199 L26.24 199.34" class="st7"/>
		</g>
		<g id="shape852-67" v:mID="852" v:groupContext="shape" transform="translate(169.91,-168.139)">
			<title>Kracht.325</title>
			<path d="M7.55 206.59 L7.91 206.59 L28.35 206.59" class="st5"/>
		</g>
		<g id="shape853-72" v:mID="853" v:groupContext="shape" transform="translate(-8.33537,66.7999) rotate(-90)">
			<title>Kracht.326</title>
			<path d="M7.55 206.59 L7.91 206.59 L28.35 206.59" class="st5"/>
		</g>
		<g id="shape854-77" v:mID="854" v:groupContext="shape" transform="translate(5.83788,80.9732) rotate(-90)">
			<title>Kracht.327</title>
			<path d="M7.55 206.59 L7.91 206.59 L28.35 206.59" class="st5"/>
		</g>
		<g id="shape855-82" v:mID="855" v:groupContext="shape" transform="translate(240.776,259.219) rotate(180)">
			<title>Kracht.328</title>
			<path d="M7.55 206.59 L7.91 206.59 L28.35 206.59" class="st5"/>
		</g>
		<g id="shape856-87" v:mID="856" v:groupContext="shape" transform="translate(54.4589,-101.308) rotate(-36.8699)">
			<title>Kracht.329</title>
			<path d="M7.55 206.59 L7.91 206.59 L28.35 206.59" class="st5"/>
		</g>
		<g id="shape857-92" v:mID="857" v:groupContext="shape" transform="translate(52.8256,193.59) rotate(-126.87)">
			<title>Kracht.330</title>
			<path d="M7.55 206.59 L7.91 206.59 L28.35 206.59" class="st5"/>
		</g>
		<g id="shape858-97" v:mID="858" v:groupContext="shape" transform="translate(44.3216,182.96) rotate(-126.87)">
			<title>Moment.331</title>
			<path d="M-0 206.59 A14.1732 14.1732 0 0 1 14.17 192.42 A14.1732 14.1732 0 0 1 26.14 199 L26.24 199.34" class="st7"/>
		</g>
		<g id="shape859-102" v:mID="859" v:groupContext="shape" transform="translate(198.257,259.219) scale(1,-1)">
			<title>Moment.332</title>
			<path d="M-0 206.59 A14.1732 14.1732 0 0 1 14.17 192.42 A14.1732 14.1732 0 0 1 26.14 199 L26.24 199.34" class="st7"/>
		</g>
		<g id="shape860-107" v:mID="860" v:groupContext="shape" transform="translate(247.171,123.493) rotate(90)">
			<title>Kracht.333</title>
			<path d="M7.55 206.59 L7.91 206.59 L28.35 206.59" class="st5"/>
		</g>
		<g id="shape861-112" v:mID="861" v:groupContext="shape" transform="translate(68.9259,358.431) rotate(180)">
			<title>Kracht.334</title>
			<path d="M7.55 206.59 L7.91 206.59 L28.35 206.59" class="st5"/>
		</g>
		<g id="shape862-117" v:mID="862" v:groupContext="shape" transform="translate(198.55,305.774) rotate(143.13)">
			<title>Kracht.335</title>
			<path d="M7.55 206.59 L7.91 206.59 L28.35 206.59" class="st5"/>
		</g>
		<g id="shape863-122" v:mID="863" v:groupContext="shape" transform="translate(200.184,10.8762) rotate(53.1301)">
			<title>Kracht.336</title>
			<path d="M7.55 206.59 L7.91 206.59 L28.35 206.59" class="st5"/>
		</g>
		<g id="shape864-127" v:mID="864" v:groupContext="shape" transform="translate(419.022,123.493) rotate(90)">
			<title>Kracht.337</title>
			<path d="M7.55 206.59 L7.91 206.59 L28.35 206.59" class="st5"/>
		</g>
		<g id="shape865-132" v:mID="865" v:groupContext="shape" transform="translate(419.022,166.013) rotate(90)">
			<title>Kracht.338</title>
			<path d="M7.55 206.59 L7.91 206.59 L28.35 206.59" class="st8"/>
		</g>
		<g id="shape866-138" v:mID="866" v:groupContext="shape" transform="translate(38.4535,372.605) rotate(180)">
			<title>Kracht.339</title>
			<path d="M7.55 206.59 L7.91 206.59 L28.35 206.59" class="st8"/>
		</g>
		<g id="shape867-143" v:mID="867" v:groupContext="shape" transform="translate(247.171,168.139) rotate(90)">
			<title>Kracht.340</title>
			<path d="M7.55 206.59 L7.91 206.59 L28.35 206.59" class="st8"/>
		</g>
		<g id="shape868-148" v:mID="868" v:groupContext="shape" transform="translate(21.0913,-161.052)">
			<title>Sheet.868</title>
			<desc>3</desc>
			<v:textBlock v:margins="rect(4,4,4,4)" v:tabSpace="42.5197"/>
			<v:textRect cx="7.08661" cy="199.505" width="14.18" height="14.1732"/>
			<rect x="0" y="192.419" width="14.1732" height="14.1732" class="st10"/>
			<text x="4.09" y="203.11" class="st11" v:langID="1043"><v:paragraph v:horizAlign="1"/><v:tabList/>3</text>		</g>
		<g id="shape869-151" v:mID="869" v:groupContext="shape" transform="translate(21.0913,-47.6661)">
			<title>Sheet.869</title>
			<desc>2</desc>
			<v:textBlock v:margins="rect(4,4,4,4)" v:tabSpace="42.5197"/>
			<v:textRect cx="7.08661" cy="199.505" width="14.18" height="14.1732"/>
			<rect x="0" y="192.419" width="14.1732" height="14.1732" class="st10"/>
			<text x="4.09" y="203.11" class="st11" v:langID="1043"><v:paragraph v:horizAlign="1"/><v:tabList/>2</text>		</g>
		<g id="shape870-154" v:mID="870" v:groupContext="shape" transform="translate(191.17,-40.5794)">
			<title>Sheet.870</title>
			<desc>1</desc>
			<v:textBlock v:margins="rect(4,4,4,4)" v:tabSpace="42.5197"/>
			<v:textRect cx="7.08661" cy="199.505" width="14.18" height="14.1732"/>
			<rect x="0" y="192.419" width="14.1732" height="14.1732" class="st10"/>
			<text x="4.09" y="203.11" class="st11" v:langID="1043"><v:paragraph v:horizAlign="1"/><v:tabList/>1</text>		</g>
		<g id="shape871-157" v:mID="871" v:groupContext="shape" transform="translate(212.43,-168.139)">
			<title>Sheet.871</title>
			<desc>3</desc>
			<v:textBlock v:margins="rect(4,4,4,4)" v:tabSpace="42.5197"/>
			<v:textRect cx="7.08661" cy="199.505" width="14.18" height="14.1732"/>
			<rect x="0" y="192.419" width="14.1732" height="14.1732" class="st10"/>
			<text x="4.09" y="203.11" class="st11" v:langID="1043"><v:paragraph v:horizAlign="1"/><v:tabList/>3</text>		</g>
	</g>
</svg>
