<?xml version="1.0" encoding="UTF-8" standalone="no"?>
<!DOCTYPE svg PUBLIC "-//W3C//DTD SVG 1.1//EN" "http://www.w3.org/Graphics/SVG/1.1/DTD/svg11.dtd">
<!-- Generated by Microsoft Visio, SVG Export Oefening_7.svg Page-1 -->
<svg xmlns="http://www.w3.org/2000/svg" xmlns:xlink="http://www.w3.org/1999/xlink" xmlns:ev="http://www.w3.org/2001/xml-events"
		xmlns:v="http://schemas.microsoft.com/visio/2003/SVGExtensions/" width="7.56422in" height="1.12918in"
		viewBox="0 0 544.624 81.3007" xml:space="preserve" color-interpolation-filters="sRGB" class="st11">
	<v:documentProperties v:langID="1043" v:metric="true" v:viewMarkup="false"/>

	<style type="text/css">
	<![CDATA[
		.st1 {stroke:#000000;stroke-linecap:round;stroke-linejoin:round;stroke-width:2}
		.st2 {fill:#ffffff;stroke:#000000;stroke-linecap:round;stroke-linejoin:round;stroke-width:0.75}
		.st3 {marker-start:url(#mrkr5-24);stroke:#00cc99;stroke-linecap:round;stroke-linejoin:round;stroke-width:2}
		.st4 {fill:#00cc99;fill-opacity:1;stroke:#00cc99;stroke-opacity:1;stroke-width:0.4424778761062}
		.st5 {marker-end:url(#mrkr5-35);stroke:#00cc99;stroke-linecap:round;stroke-linejoin:round;stroke-width:2}
		.st6 {marker-start:url(#mrkr5-41);stroke:#31859b;stroke-linecap:round;stroke-linejoin:round;stroke-width:2}
		.st7 {fill:#31859b;fill-opacity:1;stroke:#31859b;stroke-opacity:1;stroke-width:0.4424778761062}
		.st8 {marker-end:url(#mrkr5-122);stroke:#800000;stroke-linecap:round;stroke-linejoin:round;stroke-width:1.2}
		.st9 {fill:#800000;fill-opacity:1;stroke:#800000;stroke-opacity:1;stroke-width:0.45454545454546}
		.st10 {stroke:#800000;stroke-linecap:round;stroke-linejoin:round;stroke-width:1.2}
		.st11 {fill:none;fill-rule:evenodd;font-size:12px;overflow:visible;stroke-linecap:square;stroke-miterlimit:3}
	]]>
	</style>

	<defs id="Markers">
		<g id="lend5">
			<path d="M 2 1 L 0 0 L 1.98117 -0.993387 C 1.67173 -0.364515 1.67301 0.372641 1.98465 1.00043 " style="stroke:none"/>
		</g>
		<marker id="mrkr5-24" class="st4" v:arrowType="5" v:arrowSize="2" v:setback="3.775" refX="3.775" orient="auto"
				markerUnits="strokeWidth" overflow="visible">
			<use xlink:href="#lend5" transform="scale(2.26) "/>
		</marker>
		<marker id="mrkr5-35" class="st4" v:arrowType="5" v:arrowSize="2" v:setback="3.775" refX="-3.775" orient="auto"
				markerUnits="strokeWidth" overflow="visible">
			<use xlink:href="#lend5" transform="scale(-2.26,-2.26) "/>
		</marker>
		<marker id="mrkr5-41" class="st7" v:arrowType="5" v:arrowSize="2" v:setback="3.775" refX="3.775" orient="auto"
				markerUnits="strokeWidth" overflow="visible">
			<use xlink:href="#lend5" transform="scale(2.26) "/>
		</marker>
		<marker id="mrkr5-122" class="st9" v:arrowType="5" v:arrowSize="0" v:setback="3.85" refX="-3.85" orient="auto"
				markerUnits="strokeWidth" overflow="visible">
			<use xlink:href="#lend5" transform="scale(-2.2,-2.2) "/>
		</marker>
	</defs>
	<g v:mID="0" v:index="1" v:groupContext="foregroundPage">
		<title>Page-1</title>
		<v:pageProperties v:drawingScale="0.0393701" v:pageScale="0.0393701" v:drawingUnits="24" v:shadowOffsetX="8.50394"
				v:shadowOffsetY="-8.50394"/>
		<g id="shape607-1" v:mID="607" v:groupContext="shape" transform="translate(356.642,-40.5795)">
			<title>Ligger, 2 pt.115</title>
			<path d="M0 81.3 L77.95 81.3" class="st1"/>
		</g>
		<g id="shape608-4" v:mID="608" v:groupContext="shape" transform="translate(38.4535,-40.5795)">
			<title>Ligger, 2 pt.116</title>
			<path d="M0 81.3 L70.87 81.3" class="st1"/>
		</g>
		<g id="shape609-7" v:mID="609" v:groupContext="shape" transform="translate(107.194,-38.4535)">
			<title>Scharnier.117</title>
			<ellipse cx="2.12598" cy="79.1747" rx="2.12598" ry="2.12598" class="st2"/>
		</g>
		<g id="shape610-9" v:mID="610" v:groupContext="shape" transform="translate(180.186,-40.5795)">
			<title>Ligger, 2 pt.118</title>
			<path d="M0 81.3 L106.3 81.3" class="st1"/>
		</g>
		<g id="shape611-12" v:mID="611" v:groupContext="shape" transform="translate(354.516,-38.4535)">
			<title>Scharnier.119</title>
			<ellipse cx="2.12598" cy="79.1747" rx="2.12598" ry="2.12598" class="st2"/>
		</g>
		<g id="shape612-14" v:mID="612" v:groupContext="shape" transform="translate(432.469,-38.4535)">
			<title>Scharnier.120</title>
			<ellipse cx="2.12598" cy="79.1747" rx="2.12598" ry="2.12598" class="st2"/>
		</g>
		<g id="shape613-16" v:mID="613" v:groupContext="shape" transform="translate(506.17,-40.5795) rotate(4.65288E-05)">
			<title>Ligger, 2 pt.121</title>
			<path d="M0 81.3 L28.35 81.3" class="st1"/>
		</g>
		<g id="shape614-19" v:mID="614" v:groupContext="shape" transform="translate(119.754,40.7212) rotate(90)">
			<title>Kracht.83</title>
			<path d="M7.55 81.3 L7.91 81.3 L28.35 81.3" class="st3"/>
		</g>
		<g id="shape615-25" v:mID="615" v:groupContext="shape" transform="translate(38.4535,122.022) rotate(180)">
			<title>Kracht.84</title>
			<path d="M7.55 81.3 L7.91 81.3 L28.35 81.3" class="st3"/>
		</g>
		<g id="shape616-30" v:mID="616" v:groupContext="shape" transform="translate(-42.8472,54.8944) rotate(-90)">
			<title>Moment.124</title>
			<path d="M-0 81.3 A14.1732 14.1732 0 0 1 14.17 67.13 A14.1732 14.1732 0 0 1 26.14 73.7 L26.24 74.05" class="st5"/>
		</g>
		<g id="shape617-36" v:mID="617" v:groupContext="shape" transform="translate(180.186,122.022) rotate(180)">
			<title>Kracht.125</title>
			<path d="M7.55 81.3 L7.91 81.3 L28.35 81.3" class="st6"/>
		</g>
		<g id="shape618-42" v:mID="618" v:groupContext="shape" transform="translate(190.62,42.8472) rotate(90)">
			<title>Kracht.126</title>
			<path d="M7.55 81.3 L7.91 81.3 L28.35 81.3" class="st3"/>
		</g>
		<g id="shape619-47" v:mID="619" v:groupContext="shape" transform="translate(111.446,-40.5795)">
			<title>Kracht.90</title>
			<path d="M7.55 81.3 L7.91 81.3 L28.35 81.3" class="st6"/>
		</g>
		<g id="shape620-52" v:mID="620" v:groupContext="shape" transform="translate(28.019,38.5952) rotate(-90)">
			<title>Kracht.128</title>
			<path d="M7.55 81.3 L7.91 81.3 L28.35 81.3" class="st6"/>
		</g>
		<g id="shape621-57" v:mID="621" v:groupContext="shape" transform="translate(261.486,40.7212) rotate(90)">
			<title>Kracht.129</title>
			<path d="M7.55 81.3 L7.91 81.3 L28.35 81.3" class="st6"/>
		</g>
		<g id="shape622-62" v:mID="622" v:groupContext="shape" transform="translate(367.786,40.7212) rotate(90)">
			<title>Kracht.130</title>
			<path d="M7.55 81.3 L7.91 81.3 L28.35 81.3" class="st6"/>
		</g>
		<g id="shape623-67" v:mID="623" v:groupContext="shape" transform="translate(286.485,-40.5795)">
			<title>Kracht.131</title>
			<path d="M7.55 81.3 L7.91 81.3 L28.35 81.3" class="st6"/>
		</g>
		<g id="shape624-72" v:mID="624" v:groupContext="shape" transform="translate(354.516,122.022) rotate(180)">
			<title>Kracht.132</title>
			<path d="M7.55 81.3 L7.91 81.3 L28.35 81.3" class="st6"/>
		</g>
		<g id="shape625-77" v:mID="625" v:groupContext="shape" transform="translate(275.342,38.5952) rotate(-90)">
			<title>Kracht.133</title>
			<path d="M7.55 81.3 L7.91 81.3 L28.35 81.3" class="st6"/>
		</g>
		<g id="shape626-82" v:mID="626" v:groupContext="shape" transform="translate(474.085,40.7212) rotate(90)">
			<title>Kracht.134</title>
			<path d="M7.55 81.3 L7.91 81.3 L28.35 81.3" class="st3"/>
		</g>
		<g id="shape627-87" v:mID="627" v:groupContext="shape" transform="translate(392.784,-37.7448)">
			<title>Kracht.135</title>
			<path d="M7.55 81.3 L7.91 81.3 L28.35 81.3" class="st3"/>
		</g>
		<g id="shape628-92" v:mID="628" v:groupContext="shape" transform="translate(437.005,-40.5795)">
			<title>Kracht.136</title>
			<path d="M7.55 81.3 L7.91 81.3 L28.35 81.3" class="st6"/>
		</g>
		<g id="shape629-97" v:mID="629" v:groupContext="shape" transform="translate(353.295,38.4535) rotate(-90)">
			<title>Kracht.137</title>
			<path d="M7.55 81.3 L7.91 81.3 L28.35 81.3" class="st6"/>
		</g>
		<g id="shape630-102" v:mID="630" v:groupContext="shape" transform="translate(506.17,122.022) rotate(180)">
			<title>Kracht.138</title>
			<path d="M7.55 81.3 L7.91 81.3 L28.35 81.3" class="st6"/>
		</g>
		<g id="shape631-107" v:mID="631" v:groupContext="shape" transform="translate(587.471,40.7212) rotate(90)">
			<title>Kracht.139</title>
			<path d="M7.55 81.3 L7.91 81.3 L28.35 81.3" class="st6"/>
		</g>
		<g id="shape632-112" v:mID="632" v:groupContext="shape" transform="translate(615.817,40.7212) rotate(90)">
			<title>Kracht.140</title>
			<path d="M7.55 81.3 L7.91 81.3 L28.35 81.3" class="st3"/>
		</g>
		<g id="shape633-117" v:mID="633" v:groupContext="shape" transform="translate(261.486,26.4771) rotate(90)">
			<title>Kracht.162</title>
			<path d="M0 81.3 L7.43 81.3" class="st8"/>
		</g>
		<g id="shape634-123" v:mID="634" v:groupContext="shape" transform="translate(357.351,-54.8236)">
			<title>Sheet.634</title>
			<path d="M0 81.3 L35.43 81.3" class="st10"/>
		</g>
		<g id="shape635-126" v:mID="635" v:groupContext="shape" transform="translate(289.833,26.4771) rotate(90)">
			<title>Kracht.164</title>
			<path d="M0 81.3 L9.55 81.3" class="st8"/>
		</g>
		<g id="shape636-131" v:mID="636" v:groupContext="shape" transform="translate(318.179,26.4771) rotate(90)">
			<title>Kracht.165</title>
			<path d="M0 81.3 L9.55 81.3" class="st8"/>
		</g>
		<g id="shape637-136" v:mID="637" v:groupContext="shape" transform="translate(474.085,26.4771) rotate(90)">
			<title>Kracht.166</title>
			<path d="M0 81.3 L9.55 81.3" class="st8"/>
		</g>
		<g id="shape638-141" v:mID="638" v:groupContext="shape" transform="translate(445.738,26.4771) rotate(90)">
			<title>Kracht.167</title>
			<path d="M0 81.3 L9.55 81.3" class="st8"/>
		</g>
		<g id="shape639-146" v:mID="639" v:groupContext="shape" transform="translate(346.526,26.4771) rotate(90)">
			<title>Kracht.168</title>
			<path d="M0 81.3 L9.55 81.3" class="st8"/>
		</g>
		<g id="shape640-151" v:mID="640" v:groupContext="shape" transform="translate(180.186,-54.8236)">
			<title>Sheet.640</title>
			<path d="M0 81.3 L106.3 81.3" class="st10"/>
		</g>
	</g>
</svg>
