<?xml version="1.0" encoding="UTF-8" standalone="no"?>
<!DOCTYPE svg PUBLIC "-//W3C//DTD SVG 1.1//EN" "http://www.w3.org/Graphics/SVG/1.1/DTD/svg11.dtd">
<!-- Gegenereerd door Microsoft Visio, SVG Export Oefening_9.svg Pagina-1 -->
<svg xmlns="http://www.w3.org/2000/svg" xmlns:xlink="http://www.w3.org/1999/xlink" xmlns:ev="http://www.w3.org/2001/xml-events"
		xmlns:v="http://schemas.microsoft.com/visio/2003/SVGExtensions/" width="7.56422in" height="1.12918in"
		viewBox="0 0 544.624 81.3007" xml:space="preserve" color-interpolation-filters="sRGB" class="st12">
	<v:documentProperties v:langID="1043" v:metric="true" v:viewMarkup="false"/>

	<style type="text/css">
	<![CDATA[
		.st1 {stroke:#000000;stroke-linecap:round;stroke-linejoin:round;stroke-width:2}
		.st2 {fill:#ffffff;stroke:#000000;stroke-linecap:round;stroke-linejoin:round;stroke-width:0.75}
		.st3 {marker-start:url(#mrkr5-24);stroke:#800000;stroke-linecap:round;stroke-linejoin:round;stroke-opacity:0.5;stroke-width:2}
		.st4 {fill:#800000;fill-opacity:0.5;stroke:#800000;stroke-opacity:0.5;stroke-width:0.4424778761062}
		.st5 {marker-end:url(#mrkr5-35);stroke:#800000;stroke-linecap:round;stroke-linejoin:round;stroke-opacity:0.5;stroke-width:2}
		.st6 {fill:#800000;fill-opacity:0.5;stroke:#800000;stroke-opacity:0.5;stroke-width:0.44247787610619}
		.st7 {marker-end:url(#mrkr5-121);stroke:#800000;stroke-linecap:round;stroke-linejoin:round;stroke-opacity:0.5;stroke-width:1.2}
		.st8 {fill:#800000;fill-opacity:0.5;stroke:#800000;stroke-opacity:0.5;stroke-width:0.45454545454546}
		.st9 {stroke:#800000;stroke-linecap:round;stroke-linejoin:round;stroke-opacity:0.5;stroke-width:1.2}
		.st10 {fill:none;stroke:none;stroke-linecap:round;stroke-linejoin:round;stroke-width:0.75}
		.st11 {fill:#000000;font-family:Times New Roman;font-size:1.00001em}
		.st12 {fill:none;fill-rule:evenodd;font-size:12px;overflow:visible;stroke-linecap:square;stroke-miterlimit:3}
	]]>
	</style>

	<defs id="Markers">
		<g id="lend5">
			<path d="M 2 1 L 0 0 L 1.98117 -0.993387 C 1.67173 -0.364515 1.67301 0.372641 1.98465 1.00043 " style="stroke:none"/>
		</g>
		<marker id="mrkr5-24" class="st4" v:arrowType="5" v:arrowSize="2" v:setback="3.775" refX="3.775" orient="auto"
				markerUnits="strokeWidth" overflow="visible">
			<use xlink:href="#lend5" transform="scale(2.26) "/>
		</marker>
		<marker id="mrkr5-35" class="st6" v:arrowType="5" v:arrowSize="2" v:setback="3.775" refX="-3.775" orient="auto"
				markerUnits="strokeWidth" overflow="visible">
			<use xlink:href="#lend5" transform="scale(-2.26,-2.26) "/>
		</marker>
		<marker id="mrkr5-121" class="st8" v:arrowType="5" v:arrowSize="0" v:setback="3.85" refX="-3.85" orient="auto"
				markerUnits="strokeWidth" overflow="visible">
			<use xlink:href="#lend5" transform="scale(-2.2,-2.2) "/>
		</marker>
	</defs>
	<g v:mID="0" v:index="1" v:groupContext="foregroundPage">
		<title>Pagina-1</title>
		<v:pageProperties v:drawingScale="0.0393701" v:pageScale="0.0393701" v:drawingUnits="24" v:shadowOffsetX="8.50394"
				v:shadowOffsetY="-8.50394"/>
		<g id="shape179-1" v:mID="179" v:groupContext="shape" transform="translate(356.642,-40.5795)">
			<title>Ligger, 2 pt.179</title>
			<path d="M0 81.3 L77.95 81.3" class="st1"/>
		</g>
		<g id="shape180-4" v:mID="180" v:groupContext="shape" transform="translate(38.4535,-40.5795)">
			<title>Ligger, 2 pt.180</title>
			<path d="M0 81.3 L70.87 81.3" class="st1"/>
		</g>
		<g id="shape181-7" v:mID="181" v:groupContext="shape" transform="translate(107.194,-38.4535)">
			<title>Scharnier.181</title>
			<ellipse cx="2.12598" cy="79.1747" rx="2.12598" ry="2.12598" class="st2"/>
		</g>
		<g id="shape182-9" v:mID="182" v:groupContext="shape" transform="translate(180.186,-40.5795)">
			<title>Ligger, 2 pt.182</title>
			<path d="M0 81.3 L106.3 81.3" class="st1"/>
		</g>
		<g id="shape183-12" v:mID="183" v:groupContext="shape" transform="translate(354.516,-38.4535)">
			<title>Scharnier.183</title>
			<ellipse cx="2.12598" cy="79.1747" rx="2.12598" ry="2.12598" class="st2"/>
		</g>
		<g id="shape184-14" v:mID="184" v:groupContext="shape" transform="translate(432.469,-38.4535)">
			<title>Scharnier.184</title>
			<ellipse cx="2.12598" cy="79.1747" rx="2.12598" ry="2.12598" class="st2"/>
		</g>
		<g id="shape185-16" v:mID="185" v:groupContext="shape" transform="translate(506.17,-40.5795) rotate(4.65288E-05)">
			<title>Ligger, 2 pt.185</title>
			<path d="M0 81.3 L28.35 81.3" class="st1"/>
		</g>
		<g id="shape186-19" v:mID="186" v:groupContext="shape" transform="translate(119.754,40.7212) rotate(90)">
			<title>Kracht.186</title>
			<path d="M7.55 81.3 L7.91 81.3 L28.35 81.3" class="st3"/>
		</g>
		<g id="shape187-25" v:mID="187" v:groupContext="shape" transform="translate(38.4535,122.022) rotate(180)">
			<title>Kracht.187</title>
			<path d="M7.55 81.3 L7.91 81.3 L28.35 81.3" class="st3"/>
		</g>
		<g id="shape188-30" v:mID="188" v:groupContext="shape" transform="translate(-42.8472,54.8944) rotate(-90)">
			<title>Moment.188</title>
			<path d="M-0 81.3 A14.1732 14.1732 0 0 1 14.17 67.13 A14.1732 14.1732 0 0 1 26.14 73.7 L26.24 74.05" class="st5"/>
		</g>
		<g id="shape189-36" v:mID="189" v:groupContext="shape" transform="translate(180.186,122.022) rotate(180)">
			<title>Kracht.189</title>
			<path d="M7.55 81.3 L7.91 81.3 L28.35 81.3" class="st3"/>
		</g>
		<g id="shape190-41" v:mID="190" v:groupContext="shape" transform="translate(190.62,42.8472) rotate(90)">
			<title>Kracht.190</title>
			<path d="M7.55 81.3 L7.91 81.3 L28.35 81.3" class="st3"/>
		</g>
		<g id="shape191-46" v:mID="191" v:groupContext="shape" transform="translate(111.446,-40.5795)">
			<title>Kracht.191</title>
			<path d="M7.55 81.3 L7.91 81.3 L28.35 81.3" class="st3"/>
		</g>
		<g id="shape192-51" v:mID="192" v:groupContext="shape" transform="translate(28.019,38.5952) rotate(-90)">
			<title>Kracht.192</title>
			<path d="M7.55 81.3 L7.91 81.3 L28.35 81.3" class="st3"/>
		</g>
		<g id="shape193-56" v:mID="193" v:groupContext="shape" transform="translate(261.486,40.7212) rotate(90)">
			<title>Kracht.193</title>
			<path d="M7.55 81.3 L7.91 81.3 L28.35 81.3" class="st3"/>
		</g>
		<g id="shape194-61" v:mID="194" v:groupContext="shape" transform="translate(367.786,40.7212) rotate(90)">
			<title>Kracht.194</title>
			<path d="M7.55 81.3 L7.91 81.3 L28.35 81.3" class="st3"/>
		</g>
		<g id="shape195-66" v:mID="195" v:groupContext="shape" transform="translate(286.485,-40.5795)">
			<title>Kracht.195</title>
			<path d="M7.55 81.3 L7.91 81.3 L28.35 81.3" class="st3"/>
		</g>
		<g id="shape196-71" v:mID="196" v:groupContext="shape" transform="translate(354.516,122.022) rotate(180)">
			<title>Kracht.196</title>
			<path d="M7.55 81.3 L7.91 81.3 L28.35 81.3" class="st3"/>
		</g>
		<g id="shape197-76" v:mID="197" v:groupContext="shape" transform="translate(275.342,38.5952) rotate(-90)">
			<title>Kracht.197</title>
			<path d="M7.55 81.3 L7.91 81.3 L28.35 81.3" class="st3"/>
		</g>
		<g id="shape198-81" v:mID="198" v:groupContext="shape" transform="translate(474.085,40.7212) rotate(90)">
			<title>Kracht.198</title>
			<path d="M7.55 81.3 L7.91 81.3 L28.35 81.3" class="st3"/>
		</g>
		<g id="shape199-86" v:mID="199" v:groupContext="shape" transform="translate(392.784,-37.7448)">
			<title>Kracht.199</title>
			<path d="M7.55 81.3 L7.91 81.3 L28.35 81.3" class="st3"/>
		</g>
		<g id="shape200-91" v:mID="200" v:groupContext="shape" transform="translate(437.005,-40.5795)">
			<title>Kracht.200</title>
			<path d="M7.55 81.3 L7.91 81.3 L28.35 81.3" class="st3"/>
		</g>
		<g id="shape201-96" v:mID="201" v:groupContext="shape" transform="translate(353.295,38.4535) rotate(-90)">
			<title>Kracht.201</title>
			<path d="M7.55 81.3 L7.91 81.3 L28.35 81.3" class="st3"/>
		</g>
		<g id="shape202-101" v:mID="202" v:groupContext="shape" transform="translate(506.17,122.022) rotate(180)">
			<title>Kracht.202</title>
			<path d="M7.55 81.3 L7.91 81.3 L28.35 81.3" class="st3"/>
		</g>
		<g id="shape203-106" v:mID="203" v:groupContext="shape" transform="translate(587.471,40.7212) rotate(90)">
			<title>Kracht.203</title>
			<path d="M7.55 81.3 L7.91 81.3 L28.35 81.3" class="st3"/>
		</g>
		<g id="shape204-111" v:mID="204" v:groupContext="shape" transform="translate(615.817,40.7212) rotate(90)">
			<title>Kracht.204</title>
			<path d="M7.55 81.3 L7.91 81.3 L28.35 81.3" class="st3"/>
		</g>
		<g id="shape205-116" v:mID="205" v:groupContext="shape" transform="translate(261.486,26.4771) rotate(90)">
			<title>Kracht.205</title>
			<path d="M0 81.3 L7.43 81.3" class="st7"/>
		</g>
		<g id="shape206-122" v:mID="206" v:groupContext="shape" transform="translate(357.351,-54.8236)">
			<title>Blad.206</title>
			<path d="M0 81.3 L35.43 81.3" class="st9"/>
		</g>
		<g id="shape207-125" v:mID="207" v:groupContext="shape" transform="translate(289.833,26.4771) rotate(90)">
			<title>Kracht.207</title>
			<path d="M0 81.3 L9.55 81.3" class="st7"/>
		</g>
		<g id="shape208-130" v:mID="208" v:groupContext="shape" transform="translate(318.179,26.4771) rotate(90)">
			<title>Kracht.208</title>
			<path d="M0 81.3 L9.55 81.3" class="st7"/>
		</g>
		<g id="shape209-135" v:mID="209" v:groupContext="shape" transform="translate(474.085,26.4771) rotate(90)">
			<title>Kracht.209</title>
			<path d="M0 81.3 L9.55 81.3" class="st7"/>
		</g>
		<g id="shape210-140" v:mID="210" v:groupContext="shape" transform="translate(445.738,26.4771) rotate(90)">
			<title>Kracht.210</title>
			<path d="M0 81.3 L9.55 81.3" class="st7"/>
		</g>
		<g id="shape211-145" v:mID="211" v:groupContext="shape" transform="translate(346.526,26.4771) rotate(90)">
			<title>Kracht.211</title>
			<path d="M0 81.3 L9.55 81.3" class="st7"/>
		</g>
		<g id="shape212-150" v:mID="212" v:groupContext="shape" transform="translate(180.186,-54.8236)">
			<title>Blad.212</title>
			<path d="M0 81.3 L106.3 81.3" class="st9"/>
		</g>
		<g id="shape213-153" v:mID="213" v:groupContext="shape" transform="translate(66.7999,-19.3905)">
			<title>Blad.213</title>
			<desc>3</desc>
			<v:textBlock v:margins="rect(4,4,4,4)" v:tabSpace="42.5197"/>
			<v:textRect cx="7.08661" cy="74.214" width="14.18" height="14.1732"/>
			<rect x="0" y="67.1274" width="14.1732" height="14.1732" class="st10"/>
			<text x="4.09" y="77.81" class="st11" v:langID="1043"><v:paragraph v:horizAlign="1"/><v:tabList/>3</text>		</g>
		<g id="shape214-156" v:mID="214" v:groupContext="shape" transform="translate(229.792,-19.3905)">
			<title>Blad.214</title>
			<desc>3</desc>
			<v:textBlock v:margins="rect(4,4,4,4)" v:tabSpace="42.5197"/>
			<v:textRect cx="7.08661" cy="74.214" width="14.18" height="14.1732"/>
			<rect x="0" y="67.1274" width="14.1732" height="14.1732" class="st10"/>
			<text x="4.09" y="77.81" class="st11" v:langID="1043"><v:paragraph v:horizAlign="1"/><v:tabList/>3</text>		</g>
		<g id="shape215-159" v:mID="215" v:groupContext="shape" transform="translate(371.524,-19.3905)">
			<title>Blad.215</title>
			<desc>3</desc>
			<v:textBlock v:margins="rect(4,4,4,4)" v:tabSpace="42.5197"/>
			<v:textRect cx="7.08661" cy="74.214" width="14.18" height="14.1732"/>
			<rect x="0" y="67.1274" width="14.1732" height="14.1732" class="st10"/>
			<text x="4.09" y="77.81" class="st11" v:langID="1043"><v:paragraph v:horizAlign="1"/><v:tabList/>3</text>		</g>
		<g id="shape216-162" v:mID="216" v:groupContext="shape" transform="translate(513.257,-19.3905)">
			<title>Blad.216</title>
			<desc>3</desc>
			<v:textBlock v:margins="rect(4,4,4,4)" v:tabSpace="42.5197"/>
			<v:textRect cx="7.08661" cy="74.214" width="14.18" height="14.1732"/>
			<rect x="0" y="67.1274" width="14.1732" height="14.1732" class="st10"/>
			<text x="4.09" y="77.81" class="st11" v:langID="1043"><v:paragraph v:horizAlign="1"/><v:tabList/>3</text>		</g>
	</g>
</svg>
