<?xml version="1.0" encoding="UTF-8" standalone="no"?>
<!DOCTYPE svg PUBLIC "-//W3C//DTD SVG 1.1//EN" "http://www.w3.org/Graphics/SVG/1.1/DTD/svg11.dtd">
<!-- Gegenereerd door Microsoft Visio, SVG Export Oefening_14.svg Pagina-1 -->
<svg xmlns="http://www.w3.org/2000/svg" xmlns:xlink="http://www.w3.org/1999/xlink" xmlns:ev="http://www.w3.org/2001/xml-events"
		xmlns:v="http://schemas.microsoft.com/visio/2003/SVGExtensions/" width="3.48449in" height="2.86933in"
		viewBox="0 0 250.883 206.592" xml:space="preserve" color-interpolation-filters="sRGB" class="st8">
	<v:documentProperties v:langID="1043" v:metric="true" v:viewMarkup="false"/>

	<style type="text/css">
	<![CDATA[
		.st1 {stroke:#000000;stroke-linecap:round;stroke-linejoin:round;stroke-width:2}
		.st2 {fill:#ffffff;stroke:#000000;stroke-linecap:round;stroke-linejoin:round;stroke-width:0.75}
		.st3 {marker-start:url(#mrkr5-34);stroke:#800000;stroke-linecap:round;stroke-linejoin:round;stroke-opacity:0.5;stroke-width:2}
		.st4 {fill:#800000;fill-opacity:0.5;stroke:#800000;stroke-opacity:0.5;stroke-width:0.44247787610619}
		.st5 {marker-end:url(#mrkr5-60);stroke:#800000;stroke-linecap:round;stroke-linejoin:round;stroke-opacity:0.5;stroke-width:2}
		.st6 {fill:none;stroke:none;stroke-linecap:round;stroke-linejoin:round;stroke-width:0.75}
		.st7 {fill:#000000;font-family:Times New Roman;font-size:1.00001em}
		.st8 {fill:none;fill-rule:evenodd;font-size:12px;overflow:visible;stroke-linecap:square;stroke-miterlimit:3}
	]]>
	</style>

	<defs id="Markers">
		<g id="lend5">
			<path d="M 2 1 L 0 0 L 1.98117 -0.993387 C 1.67173 -0.364515 1.67301 0.372641 1.98465 1.00043 " style="stroke:none"/>
		</g>
		<marker id="mrkr5-34" class="st4" v:arrowType="5" v:arrowSize="2" v:setback="3.775" refX="3.775" orient="auto"
				markerUnits="strokeWidth" overflow="visible">
			<use xlink:href="#lend5" transform="scale(2.26) "/>
		</marker>
		<marker id="mrkr5-60" class="st4" v:arrowType="5" v:arrowSize="2" v:setback="3.775" refX="-3.775" orient="auto"
				markerUnits="strokeWidth" overflow="visible">
			<use xlink:href="#lend5" transform="scale(-2.26,-2.26) "/>
		</marker>
	</defs>
	<g v:mID="0" v:index="1" v:groupContext="foregroundPage">
		<title>Pagina-1</title>
		<v:pageProperties v:drawingScale="0.0393701" v:pageScale="0.0393701" v:drawingUnits="24" v:shadowOffsetX="8.50394"
				v:shadowOffsetY="-8.50394"/>
		<g id="shape308-1" v:mID="308" v:groupContext="shape" transform="translate(198.257,-168.139)">
			<title>Ligger, 2 pt.308</title>
			<path d="M0 206.59 L14.17 206.59" class="st1"/>
		</g>
		<g id="shape309-4" v:mID="309" v:groupContext="shape" transform="translate(5.83786,52.6267) rotate(-90)">
			<title>Ligger, 2 pt.309</title>
			<path d="M0 206.59 L14.17 206.59" class="st1"/>
		</g>
		<g id="shape310-7" v:mID="310" v:groupContext="shape" transform="translate(77.1361,-118.316) rotate(-36.8699)">
			<title>Ligger, 2 pt.310</title>
			<path d="M0 206.59 L14.17 206.59" class="st1"/>
		</g>
		<g id="shape311-10" v:mID="311" v:groupContext="shape" transform="translate(205.343,-166.013)">
			<title>Scharnier.311</title>
			<ellipse cx="2.12598" cy="204.466" rx="2.12598" ry="2.12598" class="st2"/>
		</g>
		<g id="shape312-12" v:mID="312" v:groupContext="shape" transform="translate(5.83788,166.013) rotate(-90)">
			<title>Ligger, 2 pt.312</title>
			<path d="M0 206.59 L14.17 206.59" class="st1"/>
		</g>
		<g id="shape313-15" v:mID="313" v:groupContext="shape" transform="translate(-166.013,166.013) rotate(-90)">
			<title>Ligger, 2 pt.313</title>
			<path d="M0 206.59 L14.17 206.59" class="st1"/>
		</g>
		<g id="shape314-18" v:mID="314" v:groupContext="shape" transform="translate(-83.3757,0.738956) rotate(-36.8699)">
			<title>Ligger, 2 pt.314</title>
			<path d="M0 206.59 L14.17 206.59" class="st1"/>
		</g>
		<g id="shape315-21" v:mID="315" v:groupContext="shape" transform="translate(38.4535,-38.4535)">
			<title>Scharnier.315</title>
			<ellipse cx="2.12598" cy="204.466" rx="2.12598" ry="2.12598" class="st2"/>
		</g>
		<g id="shape316-23" v:mID="316" v:groupContext="shape" transform="translate(-164.241,52.6267) rotate(-90)">
			<title>Ligger, 2 pt.316</title>
			<path d="M0 206.59 L14.17 206.59" class="st1"/>
		</g>
		<g id="shape317-26" v:mID="317" v:groupContext="shape" transform="translate(42.3511,-168.139)">
			<title>Ligger, 2 pt.317</title>
			<path d="M0 206.59 L14.17 206.59" class="st1"/>
		</g>
		<g id="shape318-29" v:mID="318" v:groupContext="shape" transform="translate(-164.241,38.4535) rotate(-90)">
			<title>Kracht.318</title>
			<path d="M7.55 206.59 L7.91 206.59 L28.35 206.59" class="st3"/>
		</g>
		<g id="shape319-35" v:mID="319" v:groupContext="shape" transform="translate(-164.241,80.9732) rotate(-90)">
			<title>Kracht.319</title>
			<path d="M7.55 206.59 L7.91 206.59 L28.35 206.59" class="st3"/>
		</g>
		<g id="shape320-40" v:mID="320" v:groupContext="shape" transform="translate(263.116,10.107) rotate(90)">
			<title>Kracht.320</title>
			<path d="M7.55 206.59 L7.91 206.59 L28.35 206.59" class="st3"/>
		</g>
		<g id="shape321-45" v:mID="321" v:groupContext="shape" transform="translate(14.0047,-153.965)">
			<title>Kracht.321</title>
			<path d="M7.55 206.59 L7.91 206.59 L28.35 206.59" class="st3"/>
		</g>
		<g id="shape322-50" v:mID="322" v:groupContext="shape" transform="translate(84.8708,245.045) rotate(180)">
			<title>Kracht.322</title>
			<path d="M7.55 206.59 L7.91 206.59 L28.35 206.59" class="st3"/>
		</g>
		<g id="shape323-55" v:mID="323" v:groupContext="shape" transform="translate(263.116,24.2803) rotate(90)">
			<title>Moment.323</title>
			<path d="M-0 206.59 A14.1732 14.1732 0 0 1 14.17 192.42 A14.1732 14.1732 0 0 1 26.14 199 L26.24 199.34" class="st5"/>
		</g>
		<g id="shape324-61" v:mID="324" v:groupContext="shape" transform="translate(56.5243,259.219) rotate(180)">
			<title>Moment.324</title>
			<path d="M-0 206.59 A14.1732 14.1732 0 0 1 14.17 192.42 A14.1732 14.1732 0 0 1 26.14 199 L26.24 199.34" class="st5"/>
		</g>
		<g id="shape325-66" v:mID="325" v:groupContext="shape" transform="translate(169.91,-168.139)">
			<title>Kracht.325</title>
			<path d="M7.55 206.59 L7.91 206.59 L28.35 206.59" class="st3"/>
		</g>
		<g id="shape326-71" v:mID="326" v:groupContext="shape" transform="translate(-8.33537,66.7999) rotate(-90)">
			<title>Kracht.326</title>
			<path d="M7.55 206.59 L7.91 206.59 L28.35 206.59" class="st3"/>
		</g>
		<g id="shape327-76" v:mID="327" v:groupContext="shape" transform="translate(5.83788,80.9732) rotate(-90)">
			<title>Kracht.327</title>
			<path d="M7.55 206.59 L7.91 206.59 L28.35 206.59" class="st3"/>
		</g>
		<g id="shape328-81" v:mID="328" v:groupContext="shape" transform="translate(240.776,259.219) rotate(180)">
			<title>Kracht.328</title>
			<path d="M7.55 206.59 L7.91 206.59 L28.35 206.59" class="st3"/>
		</g>
		<g id="shape329-86" v:mID="329" v:groupContext="shape" transform="translate(54.4589,-101.308) rotate(-36.8699)">
			<title>Kracht.329</title>
			<path d="M7.55 206.59 L7.91 206.59 L28.35 206.59" class="st3"/>
		</g>
		<g id="shape330-91" v:mID="330" v:groupContext="shape" transform="translate(52.8256,193.59) rotate(-126.87)">
			<title>Kracht.330</title>
			<path d="M7.55 206.59 L7.91 206.59 L28.35 206.59" class="st3"/>
		</g>
		<g id="shape331-96" v:mID="331" v:groupContext="shape" transform="translate(44.3216,182.96) rotate(-126.87)">
			<title>Moment.331</title>
			<path d="M-0 206.59 A14.1732 14.1732 0 0 1 14.17 192.42 A14.1732 14.1732 0 0 1 26.14 199 L26.24 199.34" class="st5"/>
		</g>
		<g id="shape332-101" v:mID="332" v:groupContext="shape" transform="translate(198.257,259.219) scale(1,-1)">
			<title>Moment.332</title>
			<path d="M-0 206.59 A14.1732 14.1732 0 0 1 14.17 192.42 A14.1732 14.1732 0 0 1 26.14 199 L26.24 199.34" class="st5"/>
		</g>
		<g id="shape333-106" v:mID="333" v:groupContext="shape" transform="translate(247.171,123.493) rotate(90)">
			<title>Kracht.333</title>
			<path d="M7.55 206.59 L7.91 206.59 L28.35 206.59" class="st3"/>
		</g>
		<g id="shape334-111" v:mID="334" v:groupContext="shape" transform="translate(68.9259,358.431) rotate(180)">
			<title>Kracht.334</title>
			<path d="M7.55 206.59 L7.91 206.59 L28.35 206.59" class="st3"/>
		</g>
		<g id="shape335-116" v:mID="335" v:groupContext="shape" transform="translate(198.55,305.774) rotate(143.13)">
			<title>Kracht.335</title>
			<path d="M7.55 206.59 L7.91 206.59 L28.35 206.59" class="st3"/>
		</g>
		<g id="shape336-121" v:mID="336" v:groupContext="shape" transform="translate(200.184,10.8762) rotate(53.1301)">
			<title>Kracht.336</title>
			<path d="M7.55 206.59 L7.91 206.59 L28.35 206.59" class="st3"/>
		</g>
		<g id="shape337-126" v:mID="337" v:groupContext="shape" transform="translate(419.022,123.493) rotate(90)">
			<title>Kracht.337</title>
			<path d="M7.55 206.59 L7.91 206.59 L28.35 206.59" class="st3"/>
		</g>
		<g id="shape338-131" v:mID="338" v:groupContext="shape" transform="translate(419.022,166.013) rotate(90)">
			<title>Kracht.338</title>
			<path d="M7.55 206.59 L7.91 206.59 L28.35 206.59" class="st3"/>
		</g>
		<g id="shape339-136" v:mID="339" v:groupContext="shape" transform="translate(38.4535,372.605) rotate(180)">
			<title>Kracht.339</title>
			<path d="M7.55 206.59 L7.91 206.59 L28.35 206.59" class="st3"/>
		</g>
		<g id="shape340-141" v:mID="340" v:groupContext="shape" transform="translate(247.171,168.139) rotate(90)">
			<title>Kracht.340</title>
			<path d="M7.55 206.59 L7.91 206.59 L28.35 206.59" class="st3"/>
		</g>
		<g id="shape341-146" v:mID="341" v:groupContext="shape" transform="translate(21.0913,-161.052)">
			<title>Blad.341</title>
			<desc>3</desc>
			<v:textBlock v:margins="rect(4,4,4,4)" v:tabSpace="42.5197"/>
			<v:textRect cx="7.08661" cy="199.505" width="14.18" height="14.1732"/>
			<rect x="0" y="192.419" width="14.1732" height="14.1732" class="st6"/>
			<text x="4.09" y="203.11" class="st7" v:langID="1043"><v:paragraph v:horizAlign="1"/><v:tabList/>3</text>		</g>
		<g id="shape342-149" v:mID="342" v:groupContext="shape" transform="translate(21.0913,-47.6661)">
			<title>Blad.342</title>
			<desc>2</desc>
			<v:textBlock v:margins="rect(4,4,4,4)" v:tabSpace="42.5197"/>
			<v:textRect cx="7.08661" cy="199.505" width="14.18" height="14.1732"/>
			<rect x="0" y="192.419" width="14.1732" height="14.1732" class="st6"/>
			<text x="4.09" y="203.11" class="st7" v:langID="1043"><v:paragraph v:horizAlign="1"/><v:tabList/>2</text>		</g>
		<g id="shape343-152" v:mID="343" v:groupContext="shape" transform="translate(191.17,-40.5794)">
			<title>Blad.343</title>
			<desc>1</desc>
			<v:textBlock v:margins="rect(4,4,4,4)" v:tabSpace="42.5197"/>
			<v:textRect cx="7.08661" cy="199.505" width="14.18" height="14.1732"/>
			<rect x="0" y="192.419" width="14.1732" height="14.1732" class="st6"/>
			<text x="4.09" y="203.11" class="st7" v:langID="1043"><v:paragraph v:horizAlign="1"/><v:tabList/>1</text>		</g>
		<g id="shape344-155" v:mID="344" v:groupContext="shape" transform="translate(212.43,-168.139)">
			<title>Blad.344</title>
			<desc>3</desc>
			<v:textBlock v:margins="rect(4,4,4,4)" v:tabSpace="42.5197"/>
			<v:textRect cx="7.08661" cy="199.505" width="14.18" height="14.1732"/>
			<rect x="0" y="192.419" width="14.1732" height="14.1732" class="st6"/>
			<text x="4.09" y="203.11" class="st7" v:langID="1043"><v:paragraph v:horizAlign="1"/><v:tabList/>3</text>		</g>
	</g>
</svg>
