<?xml version="1.0" encoding="UTF-8" standalone="no"?>
<!DOCTYPE svg PUBLIC "-//W3C//DTD SVG 1.1//EN" "http://www.w3.org/Graphics/SVG/1.1/DTD/svg11.dtd">
<!-- Gegenereerd door Microsoft Visio, SVG Export SB_systeem.svg Pagina-1 -->
<svg xmlns="http://www.w3.org/2000/svg" xmlns:xlink="http://www.w3.org/1999/xlink" xmlns:ev="http://www.w3.org/2001/xml-events"
		xmlns:v="http://schemas.microsoft.com/visio/2003/SVGExtensions/" width="3.43561in" height="1.32669in"
		viewBox="0 0 247.364 95.5214" xml:space="preserve" color-interpolation-filters="sRGB" class="st20">
	<v:documentProperties v:langID="1043" v:metric="true" v:viewMarkup="false"/>

	<style type="text/css">
	<![CDATA[
		.st1 {stroke:#000000;stroke-linecap:round;stroke-linejoin:round;stroke-width:0.75}
		.st2 {marker-end:url(#mrkr1-10);stroke:#000000;stroke-linecap:butt;stroke-width:3}
		.st3 {fill:#000000;fill-opacity:1;stroke:#000000;stroke-opacity:1;stroke-width:0.67567567567568}
		.st4 {fill:#00cc99;stroke:#000000;stroke-linecap:round;stroke-linejoin:round;stroke-width:0.75}
		.st5 {stroke:#000000;stroke-linecap:round;stroke-linejoin:round;stroke-width:2}
		.st6 {stroke:#000000;stroke-linecap:round;stroke-linejoin:round;stroke-width:4.5}
		.st7 {marker-start:url(#mrkr5-64);stroke:#800000;stroke-linecap:round;stroke-linejoin:round;stroke-width:2}
		.st8 {fill:#800000;fill-opacity:1;stroke:#800000;stroke-opacity:1;stroke-width:0.44247787610619}
		.st9 {stroke:#000000;stroke-linecap:round;stroke-linejoin:round;stroke-width:0.25}
		.st10 {marker-end:url(#mrkr4-81);marker-start:url(#mrkr4-79);stroke:#000000;stroke-linecap:round;stroke-linejoin:round;stroke-width:0.25}
		.st11 {fill:#000000;fill-opacity:1;stroke:#000000;stroke-opacity:1;stroke-width:0.1219512195122}
		.st12 {fill:none;stroke:none;stroke-linecap:round;stroke-linejoin:round;stroke-width:0.75}
		.st13 {fill:#000000;font-family:Times New Roman;font-size:1.00001em}
		.st14 {fill:none;stroke:none;stroke-linecap:round;stroke-linejoin:round;stroke-width:0.24}
		.st15 {fill:#000000;font-family:Times New Roman;font-size:1.00001em;font-style:italic}
		.st16 {fill:#ffffff;stroke:#000000;stroke-linecap:round;stroke-linejoin:round;stroke-width:0.75}
		.st17 {marker-end:url(#mrkr5-149);stroke:#800000;stroke-linecap:round;stroke-linejoin:round;stroke-width:2}
		.st18 {baseline-shift:-32.4941%;font-size:0.649882em;font-style:normal}
		.st19 {baseline-shift:32.4941%;font-size:0.649882em;font-style:normal}
		.st20 {fill:none;fill-rule:evenodd;font-size:12px;overflow:visible;stroke-linecap:square;stroke-miterlimit:3}
	]]>
	</style>

	<defs id="Markers">
		<g id="lend1">
			<path d="M 1 -1 L 0 0 L 1 1 " style="stroke-linecap:round;stroke-linejoin:round;fill:none"/>
		</g>
		<marker id="mrkr1-10" class="st3" v:arrowType="1" v:arrowSize="0" orient="auto" markerUnits="strokeWidth"
				overflow="visible">
			<use xlink:href="#lend1" transform="scale(-1.48,-1.48) "/>
		</marker>
		<g id="lend5">
			<path d="M 2 1 L 0 0 L 1.98117 -0.993387 C 1.67173 -0.364515 1.67301 0.372641 1.98465 1.00043 " style="stroke:none"/>
		</g>
		<marker id="mrkr5-64" class="st8" v:arrowType="5" v:arrowSize="2" v:setback="3.775" refX="3.775" orient="auto"
				markerUnits="strokeWidth" overflow="visible">
			<use xlink:href="#lend5" transform="scale(2.26) "/>
		</marker>
		<g id="lend4">
			<path d="M 2 1 L 0 0 L 2 -1 L 2 1 " style="stroke:none"/>
		</g>
		<marker id="mrkr4-79" class="st11" v:arrowType="4" v:arrowSize="1" v:setback="14.96" refX="14.96" orient="auto"
				markerUnits="strokeWidth" overflow="visible">
			<use xlink:href="#lend4" transform="scale(8.2) "/>
		</marker>
		<marker id="mrkr4-81" class="st11" v:arrowType="4" v:arrowSize="1" v:setback="16.4" refX="-16.4" orient="auto"
				markerUnits="strokeWidth" overflow="visible">
			<use xlink:href="#lend4" transform="scale(-8.2,-8.2) "/>
		</marker>
		<marker id="mrkr5-149" class="st8" v:arrowType="5" v:arrowSize="2" v:setback="3.775" refX="-3.775" orient="auto"
				markerUnits="strokeWidth" overflow="visible">
			<use xlink:href="#lend5" transform="scale(-2.26,-2.26) "/>
		</marker>
	</defs>
	<g v:mID="0" v:index="1" v:groupContext="foregroundPage">
		<title>Pagina-1</title>
		<v:pageProperties v:drawingScale="0.0393701" v:pageScale="0.0393701" v:drawingUnits="24" v:shadowOffsetX="8.50394"
				v:shadowOffsetY="-8.50394"/>
		<g id="group1597-1" transform="translate(166.202,112.715) rotate(180)" v:mID="1597" v:groupContext="group">
			<title>Blad.1597</title>
			<g id="shape1595-2" v:mID="1595" v:groupContext="shape" transform="translate(85.2382,159.699) rotate(153.435)">
				<title>Blad.1595</title>
				<path d="M0 95.52 L47.54 95.52" class="st1"/>
			</g>
			<g id="shape1596-5" v:mID="1596" v:groupContext="shape"
					transform="translate(-83.3861,100.916) rotate(74.1507) scale(1,-1)">
				<title>Hoekverdraaiing.1596</title>
				<path d="M0 95.52 C5.56 93.94 10.36 94.64 14.97 95.52" class="st2"/>
			</g>
		</g>
		<g id="shape1592-11" v:mID="1592" v:groupContext="shape" transform="translate(166.401,123.89) rotate(153.435)">
			<title>Blad.1592</title>
			<path d="M0 95.52 L47.54 95.52" class="st1"/>
		</g>
		<g id="group1540-14" transform="translate(0.375,-42.8947)" v:mID="1540" v:groupContext="group">
			<title>Rol.1540</title>
			<g id="group1541-15" transform="translate(0.261477,-2.83465)" v:mID="1541" v:groupContext="group">
				<title>Scharnier</title>
				<g id="shape1542-16" v:mID="1542" v:groupContext="shape" transform="translate(2.79729,1.42109E-14)">
					<title>Blad.1542</title>
					<path d="M0 95.52 L13.99 95.52 L6.99 84.18 L0 95.52 Z" class="st4"/>
				</g>
				<g id="shape1543-18" v:mID="1543" v:groupContext="shape" transform="translate(2.79729,191.043) rotate(180)">
					<title>Blad.1543</title>
					<path d="M0 95.52 L2.8 95.52" class="st1"/>
				</g>
				<g id="shape1544-21" v:mID="1544" v:groupContext="shape" transform="translate(16.7838,1.42109E-14)">
					<title>Blad.1544</title>
					<path d="M0 95.52 L2.8 95.52" class="st1"/>
				</g>
			</g>
			<g id="shape1545-24" v:mID="1545" v:groupContext="shape">
				<title>Blad.1545</title>
				<path d="M0 95.52 L19.84 95.52" class="st1"/>
			</g>
		</g>
		<g id="group1546-27" transform="translate(113.761,-42.8947)" v:mID="1546" v:groupContext="group">
			<title>Rol.1546</title>
			<g id="group1547-28" transform="translate(0.261477,-2.83465)" v:mID="1547" v:groupContext="group">
				<title>Scharnier</title>
				<g id="shape1548-29" v:mID="1548" v:groupContext="shape" transform="translate(2.79729,1.42109E-14)">
					<title>Blad.1548</title>
					<path d="M0 95.52 L13.99 95.52 L6.99 84.18 L0 95.52 Z" class="st4"/>
				</g>
				<g id="shape1549-31" v:mID="1549" v:groupContext="shape" transform="translate(2.79729,191.043) rotate(180)">
					<title>Blad.1549</title>
					<path d="M0 95.52 L2.8 95.52" class="st1"/>
				</g>
				<g id="shape1550-34" v:mID="1550" v:groupContext="shape" transform="translate(16.7838,1.42109E-14)">
					<title>Blad.1550</title>
					<path d="M0 95.52 L2.8 95.52" class="st1"/>
				</g>
			</g>
			<g id="shape1551-37" v:mID="1551" v:groupContext="shape">
				<title>Blad.1551</title>
				<path d="M0 95.52 L19.84 95.52" class="st1"/>
			</g>
		</g>
		<g id="shape1552-40" v:mID="1552" v:groupContext="shape" transform="translate(10.2963,-57.0679)">
			<title>Ligger, 2 pt.1552</title>
			<path d="M0 95.52 L113.39 95.52" class="st5"/>
		</g>
		<g id="group1553-43" transform="translate(227.147,-42.8947)" v:mID="1553" v:groupContext="group">
			<title>Rol.1553</title>
			<g id="group1554-44" transform="translate(0.261477,-2.83465)" v:mID="1554" v:groupContext="group">
				<title>Scharnier</title>
				<g id="shape1555-45" v:mID="1555" v:groupContext="shape" transform="translate(2.79729,1.42109E-14)">
					<title>Blad.1555</title>
					<path d="M0 95.52 L13.99 95.52 L6.99 84.18 L0 95.52 Z" class="st4"/>
				</g>
				<g id="shape1556-47" v:mID="1556" v:groupContext="shape" transform="translate(2.79729,191.043) rotate(180)">
					<title>Blad.1556</title>
					<path d="M0 95.52 L2.8 95.52" class="st1"/>
				</g>
				<g id="shape1557-50" v:mID="1557" v:groupContext="shape" transform="translate(16.7838,1.42109E-14)">
					<title>Blad.1557</title>
					<path d="M0 95.52 L2.8 95.52" class="st1"/>
				</g>
			</g>
			<g id="shape1558-53" v:mID="1558" v:groupContext="shape">
				<title>Blad.1558</title>
				<path d="M0 95.52 L19.84 95.52" class="st1"/>
			</g>
		</g>
		<g id="shape1559-56" v:mID="1559" v:groupContext="shape" transform="translate(123.813,-57.0679)">
			<title>Ligger, 2 pt.1559</title>
			<path d="M0 95.52 L113.39 95.52" class="st6"/>
		</g>
		<g id="shape1560-59" v:mID="1560" v:groupContext="shape" transform="translate(-28.5322,38.4535) rotate(-90)">
			<title>Kracht.1560</title>
			<path d="M7.55 95.52 L7.91 95.52 L28.35 95.52" class="st7"/>
		</g>
		<g id="group1561-65" transform="translate(10.2963,-0.375)" v:mID="1561" v:groupContext="group">
			<title>Maatlijn.1561</title>
			<g id="group1562-66" transform="translate(0,-9.92126)" v:mID="1562" v:groupContext="group">
				<title>Maatlijn.31</title>
				<g id="shape1563-67" v:mID="1563" v:groupContext="shape" transform="translate(95.5214,87.0175) rotate(90)">
					<title>Blad.1563</title>
					<path d="M0 95.52 L8.5 95.52" class="st9"/>
				</g>
				<g id="shape1564-70" v:mID="1564" v:groupContext="shape" transform="translate(152.214,87.0175) rotate(90)">
					<title>Blad.1564</title>
					<path d="M0 95.52 L8.5 95.52" class="st9"/>
				</g>
				<g id="shape1565-73" v:mID="1565" v:groupContext="shape" transform="translate(0,-4.25197)">
					<title>Blad.1565</title>
					<path d="M3.74 95.52 L4.1 95.52 L52.59 95.52" class="st10"/>
				</g>
			</g>
			<g id="shape1566-82" v:mID="1566" v:groupContext="shape">
				<title>Blad.1566</title>
				<desc>2 m</desc>
				<v:textBlock v:margins="rect(4,4,4,4)" v:tabSpace="42.5197"/>
				<v:textRect cx="28.3465" cy="88.4348" width="56.7" height="14.1732"/>
				<rect x="0" y="81.3482" width="56.6929" height="14.1732" class="st12"/>
				<text x="19.18" y="92.03" class="st13" v:langID="1043"><v:paragraph v:horizAlign="1"/><v:tabList/>2 m</text>			</g>
		</g>
		<g id="group1567-85" transform="translate(66.9892,-0.375)" v:mID="1567" v:groupContext="group">
			<title>Maatlijn.1567</title>
			<g id="group1568-86" transform="translate(0,-9.92126)" v:mID="1568" v:groupContext="group">
				<title>Maatlijn.31</title>
				<g id="shape1569-87" v:mID="1569" v:groupContext="shape" transform="translate(95.5214,87.0175) rotate(90)">
					<title>Blad.1569</title>
					<path d="M0 95.52 L8.5 95.52" class="st9"/>
				</g>
				<g id="shape1570-90" v:mID="1570" v:groupContext="shape" transform="translate(152.214,87.0175) rotate(90)">
					<title>Blad.1570</title>
					<path d="M0 95.52 L8.5 95.52" class="st9"/>
				</g>
				<g id="shape1571-93" v:mID="1571" v:groupContext="shape" transform="translate(0,-4.25197)">
					<title>Blad.1571</title>
					<path d="M3.74 95.52 L4.1 95.52 L52.59 95.52" class="st10"/>
				</g>
			</g>
			<g id="shape1572-100" v:mID="1572" v:groupContext="shape">
				<title>Blad.1572</title>
				<desc>2 m</desc>
				<v:textBlock v:margins="rect(4,4,4,4)" v:tabSpace="42.5197"/>
				<v:textRect cx="28.3465" cy="88.4348" width="56.7" height="14.1732"/>
				<rect x="0" y="81.3482" width="56.6929" height="14.1732" class="st12"/>
				<text x="19.18" y="92.03" class="st13" v:langID="1043"><v:paragraph v:horizAlign="1"/><v:tabList/>2 m</text>			</g>
		</g>
		<g id="group1573-103" transform="translate(123.682,-0.375)" v:mID="1573" v:groupContext="group">
			<title>Maatlijn.1573</title>
			<g id="group1574-104" transform="translate(0,-9.92126)" v:mID="1574" v:groupContext="group">
				<title>Maatlijn.31</title>
				<g id="shape1575-105" v:mID="1575" v:groupContext="shape" transform="translate(95.5214,87.0175) rotate(90)">
					<title>Blad.1575</title>
					<path d="M0 95.52 L8.5 95.52" class="st9"/>
				</g>
				<g id="shape1576-108" v:mID="1576" v:groupContext="shape" transform="translate(208.907,87.0175) rotate(90)">
					<title>Blad.1576</title>
					<path d="M0 95.52 L8.5 95.52" class="st9"/>
				</g>
				<g id="shape1577-111" v:mID="1577" v:groupContext="shape" transform="translate(0,-4.25197)">
					<title>Blad.1577</title>
					<path d="M3.74 95.52 L4.1 95.52 L109.29 95.52" class="st10"/>
				</g>
			</g>
			<g id="shape1578-118" v:mID="1578" v:groupContext="shape">
				<title>Blad.1578</title>
				<desc>4 m</desc>
				<v:textBlock v:margins="rect(4,4,4,4)" v:tabSpace="42.5197"/>
				<v:textRect cx="56.6929" cy="88.4348" width="113.39" height="14.1732"/>
				<rect x="0" y="81.3482" width="113.386" height="14.1732" class="st12"/>
				<text x="47.53" y="92.03" class="st13" v:langID="1043"><v:paragraph v:horizAlign="1"/><v:tabList/>4 m</text>			</g>
		</g>
		<g id="shape1579-121" v:mID="1579" v:groupContext="shape" transform="translate(62.7372,-71.2411)">
			<title>Maatlijn.1579</title>
			<desc>8 kN</desc>
			<v:textBlock v:margins="rect(4,4,4,4)" v:tabSpace="42.5197"/>
			<v:textRect cx="21.2598" cy="88.4348" width="42.52" height="14.1732"/>
			<rect x="0" y="81.3482" width="42.5197" height="14.1732" class="st12"/>
			<text x="9.43" y="92.03" class="st13" v:langID="1043"><v:paragraph v:horizAlign="1"/><v:tabList/>8 kN</text>		</g>
		<g id="shape1580-124" v:mID="1580" v:groupContext="shape" transform="translate(229.981,-57.0679)">
			<title>Punt A.1580</title>
			<desc>C</desc>
			<v:textBlock v:margins="rect(4,4,4,4)" v:tabSpace="42.5197"/>
			<v:textRect cx="7.08661" cy="88.4348" width="14.18" height="14.1732"/>
			<rect x="0" y="81.3482" width="14.1732" height="14.1732" class="st14"/>
			<text x="4" y="92.03" class="st13" v:langID="1043"><v:paragraph v:horizAlign="1"/><v:tabList/>C</text>		</g>
		<g id="shape1581-127" v:mID="1581" v:groupContext="shape" transform="translate(116.595,-57.0679)">
			<title>Punt A.1581</title>
			<desc>B</desc>
			<v:textBlock v:margins="rect(4,4,4,4)" v:tabSpace="42.5197"/>
			<v:textRect cx="7.08661" cy="88.4348" width="14.18" height="14.1732"/>
			<rect x="0" y="81.3482" width="14.1732" height="14.1732" class="st14"/>
			<text x="4" y="92.03" class="st13" v:langID="1043"><v:paragraph v:horizAlign="1"/><v:tabList/>B</text>		</g>
		<g id="shape1582-130" v:mID="1582" v:groupContext="shape" transform="translate(3.20965,-57.0679)">
			<title>Punt A.1582</title>
			<desc>A</desc>
			<v:textBlock v:margins="rect(4,4,4,4)" v:tabSpace="42.5197"/>
			<v:textRect cx="7.08661" cy="88.4348" width="14.18" height="14.1732"/>
			<rect x="0" y="81.3482" width="14.1732" height="14.1732" class="st14"/>
			<text x="4" y="92.03" class="st13" v:langID="1043"><v:paragraph v:horizAlign="1"/><v:tabList/>A</text>		</g>
		<g id="shape1583-133" v:mID="1583" v:groupContext="shape" transform="translate(24.4695,-42.8947)">
			<title>Punt A.1583</title>
			<desc>EI</desc>
			<v:textBlock v:margins="rect(4,4,4,4)" v:tabSpace="42.5197"/>
			<v:textRect cx="14.1732" cy="88.4348" width="28.35" height="14.1732"/>
			<rect x="0" y="81.3482" width="28.3465" height="14.1732" class="st14"/>
			<text x="8.51" y="92.03" class="st15" v:langID="1043"><v:paragraph v:horizAlign="1"/><v:tabList/>EI</text>		</g>
		<g id="shape1584-136" v:mID="1584" v:groupContext="shape" transform="translate(166.202,-42.8947)">
			<title>Punt A.1584</title>
			<desc>nEI</desc>
			<v:textBlock v:margins="rect(4,4,4,4)" v:tabSpace="42.5197"/>
			<v:textRect cx="14.1732" cy="88.4348" width="28.35" height="14.1732"/>
			<rect x="0" y="81.3482" width="28.3465" height="14.1732" class="st14"/>
			<text x="5.51" y="92.03" class="st15" v:langID="1043"><v:paragraph v:horizAlign="1"/><v:tabList/>nEI</text>		</g>
		<g id="shape1585-139" v:mID="1585" v:groupContext="shape" transform="translate(121.556,-54.9419)">
			<title>Scharnier.1585</title>
			<ellipse cx="2.12598" cy="93.3954" rx="2.12598" ry="2.12598" class="st16"/>
		</g>
		<g id="shape1588-141" v:mID="1588" v:groupContext="shape" transform="translate(59.9025,-42.8947)">
			<title>Punt A.1588</title>
			<desc>D</desc>
			<v:textBlock v:margins="rect(4,4,4,4)" v:tabSpace="42.5197"/>
			<v:textRect cx="7.08661" cy="88.4348" width="14.18" height="14.1732"/>
			<rect x="0" y="81.3482" width="14.1732" height="14.1732" class="st14"/>
			<text x="4" y="92.03" class="st13" v:langID="1043"><v:paragraph v:horizAlign="1"/><v:tabList/>D</text>		</g>
		<g id="shape1589-144" v:mID="1589" v:groupContext="shape" transform="translate(49.4205,52.6267) rotate(-90)">
			<title>Moment.1589</title>
			<path d="M-0 95.52 A14.1732 14.1732 0 0 1 14.17 81.35 A14.1732 14.1732 0 0 1 26.14 87.93 L26.24 88.27" class="st17"/>
		</g>
		<g id="shape1590-150" v:mID="1590" v:groupContext="shape" transform="translate(197.944,52.6267) rotate(90) scale(-1,1)">
			<title>Moment.1590</title>
			<path d="M-0 95.52 A14.1732 14.1732 0 0 1 14.17 81.35 A14.1732 14.1732 0 0 1 26.14 87.93 L26.24 88.27" class="st17"/>
		</g>
		<g id="shape1591-155" v:mID="1591" v:groupContext="shape" transform="translate(109.509,-71.2411)">
			<title>Punt A.1591</title>
			<desc>MB</desc>
			<v:textBlock v:margins="rect(4,4,4,4)" v:tabSpace="42.5197"/>
			<v:textRect cx="14.1732" cy="88.4348" width="28.35" height="14.1732"/>
			<rect x="0" y="81.3482" width="28.3465" height="14.1732" class="st14"/>
			<text x="6.57" y="92.04" class="st15" v:langID="1043"><v:paragraph v:horizAlign="1"/><v:tabList/>M<tspan dy="-0.279em"
						class="st18" v:baseFontSize="12">B</tspan></text>		</g>
		<g id="shape1593-159" v:mID="1593" v:groupContext="shape"
				transform="translate(-2.22367,65.1081) rotate(74.1507) scale(1,-1)">
			<title>Hoekverdraaiing.1593</title>
			<path d="M0 95.52 C5.56 93.94 10.36 94.64 14.97 95.52" class="st2"/>
		</g>
		<g id="shape1594-164" v:mID="1594" v:groupContext="shape" transform="translate(75.4931,-21.6348)">
			<title>Punt A.95</title>
			<desc>φBAB</desc>
			<v:textBlock v:margins="rect(4,4,4,4)" v:tabSpace="42.5197"/>
			<v:textRect cx="17.0079" cy="88.4348" width="34.02" height="14.1732"/>
			<rect x="0" y="81.3482" width="34.0157" height="14.1732" class="st14"/>
			<text x="5.67" y="92.04" class="st15" v:langID="1043"><v:paragraph v:horizAlign="1"/><v:tabList/>φ<tspan dy="-0.279em"
						class="st18" v:baseFontSize="12">B</tspan><tspan dy="0.081em" class="st19" v:baseFontSize="12">AB</tspan></text>		</g>
		<g id="shape1598-169" v:mID="1598" v:groupContext="shape" transform="translate(144.942,-78.3278)">
			<title>Punt A.1598</title>
			<desc>φBBC</desc>
			<v:textBlock v:margins="rect(4,4,4,4)" v:tabSpace="42.5197"/>
			<v:textRect cx="17.0079" cy="88.4348" width="34.02" height="14.1732"/>
			<rect x="0" y="81.3482" width="34.0157" height="14.1732" class="st14"/>
			<text x="5.89" y="92.04" class="st15" v:langID="1043"><v:paragraph v:horizAlign="1"/><v:tabList/>φ<tspan dy="-0.279em"
						class="st18" v:baseFontSize="12">B</tspan><tspan dy="0.081em" class="st19" v:baseFontSize="12">BC</tspan></text>		</g>
	</g>
</svg>
