<?xml version="1.0" encoding="UTF-8" standalone="no"?>
<!DOCTYPE svg PUBLIC "-//W3C//DTD SVG 1.1//EN" "http://www.w3.org/Graphics/SVG/1.1/DTD/svg11.dtd">
<!-- Gegenereerd door Microsoft Visio, SVG Export optie1.svg Pagina-1 -->
<svg xmlns="http://www.w3.org/2000/svg" xmlns:xlink="http://www.w3.org/1999/xlink" xmlns:ev="http://www.w3.org/2001/xml-events"
		xmlns:v="http://schemas.microsoft.com/visio/2003/SVGExtensions/" width="2.80569in" height="1.92363in"
		viewBox="0 0 202.01 138.501" xml:space="preserve" color-interpolation-filters="sRGB" class="st16">
	<v:documentProperties v:langID="1043" v:metric="true" v:viewMarkup="false"/>

	<style type="text/css">
	<![CDATA[
		.st1 {stroke:#000000;stroke-linecap:round;stroke-linejoin:round;stroke-width:0.75}
		.st2 {marker-end:url(#mrkr1-12);stroke:#000000;stroke-linecap:butt;stroke-width:3}
		.st3 {fill:#000000;fill-opacity:1;stroke:#000000;stroke-opacity:1;stroke-width:0.67567567567568}
		.st4 {fill:#00cc99;stroke:#000000;stroke-linecap:round;stroke-linejoin:round;stroke-width:0.75}
		.st5 {stroke:#000000;stroke-linecap:round;stroke-linejoin:round;stroke-width:2}
		.st6 {marker-start:url(#mrkr5-70);stroke:#800000;stroke-linecap:round;stroke-linejoin:round;stroke-width:2}
		.st7 {fill:#800000;fill-opacity:1;stroke:#800000;stroke-opacity:1;stroke-width:0.44247787610619}
		.st8 {fill:#ffffff;stroke:#000000;stroke-linecap:round;stroke-linejoin:round;stroke-width:0.75}
		.st9 {marker-end:url(#mrkr5-83);stroke:#800000;stroke-linecap:round;stroke-linejoin:round;stroke-width:2}
		.st10 {fill:none;stroke:none;stroke-linecap:round;stroke-linejoin:round;stroke-width:0.75}
		.st11 {fill:#000000;font-family:Times New Roman;font-size:1.00001em;font-style:italic}
		.st12 {baseline-shift:-32.4941%;font-size:0.649882em;font-style:normal}
		.st13 {font-size:1em;font-style:normal}
		.st14 {fill:none;stroke:none;stroke-linecap:round;stroke-linejoin:round;stroke-width:0.24}
		.st15 {baseline-shift:32.4941%;font-size:0.649882em;font-style:normal}
		.st16 {fill:none;fill-rule:evenodd;font-size:12px;overflow:visible;stroke-linecap:square;stroke-miterlimit:3}
	]]>
	</style>

	<defs id="Markers">
		<g id="lend1">
			<path d="M 1 -1 L 0 0 L 1 1 " style="stroke-linecap:round;stroke-linejoin:round;fill:none"/>
		</g>
		<marker id="mrkr1-12" class="st3" v:arrowType="1" v:arrowSize="0" orient="auto" markerUnits="strokeWidth"
				overflow="visible">
			<use xlink:href="#lend1" transform="scale(-1.48,-1.48) "/>
		</marker>
		<g id="lend5">
			<path d="M 2 1 L 0 0 L 1.98117 -0.993387 C 1.67173 -0.364515 1.67301 0.372641 1.98465 1.00043 " style="stroke:none"/>
		</g>
		<marker id="mrkr5-70" class="st7" v:arrowType="5" v:arrowSize="2" v:setback="3.775" refX="3.775" orient="auto"
				markerUnits="strokeWidth" overflow="visible">
			<use xlink:href="#lend5" transform="scale(2.26) "/>
		</marker>
		<marker id="mrkr5-83" class="st7" v:arrowType="5" v:arrowSize="2" v:setback="3.775" refX="-3.775" orient="auto"
				markerUnits="strokeWidth" overflow="visible">
			<use xlink:href="#lend5" transform="scale(-2.26,-2.26) "/>
		</marker>
	</defs>
	<g v:mID="0" v:index="1" v:groupContext="foregroundPage">
		<title>Pagina-1</title>
		<v:pageProperties v:drawingScale="0.0393701" v:pageScale="0.0393701" v:drawingUnits="24" v:shadowOffsetX="8.50394"
				v:shadowOffsetY="-8.50394"/>
		<g id="shape134-1" v:mID="134" v:groupContext="shape" transform="translate(213.968,233.199) rotate(153.435)">
			<title>Blad.134</title>
			<path d="M0 138.5 L47.54 138.5" class="st1"/>
		</g>
		<g id="shape135-4" v:mID="135" v:groupContext="shape" transform="translate(254.648,4.86041) rotate(63.4349)">
			<title>Blad.135</title>
			<path d="M0 138.5 L47.54 138.5" class="st1"/>
		</g>
		<g id="shape136-7" v:mID="136" v:groupContext="shape" transform="translate(-15.2229,147.712) rotate(74.1507) scale(1,-1)">
			<title>Hoekverdraaiing</title>
			<path d="M0 138.5 C5.56 136.92 10.36 137.62 14.97 138.5" class="st2"/>
		</g>
		<g id="shape137-13" v:mID="137" v:groupContext="shape" transform="translate(114.203,-58.4987) rotate(-15.8493) scale(-1,1)">
			<title>Hoekverdraaiing.92</title>
			<path d="M0 138.5 C5.56 136.92 10.36 137.62 14.97 138.5" class="st2"/>
		</g>
		<g id="group64-18" transform="translate(142.107,-15.0081)" v:mID="64" v:groupContext="group">
			<title>Rol.64</title>
			<g id="group65-19" transform="translate(0.261477,-2.83465)" v:mID="65" v:groupContext="group">
				<title>Scharnier</title>
				<g id="shape66-20" v:mID="66" v:groupContext="shape" transform="translate(2.79729,0)">
					<title>Blad.66</title>
					<path d="M0 138.5 L13.99 138.5 L6.99 127.16 L0 138.5 Z" class="st4"/>
				</g>
				<g id="shape67-22" v:mID="67" v:groupContext="shape" transform="translate(2.79729,277.002) rotate(180)">
					<title>Blad.67</title>
					<path d="M0 138.5 L2.8 138.5" class="st1"/>
				</g>
				<g id="shape68-25" v:mID="68" v:groupContext="shape" transform="translate(16.7838,0)">
					<title>Blad.68</title>
					<path d="M0 138.5 L2.8 138.5" class="st1"/>
				</g>
			</g>
			<g id="shape69-28" v:mID="69" v:groupContext="shape">
				<title>Blad.69</title>
				<path d="M0 138.5 L19.84 138.5" class="st1"/>
			</g>
		</g>
		<g id="group41-31" transform="translate(0.375,-17.8428)" v:mID="41" v:groupContext="group">
			<title>Scharnieroplegging.41</title>
			<g id="shape42-32" v:mID="42" v:groupContext="shape" transform="translate(2.83465,0)">
				<title>Blad.42</title>
				<path d="M0 138.5 L14.17 138.5 L7.09 127.16 L0 138.5 Z" class="st4"/>
			</g>
			<g id="shape43-34" v:mID="43" v:groupContext="shape" transform="translate(2.83465,277.002) rotate(180)">
				<title>Blad.43</title>
				<path d="M0 138.5 L2.83 138.5" class="st1"/>
			</g>
			<g id="shape44-37" v:mID="44" v:groupContext="shape" transform="translate(17.0079,0)">
				<title>Blad.44</title>
				<path d="M0 138.5 L2.83 138.5" class="st1"/>
			</g>
		</g>
		<g id="shape45-40" v:mID="45" v:groupContext="shape" transform="translate(10.2963,-29.1814)">
			<title>Ligger, 2 pt.45</title>
			<path d="M0 138.5 L70.87 138.5" class="st5"/>
		</g>
		<g id="shape46-43" v:mID="46" v:groupContext="shape" transform="translate(81.1624,-29.1814)">
			<title>Ligger, 2 pt.46</title>
			<path d="M0 138.5 L70.87 138.5" class="st5"/>
		</g>
		<g id="shape51-46" v:mID="51" v:groupContext="shape" transform="translate(13.5275,109.32) rotate(-90)">
			<title>Ligger, 2 pt.51</title>
			<path d="M0 138.5 L70.87 138.5" class="st5"/>
		</g>
		<g id="group52-49" transform="translate(27.7008,48.3747) rotate(-90)" v:mID="52" v:groupContext="group">
			<title>Rol.52</title>
			<g id="group53-50" transform="translate(0.261477,-2.83465)" v:mID="53" v:groupContext="group">
				<title>Scharnier</title>
				<g id="shape54-51" v:mID="54" v:groupContext="shape" transform="translate(2.79729,0)">
					<title>Blad.54</title>
					<path d="M0 138.5 L13.99 138.5 L6.99 127.16 L0 138.5 Z" class="st4"/>
				</g>
				<g id="shape55-53" v:mID="55" v:groupContext="shape" transform="translate(2.79729,277.002) rotate(180)">
					<title>Blad.55</title>
					<path d="M0 138.5 L2.8 138.5" class="st1"/>
				</g>
				<g id="shape56-56" v:mID="56" v:groupContext="shape" transform="translate(16.7838,0)">
					<title>Blad.56</title>
					<path d="M0 138.5 L2.8 138.5" class="st1"/>
				</g>
			</g>
			<g id="shape57-59" v:mID="57" v:groupContext="shape">
				<title>Blad.57</title>
				<path d="M0 138.5 L19.84 138.5" class="st1"/>
			</g>
		</g>
		<g id="shape58-62" v:mID="58" v:groupContext="shape" transform="translate(81.1624,-100.048)">
			<title>Ligger, 2 pt.58</title>
			<path d="M0 138.5 L70.87 138.5" class="st5"/>
		</g>
		<g id="shape59-65" v:mID="59" v:groupContext="shape" transform="translate(-57.3386,38.4535) rotate(-90)">
			<title>Kracht.59</title>
			<path d="M7.55 138.5 L7.91 138.5 L28.35 138.5" class="st6"/>
		</g>
		<g id="shape63-71" v:mID="63" v:groupContext="shape" transform="translate(149.903,-27.0554)">
			<title>Scharnier</title>
			<ellipse cx="2.12598" cy="136.375" rx="2.12598" ry="2.12598" class="st8"/>
		</g>
		<g id="shape129-73" v:mID="129" v:groupContext="shape" transform="translate(154.155,-29.1814)">
			<title>Kracht.129</title>
			<path d="M7.55 138.5 L7.91 138.5 L28.22 138.5" class="st6"/>
		</g>
		<g id="shape130-78" v:mID="130" v:groupContext="shape" transform="translate(262.183,95.1464) rotate(90)">
			<title>Moment</title>
			<path d="M-0 138.5 A14.1732 14.1732 0 0 1 14.17 124.33 A14.1732 14.1732 0 0 1 26.14 130.91 L26.24 131.25" class="st9"/>
		</g>
		<g id="shape131-84" v:mID="131" v:groupContext="shape" transform="translate(137.855,219.474) scale(1,-1)">
			<title>Moment.131</title>
			<path d="M-0 138.5 A14.1732 14.1732 0 0 1 14.17 124.33 A14.1732 14.1732 0 0 1 26.14 130.91 L26.24 131.25" class="st9"/>
		</g>
		<g id="shape132-89" v:mID="132" v:groupContext="shape" transform="translate(152.029,-23.5121)">
			<title>verplaatsing</title>
			<path d="M0 138.5 L28.35 138.5" class="st2"/>
		</g>
		<g id="shape133-94" v:mID="133" v:groupContext="shape" transform="translate(159.115,-0.83492)">
			<title>Maatlijn.40</title>
			<desc>wB = 0</desc>
			<v:textBlock v:margins="rect(4,4,4,4)" v:tabSpace="42.5197"/>
			<v:textRect cx="21.2598" cy="131.414" width="42.52" height="14.1732"/>
			<rect x="0" y="124.328" width="42.5197" height="14.1732" class="st10"/>
			<text x="5.27" y="135.02" class="st11" v:langID="1043"><v:paragraph v:horizAlign="1"/><v:tabList/>w<tspan dy="-0.279em"
						class="st12" v:baseFontSize="12">B</tspan><tspan dy="0.181em" class="st13"> </tspan><tspan class="st13">= 0</tspan></text>		</g>
		<g id="shape140-100" v:mID="140" v:groupContext="shape" transform="translate(52.8159,-50.4412)">
			<title>Punt A.189</title>
			<desc>φBAB = φBBC</desc>
			<v:textBlock v:margins="rect(4,4,4,4)" v:tabSpace="42.5197"/>
			<v:textRect cx="40.9532" cy="131.414" width="81.91" height="14.1732"/>
			<rect x="0" y="124.328" width="81.9063" height="14.1732" class="st14"/>
			<text x="12.11" y="135.02" class="st11" v:langID="1043"><v:paragraph v:horizAlign="1"/><v:tabList/>φ<tspan
						dy="-0.279em" class="st12" v:baseFontSize="12">B</tspan><tspan dy="0.081em" class="st15"
						v:baseFontSize="12">AB</tspan><tspan dy="0.129em" class="st13"> </tspan><tspan class="st13">= </tspan>φ<tspan
						dy="-0.279em" class="st12" v:baseFontSize="12">B</tspan><tspan dy="0.081em" class="st15"
						v:baseFontSize="12">BC</tspan></text>		</g>
	</g>
</svg>
