<?xml version="1.0" encoding="UTF-8" standalone="no"?>
<!DOCTYPE svg PUBLIC "-//W3C//DTD SVG 1.1//EN" "http://www.w3.org/Graphics/SVG/1.1/DTD/svg11.dtd">
<!-- Gegenereerd door Microsoft Visio, SVG Export optie4.svg Pagina-1 -->
<svg xmlns="http://www.w3.org/2000/svg" xmlns:xlink="http://www.w3.org/1999/xlink" xmlns:ev="http://www.w3.org/2001/xml-events"
		xmlns:v="http://schemas.microsoft.com/visio/2003/SVGExtensions/" width="3.09834in" height="1.85555in"
		viewBox="0 0 223.08 133.6" xml:space="preserve" color-interpolation-filters="sRGB" class="st16">
	<v:documentProperties v:langID="1043" v:metric="true" v:viewMarkup="false"/>

	<style type="text/css">
	<![CDATA[
		.st1 {stroke:#000000;stroke-linecap:round;stroke-linejoin:round;stroke-width:2}
		.st2 {fill:#00cc99;stroke:#000000;stroke-linecap:round;stroke-linejoin:round;stroke-width:0.75}
		.st3 {stroke:#000000;stroke-linecap:round;stroke-linejoin:round;stroke-width:0.75}
		.st4 {marker-start:url(#mrkr5-40);stroke:#800000;stroke-linecap:round;stroke-linejoin:round;stroke-width:2}
		.st5 {fill:#800000;fill-opacity:1;stroke:#800000;stroke-opacity:1;stroke-width:0.44247787610619}
		.st6 {fill:none;stroke:none;stroke-linecap:round;stroke-linejoin:round;stroke-width:0.75}
		.st7 {fill:#000000;font-family:Times New Roman;font-size:1.00001em;font-style:italic}
		.st8 {baseline-shift:-32.4941%;font-size:0.649882em;font-style:normal}
		.st9 {font-size:1em;font-style:normal}
		.st10 {marker-end:url(#mrkr1-70);stroke:#000000;stroke-linecap:butt;stroke-width:3}
		.st11 {fill:#000000;fill-opacity:1;stroke:#000000;stroke-opacity:1;stroke-width:0.67567567567568}
		.st12 {marker-end:url(#mrkr5-92);stroke:#800000;stroke-linecap:round;stroke-linejoin:round;stroke-width:2}
		.st13 {fill:none;stroke:none;stroke-linecap:round;stroke-linejoin:round;stroke-width:0.24}
		.st14 {baseline-shift:32.4941%;font-size:0.649882em;font-style:normal}
		.st15 {fill:#ffffff;stroke:#000000;stroke-linecap:round;stroke-linejoin:round;stroke-width:0.75}
		.st16 {fill:none;fill-rule:evenodd;font-size:12px;overflow:visible;stroke-linecap:square;stroke-miterlimit:3}
	]]>
	</style>

	<defs id="Markers">
		<g id="lend5">
			<path d="M 2 1 L 0 0 L 1.98117 -0.993387 C 1.67173 -0.364515 1.67301 0.372641 1.98465 1.00043 " style="stroke:none"/>
		</g>
		<marker id="mrkr5-40" class="st5" v:arrowType="5" v:arrowSize="2" v:setback="3.775" refX="3.775" orient="auto"
				markerUnits="strokeWidth" overflow="visible">
			<use xlink:href="#lend5" transform="scale(2.26) "/>
		</marker>
		<g id="lend1">
			<path d="M 1 -1 L 0 0 L 1 1 " style="stroke-linecap:round;stroke-linejoin:round;fill:none"/>
		</g>
		<marker id="mrkr1-70" class="st11" v:arrowType="1" v:arrowSize="0" orient="auto" markerUnits="strokeWidth"
				overflow="visible">
			<use xlink:href="#lend1" transform="scale(-1.48,-1.48) "/>
		</marker>
		<marker id="mrkr5-92" class="st5" v:arrowType="5" v:arrowSize="2" v:setback="3.775" refX="-3.775" orient="auto"
				markerUnits="strokeWidth" overflow="visible">
			<use xlink:href="#lend5" transform="scale(-2.26,-2.26) "/>
		</marker>
	</defs>
	<g v:mID="0" v:index="1" v:groupContext="foregroundPage">
		<title>Pagina-1</title>
		<v:pageProperties v:drawingScale="0.0393701" v:pageScale="0.0393701" v:drawingUnits="24" v:shadowOffsetX="8.50394"
				v:shadowOffsetY="-8.50394"/>
		<g id="shape197-1" v:mID="197" v:groupContext="shape" transform="translate(57.0679,-24.2803)">
			<title>Ligger, 2 pt.197</title>
			<path d="M0 133.6 L70.87 133.6" class="st1"/>
		</g>
		<g id="shape198-4" v:mID="198" v:groupContext="shape" transform="translate(127.934,-24.2803)">
			<title>Ligger, 2 pt.198</title>
			<path d="M0 133.6 L70.87 133.6" class="st1"/>
		</g>
		<g id="group199-7" transform="translate(188.879,-12.9417)" v:mID="199" v:groupContext="group">
			<title>Scharnieroplegging.199</title>
			<g id="shape200-8" v:mID="200" v:groupContext="shape" transform="translate(2.83465,0)">
				<title>Blad.200</title>
				<path d="M0 133.6 L14.17 133.6 L7.09 122.26 L0 133.6 Z" class="st2"/>
			</g>
			<g id="shape201-10" v:mID="201" v:groupContext="shape" transform="translate(2.83465,267.2) rotate(180)">
				<title>Blad.201</title>
				<path d="M0 133.6 L2.83 133.6" class="st3"/>
			</g>
			<g id="shape202-13" v:mID="202" v:groupContext="shape" transform="translate(17.0079,0)">
				<title>Blad.202</title>
				<path d="M0 133.6 L2.83 133.6" class="st3"/>
			</g>
		</g>
		<g id="shape203-16" v:mID="203" v:groupContext="shape" transform="translate(65.2003,109.32) rotate(-90)">
			<title>Ligger, 2 pt.203</title>
			<path d="M0 133.6 L70.87 133.6" class="st1"/>
		</g>
		<g id="group204-19" transform="translate(79.3736,48.3747) rotate(-90)" v:mID="204" v:groupContext="group">
			<title>Rol.204</title>
			<g id="group205-20" transform="translate(0.261477,-2.83465)" v:mID="205" v:groupContext="group">
				<title>Scharnier</title>
				<g id="shape206-21" v:mID="206" v:groupContext="shape" transform="translate(2.79729,0)">
					<title>Blad.206</title>
					<path d="M0 133.6 L13.99 133.6 L6.99 122.26 L0 133.6 Z" class="st2"/>
				</g>
				<g id="shape207-23" v:mID="207" v:groupContext="shape" transform="translate(2.79729,267.2) rotate(180)">
					<title>Blad.207</title>
					<path d="M0 133.6 L2.8 133.6" class="st3"/>
				</g>
				<g id="shape208-26" v:mID="208" v:groupContext="shape" transform="translate(16.7838,0)">
					<title>Blad.208</title>
					<path d="M0 133.6 L2.8 133.6" class="st3"/>
				</g>
			</g>
			<g id="shape209-29" v:mID="209" v:groupContext="shape">
				<title>Blad.209</title>
				<path d="M0 133.6 L19.84 133.6" class="st3"/>
			</g>
		</g>
		<g id="shape210-32" v:mID="210" v:groupContext="shape" transform="translate(127.934,-95.1464)">
			<title>Ligger, 2 pt.210</title>
			<path d="M0 133.6 L70.87 133.6" class="st1"/>
		</g>
		<g id="shape211-35" v:mID="211" v:groupContext="shape" transform="translate(-5.66582,38.4535) rotate(-90)">
			<title>Kracht.211</title>
			<path d="M7.55 133.6 L7.91 133.6 L28.35 133.6" class="st4"/>
		</g>
		<g id="group216-41" transform="translate(47.1467,-10.107)" v:mID="216" v:groupContext="group">
			<title>Rol.216</title>
			<g id="group217-42" transform="translate(0.261477,-2.83465)" v:mID="217" v:groupContext="group">
				<title>Scharnier</title>
				<g id="shape218-43" v:mID="218" v:groupContext="shape" transform="translate(2.79729,0)">
					<title>Blad.218</title>
					<path d="M0 133.6 L13.99 133.6 L6.99 122.26 L0 133.6 Z" class="st2"/>
				</g>
				<g id="shape219-45" v:mID="219" v:groupContext="shape" transform="translate(2.79729,267.2) rotate(180)">
					<title>Blad.219</title>
					<path d="M0 133.6 L2.8 133.6" class="st3"/>
				</g>
				<g id="shape220-48" v:mID="220" v:groupContext="shape" transform="translate(16.7838,0)">
					<title>Blad.220</title>
					<path d="M0 133.6 L2.8 133.6" class="st3"/>
				</g>
			</g>
			<g id="shape221-51" v:mID="221" v:groupContext="shape">
				<title>Blad.221</title>
				<path d="M0 133.6 L19.84 133.6" class="st3"/>
			</g>
		</g>
		<g id="shape222-54" v:mID="222" v:groupContext="shape" transform="translate(57.0679,242.92) rotate(180)">
			<title>Kracht.222</title>
			<path d="M7.55 133.6 L7.91 133.6 L28.35 133.6" class="st4"/>
		</g>
		<g id="shape223-59" v:mID="223" v:groupContext="shape" transform="translate(0.375,-35.6188)">
			<title>Maatlijn.223</title>
			<desc>wA,h = 0</desc>
			<v:textBlock v:margins="rect(4,4,4,4)" v:tabSpace="42.5197"/>
			<v:textRect cx="28.3465" cy="126.513" width="56.7" height="14.1732"/>
			<rect x="0" y="119.427" width="56.6929" height="14.1732" class="st6"/>
			<text x="9.22" y="130.11" class="st7" v:langID="1043"><v:paragraph v:horizAlign="1"/><v:tabList/>w<tspan dy="-0.279em"
						class="st8" v:baseFontSize="12">A,h</tspan><tspan dy="0.181em" class="st9"> </tspan><tspan class="st9">= 0</tspan></text>		</g>
		<g id="shape224-65" v:mID="224" v:groupContext="shape" transform="translate(28.7215,-31.3669)">
			<title>verplaatsing.224</title>
			<path d="M0 133.6 L28.35 133.6" class="st10"/>
		</g>
		<g id="shape225-71" v:mID="225" v:groupContext="shape" transform="translate(258.548,228.815) rotate(153.435)">
			<title>Blad.225</title>
			<path d="M0 133.6 L47.54 133.6" class="st3"/>
		</g>
		<g id="shape226-74" v:mID="226" v:groupContext="shape" transform="translate(297.036,7.05226) rotate(63.4349)">
			<title>Blad.226</title>
			<path d="M0 133.6 L47.54 133.6" class="st3"/>
		</g>
		<g id="shape227-77" v:mID="227" v:groupContext="shape" transform="translate(36.2636,146.374) rotate(74.1507) scale(1,-1)">
			<title>Hoekverdraaiing.227</title>
			<path d="M0 133.6 C5.56 132.02 10.36 132.72 14.97 133.6" class="st10"/>
		</g>
		<g id="shape228-82" v:mID="228" v:groupContext="shape" transform="translate(162.313,-53.7839) rotate(-15.8493) scale(-1,1)">
			<title>Hoekverdraaiing.228</title>
			<path d="M0 133.6 C5.56 132.02 10.36 132.72 14.97 133.6" class="st10"/>
		</g>
		<g id="shape238-87" v:mID="238" v:groupContext="shape" transform="translate(304.054,95.1464) rotate(90)">
			<title>Moment.238</title>
			<path d="M-0 133.6 A14.1732 14.1732 0 0 1 14.17 119.43 A14.1732 14.1732 0 0 1 26.14 126 L26.24 126.35" class="st12"/>
		</g>
		<g id="shape239-93" v:mID="239" v:groupContext="shape" transform="translate(184.627,214.573) scale(1,-1)">
			<title>Moment.239</title>
			<path d="M-0 133.6 A14.1732 14.1732 0 0 1 14.17 119.43 A14.1732 14.1732 0 0 1 26.14 126 L26.24 126.35" class="st12"/>
		</g>
		<g id="shape242-98" v:mID="242" v:groupContext="shape" transform="translate(99.5876,-45.5401)">
			<title>Punt A.242</title>
			<desc>φBAB = φBBC</desc>
			<v:textBlock v:margins="rect(4,4,4,4)" v:tabSpace="42.5197"/>
			<v:textRect cx="40.9532" cy="126.513" width="81.91" height="14.1732"/>
			<rect x="0" y="119.427" width="81.9063" height="14.1732" class="st13"/>
			<text x="12.11" y="130.11" class="st7" v:langID="1043"><v:paragraph v:horizAlign="1"/><v:tabList/>φ<tspan dy="-0.279em"
						class="st8" v:baseFontSize="12">B</tspan><tspan dy="0.081em" class="st14" v:baseFontSize="12">AB</tspan><tspan
						dy="0.129em" class="st9"> </tspan><tspan class="st9">= </tspan>φ<tspan dy="-0.279em" class="st8"
						v:baseFontSize="12">B</tspan><tspan dy="0.081em" class="st14" v:baseFontSize="12">BC</tspan></text>		</g>
		<g id="shape215-107" v:mID="215" v:groupContext="shape" transform="translate(196.674,-22.1543)">
			<title>Scharnier.215</title>
			<ellipse cx="2.12598" cy="131.474" rx="2.12598" ry="2.12598" class="st15"/>
		</g>
	</g>
</svg>
