<?xml version="1.0" encoding="UTF-8" standalone="no"?>
<!DOCTYPE svg PUBLIC "-//W3C//DTD SVG 1.1//EN" "http://www.w3.org/Graphics/SVG/1.1/DTD/svg11.dtd">
<!-- Gegenereerd door Microsoft Visio, SVG Export Example_6.svg Pagina-1 -->
<svg xmlns="http://www.w3.org/2000/svg" xmlns:xlink="http://www.w3.org/1999/xlink" xmlns:ev="http://www.w3.org/2001/xml-events"
		xmlns:v="http://schemas.microsoft.com/visio/2003/SVGExtensions/" width="8.02691in" height="4.02091in"
		viewBox="0 0 577.937 289.505" xml:space="preserve" color-interpolation-filters="sRGB" class="st12">
	<v:documentProperties v:langID="1043" v:metric="true" v:viewMarkup="false"/>

	<style type="text/css">
	<![CDATA[
		.st1 {stroke:#000000;stroke-linecap:round;stroke-linejoin:round;stroke-opacity:0.5;stroke-width:2}
		.st2 {stroke:#000000;stroke-linecap:round;stroke-linejoin:round;stroke-width:2}
		.st3 {marker-start:url(#mrkr5-21);stroke:#00cc99;stroke-linecap:round;stroke-linejoin:round;stroke-width:2}
		.st4 {fill:#00cc99;fill-opacity:1;stroke:#00cc99;stroke-opacity:1;stroke-width:0.44247787610619}
		.st5 {marker-start:url(#mrkr5-42);stroke:#31859b;stroke-linecap:round;stroke-linejoin:round;stroke-width:2}
		.st6 {fill:#31859b;fill-opacity:1;stroke:#31859b;stroke-opacity:1;stroke-width:0.44247787610619}
		.st7 {marker-end:url(#mrkr5-83);stroke:#31859b;stroke-linecap:round;stroke-linejoin:round;stroke-width:2}
		.st8 {fill:#ffffff;stroke:#000000;stroke-linecap:round;stroke-linejoin:round;stroke-opacity:0.5;stroke-width:0.75}
		.st9 {fill:none;stroke:none;stroke-linecap:round;stroke-linejoin:round;stroke-width:0.75}
		.st10 {fill:#00cc99;font-family:Times New Roman;font-size:1.00001em;font-weight:bold}
		.st11 {fill:#31859b;font-family:Times New Roman;font-size:1.00001em;font-weight:bold}
		.st12 {fill:none;fill-rule:evenodd;font-size:12px;overflow:visible;stroke-linecap:square;stroke-miterlimit:3}
	]]>
	</style>

	<defs id="Markers">
		<g id="lend5">
			<path d="M 2 1 L 0 0 L 1.98117 -0.993387 C 1.67173 -0.364515 1.67301 0.372641 1.98465 1.00043 " style="stroke:none"/>
		</g>
		<marker id="mrkr5-21" class="st4" v:arrowType="5" v:arrowSize="2" v:setback="3.775" refX="3.775" orient="auto"
				markerUnits="strokeWidth" overflow="visible">
			<use xlink:href="#lend5" transform="scale(2.26) "/>
		</marker>
		<marker id="mrkr5-42" class="st6" v:arrowType="5" v:arrowSize="2" v:setback="3.775" refX="3.775" orient="auto"
				markerUnits="strokeWidth" overflow="visible">
			<use xlink:href="#lend5" transform="scale(2.26) "/>
		</marker>
		<marker id="mrkr5-83" class="st6" v:arrowType="5" v:arrowSize="2" v:setback="3.775" refX="-3.775" orient="auto"
				markerUnits="strokeWidth" overflow="visible">
			<use xlink:href="#lend5" transform="scale(-2.26,-2.26) "/>
		</marker>
	</defs>
	<g v:mID="0" v:index="1" v:groupContext="foregroundPage">
		<title>Pagina-1</title>
		<v:pageProperties v:drawingScale="0.0393701" v:pageScale="0.0393701" v:drawingUnits="24" v:shadowOffsetX="8.50394"
				v:shadowOffsetY="-8.50394"/>
		<g id="shape1393-1" v:mID="1393" v:groupContext="shape" transform="translate(40.5794,-251.052)">
			<title>Ligger, 2 pt.1393</title>
			<path d="M0 289.51 L14.17 289.51" class="st1"/>
		</g>
		<g id="shape1394-4" v:mID="1394" v:groupContext="shape" transform="translate(799.064,187.403) rotate(120.964)">
			<title>Ligger, 2 pt.1394</title>
			<path d="M0 289.51 L14.17 289.51" class="st1"/>
		</g>
		<g id="shape1395-7" v:mID="1395" v:groupContext="shape" transform="translate(543.946,-110.496) rotate(59.0362)">
			<title>Ligger, 2 pt.1395</title>
			<path d="M0 289.51 L2.83 289.51" class="st2"/>
		</g>
		<g id="shape1396-10" v:mID="1396" v:groupContext="shape" transform="translate(664.213,89.9492) rotate(59.0362)">
			<title>Ligger, 2 pt.1396</title>
			<path d="M0 289.51 L14.17 289.51" class="st1"/>
		</g>
		<g id="shape1397-13" v:mID="1397" v:groupContext="shape" transform="translate(678.797,387.848) rotate(120.964)">
			<title>Ligger, 2 pt.1397</title>
			<path d="M0 289.51 L14.17 289.51" class="st1"/>
		</g>
		<g id="shape1398-16" v:mID="1398" v:groupContext="shape" transform="translate(330.085,40.5795) rotate(90)">
			<title>Kracht.1398</title>
			<path d="M7.55 289.51 L7.91 289.51 L28.35 289.51" class="st3"/>
		</g>
		<g id="shape1399-22" v:mID="1399" v:groupContext="shape" transform="translate(712.762,251.052) rotate(90)">
			<title>Kracht.1399</title>
			<path d="M7.55 289.51 L7.91 289.51 L28.35 289.51" class="st3"/>
		</g>
		<g id="shape1400-27" v:mID="1400" v:groupContext="shape" transform="translate(423.257,-38.4535)">
			<title>Kracht.1400</title>
			<path d="M7.55 289.51 L7.91 289.51 L28.35 289.51" class="st3"/>
		</g>
		<g id="shape1401-32" v:mID="1401" v:groupContext="shape" transform="translate(38.4535,327.959) rotate(180)">
			<title>Kracht.1401</title>
			<path d="M7.55 289.51 L7.91 289.51 L28.35 289.51" class="st3"/>
		</g>
		<g id="shape1402-37" v:mID="1402" v:groupContext="shape" transform="translate(83.0991,327.959) rotate(180)">
			<title>Kracht.1402</title>
			<path d="M7.55 289.51 L7.91 289.51 L28.35 289.51" class="st5"/>
		</g>
		<g id="shape1403-43" v:mID="1403" v:groupContext="shape" transform="translate(-234.753,38.4535) rotate(-90)">
			<title>Kracht.1403</title>
			<path d="M7.55 289.51 L7.91 289.51 L28.35 289.51" class="st5"/>
		</g>
		<g id="shape1404-48" v:mID="1404" v:groupContext="shape" transform="translate(20.3654,38.4535) rotate(-90)">
			<title>Kracht.1404</title>
			<path d="M7.55 289.51 L7.91 289.51 L28.35 289.51" class="st5"/>
		</g>
		<g id="shape1405-53" v:mID="1405" v:groupContext="shape" transform="translate(571.03,38.4535) rotate(90)">
			<title>Kracht.1405</title>
			<path d="M7.55 289.51 L7.91 289.51 L28.35 289.51" class="st5"/>
		</g>
		<g id="shape1406-58" v:mID="1406" v:groupContext="shape" transform="translate(69.325,223.863) rotate(-120.964)">
			<title>Kracht.1406</title>
			<path d="M7.55 289.51 L7.91 289.51 L28.35 289.51" class="st5"/>
		</g>
		<g id="shape1407-63" v:mID="1407" v:groupContext="shape" transform="translate(338.217,327.959) rotate(180)">
			<title>Kracht.1407</title>
			<path d="M7.55 289.51 L7.91 289.51 L28.35 289.51" class="st5"/>
		</g>
		<g id="shape1408-68" v:mID="1408" v:groupContext="shape" transform="translate(253.178,-251.052)">
			<title>Kracht.1408</title>
			<path d="M7.55 289.51 L7.91 289.51 L28.35 289.51" class="st5"/>
		</g>
		<g id="shape1409-73" v:mID="1409" v:groupContext="shape" transform="translate(129.733,-183.058) rotate(-30.9638)">
			<title>Kracht.1409</title>
			<path d="M7.55 289.51 L7.91 289.51 L28.35 289.51" class="st5"/>
		</g>
		<g id="shape1410-78" v:mID="1410" v:groupContext="shape" transform="translate(-7.98113,52.6267) rotate(-90)">
			<title>Moment.1410</title>
			<path d="M-0 289.51 A14.1732 14.1732 0 0 1 14.17 275.33 A14.1732 14.1732 0 0 1 26.14 281.91 L26.24 282.26" class="st7"/>
		</g>
		<g id="shape1411-84" v:mID="1411" v:groupContext="shape" transform="translate(599.376,52.6267) rotate(90) scale(-1,1)">
			<title>Moment.1411</title>
			<path d="M-0 289.51 A14.1732 14.1732 0 0 1 14.17 275.33 A14.1732 14.1732 0 0 1 26.14 281.91 L26.24 282.26" class="st7"/>
		</g>
		<g id="shape1412-89" v:mID="1412" v:groupContext="shape" transform="translate(508.296,-251.052)">
			<title>Kracht.1412</title>
			<path d="M7.55 289.51 L7.91 289.51 L28.35 289.51" class="st5"/>
		</g>
		<g id="shape1413-94" v:mID="1413" v:groupContext="shape" transform="translate(54.7409,199.556) rotate(-120.964)">
			<title>Ligger, 2 pt.1413</title>
			<path d="M0 289.51 L14.17 289.51" class="st1"/>
		</g>
		<g id="shape1414-97" v:mID="1414" v:groupContext="shape" transform="translate(294.989,-246.091)">
			<title>Scharnier.1414</title>
			<ellipse cx="2.12598" cy="287.379" rx="2.12598" ry="2.12598" class="st8"/>
		</g>
		<g id="shape1415-99" v:mID="1415" v:groupContext="shape" transform="translate(281.524,-251.052)">
			<title>Ligger, 2 pt.1415</title>
			<path d="M0 289.51 L14.17 289.51" class="st1"/>
		</g>
		<g id="shape1416-102" v:mID="1416" v:groupContext="shape" transform="translate(295.698,-251.052)">
			<title>Ligger, 2 pt.1416</title>
			<path d="M0 289.51 L14.17 289.51" class="st1"/>
		</g>
		<g id="shape1417-105" v:mID="1417" v:groupContext="shape" transform="translate(536.642,-251.052)">
			<title>Ligger, 2 pt.1417</title>
			<path d="M0 289.51 L14.17 289.51" class="st1"/>
		</g>
		<g id="shape1418-108" v:mID="1418" v:groupContext="shape" transform="translate(548.69,-248.926)">
			<title>Scharnier.1418</title>
			<ellipse cx="2.12598" cy="287.379" rx="2.12598" ry="2.12598" class="st8"/>
		</g>
		<g id="shape1419-110" v:mID="1419" v:groupContext="shape" transform="translate(826.148,38.2942) rotate(90)">
			<title>Kracht.1419</title>
			<path d="M7.55 289.51 L7.91 289.51 L28.35 289.51" class="st5"/>
		</g>
		<g id="shape1420-115" v:mID="1420" v:groupContext="shape" transform="translate(649.629,65.6421) rotate(59.0362)">
			<title>Kracht.1420</title>
			<path d="M7.55 289.51 L7.91 289.51 L28.35 289.51" class="st5"/>
		</g>
		<g id="shape1421-120" v:mID="1421" v:groupContext="shape" transform="translate(242.708,5.2339) rotate(-30.9638)">
			<title>Kracht.1421</title>
			<path d="M7.55 289.51 L7.91 289.51 L28.35 289.51" class="st5"/>
		</g>
		<g id="shape1422-125" v:mID="1422" v:groupContext="shape" transform="translate(693.382,363.541) rotate(120.964)">
			<title>Kracht.1422</title>
			<path d="M7.55 289.51 L7.91 289.51 L28.35 289.51" class="st5"/>
		</g>
		<g id="shape1423-130" v:mID="1423" v:groupContext="shape" transform="translate(305.906,501.731) rotate(-149.036)">
			<title>Kracht.1423</title>
			<path d="M7.55 289.51 L7.91 289.51 L28.35 289.51" class="st5"/>
		</g>
		<g id="shape1424-135" v:mID="1424" v:groupContext="shape" transform="translate(280.691,-74.0357) rotate(-59.0362)">
			<title>Kracht.1424</title>
			<path d="M7.55 289.51 L7.91 289.51 L28.35 289.51" class="st5"/>
		</g>
		<g id="shape1425-140" v:mID="1425" v:groupContext="shape" transform="translate(418.881,313.44) rotate(-149.036)">
			<title>Kracht.1425</title>
			<path d="M7.55 289.51 L7.91 289.51 L28.35 289.51" class="st5"/>
		</g>
		<g id="shape1426-145" v:mID="1426" v:groupContext="shape"
				transform="translate(591.853,-2.05469) rotate(30.9638) scale(-1,1)">
			<title>Moment.1426</title>
			<path d="M-0 289.51 A14.1732 14.1732 0 0 1 14.17 275.33 A14.1732 14.1732 0 0 1 26.14 281.91 L26.24 282.26" class="st7"/>
		</g>
		<g id="shape1427-150" v:mID="1427" v:groupContext="shape"
				transform="translate(278.966,-16.6388) rotate(-30.9638) scale(-1,1)">
			<title>Moment.1427</title>
			<path d="M-0 289.51 A14.1732 14.1732 0 0 1 14.17 275.33 A14.1732 14.1732 0 0 1 26.14 281.91 L26.24 282.26" class="st7"/>
		</g>
		<g id="shape1428-155" v:mID="1428" v:groupContext="shape" transform="translate(125.619,-251.052)">
			<title>Ligger, 2 pt.1428</title>
			<path d="M0 289.51 L85.04 289.51" class="st1"/>
		</g>
		<g id="shape1429-158" v:mID="1429" v:groupContext="shape" transform="translate(755.312,260.323) rotate(120.964)">
			<title>Ligger, 2 pt.1429</title>
			<path d="M0 289.51 L82.64 289.51" class="st1"/>
		</g>
		<g id="shape1430-161" v:mID="1430" v:groupContext="shape" transform="translate(587.699,-37.5752) rotate(59.0362)">
			<title>Ligger, 2 pt.1430</title>
			<path d="M0 289.51 L82.64 289.51" class="st1"/>
		</g>
		<g id="shape1431-164" v:mID="1431" v:groupContext="shape" transform="translate(380.737,-251.052)">
			<title>Ligger, 2 pt.1431</title>
			<path d="M0 289.51 L85.04 289.51" class="st1"/>
		</g>
		<g id="shape1432-167" v:mID="1432" v:groupContext="shape" transform="translate(97.2723,-251.052)">
			<title>Kracht.1432</title>
			<path d="M7.55 289.51 L7.91 289.51 L28.35 289.51" class="st5"/>
		</g>
		<g id="shape1433-172" v:mID="1433" v:groupContext="shape" transform="translate(415.124,38.4535) rotate(90)">
			<title>Kracht.1433</title>
			<path d="M7.55 289.51 L7.91 289.51 L28.35 289.51" class="st5"/>
		</g>
		<g id="shape1434-177" v:mID="1434" v:groupContext="shape" transform="translate(-78.8472,38.4535) rotate(-90)">
			<title>Kracht.1434</title>
			<path d="M7.55 289.51 L7.91 289.51 L28.35 289.51" class="st5"/>
		</g>
		<g id="shape1435-182" v:mID="1435" v:groupContext="shape" transform="translate(239.005,327.959) rotate(180)">
			<title>Kracht.1435</title>
			<path d="M7.55 289.51 L7.91 289.51 L28.35 289.51" class="st5"/>
		</g>
		<g id="shape1436-187" v:mID="1436" v:groupContext="shape" transform="translate(500.164,52.6267) rotate(90) scale(-1,1)">
			<title>Moment.1436</title>
			<path d="M-0 289.51 A14.1732 14.1732 0 0 1 14.17 275.33 A14.1732 14.1732 0 0 1 26.14 281.91 L26.24 282.26" class="st7"/>
		</g>
		<g id="shape1437-192" v:mID="1437" v:groupContext="shape" transform="translate(670.242,38.4535) rotate(90)">
			<title>Kracht.1437</title>
			<path d="M7.55 289.51 L7.91 289.51 L28.35 289.51" class="st5"/>
		</g>
		<g id="shape1438-197" v:mID="1438" v:groupContext="shape" transform="translate(352.39,-251.052)">
			<title>Kracht.1438</title>
			<path d="M7.55 289.51 L7.91 289.51 L28.35 289.51" class="st5"/>
		</g>
		<g id="shape1439-202" v:mID="1439" v:groupContext="shape" transform="translate(91.2315,52.6267) rotate(-90)">
			<title>Moment.1439</title>
			<path d="M-0 289.51 A14.1732 14.1732 0 0 1 14.17 275.33 A14.1732 14.1732 0 0 1 26.14 281.91 L26.24 282.26" class="st7"/>
		</g>
		<g id="shape1440-207" v:mID="1440" v:groupContext="shape" transform="translate(573.115,-61.8822) rotate(59.0362)">
			<title>Kracht.1440</title>
			<path d="M7.55 289.51 L7.91 289.51 L28.35 289.51" class="st5"/>
		</g>
		<g id="shape1441-212" v:mID="1441" v:groupContext="shape" transform="translate(512.706,345.039) rotate(149.036)">
			<title>Kracht.1441</title>
			<path d="M7.55 289.51 L7.91 289.51 L28.35 289.51" class="st5"/>
		</g>
		<g id="shape1442-217" v:mID="1442" v:groupContext="shape" transform="translate(494.123,327.959) rotate(180)">
			<title>Kracht.1442</title>
			<path d="M7.55 289.51 L7.91 289.51 L28.35 289.51" class="st5"/>
		</g>
		<g id="shape1443-222" v:mID="1443" v:groupContext="shape" transform="translate(176.271,38.4535) rotate(-90)">
			<title>Kracht.1443</title>
			<path d="M7.55 289.51 L7.91 289.51 L28.35 289.51" class="st5"/>
		</g>
		<g id="shape1444-227" v:mID="1444" v:groupContext="shape" transform="translate(769.896,236.017) rotate(120.964)">
			<title>Kracht.1444</title>
			<path d="M7.55 289.51 L7.91 289.51 L28.35 289.51" class="st5"/>
		</g>
		<g id="shape1445-232" v:mID="1445" v:groupContext="shape" transform="translate(631.706,-151.459) rotate(30.9638)">
			<title>Kracht.1445</title>
			<path d="M7.55 289.51 L7.91 289.51 L28.35 289.51" class="st5"/>
		</g>
		<g id="shape1446-237" v:mID="1446" v:groupContext="shape" transform="translate(148.305,355.497) rotate(-120.964)">
			<title>Kracht.1446</title>
			<path d="M7.55 289.51 L7.91 289.51 L28.35 289.51" class="st5"/>
		</g>
		<g id="shape1447-242" v:mID="1447" v:groupContext="shape" transform="translate(555.226,415.905) rotate(149.036)">
			<title>Kracht.1447</title>
			<path d="M7.55 289.51 L7.91 289.51 L28.35 289.51" class="st5"/>
		</g>
		<g id="shape1448-247" v:mID="1448" v:groupContext="shape" transform="translate(543.257,423.371) rotate(149.036)">
			<title>Moment.1448</title>
			<path d="M-0 289.51 A14.1732 14.1732 0 0 1 14.17 275.33 A14.1732 14.1732 0 0 1 26.14 281.91 L26.24 282.26" class="st7"/>
		</g>
		<g id="shape1449-252" v:mID="1449" v:groupContext="shape" transform="translate(201.711,57.5977) rotate(-59.0362)">
			<title>Kracht.1449</title>
			<path d="M7.55 289.51 L7.91 289.51 L28.35 289.51" class="st5"/>
		</g>
		<g id="shape1450-257" v:mID="1450" v:groupContext="shape" transform="translate(589.186,-80.5926) rotate(30.9638)">
			<title>Kracht.1450</title>
			<path d="M7.55 289.51 L7.91 289.51 L28.35 289.51" class="st5"/>
		</g>
		<g id="shape1451-262" v:mID="1451" v:groupContext="shape" transform="translate(327.155,437.955) rotate(-149.036)">
			<title>Moment.1451</title>
			<path d="M-0 289.51 A14.1732 14.1732 0 0 1 14.17 275.33 A14.1732 14.1732 0 0 1 26.14 281.91 L26.24 282.26" class="st7"/>
		</g>
		<g id="shape1452-267" v:mID="1452" v:groupContext="shape" transform="translate(12.5873,-217.39)">
			<title>Blad.1452</title>
			<desc>2</desc>
			<v:textBlock v:margins="rect(4,4,4,4)" v:tabSpace="42.5197"/>
			<v:textRect cx="10.9843" cy="278.344" width="21.97" height="22.3228"/>
			<rect x="0" y="267.183" width="21.9685" height="22.3228" class="st9"/>
			<text x="7.98" y="281.94" class="st10" v:langID="1043"><v:paragraph v:horizAlign="1"/><v:tabList/>2</text>		</g>
		<g id="shape1453-270" v:mID="1453" v:groupContext="shape" transform="translate(426.091,-7.44954)">
			<title>Blad.1453</title>
			<desc>2</desc>
			<v:textBlock v:margins="rect(4,4,4,4)" v:tabSpace="42.5197"/>
			<v:textRect cx="10.9843" cy="278.344" width="21.97" height="22.3228"/>
			<rect x="0" y="267.183" width="21.9685" height="22.3228" class="st9"/>
			<text x="7.98" y="281.94" class="st10" v:langID="1043"><v:paragraph v:horizAlign="1"/><v:tabList/>2</text>		</g>
		<g id="shape1454-273" v:mID="1454" v:groupContext="shape" transform="translate(75.3038,-257.076)">
			<title>Blad.1454</title>
			<desc>2</desc>
			<v:textBlock v:margins="rect(4,4,4,4)" v:tabSpace="42.5197"/>
			<v:textRect cx="10.9843" cy="278.344" width="21.97" height="22.3228"/>
			<rect x="0" y="267.183" width="21.9685" height="22.3228" class="st9"/>
			<text x="7.98" y="281.94" class="st11" v:langID="1043"><v:paragraph v:horizAlign="1"/><v:tabList/>2</text>		</g>
		<g id="shape1455-276" v:mID="1455" v:groupContext="shape" transform="translate(239.005,-257.076)">
			<title>Blad.1455</title>
			<desc>3</desc>
			<v:textBlock v:margins="rect(4,4,4,4)" v:tabSpace="42.5197"/>
			<v:textRect cx="10.9843" cy="278.344" width="21.97" height="22.3228"/>
			<rect x="0" y="267.183" width="21.9685" height="22.3228" class="st9"/>
			<text x="7.98" y="281.94" class="st11" v:langID="1043"><v:paragraph v:horizAlign="1"/><v:tabList/>3</text>		</g>
		<g id="shape1456-279" v:mID="1456" v:groupContext="shape" transform="translate(284.713,-197.371)">
			<title>Blad.1456</title>
			<desc>2</desc>
			<v:textBlock v:margins="rect(4,4,4,4)" v:tabSpace="42.5197"/>
			<v:textRect cx="10.9843" cy="278.344" width="21.97" height="22.3228"/>
			<rect x="0" y="267.183" width="21.9685" height="22.3228" class="st9"/>
			<text x="7.98" y="281.94" class="st11" v:langID="1043"><v:paragraph v:horizAlign="1"/><v:tabList/>2</text>		</g>
		<g id="shape1457-282" v:mID="1457" v:groupContext="shape" transform="translate(323.335,-265.225)">
			<title>Blad.1457</title>
			<desc>3</desc>
			<v:textBlock v:margins="rect(4,4,4,4)" v:tabSpace="42.5197"/>
			<v:textRect cx="10.9843" cy="278.344" width="21.97" height="22.3228"/>
			<rect x="0" y="267.183" width="21.9685" height="22.3228" class="st9"/>
			<text x="7.98" y="281.94" class="st11" v:langID="1043"><v:paragraph v:horizAlign="1"/><v:tabList/>3</text>		</g>
		<g id="shape1458-285" v:mID="1458" v:groupContext="shape" transform="translate(490.225,-254.064)">
			<title>Blad.1458</title>
			<desc>2</desc>
			<v:textBlock v:margins="rect(4,4,4,4)" v:tabSpace="42.5197"/>
			<v:textRect cx="10.9843" cy="278.344" width="21.97" height="22.3228"/>
			<rect x="0" y="267.183" width="21.9685" height="22.3228" class="st9"/>
			<text x="7.98" y="281.94" class="st11" v:langID="1043"><v:paragraph v:horizAlign="1"/><v:tabList/>2</text>		</g>
		<g id="shape1459-288" v:mID="1459" v:groupContext="shape" transform="translate(525.658,-183.198)">
			<title>Blad.1459</title>
			<desc>2</desc>
			<v:textBlock v:margins="rect(4,4,4,4)" v:tabSpace="42.5197"/>
			<v:textRect cx="10.9843" cy="278.344" width="21.97" height="22.3228"/>
			<rect x="0" y="267.183" width="21.9685" height="22.3228" class="st9"/>
			<text x="7.98" y="281.94" class="st11" v:langID="1043"><v:paragraph v:horizAlign="1"/><v:tabList/>2</text>		</g>
		<g id="shape1460-291" v:mID="1460" v:groupContext="shape" transform="translate(454.792,-55.6385)">
			<title>Blad.1460</title>
			<desc>3</desc>
			<v:textBlock v:margins="rect(4,4,4,4)" v:tabSpace="42.5197"/>
			<v:textRect cx="10.9843" cy="278.344" width="21.97" height="22.3228"/>
			<rect x="0" y="267.183" width="21.9685" height="22.3228" class="st9"/>
			<text x="7.98" y="281.94" class="st11" v:langID="1043"><v:paragraph v:horizAlign="1"/><v:tabList/>3</text>		</g>
		<g id="shape1461-294" v:mID="1461" v:groupContext="shape" transform="translate(374.359,-55.6385)">
			<title>Blad.1461</title>
			<desc>3</desc>
			<v:textBlock v:margins="rect(4,4,4,4)" v:tabSpace="42.5197"/>
			<v:textRect cx="10.9843" cy="278.344" width="21.97" height="22.3228"/>
			<rect x="0" y="267.183" width="21.9685" height="22.3228" class="st9"/>
			<text x="7.98" y="281.94" class="st11" v:langID="1043"><v:paragraph v:horizAlign="1"/><v:tabList/>3</text>		</g>
	</g>
</svg>
