<?xml version="1.0" encoding="UTF-8" standalone="no"?>
<!DOCTYPE svg PUBLIC "-//W3C//DTD SVG 1.1//EN" "http://www.w3.org/Graphics/SVG/1.1/DTD/svg11.dtd">
<!-- Gegenereerd door Microsoft Visio, SVG Export statisch onbepaaldheid.svg Pagina-1 -->
<svg xmlns="http://www.w3.org/2000/svg" xmlns:xlink="http://www.w3.org/1999/xlink" xmlns:ev="http://www.w3.org/2001/xml-events"
		xmlns:v="http://schemas.microsoft.com/visio/2003/SVGExtensions/" width="1.81881in" height="8.15477in"
		viewBox="0 0 130.954 587.143" xml:space="preserve" color-interpolation-filters="sRGB" class="st14">
	<v:documentProperties v:langID="1043" v:metric="true" v:viewMarkup="false"/>

	<style type="text/css">
	<![CDATA[
		.st1 {stroke:#000000;stroke-linecap:round;stroke-linejoin:round;stroke-opacity:0.5;stroke-width:2}
		.st2 {marker-end:url(#mrkr5-10);stroke:#800000;stroke-linecap:round;stroke-linejoin:round;stroke-opacity:0.5;stroke-width:1.2}
		.st3 {fill:#800000;fill-opacity:0.5;stroke:#800000;stroke-opacity:0.5;stroke-width:0.45454545454546}
		.st4 {stroke:#800000;stroke-linecap:round;stroke-linejoin:round;stroke-opacity:0.5;stroke-width:1.2}
		.st5 {stroke:#000000;stroke-linecap:round;stroke-linejoin:round;stroke-opacity:0.5;stroke-width:0.75}
		.st6 {marker-start:url(#mrkr5-60);stroke:#800000;stroke-linecap:round;stroke-linejoin:round;stroke-width:2}
		.st7 {fill:#800000;fill-opacity:1;stroke:#800000;stroke-opacity:1;stroke-width:0.44247787610619}
		.st8 {fill:none;stroke:none;stroke-linecap:round;stroke-linejoin:round;stroke-width:0.75}
		.st9 {fill:#000000;font-family:Times New Roman;font-size:1.00001em}
		.st10 {stroke:#000000;stroke-linecap:round;stroke-linejoin:round;stroke-width:2}
		.st11 {stroke:#000000;stroke-linecap:round;stroke-linejoin:round;stroke-width:0.75}
		.st12 {marker-start:url(#mrkr5-182);stroke:#800000;stroke-linecap:round;stroke-linejoin:round;stroke-opacity:0.5;stroke-width:2}
		.st13 {fill:#800000;fill-opacity:0.5;stroke:#800000;stroke-opacity:0.5;stroke-width:0.44247787610619}
		.st14 {fill:none;fill-rule:evenodd;font-size:12px;overflow:visible;stroke-linecap:square;stroke-miterlimit:3}
	]]>
	</style>

	<defs id="Markers">
		<g id="lend5">
			<path d="M 2 1 L 0 0 L 1.98117 -0.993387 C 1.67173 -0.364515 1.67301 0.372641 1.98465 1.00043 " style="stroke:none"/>
		</g>
		<marker id="mrkr5-10" class="st3" v:arrowType="5" v:arrowSize="0" v:setback="3.85" refX="-3.85" orient="auto"
				markerUnits="strokeWidth" overflow="visible">
			<use xlink:href="#lend5" transform="scale(-2.2,-2.2) "/>
		</marker>
		<marker id="mrkr5-60" class="st7" v:arrowType="5" v:arrowSize="2" v:setback="3.775" refX="3.775" orient="auto"
				markerUnits="strokeWidth" overflow="visible">
			<use xlink:href="#lend5" transform="scale(2.26) "/>
		</marker>
		<marker id="mrkr5-182" class="st13" v:arrowType="5" v:arrowSize="2" v:setback="3.775" refX="3.775" orient="auto"
				markerUnits="strokeWidth" overflow="visible">
			<use xlink:href="#lend5" transform="scale(2.26) "/>
		</marker>
	</defs>
	<g v:mID="0" v:index="1" v:groupContext="foregroundPage">
		<title>Pagina-1</title>
		<v:pageProperties v:drawingScale="0.0393701" v:pageScale="0.0393701" v:drawingUnits="24" v:shadowOffsetX="8.50394"
				v:shadowOffsetY="-8.50394"/>
		<g id="shape70-1" v:mID="70" v:groupContext="shape" transform="translate(597.25,123.493) rotate(90)">
			<title>Ligger, 2 pt.70</title>
			<path d="M0 587.14 L85.04 587.14" class="st1"/>
		</g>
		<g id="group71-4" transform="translate(604.337,123.493) rotate(90)" v:mID="71" v:groupContext="group">
			<title>q-last constant parallel.71</title>
			<g id="shape72-5" v:mID="72" v:groupContext="shape" transform="translate(2.95764E-06,0)">
				<title>Kracht.5</title>
				<path d="M0 587.14 L6.01 587.14" class="st2"/>
			</g>
			<g id="shape73-11" v:mID="73" v:groupContext="shape" transform="translate(0,7.08662)">
				<title>Blad.73</title>
				<path d="M0 587.14 L0 572.97 L85.04 572.97 L85.04 587.14" class="st4"/>
			</g>
			<g id="shape74-14" v:mID="74" v:groupContext="shape" transform="translate(18.6024,0)">
				<title>Kracht.4</title>
				<path d="M0 587.14 L6.01 587.14" class="st2"/>
			</g>
			<g id="shape75-19" v:mID="75" v:groupContext="shape" transform="translate(37.2047,0)">
				<title>Kracht.9</title>
				<path d="M0 587.14 L6.01 587.14" class="st2"/>
			</g>
			<g id="shape76-24" v:mID="76" v:groupContext="shape" transform="translate(55.8071,0)">
				<title>Kracht.6</title>
				<path d="M0 587.14 L6.01 587.14" class="st2"/>
			</g>
			<g id="shape77-29" v:mID="77" v:groupContext="shape" transform="translate(74.4095,0)">
				<title>Kracht.7</title>
				<path d="M0 587.14 L6.01 587.14" class="st2"/>
			</g>
		</g>
		<g id="shape87-34" v:mID="87" v:groupContext="shape" transform="translate(597.25,378.611) rotate(90)">
			<title>Ligger, 2 pt.87</title>
			<path d="M0 587.14 L85.04 587.14" class="st1"/>
		</g>
		<g id="shape88-37" v:mID="88" v:groupContext="shape" transform="translate(597.25,279.398) rotate(90)">
			<title>Ligger, 2 pt.88</title>
			<path d="M0 587.14 L14.17 587.14" class="st1"/>
		</g>
		<g id="shape89-40" v:mID="89" v:groupContext="shape" transform="translate(597.25,293.572) rotate(90)">
			<title>Ligger, 2 pt.89</title>
			<path d="M0 587.14 L14.17 587.14" class="st1"/>
		</g>
		<g id="shape90-43" v:mID="90" v:groupContext="shape" transform="translate(597.25,38.4535) rotate(90)">
			<title>Ligger, 2 pt.90</title>
			<path d="M0 587.14 L14.17 587.14" class="st1"/>
		</g>
		<g id="shape91-46" v:mID="91" v:groupContext="shape" transform="translate(597.25,534.516) rotate(90)">
			<title>Ligger, 2 pt.91</title>
			<path d="M0 587.14 L14.17 587.14" class="st1"/>
		</g>
		<g id="shape92-49" v:mID="92" v:groupContext="shape" transform="translate(10.107,-293.572)">
			<title>Blad.92</title>
			<path d="M0 587.14 L2.83 587.14" class="st5"/>
		</g>
		<g id="shape93-52" v:mID="93" v:groupContext="shape" transform="translate(10.107,880.715) rotate(180)">
			<title>Blad.93</title>
			<path d="M0 587.14 L2.83 587.14" class="st5"/>
		</g>
		<g id="shape94-55" v:mID="94" v:groupContext="shape" transform="translate(-577.036,236.879) rotate(-90)">
			<title>Kracht</title>
			<path d="M7.55 587.14 L7.91 587.14 L28.35 587.14" class="st6"/>
		</g>
		<g id="shape95-61" v:mID="95" v:groupContext="shape" transform="translate(-577.036,336.091) rotate(-90)">
			<title>Kracht.95</title>
			<path d="M7.55 587.14 L7.91 587.14 L28.35 587.14" class="st6"/>
		</g>
		<g id="shape96-66" v:mID="96" v:groupContext="shape" transform="translate(-577.036,491.997) rotate(-90)">
			<title>Kracht.96</title>
			<path d="M7.55 587.14 L7.91 587.14 L28.35 587.14" class="st6"/>
		</g>
		<g id="shape97-71" v:mID="97" v:groupContext="shape" transform="translate(-577.036,80.9732) rotate(-90)">
			<title>Kracht.97</title>
			<path d="M7.55 587.14 L7.91 587.14 L28.35 587.14" class="st6"/>
		</g>
		<g id="shape98-76" v:mID="98" v:groupContext="shape" transform="translate(597.25,95.1464) rotate(90)">
			<title>Kracht.98</title>
			<path d="M7.55 587.14 L7.91 587.14 L28.35 587.14" class="st6"/>
		</g>
		<g id="shape99-81" v:mID="99" v:groupContext="shape" transform="translate(597.25,251.052) rotate(90)">
			<title>Kracht.99</title>
			<path d="M7.55 587.14 L7.91 587.14 L28.35 587.14" class="st6"/>
		</g>
		<g id="shape100-86" v:mID="100" v:groupContext="shape" transform="translate(597.25,350.265) rotate(90)">
			<title>Kracht.100</title>
			<path d="M7.55 587.14 L7.91 587.14 L28.35 587.14" class="st6"/>
		</g>
		<g id="shape101-91" v:mID="101" v:groupContext="shape" transform="translate(597.25,506.17) rotate(90)">
			<title>Kracht.101</title>
			<path d="M7.55 587.14 L7.91 587.14 L28.35 587.14" class="st6"/>
		</g>
		<g id="shape102-96" v:mID="102" v:groupContext="shape" transform="translate(597.25,548.69) rotate(90)">
			<title>Kracht.102</title>
			<path d="M7.55 587.14 L7.91 587.14 L28.35 587.14" class="st6"/>
		</g>
		<g id="shape103-101" v:mID="103" v:groupContext="shape" transform="translate(597.25,10.107) rotate(90)">
			<title>Kracht.103</title>
			<path d="M7.55 587.14 L7.91 587.14 L28.35 587.14" class="st6"/>
		</g>
		<g id="shape104-106" v:mID="104" v:groupContext="shape" transform="translate(17.1936,-491.997)">
			<title>Maatlijn verticaal.60</title>
			<desc>1</desc>
			<v:textBlock v:margins="rect(4,4,4,4)" v:tabSpace="42.5197"/>
			<v:textRect cx="7.08661" cy="580.057" width="14.18" height="14.1732"/>
			<rect x="0" y="572.97" width="14.1732" height="14.1732" class="st8"/>
			<text x="4.09" y="583.66" class="st9" v:langID="1043"><v:paragraph v:horizAlign="1"/><v:tabList/>1</text>		</g>
		<g id="shape105-109" v:mID="105" v:groupContext="shape" transform="translate(17.1936,-555.776)">
			<title>Maatlijn verticaal.105</title>
			<desc>1</desc>
			<v:textBlock v:margins="rect(4,4,4,4)" v:tabSpace="42.5197"/>
			<v:textRect cx="7.08661" cy="580.057" width="14.18" height="14.1732"/>
			<rect x="0" y="572.97" width="14.1732" height="14.1732" class="st8"/>
			<text x="4.09" y="583.66" class="st9" v:langID="1043"><v:paragraph v:horizAlign="1"/><v:tabList/>1</text>		</g>
		<g id="shape106-112" v:mID="106" v:groupContext="shape" transform="translate(17.1936,-17.1937)">
			<title>Maatlijn verticaal.106</title>
			<desc>1</desc>
			<v:textBlock v:margins="rect(4,4,4,4)" v:tabSpace="42.5197"/>
			<v:textRect cx="7.08661" cy="580.057" width="14.18" height="14.1732"/>
			<rect x="0" y="572.97" width="14.1732" height="14.1732" class="st8"/>
			<text x="4.09" y="583.66" class="st9" v:langID="1043"><v:paragraph v:horizAlign="1"/><v:tabList/>1</text>		</g>
		<g id="shape107-115" v:mID="107" v:groupContext="shape" transform="translate(17.1936,-80.9732)">
			<title>Maatlijn verticaal.107</title>
			<desc>1</desc>
			<v:textBlock v:margins="rect(4,4,4,4)" v:tabSpace="42.5197"/>
			<v:textRect cx="7.08661" cy="580.057" width="14.18" height="14.1732"/>
			<rect x="0" y="572.97" width="14.1732" height="14.1732" class="st8"/>
			<text x="4.09" y="583.66" class="st9" v:langID="1043"><v:paragraph v:horizAlign="1"/><v:tabList/>1</text>		</g>
		<g id="shape108-118" v:mID="108" v:groupContext="shape" transform="translate(17.1936,-236.879)">
			<title>Maatlijn verticaal.108</title>
			<desc>1</desc>
			<v:textBlock v:margins="rect(4,4,4,4)" v:tabSpace="42.5197"/>
			<v:textRect cx="7.08661" cy="580.057" width="14.18" height="14.1732"/>
			<rect x="0" y="572.97" width="14.1732" height="14.1732" class="st8"/>
			<text x="4.09" y="583.66" class="st9" v:langID="1043"><v:paragraph v:horizAlign="1"/><v:tabList/>1</text>		</g>
		<g id="shape109-121" v:mID="109" v:groupContext="shape" transform="translate(17.1936,-336.091)">
			<title>Maatlijn verticaal.109</title>
			<desc>1</desc>
			<v:textBlock v:margins="rect(4,4,4,4)" v:tabSpace="42.5197"/>
			<v:textRect cx="7.08661" cy="580.057" width="14.18" height="14.1732"/>
			<rect x="0" y="572.97" width="14.1732" height="14.1732" class="st8"/>
			<text x="4.09" y="583.66" class="st9" v:langID="1043"><v:paragraph v:horizAlign="1"/><v:tabList/>1</text>		</g>
		<g id="shape110-124" v:mID="110" v:groupContext="shape" transform="translate(683.707,123.493) rotate(90)">
			<title>Ligger, 2 pt.110</title>
			<path d="M0 587.14 L85.04 587.14" class="st10"/>
		</g>
		<g id="group111-127" transform="translate(690.794,123.493) rotate(90)" v:mID="111" v:groupContext="group">
			<title>q-last constant parallel.111</title>
			<g id="shape112-128" v:mID="112" v:groupContext="shape" transform="translate(2.95764E-06,0)">
				<title>Kracht.5</title>
				<path d="M0 587.14 L6.01 587.14" class="st2"/>
			</g>
			<g id="shape113-133" v:mID="113" v:groupContext="shape" transform="translate(0,7.08662)">
				<title>Blad.113</title>
				<path d="M0 587.14 L0 572.97 L85.04 572.97 L85.04 587.14" class="st4"/>
			</g>
			<g id="shape114-136" v:mID="114" v:groupContext="shape" transform="translate(18.6024,0)">
				<title>Kracht.4</title>
				<path d="M0 587.14 L6.01 587.14" class="st2"/>
			</g>
			<g id="shape115-141" v:mID="115" v:groupContext="shape" transform="translate(37.2047,0)">
				<title>Kracht.9</title>
				<path d="M0 587.14 L6.01 587.14" class="st2"/>
			</g>
			<g id="shape116-146" v:mID="116" v:groupContext="shape" transform="translate(55.8071,0)">
				<title>Kracht.6</title>
				<path d="M0 587.14 L6.01 587.14" class="st2"/>
			</g>
			<g id="shape117-151" v:mID="117" v:groupContext="shape" transform="translate(74.4095,0)">
				<title>Kracht.7</title>
				<path d="M0 587.14 L6.01 587.14" class="st2"/>
			</g>
		</g>
		<g id="shape119-156" v:mID="119" v:groupContext="shape" transform="translate(683.707,378.611) rotate(90)">
			<title>Ligger, 2 pt.119</title>
			<path d="M0 587.14 L85.04 587.14" class="st10"/>
		</g>
		<g id="shape120-159" v:mID="120" v:groupContext="shape" transform="translate(683.707,279.398) rotate(90)">
			<title>Ligger, 2 pt.120</title>
			<path d="M0 587.14 L14.17 587.14" class="st10"/>
		</g>
		<g id="shape121-162" v:mID="121" v:groupContext="shape" transform="translate(683.707,293.572) rotate(90)">
			<title>Ligger, 2 pt.121</title>
			<path d="M0 587.14 L14.17 587.14" class="st10"/>
		</g>
		<g id="shape122-165" v:mID="122" v:groupContext="shape" transform="translate(683.707,38.4535) rotate(90)">
			<title>Ligger, 2 pt.122</title>
			<path d="M0 587.14 L14.17 587.14" class="st10"/>
		</g>
		<g id="shape123-168" v:mID="123" v:groupContext="shape" transform="translate(683.707,534.517) rotate(90)">
			<title>Ligger, 2 pt.123</title>
			<path d="M0 587.14 L14.17 587.14" class="st10"/>
		</g>
		<g id="shape124-171" v:mID="124" v:groupContext="shape" transform="translate(96.5637,-293.572)">
			<title>Blad.124</title>
			<path d="M0 587.14 L2.83 587.14" class="st11"/>
		</g>
		<g id="shape125-174" v:mID="125" v:groupContext="shape" transform="translate(96.5637,880.715) rotate(180)">
			<title>Blad.125</title>
			<path d="M0 587.14 L2.83 587.14" class="st11"/>
		</g>
		<g id="shape126-177" v:mID="126" v:groupContext="shape" transform="translate(-490.58,236.879) rotate(-90)">
			<title>Kracht.126</title>
			<path d="M7.55 587.14 L7.91 587.14 L28.35 587.14" class="st12"/>
		</g>
		<g id="shape127-183" v:mID="127" v:groupContext="shape" transform="translate(-490.58,336.091) rotate(-90)">
			<title>Kracht.127</title>
			<path d="M7.55 587.14 L7.91 587.14 L28.35 587.14" class="st12"/>
		</g>
		<g id="shape128-188" v:mID="128" v:groupContext="shape" transform="translate(-490.58,491.997) rotate(-90)">
			<title>Kracht.128</title>
			<path d="M7.55 587.14 L7.91 587.14 L28.35 587.14" class="st12"/>
		</g>
		<g id="shape129-193" v:mID="129" v:groupContext="shape" transform="translate(-490.58,80.9732) rotate(-90)">
			<title>Kracht.129</title>
			<path d="M7.55 587.14 L7.91 587.14 L28.35 587.14" class="st12"/>
		</g>
		<g id="shape130-198" v:mID="130" v:groupContext="shape" transform="translate(683.707,95.1464) rotate(90)">
			<title>Kracht.130</title>
			<path d="M7.55 587.14 L7.91 587.14 L28.35 587.14" class="st12"/>
		</g>
		<g id="shape131-203" v:mID="131" v:groupContext="shape" transform="translate(683.707,251.052) rotate(90)">
			<title>Kracht.131</title>
			<path d="M7.55 587.14 L7.91 587.14 L28.35 587.14" class="st12"/>
		</g>
		<g id="shape132-208" v:mID="132" v:groupContext="shape" transform="translate(683.707,350.265) rotate(90)">
			<title>Kracht.132</title>
			<path d="M7.55 587.14 L7.91 587.14 L28.35 587.14" class="st12"/>
		</g>
		<g id="shape133-213" v:mID="133" v:groupContext="shape" transform="translate(683.707,506.17) rotate(90)">
			<title>Kracht.133</title>
			<path d="M7.55 587.14 L7.91 587.14 L28.35 587.14" class="st12"/>
		</g>
		<g id="shape134-218" v:mID="134" v:groupContext="shape" transform="translate(683.707,548.69) rotate(90)">
			<title>Kracht.134</title>
			<path d="M7.55 587.14 L7.91 587.14 L28.35 587.14" class="st12"/>
		</g>
		<g id="shape135-223" v:mID="135" v:groupContext="shape" transform="translate(683.707,10.1071) rotate(90)">
			<title>Kracht.135</title>
			<path d="M7.55 587.14 L7.91 587.14 L28.35 587.14" class="st12"/>
		</g>
		<g id="shape136-228" v:mID="136" v:groupContext="shape" transform="translate(116.406,-414.044)">
			<title>Maatlijn verticaal.136</title>
			<desc>1</desc>
			<v:textBlock v:margins="rect(4,4,4,4)" v:tabSpace="42.5197"/>
			<v:textRect cx="7.08661" cy="580.057" width="14.18" height="14.1732"/>
			<rect x="0" y="572.97" width="14.1732" height="14.1732" class="st8"/>
			<text x="4.09" y="583.66" class="st9" v:langID="1043"><v:paragraph v:horizAlign="1"/><v:tabList/>1</text>		</g>
		<g id="shape137-231" v:mID="137" v:groupContext="shape" transform="translate(103.65,-534.516)">
			<title>Maatlijn verticaal.137</title>
			<desc>1</desc>
			<v:textBlock v:margins="rect(4,4,4,4)" v:tabSpace="42.5197"/>
			<v:textRect cx="7.08661" cy="580.057" width="14.18" height="14.1732"/>
			<rect x="0" y="572.97" width="14.1732" height="14.1732" class="st8"/>
			<text x="4.09" y="583.66" class="st9" v:langID="1043"><v:paragraph v:horizAlign="1"/><v:tabList/>1</text>		</g>
		<g id="shape139-234" v:mID="139" v:groupContext="shape" transform="translate(102.233,-38.4535)">
			<title>Maatlijn verticaal.139</title>
			<desc>1</desc>
			<v:textBlock v:margins="rect(4,4,4,4)" v:tabSpace="42.5197"/>
			<v:textRect cx="7.08661" cy="580.057" width="14.18" height="14.1732"/>
			<rect x="0" y="572.97" width="14.1732" height="14.1732" class="st8"/>
			<text x="4.09" y="583.66" class="st9" v:langID="1043"><v:paragraph v:horizAlign="1"/><v:tabList/>1</text>		</g>
		<g id="shape140-237" v:mID="140" v:groupContext="shape" transform="translate(102.233,-158.926)">
			<title>Maatlijn verticaal.140</title>
			<desc>1</desc>
			<v:textBlock v:margins="rect(4,4,4,4)" v:tabSpace="42.5197"/>
			<v:textRect cx="7.08661" cy="580.057" width="14.18" height="14.1732"/>
			<rect x="0" y="572.97" width="14.1732" height="14.1732" class="st8"/>
			<text x="4.09" y="583.66" class="st9" v:langID="1043"><v:paragraph v:horizAlign="1"/><v:tabList/>1</text>		</g>
		<g id="shape141-240" v:mID="141" v:groupContext="shape" transform="translate(103.65,-286.485)">
			<title>Maatlijn verticaal.141</title>
			<desc>1</desc>
			<v:textBlock v:margins="rect(4,4,4,4)" v:tabSpace="42.5197"/>
			<v:textRect cx="7.08661" cy="580.057" width="14.18" height="14.1732"/>
			<rect x="0" y="572.97" width="14.1732" height="14.1732" class="st8"/>
			<text x="4.09" y="583.66" class="st9" v:langID="1043"><v:paragraph v:horizAlign="1"/><v:tabList/>1</text>		</g>
	</g>
</svg>
