<?xml version="1.0" encoding="UTF-8" standalone="no"?>
<!DOCTYPE svg PUBLIC "-//W3C//DTD SVG 1.1//EN" "http://www.w3.org/Graphics/SVG/1.1/DTD/svg11.dtd">
<!-- Generated by Microsoft Visio, SVG Export statisch_onbepaaldheid.svg Page-1 -->
<svg xmlns="http://www.w3.org/2000/svg" xmlns:xlink="http://www.w3.org/1999/xlink" xmlns:ev="http://www.w3.org/2001/xml-events"
		xmlns:v="http://schemas.microsoft.com/visio/2003/SVGExtensions/" width="1.81881in" height="8.15477in"
		viewBox="0 0 130.954 587.143" xml:space="preserve" color-interpolation-filters="sRGB" class="st18">
	<v:documentProperties v:langID="1043" v:metric="true" v:viewMarkup="false"/>

	<style type="text/css">
	<![CDATA[
		.st1 {stroke:#000000;stroke-linecap:round;stroke-linejoin:round;stroke-opacity:0.5;stroke-width:2}
		.st2 {marker-end:url(#mrkr5-10);stroke:#800000;stroke-linecap:round;stroke-linejoin:round;stroke-opacity:0.5;stroke-width:1.2}
		.st3 {fill:#800000;fill-opacity:0.5;stroke:#800000;stroke-opacity:0.5;stroke-width:0.45454545454546}
		.st4 {stroke:#800000;stroke-linecap:round;stroke-linejoin:round;stroke-opacity:0.5;stroke-width:1.2}
		.st5 {stroke:#000000;stroke-linecap:round;stroke-linejoin:round;stroke-opacity:0.5;stroke-width:0.75}
		.st6 {marker-start:url(#mrkr5-60);stroke:#31859b;stroke-linecap:round;stroke-linejoin:round;stroke-width:2}
		.st7 {fill:#31859b;fill-opacity:1;stroke:#31859b;stroke-opacity:1;stroke-width:0.4424778761062}
		.st8 {marker-start:url(#mrkr5-101);stroke:#00cc99;stroke-linecap:round;stroke-linejoin:round;stroke-width:2}
		.st9 {fill:#00cc99;fill-opacity:1;stroke:#00cc99;stroke-opacity:1;stroke-width:0.4424778761062}
		.st10 {fill:none;stroke:none;stroke-linecap:round;stroke-linejoin:round;stroke-width:0.75}
		.st11 {fill:#000000;font-family:Times New Roman;font-size:1.00001em}
		.st12 {stroke:#000000;stroke-linecap:round;stroke-linejoin:round;stroke-width:2}
		.st13 {stroke:#000000;stroke-linecap:round;stroke-linejoin:round;stroke-width:0.75}
		.st14 {marker-start:url(#mrkr5-183);stroke:#31859b;stroke-linecap:round;stroke-linejoin:round;stroke-opacity:0.5;stroke-width:2}
		.st15 {fill:#31859b;fill-opacity:0.5;stroke:#31859b;stroke-opacity:0.5;stroke-width:0.4424778761062}
		.st16 {marker-start:url(#mrkr5-224);stroke:#00cc99;stroke-linecap:round;stroke-linejoin:round;stroke-opacity:0.5;stroke-width:2}
		.st17 {fill:#00cc99;fill-opacity:0.5;stroke:#00cc99;stroke-opacity:0.5;stroke-width:0.4424778761062}
		.st18 {fill:none;fill-rule:evenodd;font-size:12px;overflow:visible;stroke-linecap:square;stroke-miterlimit:3}
	]]>
	</style>

	<defs id="Markers">
		<g id="lend5">
			<path d="M 2 1 L 0 0 L 1.98117 -0.993387 C 1.67173 -0.364515 1.67301 0.372641 1.98465 1.00043 " style="stroke:none"/>
		</g>
		<marker id="mrkr5-10" class="st3" v:arrowType="5" v:arrowSize="0" v:setback="3.85" refX="-3.85" orient="auto"
				markerUnits="strokeWidth" overflow="visible">
			<use xlink:href="#lend5" transform="scale(-2.2,-2.2) "/>
		</marker>
		<marker id="mrkr5-60" class="st7" v:arrowType="5" v:arrowSize="2" v:setback="3.775" refX="3.775" orient="auto"
				markerUnits="strokeWidth" overflow="visible">
			<use xlink:href="#lend5" transform="scale(2.26) "/>
		</marker>
		<marker id="mrkr5-101" class="st9" v:arrowType="5" v:arrowSize="2" v:setback="3.775" refX="3.775" orient="auto"
				markerUnits="strokeWidth" overflow="visible">
			<use xlink:href="#lend5" transform="scale(2.26) "/>
		</marker>
		<marker id="mrkr5-183" class="st15" v:arrowType="5" v:arrowSize="2" v:setback="3.775" refX="3.775" orient="auto"
				markerUnits="strokeWidth" overflow="visible">
			<use xlink:href="#lend5" transform="scale(2.26) "/>
		</marker>
		<marker id="mrkr5-224" class="st17" v:arrowType="5" v:arrowSize="2" v:setback="3.775" refX="3.775" orient="auto"
				markerUnits="strokeWidth" overflow="visible">
			<use xlink:href="#lend5" transform="scale(2.26) "/>
		</marker>
	</defs>
	<g v:mID="0" v:index="1" v:groupContext="foregroundPage">
		<title>Page-1</title>
		<v:pageProperties v:drawingScale="0.0393701" v:pageScale="0.0393701" v:drawingUnits="24" v:shadowOffsetX="8.50394"
				v:shadowOffsetY="-8.50394"/>
		<g id="shape1-1" v:mID="1" v:groupContext="shape" transform="translate(597.25,123.493) rotate(90)">
			<title>Ligger, 2 pt.70</title>
			<path d="M0 587.14 L85.04 587.14" class="st1"/>
		</g>
		<g id="group2-4" transform="translate(604.337,123.493) rotate(90)" v:mID="2" v:groupContext="group">
			<title>q-last constant parallel.71</title>
			<g id="shape3-5" v:mID="3" v:groupContext="shape" transform="translate(2.95764E-06,0)">
				<title>Kracht.5</title>
				<path d="M0 587.14 L6.01 587.14" class="st2"/>
			</g>
			<g id="shape4-11" v:mID="4" v:groupContext="shape" transform="translate(0,7.08662)">
				<title>Sheet.4</title>
				<path d="M0 587.14 L0 572.97 L85.04 572.97 L85.04 587.14" class="st4"/>
			</g>
			<g id="shape5-14" v:mID="5" v:groupContext="shape" transform="translate(18.6024,0)">
				<title>Kracht.4</title>
				<path d="M0 587.14 L6.01 587.14" class="st2"/>
			</g>
			<g id="shape6-19" v:mID="6" v:groupContext="shape" transform="translate(37.2047,0)">
				<title>Kracht.9</title>
				<path d="M0 587.14 L6.01 587.14" class="st2"/>
			</g>
			<g id="shape7-24" v:mID="7" v:groupContext="shape" transform="translate(55.8071,0)">
				<title>Kracht.6</title>
				<path d="M0 587.14 L6.01 587.14" class="st2"/>
			</g>
			<g id="shape8-29" v:mID="8" v:groupContext="shape" transform="translate(74.4095,0)">
				<title>Kracht.7</title>
				<path d="M0 587.14 L6.01 587.14" class="st2"/>
			</g>
		</g>
		<g id="shape9-34" v:mID="9" v:groupContext="shape" transform="translate(597.25,378.611) rotate(90)">
			<title>Ligger, 2 pt.87</title>
			<path d="M0 587.14 L85.04 587.14" class="st1"/>
		</g>
		<g id="shape10-37" v:mID="10" v:groupContext="shape" transform="translate(597.25,279.398) rotate(90)">
			<title>Ligger, 2 pt.88</title>
			<path d="M0 587.14 L14.17 587.14" class="st1"/>
		</g>
		<g id="shape11-40" v:mID="11" v:groupContext="shape" transform="translate(597.25,293.572) rotate(90)">
			<title>Ligger, 2 pt.89</title>
			<path d="M0 587.14 L14.17 587.14" class="st1"/>
		</g>
		<g id="shape12-43" v:mID="12" v:groupContext="shape" transform="translate(597.25,38.4535) rotate(90)">
			<title>Ligger, 2 pt.90</title>
			<path d="M0 587.14 L14.17 587.14" class="st1"/>
		</g>
		<g id="shape13-46" v:mID="13" v:groupContext="shape" transform="translate(597.25,534.516) rotate(90)">
			<title>Ligger, 2 pt.91</title>
			<path d="M0 587.14 L14.17 587.14" class="st1"/>
		</g>
		<g id="shape14-49" v:mID="14" v:groupContext="shape" transform="translate(10.107,-293.572)">
			<title>Sheet.14</title>
			<path d="M0 587.14 L2.83 587.14" class="st5"/>
		</g>
		<g id="shape15-52" v:mID="15" v:groupContext="shape" transform="translate(10.107,880.715) rotate(180)">
			<title>Sheet.15</title>
			<path d="M0 587.14 L2.83 587.14" class="st5"/>
		</g>
		<g id="shape16-55" v:mID="16" v:groupContext="shape" transform="translate(-577.036,236.879) rotate(-90)">
			<title>Kracht</title>
			<path d="M7.55 587.14 L7.91 587.14 L28.35 587.14" class="st6"/>
		</g>
		<g id="shape17-61" v:mID="17" v:groupContext="shape" transform="translate(-577.036,336.091) rotate(-90)">
			<title>Kracht.95</title>
			<path d="M7.55 587.14 L7.91 587.14 L28.35 587.14" class="st6"/>
		</g>
		<g id="shape18-66" v:mID="18" v:groupContext="shape" transform="translate(-577.036,491.997) rotate(-90)">
			<title>Kracht.96</title>
			<path d="M7.55 587.14 L7.91 587.14 L28.35 587.14" class="st6"/>
		</g>
		<g id="shape19-71" v:mID="19" v:groupContext="shape" transform="translate(-577.036,80.9732) rotate(-90)">
			<title>Kracht.97</title>
			<path d="M7.55 587.14 L7.91 587.14 L28.35 587.14" class="st6"/>
		</g>
		<g id="shape20-76" v:mID="20" v:groupContext="shape" transform="translate(597.25,95.1464) rotate(90)">
			<title>Kracht.98</title>
			<path d="M7.55 587.14 L7.91 587.14 L28.35 587.14" class="st6"/>
		</g>
		<g id="shape21-81" v:mID="21" v:groupContext="shape" transform="translate(597.25,251.052) rotate(90)">
			<title>Kracht.99</title>
			<path d="M7.55 587.14 L7.91 587.14 L28.35 587.14" class="st6"/>
		</g>
		<g id="shape22-86" v:mID="22" v:groupContext="shape" transform="translate(597.25,350.265) rotate(90)">
			<title>Kracht.100</title>
			<path d="M7.55 587.14 L7.91 587.14 L28.35 587.14" class="st6"/>
		</g>
		<g id="shape23-91" v:mID="23" v:groupContext="shape" transform="translate(597.25,506.17) rotate(90)">
			<title>Kracht.101</title>
			<path d="M7.55 587.14 L7.91 587.14 L28.35 587.14" class="st6"/>
		</g>
		<g id="shape24-96" v:mID="24" v:groupContext="shape" transform="translate(597.25,548.69) rotate(90)">
			<title>Kracht.102</title>
			<path d="M7.55 587.14 L7.91 587.14 L28.35 587.14" class="st8"/>
		</g>
		<g id="shape25-102" v:mID="25" v:groupContext="shape" transform="translate(597.25,10.107) rotate(90)">
			<title>Kracht.103</title>
			<path d="M7.55 587.14 L7.91 587.14 L28.35 587.14" class="st8"/>
		</g>
		<g id="shape26-107" v:mID="26" v:groupContext="shape" transform="translate(17.1936,-491.997)">
			<title>Maatlijn verticaal.60</title>
			<desc>1</desc>
			<v:textBlock v:margins="rect(4,4,4,4)" v:tabSpace="42.5197"/>
			<v:textRect cx="7.08661" cy="580.057" width="14.18" height="14.1732"/>
			<rect x="0" y="572.97" width="14.1732" height="14.1732" class="st10"/>
			<text x="4.09" y="583.66" class="st11" v:langID="1043"><v:paragraph v:horizAlign="1"/><v:tabList/>1</text>		</g>
		<g id="shape27-110" v:mID="27" v:groupContext="shape" transform="translate(17.1936,-555.776)">
			<title>Maatlijn verticaal.105</title>
			<desc>1</desc>
			<v:textBlock v:margins="rect(4,4,4,4)" v:tabSpace="42.5197"/>
			<v:textRect cx="7.08661" cy="580.057" width="14.18" height="14.1732"/>
			<rect x="0" y="572.97" width="14.1732" height="14.1732" class="st10"/>
			<text x="4.09" y="583.66" class="st11" v:langID="1043"><v:paragraph v:horizAlign="1"/><v:tabList/>1</text>		</g>
		<g id="shape28-113" v:mID="28" v:groupContext="shape" transform="translate(17.1936,-17.1937)">
			<title>Maatlijn verticaal.106</title>
			<desc>1</desc>
			<v:textBlock v:margins="rect(4,4,4,4)" v:tabSpace="42.5197"/>
			<v:textRect cx="7.08661" cy="580.057" width="14.18" height="14.1732"/>
			<rect x="0" y="572.97" width="14.1732" height="14.1732" class="st10"/>
			<text x="4.09" y="583.66" class="st11" v:langID="1043"><v:paragraph v:horizAlign="1"/><v:tabList/>1</text>		</g>
		<g id="shape29-116" v:mID="29" v:groupContext="shape" transform="translate(17.1936,-80.9732)">
			<title>Maatlijn verticaal.107</title>
			<desc>1</desc>
			<v:textBlock v:margins="rect(4,4,4,4)" v:tabSpace="42.5197"/>
			<v:textRect cx="7.08661" cy="580.057" width="14.18" height="14.1732"/>
			<rect x="0" y="572.97" width="14.1732" height="14.1732" class="st10"/>
			<text x="4.09" y="583.66" class="st11" v:langID="1043"><v:paragraph v:horizAlign="1"/><v:tabList/>1</text>		</g>
		<g id="shape30-119" v:mID="30" v:groupContext="shape" transform="translate(17.1936,-236.879)">
			<title>Maatlijn verticaal.108</title>
			<desc>1</desc>
			<v:textBlock v:margins="rect(4,4,4,4)" v:tabSpace="42.5197"/>
			<v:textRect cx="7.08661" cy="580.057" width="14.18" height="14.1732"/>
			<rect x="0" y="572.97" width="14.1732" height="14.1732" class="st10"/>
			<text x="4.09" y="583.66" class="st11" v:langID="1043"><v:paragraph v:horizAlign="1"/><v:tabList/>1</text>		</g>
		<g id="shape31-122" v:mID="31" v:groupContext="shape" transform="translate(17.1936,-336.091)">
			<title>Maatlijn verticaal.109</title>
			<desc>1</desc>
			<v:textBlock v:margins="rect(4,4,4,4)" v:tabSpace="42.5197"/>
			<v:textRect cx="7.08661" cy="580.057" width="14.18" height="14.1732"/>
			<rect x="0" y="572.97" width="14.1732" height="14.1732" class="st10"/>
			<text x="4.09" y="583.66" class="st11" v:langID="1043"><v:paragraph v:horizAlign="1"/><v:tabList/>1</text>		</g>
		<g id="shape32-125" v:mID="32" v:groupContext="shape" transform="translate(683.707,123.493) rotate(90)">
			<title>Ligger, 2 pt.110</title>
			<path d="M0 587.14 L85.04 587.14" class="st12"/>
		</g>
		<g id="group33-128" transform="translate(690.794,123.493) rotate(90)" v:mID="33" v:groupContext="group">
			<title>q-last constant parallel.111</title>
			<g id="shape34-129" v:mID="34" v:groupContext="shape" transform="translate(2.95764E-06,0)">
				<title>Kracht.5</title>
				<path d="M0 587.14 L6.01 587.14" class="st2"/>
			</g>
			<g id="shape35-134" v:mID="35" v:groupContext="shape" transform="translate(0,7.08662)">
				<title>Sheet.35</title>
				<path d="M0 587.14 L0 572.97 L85.04 572.97 L85.04 587.14" class="st4"/>
			</g>
			<g id="shape36-137" v:mID="36" v:groupContext="shape" transform="translate(18.6024,0)">
				<title>Kracht.4</title>
				<path d="M0 587.14 L6.01 587.14" class="st2"/>
			</g>
			<g id="shape37-142" v:mID="37" v:groupContext="shape" transform="translate(37.2047,0)">
				<title>Kracht.9</title>
				<path d="M0 587.14 L6.01 587.14" class="st2"/>
			</g>
			<g id="shape38-147" v:mID="38" v:groupContext="shape" transform="translate(55.8071,0)">
				<title>Kracht.6</title>
				<path d="M0 587.14 L6.01 587.14" class="st2"/>
			</g>
			<g id="shape39-152" v:mID="39" v:groupContext="shape" transform="translate(74.4095,0)">
				<title>Kracht.7</title>
				<path d="M0 587.14 L6.01 587.14" class="st2"/>
			</g>
		</g>
		<g id="shape40-157" v:mID="40" v:groupContext="shape" transform="translate(683.707,378.611) rotate(90)">
			<title>Ligger, 2 pt.119</title>
			<path d="M0 587.14 L85.04 587.14" class="st12"/>
		</g>
		<g id="shape41-160" v:mID="41" v:groupContext="shape" transform="translate(683.707,279.398) rotate(90)">
			<title>Ligger, 2 pt.120</title>
			<path d="M0 587.14 L14.17 587.14" class="st12"/>
		</g>
		<g id="shape42-163" v:mID="42" v:groupContext="shape" transform="translate(683.707,293.572) rotate(90)">
			<title>Ligger, 2 pt.121</title>
			<path d="M0 587.14 L14.17 587.14" class="st12"/>
		</g>
		<g id="shape43-166" v:mID="43" v:groupContext="shape" transform="translate(683.707,38.4535) rotate(90)">
			<title>Ligger, 2 pt.122</title>
			<path d="M0 587.14 L14.17 587.14" class="st12"/>
		</g>
		<g id="shape44-169" v:mID="44" v:groupContext="shape" transform="translate(683.707,534.517) rotate(90)">
			<title>Ligger, 2 pt.123</title>
			<path d="M0 587.14 L14.17 587.14" class="st12"/>
		</g>
		<g id="shape45-172" v:mID="45" v:groupContext="shape" transform="translate(96.5637,-293.572)">
			<title>Sheet.45</title>
			<path d="M0 587.14 L2.83 587.14" class="st13"/>
		</g>
		<g id="shape46-175" v:mID="46" v:groupContext="shape" transform="translate(96.5637,880.715) rotate(180)">
			<title>Sheet.46</title>
			<path d="M0 587.14 L2.83 587.14" class="st13"/>
		</g>
		<g id="shape47-178" v:mID="47" v:groupContext="shape" transform="translate(-490.58,236.879) rotate(-90)">
			<title>Kracht.126</title>
			<path d="M7.55 587.14 L7.91 587.14 L28.35 587.14" class="st14"/>
		</g>
		<g id="shape48-184" v:mID="48" v:groupContext="shape" transform="translate(-490.58,336.091) rotate(-90)">
			<title>Kracht.127</title>
			<path d="M7.55 587.14 L7.91 587.14 L28.35 587.14" class="st14"/>
		</g>
		<g id="shape49-189" v:mID="49" v:groupContext="shape" transform="translate(-490.58,491.997) rotate(-90)">
			<title>Kracht.128</title>
			<path d="M7.55 587.14 L7.91 587.14 L28.35 587.14" class="st14"/>
		</g>
		<g id="shape50-194" v:mID="50" v:groupContext="shape" transform="translate(-490.58,80.9732) rotate(-90)">
			<title>Kracht.129</title>
			<path d="M7.55 587.14 L7.91 587.14 L28.35 587.14" class="st14"/>
		</g>
		<g id="shape51-199" v:mID="51" v:groupContext="shape" transform="translate(683.707,95.1464) rotate(90)">
			<title>Kracht.130</title>
			<path d="M7.55 587.14 L7.91 587.14 L28.35 587.14" class="st14"/>
		</g>
		<g id="shape52-204" v:mID="52" v:groupContext="shape" transform="translate(683.707,251.052) rotate(90)">
			<title>Kracht.131</title>
			<path d="M7.55 587.14 L7.91 587.14 L28.35 587.14" class="st14"/>
		</g>
		<g id="shape53-209" v:mID="53" v:groupContext="shape" transform="translate(683.707,350.265) rotate(90)">
			<title>Kracht.132</title>
			<path d="M7.55 587.14 L7.91 587.14 L28.35 587.14" class="st14"/>
		</g>
		<g id="shape54-214" v:mID="54" v:groupContext="shape" transform="translate(683.707,506.17) rotate(90)">
			<title>Kracht.133</title>
			<path d="M7.55 587.14 L7.91 587.14 L28.35 587.14" class="st14"/>
		</g>
		<g id="shape55-219" v:mID="55" v:groupContext="shape" transform="translate(683.707,548.69) rotate(90)">
			<title>Kracht.134</title>
			<path d="M7.55 587.14 L7.91 587.14 L28.35 587.14" class="st16"/>
		</g>
		<g id="shape56-225" v:mID="56" v:groupContext="shape" transform="translate(683.707,10.1071) rotate(90)">
			<title>Kracht.135</title>
			<path d="M7.55 587.14 L7.91 587.14 L28.35 587.14" class="st16"/>
		</g>
		<g id="shape57-230" v:mID="57" v:groupContext="shape" transform="translate(116.406,-414.044)">
			<title>Maatlijn verticaal.136</title>
			<desc>1</desc>
			<v:textBlock v:margins="rect(4,4,4,4)" v:tabSpace="42.5197"/>
			<v:textRect cx="7.08661" cy="580.057" width="14.18" height="14.1732"/>
			<rect x="0" y="572.97" width="14.1732" height="14.1732" class="st10"/>
			<text x="4.09" y="583.66" class="st11" v:langID="1043"><v:paragraph v:horizAlign="1"/><v:tabList/>1</text>		</g>
		<g id="shape58-233" v:mID="58" v:groupContext="shape" transform="translate(103.65,-534.516)">
			<title>Maatlijn verticaal.137</title>
			<desc>1</desc>
			<v:textBlock v:margins="rect(4,4,4,4)" v:tabSpace="42.5197"/>
			<v:textRect cx="7.08661" cy="580.057" width="14.18" height="14.1732"/>
			<rect x="0" y="572.97" width="14.1732" height="14.1732" class="st10"/>
			<text x="4.09" y="583.66" class="st11" v:langID="1043"><v:paragraph v:horizAlign="1"/><v:tabList/>1</text>		</g>
		<g id="shape59-236" v:mID="59" v:groupContext="shape" transform="translate(102.233,-38.4535)">
			<title>Maatlijn verticaal.139</title>
			<desc>1</desc>
			<v:textBlock v:margins="rect(4,4,4,4)" v:tabSpace="42.5197"/>
			<v:textRect cx="7.08661" cy="580.057" width="14.18" height="14.1732"/>
			<rect x="0" y="572.97" width="14.1732" height="14.1732" class="st10"/>
			<text x="4.09" y="583.66" class="st11" v:langID="1043"><v:paragraph v:horizAlign="1"/><v:tabList/>1</text>		</g>
		<g id="shape60-239" v:mID="60" v:groupContext="shape" transform="translate(102.233,-158.926)">
			<title>Maatlijn verticaal.140</title>
			<desc>1</desc>
			<v:textBlock v:margins="rect(4,4,4,4)" v:tabSpace="42.5197"/>
			<v:textRect cx="7.08661" cy="580.057" width="14.18" height="14.1732"/>
			<rect x="0" y="572.97" width="14.1732" height="14.1732" class="st10"/>
			<text x="4.09" y="583.66" class="st11" v:langID="1043"><v:paragraph v:horizAlign="1"/><v:tabList/>1</text>		</g>
		<g id="shape61-242" v:mID="61" v:groupContext="shape" transform="translate(103.65,-286.485)">
			<title>Maatlijn verticaal.141</title>
			<desc>1</desc>
			<v:textBlock v:margins="rect(4,4,4,4)" v:tabSpace="42.5197"/>
			<v:textRect cx="7.08661" cy="580.057" width="14.18" height="14.1732"/>
			<rect x="0" y="572.97" width="14.1732" height="14.1732" class="st10"/>
			<text x="4.09" y="583.66" class="st11" v:langID="1043"><v:paragraph v:horizAlign="1"/><v:tabList/>1</text>		</g>
	</g>
</svg>
