<?xml version="1.0" encoding="UTF-8" standalone="no"?>
<!DOCTYPE svg PUBLIC "-//W3C//DTD SVG 1.1//EN" "http://www.w3.org/Graphics/SVG/1.1/DTD/svg11.dtd">
<!-- Generated by Microsoft Visio, SVG Export Onbekenden.svg Page-1 -->
<svg xmlns="http://www.w3.org/2000/svg" xmlns:xlink="http://www.w3.org/1999/xlink" xmlns:ev="http://www.w3.org/2001/xml-events"
		xmlns:v="http://schemas.microsoft.com/visio/2003/SVGExtensions/" width="9.41461in" height="4.52015in"
		viewBox="0 0 677.852 325.451" xml:space="preserve" color-interpolation-filters="sRGB" class="st15">
	<v:documentProperties v:langID="1043" v:metric="true" v:viewMarkup="false"/>

	<style type="text/css">
	<![CDATA[
		.st1 {stroke:#000000;stroke-linecap:round;stroke-linejoin:round;stroke-opacity:0.5;stroke-width:2}
		.st2 {stroke:#31859b;stroke-linecap:round;stroke-linejoin:round;stroke-opacity:0.5;stroke-width:2}
		.st3 {fill:#ffffff;stroke:#000000;stroke-linecap:round;stroke-linejoin:round;stroke-width:0.75}
		.st4 {marker-start:url(#mrkr5-23);stroke:#00cc99;stroke-linecap:round;stroke-linejoin:round;stroke-width:2}
		.st5 {fill:#00cc99;fill-opacity:1;stroke:#00cc99;stroke-opacity:1;stroke-width:0.4424778761062}
		.st6 {marker-start:url(#mrkr5-44);stroke:#31859b;stroke-linecap:round;stroke-linejoin:round;stroke-width:2}
		.st7 {fill:#31859b;fill-opacity:1;stroke:#31859b;stroke-opacity:1;stroke-width:0.4424778761062}
		.st8 {marker-end:url(#mrkr5-55);stroke:#31859b;stroke-linecap:round;stroke-linejoin:round;stroke-width:2}
		.st9 {fill:none;stroke:none;stroke-linecap:round;stroke-linejoin:round;stroke-width:0.24}
		.st10 {fill:#000000;font-family:Times New Roman;font-size:1.00001em}
		.st11 {fill:none;stroke:#ffffff;stroke-linecap:round;stroke-linejoin:round;stroke-width:0.24}
		.st12 {marker-end:url(#mrkr5-312);stroke:#800000;stroke-linecap:round;stroke-linejoin:round;stroke-opacity:0.5;stroke-width:1.2}
		.st13 {fill:#800000;fill-opacity:0.5;stroke:#800000;stroke-opacity:0.5;stroke-width:0.45454545454546}
		.st14 {stroke:#800000;stroke-linecap:round;stroke-linejoin:round;stroke-opacity:0.5;stroke-width:1.2}
		.st15 {fill:none;fill-rule:evenodd;font-size:12px;overflow:visible;stroke-linecap:square;stroke-miterlimit:3}
	]]>
	</style>

	<defs id="Markers">
		<g id="lend5">
			<path d="M 2 1 L 0 0 L 1.98117 -0.993387 C 1.67173 -0.364515 1.67301 0.372641 1.98465 1.00043 " style="stroke:none"/>
		</g>
		<marker id="mrkr5-23" class="st5" v:arrowType="5" v:arrowSize="2" v:setback="3.775" refX="3.775" orient="auto"
				markerUnits="strokeWidth" overflow="visible">
			<use xlink:href="#lend5" transform="scale(2.26) "/>
		</marker>
		<marker id="mrkr5-44" class="st7" v:arrowType="5" v:arrowSize="2" v:setback="3.775" refX="3.775" orient="auto"
				markerUnits="strokeWidth" overflow="visible">
			<use xlink:href="#lend5" transform="scale(2.26) "/>
		</marker>
		<marker id="mrkr5-55" class="st7" v:arrowType="5" v:arrowSize="2" v:setback="3.775" refX="-3.775" orient="auto"
				markerUnits="strokeWidth" overflow="visible">
			<use xlink:href="#lend5" transform="scale(-2.26,-2.26) "/>
		</marker>
		<marker id="mrkr5-312" class="st13" v:arrowType="5" v:arrowSize="0" v:setback="3.85" refX="-3.85" orient="auto"
				markerUnits="strokeWidth" overflow="visible">
			<use xlink:href="#lend5" transform="scale(-2.2,-2.2) "/>
		</marker>
	</defs>
	<g v:mID="0" v:index="1" v:groupContext="foregroundPage">
		<title>Page-1</title>
		<v:pageProperties v:drawingScale="0.0393701" v:pageScale="0.0393701" v:drawingUnits="24" v:shadowOffsetX="8.50394"
				v:shadowOffsetY="-8.50394"/>
		<g id="shape1-1" v:mID="1" v:groupContext="shape" transform="translate(363.731,268.452) rotate(90)">
			<title>Ligger, 2 pt.4041</title>
			<path d="M0 325.45 L23.51 325.45" class="st1"/>
		</g>
		<g id="shape2-4" v:mID="2" v:groupContext="shape" transform="translate(38.4535,-286.998)">
			<title>Ligger, 2 pt.3967</title>
			<path d="M0 325.45 L17.01 325.45" class="st2"/>
		</g>
		<g id="shape3-7" v:mID="3" v:groupContext="shape" transform="translate(625.225,-286.998)">
			<title>Ligger, 2 pt.3968</title>
			<path d="M0 325.45 L21.26 325.45" class="st1"/>
		</g>
		<g id="shape4-10" v:mID="4" v:groupContext="shape" transform="translate(363.905,38.4535) rotate(90)">
			<title>Ligger, 2 pt.3969</title>
			<path d="M0 325.45 L17.01 325.45" class="st2"/>
		</g>
		<g id="shape5-13" v:mID="5" v:groupContext="shape" transform="translate(-156.817,33.7234) rotate(-36.8699)">
			<title>Ligger, 2 pt.3979</title>
			<path d="M0 325.45 L27.59 325.45" class="st1"/>
		</g>
		<g id="shape6-16" v:mID="6" v:groupContext="shape" transform="translate(36.3275,-29.2409)">
			<title>Scharnier.3980</title>
			<ellipse cx="2.12598" cy="323.325" rx="2.12598" ry="2.12598" class="st3"/>
		</g>
		<g id="shape7-18" v:mID="7" v:groupContext="shape" transform="translate(363.905,294.084) rotate(90)">
			<title>Kracht.3981</title>
			<path d="M7.55 325.45 L7.91 325.45 L21.26 325.45" class="st4"/>
		</g>
		<g id="shape8-24" v:mID="8" v:groupContext="shape" transform="translate(695.973,38.4535) rotate(90)">
			<title>Kracht.3982</title>
			<path d="M7.55 325.45 L7.91 325.45 L21.26 325.45" class="st4"/>
		</g>
		<g id="shape9-29" v:mID="9" v:groupContext="shape" transform="translate(971.936,38.4535) rotate(90)">
			<title>Kracht.3983</title>
			<path d="M7.55 325.45 L7.91 325.45 L21.26 325.45" class="st4"/>
		</g>
		<g id="shape10-34" v:mID="10" v:groupContext="shape" transform="translate(667.745,363.905) rotate(180)">
			<title>Kracht.3984</title>
			<path d="M7.55 325.45 L7.91 325.45 L21.26 325.45" class="st4"/>
		</g>
		<g id="shape11-39" v:mID="11" v:groupContext="shape" transform="translate(83.8078,363.905) rotate(180)">
			<title>Kracht.4033</title>
			<path d="M7.55 325.45 L7.91 325.45 L28.35 325.45" class="st6"/>
		</g>
		<g id="shape12-45" v:mID="12" v:groupContext="shape" transform="translate(-269.99,66.7999) rotate(-90)">
			<title>Kracht.4034</title>
			<path d="M7.55 325.45 L7.91 325.45 L28.35 325.45" class="st6"/>
		</g>
		<g id="shape13-50" v:mID="13" v:groupContext="shape" transform="translate(380.912,52.6267) rotate(90) scale(-1,1)">
			<title>Moment.4035</title>
			<path d="M-0 325.45 A14.1732 14.1732 0 0 1 14.17 311.28 A14.1732 14.1732 0 0 1 26.14 317.86 L26.24 318.2" class="st8"/>
		</g>
		<g id="shape14-56" v:mID="14" v:groupContext="shape" transform="translate(80.9732,-272.824)">
			<title>Punt A.4036</title>
			<desc>3</desc>
			<v:textBlock v:margins="rect(4,4,4,4)" v:tabSpace="42.5197"/>
			<v:textRect cx="7.08661" cy="318.365" width="14.18" height="14.1732"/>
			<rect x="0" y="311.278" width="14.1732" height="14.1732" class="st9"/>
			<text x="4.09" y="321.96" class="st10" v:langID="1043"><v:paragraph v:horizAlign="1"/><v:tabList/>3</text>		</g>
		<g id="shape15-59" v:mID="15" v:groupContext="shape" transform="translate(52.6267,380.912) rotate(180)">
			<title>Moment.4037</title>
			<path d="M-0 325.45 A14.1732 14.1732 0 0 1 14.17 311.28 A14.1732 14.1732 0 0 1 26.14 317.86 L26.24 318.2" class="st8"/>
		</g>
		<g id="shape16-64" v:mID="16" v:groupContext="shape" transform="translate(-286.998,83.8078) rotate(-90)">
			<title>Kracht.4038</title>
			<path d="M7.55 325.45 L7.91 325.45 L28.35 325.45" class="st6"/>
		</g>
		<g id="shape17-69" v:mID="17" v:groupContext="shape" transform="translate(10.107,-269.99)">
			<title>Kracht.4039</title>
			<path d="M7.55 325.45 L7.91 325.45 L28.35 325.45" class="st6"/>
		</g>
		<g id="shape18-74" v:mID="18" v:groupContext="shape" transform="translate(17.1936,-231.722)">
			<title>Punt A.4040</title>
			<desc>3</desc>
			<v:textBlock v:margins="rect(4,4,4,4)" v:tabSpace="42.5197"/>
			<v:textRect cx="7.08661" cy="318.365" width="14.18" height="14.1732"/>
			<rect x="0" y="311.278" width="14.1732" height="14.1732" class="st9"/>
			<text x="4.09" y="321.96" class="st10" v:langID="1043"><v:paragraph v:horizAlign="1"/><v:tabList/>3</text>		</g>
		<g id="shape19-77" v:mID="19" v:groupContext="shape" transform="translate(363.905,239.713) rotate(90)">
			<title>Kracht.4046</title>
			<path d="M7.55 325.45 L7.91 325.45 L28.35 325.45" class="st6"/>
		</g>
		<g id="shape20-82" v:mID="20" v:groupContext="shape" transform="translate(66.7999,593.511) rotate(180)">
			<title>Kracht.4047</title>
			<path d="M7.55 325.45 L7.91 325.45 L28.35 325.45" class="st6"/>
		</g>
		<g id="shape21-87" v:mID="21" v:groupContext="shape" transform="translate(280.711,518.684) rotate(142.77)">
			<title>Kracht.4050</title>
			<path d="M7.55 325.45 L7.91 325.45 L28.48 325.45" class="st6"/>
		</g>
		<g id="shape22-92" v:mID="22" v:groupContext="shape" transform="translate(-167.375,510.248) rotate(-130.647)">
			<title>Kracht.4051</title>
			<path d="M7.55 325.45 L7.91 325.45 L28.29 325.45" class="st6"/>
		</g>
		<g id="shape23-97" v:mID="23" v:groupContext="shape" transform="translate(89.5134,-53.1394)">
			<title>Punt A.4052</title>
			<desc>2</desc>
			<v:textBlock v:margins="rect(4,4,4,4)" v:tabSpace="42.5197"/>
			<v:textRect cx="7.08661" cy="318.365" width="14.18" height="14.1732"/>
			<rect x="0" y="311.278" width="14.1732" height="14.1732" class="st9"/>
			<text x="4.09" y="321.96" class="st10" v:langID="1043"><v:paragraph v:horizAlign="1"/><v:tabList/>2</text>		</g>
		<g id="shape24-100" v:mID="24" v:groupContext="shape" transform="translate(330.822,-286.998) rotate(5.5475E-05)">
			<title>Ligger, 2 pt.4053</title>
			<path d="M0 325.45 L39.7 325.45" class="st2"/>
		</g>
		<g id="shape25-103" v:mID="25" v:groupContext="shape" transform="translate(156.693,-207.989) rotate(-36.8699)">
			<title>Ligger, 2 pt.4054</title>
			<path d="M0 325.45 L23.2 325.45" class="st2"/>
		</g>
		<g id="shape26-106" v:mID="26" v:groupContext="shape" transform="translate(370.522,-286.998)">
			<title>Ligger, 2 pt.4055</title>
			<path d="M0 325.45 L18.88 325.45" class="st1"/>
		</g>
		<g id="shape27-109" v:mID="27" v:groupContext="shape" transform="translate(5.37064,52.6267) rotate(-90)">
			<title>Moment.4056</title>
			<path d="M-0 325.45 A14.1732 14.1732 0 0 1 14.17 311.28 A14.1732 14.1732 0 0 1 26.14 317.86 L26.24 318.2" class="st8"/>
		</g>
		<g id="shape28-114" v:mID="28" v:groupContext="shape" transform="translate(302.475,-286.998)">
			<title>Kracht.4057</title>
			<path d="M7.55 325.45 L7.91 325.45 L28.35 325.45" class="st6"/>
		</g>
		<g id="shape29-119" v:mID="29" v:groupContext="shape" transform="translate(656.273,10.107) rotate(90)">
			<title>Kracht.4058</title>
			<path d="M7.55 325.45 L7.91 325.45 L28.35 325.45" class="st6"/>
		</g>
		<g id="shape30-124" v:mID="30" v:groupContext="shape" transform="translate(418.296,363.905) rotate(180)">
			<title>Kracht.4060</title>
			<path d="M7.55 325.45 L7.91 325.45 L28.35 325.45" class="st6"/>
		</g>
		<g id="shape31-129" v:mID="31" v:groupContext="shape" transform="translate(64.4984,66.7999) rotate(-90)">
			<title>Kracht.4061</title>
			<path d="M7.55 325.45 L7.91 325.45 L28.35 325.45" class="st6"/>
		</g>
		<g id="shape32-134" v:mID="32" v:groupContext="shape" transform="translate(715.401,52.6267) rotate(90) scale(-1,1)">
			<title>Moment.4062</title>
			<path d="M-0 325.45 A14.1732 14.1732 0 0 1 14.17 311.28 A14.1732 14.1732 0 0 1 26.14 317.86 L26.24 318.2" class="st8"/>
		</g>
		<g id="shape33-139" v:mID="33" v:groupContext="shape" transform="translate(421.131,-279.911)">
			<title>Punt A.4063</title>
			<desc>3</desc>
			<v:textBlock v:margins="rect(4,4,4,4)" v:tabSpace="42.5197"/>
			<v:textRect cx="7.08661" cy="318.365" width="14.18" height="14.1732"/>
			<rect x="0" y="311.278" width="14.1732" height="14.1732" class="st9"/>
			<text x="4.09" y="321.96" class="st10" v:langID="1043"><v:paragraph v:horizAlign="1"/><v:tabList/>3</text>		</g>
		<g id="shape34-142" v:mID="34" v:groupContext="shape" transform="translate(110.715,273.135) rotate(-130)">
			<title>Moment.4068</title>
			<path d="M-0 325.45 A14.1732 14.1732 0 0 1 14.17 311.28 A14.1732 14.1732 0 0 1 26.14 317.86 L26.24 318.2" class="st8"/>
		</g>
		<g id="shape35-147" v:mID="35" v:groupContext="shape" transform="translate(120.59,-178.5) rotate(-40)">
			<title>Kracht.4069</title>
			<path d="M7.55 325.45 L7.91 325.45 L27.58 325.45" class="st6"/>
		</g>
		<g id="shape36-152" v:mID="36" v:groupContext="shape" transform="translate(582.004,-177.829) rotate(50)">
			<title>Kracht.4070</title>
			<path d="M7.55 325.45 L7.91 325.45 L28.35 325.45" class="st6"/>
		</g>
		<g id="shape37-157" v:mID="37" v:groupContext="shape" transform="translate(367.054,-254.472)">
			<title>Punt A.4072</title>
			<desc>1</desc>
			<v:textBlock v:margins="rect(4,4,4,4)" v:tabSpace="42.5197"/>
			<v:textRect cx="7.08661" cy="318.365" width="14.18" height="14.1732"/>
			<rect x="0" y="311.278" width="14.1732" height="14.1732" class="st9"/>
			<text x="4.09" y="321.96" class="st10" v:langID="1043"><v:paragraph v:horizAlign="1"/><v:tabList/>1</text>		</g>
		<g id="shape38-160" v:mID="38" v:groupContext="shape" transform="translate(41.5425,-7.018)">
			<title>Punt A.4073</title>
			<desc>1</desc>
			<v:textBlock v:margins="rect(4,4,4,4)" v:tabSpace="42.5197"/>
			<v:textRect cx="7.08661" cy="318.365" width="14.18" height="14.1732"/>
			<rect x="0" y="311.278" width="14.1732" height="14.1732" class="st9"/>
			<text x="4.09" y="321.96" class="st10" v:langID="1043"><v:paragraph v:horizAlign="1"/><v:tabList/>1</text>		</g>
		<g id="shape39-163" v:mID="39" v:groupContext="shape" transform="translate(598.176,-286.998)">
			<title>Kracht.4074</title>
			<path d="M7.55 325.45 L7.91 325.45 L28.35 325.45" class="st6"/>
		</g>
		<g id="shape40-168" v:mID="40" v:groupContext="shape" transform="translate(951.974,10.107) rotate(90)">
			<title>Kracht.4075</title>
			<path d="M7.55 325.45 L7.91 325.45 L28.35 325.45" class="st6"/>
		</g>
		<g id="shape41-173" v:mID="41" v:groupContext="shape" transform="translate(650.707,-257.943)">
			<title>Punt A.4077</title>
			<desc>2</desc>
			<v:textBlock v:margins="rect(4,4,4,4)" v:tabSpace="42.5197"/>
			<v:textRect cx="7.08661" cy="318.365" width="14.18" height="14.1732"/>
			<rect x="0" y="311.278" width="14.1732" height="14.1732" class="st9"/>
			<text x="4.09" y="321.96" class="st10" v:langID="1043"><v:paragraph v:horizAlign="1"/><v:tabList/>2</text>		</g>
		<g id="shape42-176" v:mID="42" v:groupContext="shape" transform="translate(363.905,118.813) rotate(90)">
			<title>Ligger, 2 pt.4078</title>
			<path d="M0 325.45 L85.04 325.45" class="st1"/>
		</g>
		<g id="shape43-179" v:mID="43" v:groupContext="shape" transform="translate(-286.998,234.044) rotate(-90)">
			<title>Kracht.4079</title>
			<path d="M7.55 325.45 L7.91 325.45 L28.35 325.45" class="st6"/>
		</g>
		<g id="shape44-184" v:mID="44" v:groupContext="shape" transform="translate(10.107,-119.754)">
			<title>Kracht.4080</title>
			<path d="M7.55 325.45 L7.91 325.45 L28.35 325.45" class="st6"/>
		</g>
		<g id="shape45-189" v:mID="45" v:groupContext="shape" transform="translate(24.2803,-81.4858)">
			<title>Punt A.4081</title>
			<desc>2</desc>
			<v:textBlock v:margins="rect(4,4,4,4)" v:tabSpace="42.5197"/>
			<v:textRect cx="7.08661" cy="318.365" width="14.18" height="14.1732"/>
			<rect x="0" y="311.278" width="14.1732" height="14.1732" class="st9"/>
			<text x="4.09" y="321.96" class="st10" v:langID="1043"><v:paragraph v:horizAlign="1"/><v:tabList/>2</text>		</g>
		<g id="shape46-192" v:mID="46" v:groupContext="shape" transform="translate(52.6267,-207.628) scale(-1,1)">
			<title>Moment.4082</title>
			<path d="M-0 325.45 A14.1732 14.1732 0 0 1 14.17 311.28 A14.1732 14.1732 0 0 1 26.14 317.86 L26.24 318.2" class="st8"/>
		</g>
		<g id="shape47-197" v:mID="47" v:groupContext="shape" transform="translate(363.905,89.4771) rotate(90)">
			<title>Kracht.4083</title>
			<path d="M7.55 325.45 L7.91 325.45 L28.35 325.45" class="st6"/>
		</g>
		<g id="shape48-202" v:mID="48" v:groupContext="shape" transform="translate(66.7999,443.275) rotate(180)">
			<title>Kracht.4084</title>
			<path d="M7.55 325.45 L7.91 325.45 L28.35 325.45" class="st6"/>
		</g>
		<g id="shape49-207" v:mID="49" v:groupContext="shape" transform="translate(-77.6288,-24.9053) rotate(-36.8699)">
			<title>Ligger, 2 pt.4086</title>
			<path d="M0 325.45 L220.68 325.45" class="st1"/>
		</g>
		<g id="shape50-210" v:mID="50" v:groupContext="shape" transform="translate(-101.939,-6.44096) rotate(-37.2301)">
			<title>Kracht.4087</title>
			<path d="M7.55 325.45 L7.91 325.45 L28.48 325.45" class="st6"/>
		</g>
		<g id="shape51-215" v:mID="51" v:groupContext="shape" transform="translate(346.148,1.9954) rotate(49.3527)">
			<title>Kracht.4088</title>
			<path d="M7.55 325.45 L7.91 325.45 L28.29 325.45" class="st6"/>
		</g>
		<g id="shape52-220" v:mID="52" v:groupContext="shape" transform="translate(511.317,347.013) rotate(143.13)">
			<title>Kracht.4094</title>
			<path d="M7.55 325.45 L7.91 325.45 L27.33 325.45" class="st6"/>
		</g>
		<g id="shape53-225" v:mID="53" v:groupContext="shape" transform="translate(63.0945,333.96) rotate(-130)">
			<title>Kracht.4095</title>
			<path d="M7.55 325.45 L7.91 325.45 L28.35 325.45" class="st6"/>
		</g>
		<g id="shape54-230" v:mID="54" v:groupContext="shape" transform="translate(310.289,-240.299)">
			<title>Punt A.4096</title>
			<desc>3</desc>
			<v:textBlock v:margins="rect(4,4,4,4)" v:tabSpace="42.5197"/>
			<v:textRect cx="7.08661" cy="318.365" width="14.18" height="14.1732"/>
			<rect x="0" y="311.278" width="14.1732" height="14.1732" class="st11"/>
			<text x="4.09" y="321.96" class="st10" v:langID="1043"><v:paragraph v:horizAlign="1"/><v:tabList/>3</text>		</g>
		<g id="shape55-233" v:mID="55" v:groupContext="shape" transform="translate(535.022,-117.704) rotate(45) scale(-1,1)">
			<title>Moment.4098</title>
			<path d="M-0 325.45 A14.1732 14.1732 0 0 1 14.17 311.28 A14.1732 14.1732 0 0 1 26.14 317.86 L26.24 318.2" class="st8"/>
		</g>
		<g id="shape56-238" v:mID="56" v:groupContext="shape" transform="translate(127.585,-286.998)">
			<title>Ligger, 2 pt.4099</title>
			<path d="M0 325.45 L123.47 325.45" class="st1"/>
		</g>
		<g id="shape57-241" v:mID="57" v:groupContext="shape" transform="translate(-199.124,52.6267) rotate(-90)">
			<title>Moment.4100</title>
			<path d="M-0 325.45 A14.1732 14.1732 0 0 1 14.17 311.28 A14.1732 14.1732 0 0 1 26.14 317.86 L26.24 318.2" class="st8"/>
		</g>
		<g id="shape58-246" v:mID="58" v:groupContext="shape" transform="translate(97.9811,-286.998)">
			<title>Kracht.4101</title>
			<path d="M7.55 325.45 L7.91 325.45 L28.35 325.45" class="st6"/>
		</g>
		<g id="shape59-251" v:mID="59" v:groupContext="shape" transform="translate(451.779,10.107) rotate(90)">
			<title>Kracht.4102</title>
			<path d="M7.55 325.45 L7.91 325.45 L28.35 325.45" class="st6"/>
		</g>
		<g id="shape60-256" v:mID="60" v:groupContext="shape" transform="translate(279.398,363.905) rotate(180)">
			<title>Kracht.4104</title>
			<path d="M7.55 325.45 L7.91 325.45 L28.35 325.45" class="st6"/>
		</g>
		<g id="shape61-261" v:mID="61" v:groupContext="shape" transform="translate(-74.3992,66.7999) rotate(-90)">
			<title>Kracht.4105</title>
			<path d="M7.55 325.45 L7.91 325.45 L28.35 325.45" class="st6"/>
		</g>
		<g id="shape62-266" v:mID="62" v:groupContext="shape" transform="translate(576.503,52.6267) rotate(90) scale(-1,1)">
			<title>Moment.4106</title>
			<path d="M-0 325.45 A14.1732 14.1732 0 0 1 14.17 311.28 A14.1732 14.1732 0 0 1 26.14 317.86 L26.24 318.2" class="st8"/>
		</g>
		<g id="shape63-271" v:mID="63" v:groupContext="shape" transform="translate(284.85,-276.64)">
			<title>Punt A.4107</title>
			<desc>3</desc>
			<v:textBlock v:margins="rect(4,4,4,4)" v:tabSpace="42.5197"/>
			<v:textRect cx="7.08661" cy="318.365" width="14.18" height="14.1732"/>
			<rect x="0" y="311.278" width="14.1732" height="14.1732" class="st9"/>
			<text x="4.09" y="321.96" class="st10" v:langID="1043"><v:paragraph v:horizAlign="1"/><v:tabList/>3</text>		</g>
		<g id="shape64-274" v:mID="64" v:groupContext="shape" transform="translate(463.65,-286.998)">
			<title>Ligger, 2 pt.4108</title>
			<path d="M0 325.45 L85.04 325.45" class="st1"/>
		</g>
		<g id="shape65-277" v:mID="65" v:groupContext="shape" transform="translate(138.199,52.6267) rotate(-90)">
			<title>Moment.4118</title>
			<path d="M-0 325.45 A14.1732 14.1732 0 0 1 14.17 311.28 A14.1732 14.1732 0 0 1 26.14 317.86 L26.24 318.2" class="st8"/>
		</g>
		<g id="shape66-282" v:mID="66" v:groupContext="shape" transform="translate(435.304,-286.998)">
			<title>Kracht.4119</title>
			<path d="M7.55 325.45 L7.91 325.45 L28.35 325.45" class="st6"/>
		</g>
		<g id="shape67-287" v:mID="67" v:groupContext="shape" transform="translate(789.101,10.107) rotate(90)">
			<title>Kracht.4120</title>
			<path d="M7.55 325.45 L7.91 325.45 L28.35 325.45" class="st6"/>
		</g>
		<g id="shape68-292" v:mID="68" v:groupContext="shape" transform="translate(874.141,66.7999) rotate(90) scale(-1,1)">
			<title>Kracht.4124</title>
			<path d="M7.55 325.45 L7.91 325.45 L28.35 325.45" class="st6"/>
		</g>
		<g id="shape69-297" v:mID="69" v:groupContext="shape" transform="translate(577.036,-286.998) scale(-1,1)">
			<title>Kracht.4125</title>
			<path d="M7.55 325.45 L7.91 325.45 L28.35 325.45" class="st6"/>
		</g>
		<g id="shape70-302" v:mID="70" v:groupContext="shape" transform="translate(578.453,-279.911)">
			<title>Punt A.4126</title>
			<desc>2</desc>
			<v:textBlock v:margins="rect(4,4,4,4)" v:tabSpace="42.5197"/>
			<v:textRect cx="7.08661" cy="318.365" width="14.18" height="14.1732"/>
			<rect x="0" y="311.278" width="14.1732" height="14.1732" class="st9"/>
			<text x="4.09" y="321.96" class="st10" v:langID="1043"><v:paragraph v:horizAlign="1"/><v:tabList/>2</text>		</g>
		<g id="group71-305" transform="translate(463.65,-286.998)" v:mID="71" v:groupContext="group">
			<title>q-last constnt.4214</title>
			<g id="group72-306" v:mID="72" v:groupContext="group">
				<title>q-last, recht.51</title>
				<g id="shape73-307" v:mID="73" v:groupContext="shape" transform="translate(325.451,311.278) rotate(90)">
					<title>Kracht.5</title>
					<path d="M0 325.45 L9.55 325.45" class="st12"/>
				</g>
				<g id="shape74-313" v:mID="74" v:groupContext="shape" transform="translate(1.59872E-14,-14.1732)">
					<title>Sheet.74</title>
					<path d="M0 325.45 L85.04 325.45" class="st14"/>
				</g>
				<g id="shape75-316" v:mID="75" v:groupContext="shape" transform="translate(340.913,311.278) rotate(90)">
					<title>Kracht.4</title>
					<path d="M0 325.45 L9.55 325.45" class="st12"/>
				</g>
				<g id="shape76-321" v:mID="76" v:groupContext="shape" transform="translate(356.375,311.278) rotate(90)">
					<title>Kracht.9</title>
					<path d="M0 325.45 L9.55 325.45" class="st12"/>
				</g>
				<g id="shape77-326" v:mID="77" v:groupContext="shape" transform="translate(410.49,311.278) rotate(90)">
					<title>Kracht.6</title>
					<path d="M0 325.45 L9.55 325.45" class="st12"/>
				</g>
				<g id="shape78-331" v:mID="78" v:groupContext="shape" transform="translate(395.029,311.278) rotate(90)">
					<title>Kracht.7</title>
					<path d="M0 325.45 L9.55 325.45" class="st12"/>
				</g>
			</g>
		</g>
	</g>
</svg>
