<?xml version="1.0" encoding="UTF-8" standalone="no"?>
<!DOCTYPE svg PUBLIC "-//W3C//DTD SVG 1.1//EN" "http://www.w3.org/Graphics/SVG/1.1/DTD/svg11.dtd">
<!-- Gegenereerd door Microsoft Visio, SVG Export Onbekenden.svg Pagina-1 -->
<svg xmlns="http://www.w3.org/2000/svg" xmlns:xlink="http://www.w3.org/1999/xlink" xmlns:ev="http://www.w3.org/2001/xml-events"
		xmlns:v="http://schemas.microsoft.com/visio/2003/SVGExtensions/" width="9.41461in" height="4.52015in"
		viewBox="0 0 677.852 325.451" xml:space="preserve" color-interpolation-filters="sRGB" class="st11">
	<v:documentProperties v:langID="1043" v:metric="true" v:viewMarkup="false"/>

	<style type="text/css">
	<![CDATA[
		.st1 {stroke:#000000;stroke-linecap:round;stroke-linejoin:round;stroke-opacity:0.5;stroke-width:2}
		.st2 {fill:#ffffff;stroke:#000000;stroke-linecap:round;stroke-linejoin:round;stroke-width:0.75}
		.st3 {marker-start:url(#mrkr5-23);stroke:#800000;stroke-linecap:round;stroke-linejoin:round;stroke-width:2}
		.st4 {fill:#800000;fill-opacity:1;stroke:#800000;stroke-opacity:1;stroke-width:0.44247787610619}
		.st5 {marker-end:url(#mrkr5-54);stroke:#800000;stroke-linecap:round;stroke-linejoin:round;stroke-width:2}
		.st6 {fill:none;stroke:none;stroke-linecap:round;stroke-linejoin:round;stroke-width:0.24}
		.st7 {fill:#000000;font-family:Times New Roman;font-size:1.00001em}
		.st8 {marker-end:url(#mrkr5-311);stroke:#800000;stroke-linecap:round;stroke-linejoin:round;stroke-opacity:0.5;stroke-width:1.2}
		.st9 {fill:#800000;fill-opacity:0.5;stroke:#800000;stroke-opacity:0.5;stroke-width:0.45454545454545}
		.st10 {stroke:#800000;stroke-linecap:round;stroke-linejoin:round;stroke-opacity:0.5;stroke-width:1.2}
		.st11 {fill:none;fill-rule:evenodd;font-size:12px;overflow:visible;stroke-linecap:square;stroke-miterlimit:3}
	]]>
	</style>

	<defs id="Markers">
		<g id="lend5">
			<path d="M 2 1 L 0 0 L 1.98117 -0.993388 C 1.67173 -0.364516 1.67301 0.37264 1.98465 1.00043 " style="stroke:none"/>
		</g>
		<marker id="mrkr5-23" class="st4" v:arrowType="5" v:arrowSize="2" v:setback="3.775" refX="3.775" orient="auto"
				markerUnits="strokeWidth" overflow="visible">
			<use xlink:href="#lend5" transform="scale(2.26) "/>
		</marker>
		<marker id="mrkr5-54" class="st4" v:arrowType="5" v:arrowSize="2" v:setback="3.775" refX="-3.775" orient="auto"
				markerUnits="strokeWidth" overflow="visible">
			<use xlink:href="#lend5" transform="scale(-2.26,-2.26) "/>
		</marker>
		<marker id="mrkr5-311" class="st9" v:arrowType="5" v:arrowSize="0" v:setback="3.85" refX="-3.85" orient="auto"
				markerUnits="strokeWidth" overflow="visible">
			<use xlink:href="#lend5" transform="scale(-2.2,-2.2) "/>
		</marker>
	</defs>
	<g v:mID="0" v:index="1" v:groupContext="foregroundPage">
		<title>Pagina-1</title>
		<v:pageProperties v:drawingScale="0.0393701" v:pageScale="0.0393701" v:drawingUnits="24" v:shadowOffsetX="8.50394"
				v:shadowOffsetY="-8.50394"/>
		<g id="shape4041-1" v:mID="4041" v:groupContext="shape" transform="translate(363.731,268.452) rotate(90)">
			<title>Ligger, 2 pt.4041</title>
			<path d="M0 325.45 L23.51 325.45" class="st1"/>
		</g>
		<g id="shape3967-4" v:mID="3967" v:groupContext="shape" transform="translate(38.4535,-286.998)">
			<title>Ligger, 2 pt.3967</title>
			<path d="M0 325.45 L17.01 325.45" class="st1"/>
		</g>
		<g id="shape3968-7" v:mID="3968" v:groupContext="shape" transform="translate(625.225,-286.998)">
			<title>Ligger, 2 pt.3968</title>
			<path d="M0 325.45 L21.26 325.45" class="st1"/>
		</g>
		<g id="shape3969-10" v:mID="3969" v:groupContext="shape" transform="translate(363.905,38.4535) rotate(90)">
			<title>Ligger, 2 pt.3969</title>
			<path d="M0 325.45 L17.01 325.45" class="st1"/>
		</g>
		<g id="shape3979-13" v:mID="3979" v:groupContext="shape" transform="translate(-156.817,33.7234) rotate(-36.8699)">
			<title>Ligger, 2 pt.3979</title>
			<path d="M0 325.45 L27.59 325.45" class="st1"/>
		</g>
		<g id="shape3980-16" v:mID="3980" v:groupContext="shape" transform="translate(36.3275,-29.2409)">
			<title>Scharnier.3980</title>
			<ellipse cx="2.12598" cy="323.325" rx="2.12598" ry="2.12598" class="st2"/>
		</g>
		<g id="shape3981-18" v:mID="3981" v:groupContext="shape" transform="translate(363.905,294.084) rotate(90)">
			<title>Kracht.3981</title>
			<path d="M7.55 325.45 L7.91 325.45 L21.26 325.45" class="st3"/>
		</g>
		<g id="shape3982-24" v:mID="3982" v:groupContext="shape" transform="translate(695.973,38.4535) rotate(90)">
			<title>Kracht.3982</title>
			<path d="M7.55 325.45 L7.91 325.45 L21.26 325.45" class="st3"/>
		</g>
		<g id="shape3983-29" v:mID="3983" v:groupContext="shape" transform="translate(971.936,38.4535) rotate(90)">
			<title>Kracht.3983</title>
			<path d="M7.55 325.45 L7.91 325.45 L21.26 325.45" class="st3"/>
		</g>
		<g id="shape3984-34" v:mID="3984" v:groupContext="shape" transform="translate(667.745,363.905) rotate(180)">
			<title>Kracht.3984</title>
			<path d="M7.55 325.45 L7.91 325.45 L21.26 325.45" class="st3"/>
		</g>
		<g id="shape4033-39" v:mID="4033" v:groupContext="shape" transform="translate(83.8078,363.905) rotate(180)">
			<title>Kracht.4033</title>
			<path d="M7.55 325.45 L7.91 325.45 L28.35 325.45" class="st3"/>
		</g>
		<g id="shape4034-44" v:mID="4034" v:groupContext="shape" transform="translate(-269.99,66.7999) rotate(-90)">
			<title>Kracht.4034</title>
			<path d="M7.55 325.45 L7.91 325.45 L28.35 325.45" class="st3"/>
		</g>
		<g id="shape4035-49" v:mID="4035" v:groupContext="shape" transform="translate(380.912,52.6267) rotate(90) scale(-1,1)">
			<title>Moment.4035</title>
			<path d="M-0 325.45 A14.1732 14.1732 0 0 1 14.17 311.28 A14.1732 14.1732 0 0 1 26.14 317.86 L26.24 318.2" class="st5"/>
		</g>
		<g id="shape4036-55" v:mID="4036" v:groupContext="shape" transform="translate(80.9732,-272.824)">
			<title>Punt A.4036</title>
			<desc>3</desc>
			<v:textBlock v:margins="rect(4,4,4,4)" v:tabSpace="42.5197"/>
			<v:textRect cx="7.08661" cy="318.365" width="14.18" height="14.1732"/>
			<rect x="0" y="311.278" width="14.1732" height="14.1732" class="st6"/>
			<text x="4.09" y="321.96" class="st7" v:langID="1043"><v:paragraph v:horizAlign="1"/><v:tabList/>3</text>		</g>
		<g id="shape4037-58" v:mID="4037" v:groupContext="shape" transform="translate(52.6267,380.912) rotate(180)">
			<title>Moment.4037</title>
			<path d="M-0 325.45 A14.1732 14.1732 0 0 1 14.17 311.28 A14.1732 14.1732 0 0 1 26.14 317.86 L26.24 318.2" class="st5"/>
		</g>
		<g id="shape4038-63" v:mID="4038" v:groupContext="shape" transform="translate(-286.998,83.8078) rotate(-90)">
			<title>Kracht.4038</title>
			<path d="M7.55 325.45 L7.91 325.45 L28.35 325.45" class="st3"/>
		</g>
		<g id="shape4039-68" v:mID="4039" v:groupContext="shape" transform="translate(10.107,-269.99)">
			<title>Kracht.4039</title>
			<path d="M7.55 325.45 L7.91 325.45 L28.35 325.45" class="st3"/>
		</g>
		<g id="shape4040-73" v:mID="4040" v:groupContext="shape" transform="translate(17.1936,-231.722)">
			<title>Punt A.4040</title>
			<desc>3</desc>
			<v:textBlock v:margins="rect(4,4,4,4)" v:tabSpace="42.5197"/>
			<v:textRect cx="7.08661" cy="318.365" width="14.18" height="14.1732"/>
			<rect x="0" y="311.278" width="14.1732" height="14.1732" class="st6"/>
			<text x="4.09" y="321.96" class="st7" v:langID="1043"><v:paragraph v:horizAlign="1"/><v:tabList/>3</text>		</g>
		<g id="shape4046-76" v:mID="4046" v:groupContext="shape" transform="translate(363.905,239.713) rotate(90)">
			<title>Kracht.4046</title>
			<path d="M7.55 325.45 L7.91 325.45 L28.35 325.45" class="st3"/>
		</g>
		<g id="shape4047-81" v:mID="4047" v:groupContext="shape" transform="translate(66.7999,593.511) rotate(180)">
			<title>Kracht.4047</title>
			<path d="M7.55 325.45 L7.91 325.45 L28.35 325.45" class="st3"/>
		</g>
		<g id="shape4050-86" v:mID="4050" v:groupContext="shape" transform="translate(280.711,518.684) rotate(142.77)">
			<title>Kracht.4050</title>
			<path d="M7.55 325.45 L7.91 325.45 L28.48 325.45" class="st3"/>
		</g>
		<g id="shape4051-91" v:mID="4051" v:groupContext="shape" transform="translate(-167.375,510.248) rotate(-130.647)">
			<title>Kracht.4051</title>
			<path d="M7.55 325.45 L7.91 325.45 L28.29 325.45" class="st3"/>
		</g>
		<g id="shape4052-96" v:mID="4052" v:groupContext="shape" transform="translate(89.5134,-53.1394)">
			<title>Punt A.4052</title>
			<desc>2</desc>
			<v:textBlock v:margins="rect(4,4,4,4)" v:tabSpace="42.5197"/>
			<v:textRect cx="7.08661" cy="318.365" width="14.18" height="14.1732"/>
			<rect x="0" y="311.278" width="14.1732" height="14.1732" class="st6"/>
			<text x="4.09" y="321.96" class="st7" v:langID="1043"><v:paragraph v:horizAlign="1"/><v:tabList/>2</text>		</g>
		<g id="shape4053-99" v:mID="4053" v:groupContext="shape" transform="translate(330.822,-286.998) rotate(5.5475E-05)">
			<title>Ligger, 2 pt.4053</title>
			<path d="M0 325.45 L39.7 325.45" class="st1"/>
		</g>
		<g id="shape4054-102" v:mID="4054" v:groupContext="shape" transform="translate(156.693,-207.989) rotate(-36.8699)">
			<title>Ligger, 2 pt.4054</title>
			<path d="M0 325.45 L23.2 325.45" class="st1"/>
		</g>
		<g id="shape4055-105" v:mID="4055" v:groupContext="shape" transform="translate(370.522,-286.998)">
			<title>Ligger, 2 pt.4055</title>
			<path d="M0 325.45 L18.88 325.45" class="st1"/>
		</g>
		<g id="shape4056-108" v:mID="4056" v:groupContext="shape" transform="translate(5.37064,52.6267) rotate(-90)">
			<title>Moment.4056</title>
			<path d="M-0 325.45 A14.1732 14.1732 0 0 1 14.17 311.28 A14.1732 14.1732 0 0 1 26.14 317.86 L26.24 318.2" class="st5"/>
		</g>
		<g id="shape4057-113" v:mID="4057" v:groupContext="shape" transform="translate(302.475,-286.998)">
			<title>Kracht.4057</title>
			<path d="M7.55 325.45 L7.91 325.45 L28.35 325.45" class="st3"/>
		</g>
		<g id="shape4058-118" v:mID="4058" v:groupContext="shape" transform="translate(656.273,10.107) rotate(90)">
			<title>Kracht.4058</title>
			<path d="M7.55 325.45 L7.91 325.45 L28.35 325.45" class="st3"/>
		</g>
		<g id="shape4060-123" v:mID="4060" v:groupContext="shape" transform="translate(418.296,363.905) rotate(180)">
			<title>Kracht.4060</title>
			<path d="M7.55 325.45 L7.91 325.45 L28.35 325.45" class="st3"/>
		</g>
		<g id="shape4061-128" v:mID="4061" v:groupContext="shape" transform="translate(64.4984,66.7999) rotate(-90)">
			<title>Kracht.4061</title>
			<path d="M7.55 325.45 L7.91 325.45 L28.35 325.45" class="st3"/>
		</g>
		<g id="shape4062-133" v:mID="4062" v:groupContext="shape" transform="translate(715.401,52.6267) rotate(90) scale(-1,1)">
			<title>Moment.4062</title>
			<path d="M-0 325.45 A14.1732 14.1732 0 0 1 14.17 311.28 A14.1732 14.1732 0 0 1 26.14 317.86 L26.24 318.2" class="st5"/>
		</g>
		<g id="shape4063-138" v:mID="4063" v:groupContext="shape" transform="translate(421.131,-279.911)">
			<title>Punt A.4063</title>
			<desc>3</desc>
			<v:textBlock v:margins="rect(4,4,4,4)" v:tabSpace="42.5197"/>
			<v:textRect cx="7.08661" cy="318.365" width="14.18" height="14.1732"/>
			<rect x="0" y="311.278" width="14.1732" height="14.1732" class="st6"/>
			<text x="4.09" y="321.96" class="st7" v:langID="1043"><v:paragraph v:horizAlign="1"/><v:tabList/>3</text>		</g>
		<g id="shape4068-141" v:mID="4068" v:groupContext="shape" transform="translate(110.715,273.135) rotate(-130)">
			<title>Moment.4068</title>
			<path d="M-0 325.45 A14.1732 14.1732 0 0 1 14.17 311.28 A14.1732 14.1732 0 0 1 26.14 317.86 L26.24 318.2" class="st5"/>
		</g>
		<g id="shape4069-146" v:mID="4069" v:groupContext="shape" transform="translate(120.59,-178.5) rotate(-40)">
			<title>Kracht.4069</title>
			<path d="M7.55 325.45 L7.91 325.45 L27.58 325.45" class="st3"/>
		</g>
		<g id="shape4070-151" v:mID="4070" v:groupContext="shape" transform="translate(582.004,-177.829) rotate(50)">
			<title>Kracht.4070</title>
			<path d="M7.55 325.45 L7.91 325.45 L28.35 325.45" class="st3"/>
		</g>
		<g id="shape4072-156" v:mID="4072" v:groupContext="shape" transform="translate(367.054,-254.472)">
			<title>Punt A.4072</title>
			<desc>1</desc>
			<v:textBlock v:margins="rect(4,4,4,4)" v:tabSpace="42.5197"/>
			<v:textRect cx="7.08661" cy="318.365" width="14.18" height="14.1732"/>
			<rect x="0" y="311.278" width="14.1732" height="14.1732" class="st6"/>
			<text x="4.09" y="321.96" class="st7" v:langID="1043"><v:paragraph v:horizAlign="1"/><v:tabList/>1</text>		</g>
		<g id="shape4073-159" v:mID="4073" v:groupContext="shape" transform="translate(41.5425,-7.018)">
			<title>Punt A.4073</title>
			<desc>1</desc>
			<v:textBlock v:margins="rect(4,4,4,4)" v:tabSpace="42.5197"/>
			<v:textRect cx="7.08661" cy="318.365" width="14.18" height="14.1732"/>
			<rect x="0" y="311.278" width="14.1732" height="14.1732" class="st6"/>
			<text x="4.09" y="321.96" class="st7" v:langID="1043"><v:paragraph v:horizAlign="1"/><v:tabList/>1</text>		</g>
		<g id="shape4074-162" v:mID="4074" v:groupContext="shape" transform="translate(598.176,-286.998)">
			<title>Kracht.4074</title>
			<path d="M7.55 325.45 L7.91 325.45 L28.35 325.45" class="st3"/>
		</g>
		<g id="shape4075-167" v:mID="4075" v:groupContext="shape" transform="translate(951.974,10.107) rotate(90)">
			<title>Kracht.4075</title>
			<path d="M7.55 325.45 L7.91 325.45 L28.35 325.45" class="st3"/>
		</g>
		<g id="shape4077-172" v:mID="4077" v:groupContext="shape" transform="translate(650.707,-257.943)">
			<title>Punt A.4077</title>
			<desc>2</desc>
			<v:textBlock v:margins="rect(4,4,4,4)" v:tabSpace="42.5197"/>
			<v:textRect cx="7.08661" cy="318.365" width="14.18" height="14.1732"/>
			<rect x="0" y="311.278" width="14.1732" height="14.1732" class="st6"/>
			<text x="4.09" y="321.96" class="st7" v:langID="1043"><v:paragraph v:horizAlign="1"/><v:tabList/>2</text>		</g>
		<g id="shape4078-175" v:mID="4078" v:groupContext="shape" transform="translate(363.905,118.813) rotate(90)">
			<title>Ligger, 2 pt.4078</title>
			<path d="M0 325.45 L85.04 325.45" class="st1"/>
		</g>
		<g id="shape4079-178" v:mID="4079" v:groupContext="shape" transform="translate(-286.998,234.044) rotate(-90)">
			<title>Kracht.4079</title>
			<path d="M7.55 325.45 L7.91 325.45 L28.35 325.45" class="st3"/>
		</g>
		<g id="shape4080-183" v:mID="4080" v:groupContext="shape" transform="translate(10.107,-119.754)">
			<title>Kracht.4080</title>
			<path d="M7.55 325.45 L7.91 325.45 L28.35 325.45" class="st3"/>
		</g>
		<g id="shape4081-188" v:mID="4081" v:groupContext="shape" transform="translate(24.2803,-81.4858)">
			<title>Punt A.4081</title>
			<desc>2</desc>
			<v:textBlock v:margins="rect(4,4,4,4)" v:tabSpace="42.5197"/>
			<v:textRect cx="7.08661" cy="318.365" width="14.18" height="14.1732"/>
			<rect x="0" y="311.278" width="14.1732" height="14.1732" class="st6"/>
			<text x="4.09" y="321.96" class="st7" v:langID="1043"><v:paragraph v:horizAlign="1"/><v:tabList/>2</text>		</g>
		<g id="shape4082-191" v:mID="4082" v:groupContext="shape" transform="translate(52.6267,-207.628) scale(-1,1)">
			<title>Moment.4082</title>
			<path d="M-0 325.45 A14.1732 14.1732 0 0 1 14.17 311.28 A14.1732 14.1732 0 0 1 26.14 317.86 L26.24 318.2" class="st5"/>
		</g>
		<g id="shape4083-196" v:mID="4083" v:groupContext="shape" transform="translate(363.905,89.4771) rotate(90)">
			<title>Kracht.4083</title>
			<path d="M7.55 325.45 L7.91 325.45 L28.35 325.45" class="st3"/>
		</g>
		<g id="shape4084-201" v:mID="4084" v:groupContext="shape" transform="translate(66.7999,443.275) rotate(180)">
			<title>Kracht.4084</title>
			<path d="M7.55 325.45 L7.91 325.45 L28.35 325.45" class="st3"/>
		</g>
		<g id="shape4086-206" v:mID="4086" v:groupContext="shape" transform="translate(-77.6288,-24.9053) rotate(-36.8699)">
			<title>Ligger, 2 pt.4086</title>
			<path d="M0 325.45 L220.68 325.45" class="st1"/>
		</g>
		<g id="shape4087-209" v:mID="4087" v:groupContext="shape" transform="translate(-101.939,-6.44096) rotate(-37.2301)">
			<title>Kracht.4087</title>
			<path d="M7.55 325.45 L7.91 325.45 L28.48 325.45" class="st3"/>
		</g>
		<g id="shape4088-214" v:mID="4088" v:groupContext="shape" transform="translate(346.148,1.9954) rotate(49.3527)">
			<title>Kracht.4088</title>
			<path d="M7.55 325.45 L7.91 325.45 L28.29 325.45" class="st3"/>
		</g>
		<g id="shape4094-219" v:mID="4094" v:groupContext="shape" transform="translate(511.317,347.013) rotate(143.13)">
			<title>Kracht.4094</title>
			<path d="M7.55 325.45 L7.91 325.45 L27.33 325.45" class="st3"/>
		</g>
		<g id="shape4095-224" v:mID="4095" v:groupContext="shape" transform="translate(63.0945,333.96) rotate(-130)">
			<title>Kracht.4095</title>
			<path d="M7.55 325.45 L7.91 325.45 L28.35 325.45" class="st3"/>
		</g>
		<g id="shape4096-229" v:mID="4096" v:groupContext="shape" transform="translate(310.289,-240.299)">
			<title>Punt A.4096</title>
			<desc>3</desc>
			<v:textBlock v:margins="rect(4,4,4,4)" v:tabSpace="42.5197"/>
			<v:textRect cx="7.08661" cy="318.365" width="14.18" height="14.1732"/>
			<rect x="0" y="311.278" width="14.1732" height="14.1732" class="st6"/>
			<text x="4.09" y="321.96" class="st7" v:langID="1043"><v:paragraph v:horizAlign="1"/><v:tabList/>3</text>		</g>
		<g id="shape4098-232" v:mID="4098" v:groupContext="shape" transform="translate(535.022,-117.704) rotate(45) scale(-1,1)">
			<title>Moment.4098</title>
			<path d="M-0 325.45 A14.1732 14.1732 0 0 1 14.17 311.28 A14.1732 14.1732 0 0 1 26.14 317.86 L26.24 318.2" class="st5"/>
		</g>
		<g id="shape4099-237" v:mID="4099" v:groupContext="shape" transform="translate(127.585,-286.998)">
			<title>Ligger, 2 pt.4099</title>
			<path d="M0 325.45 L123.47 325.45" class="st1"/>
		</g>
		<g id="shape4100-240" v:mID="4100" v:groupContext="shape" transform="translate(-199.124,52.6267) rotate(-90)">
			<title>Moment.4100</title>
			<path d="M-0 325.45 A14.1732 14.1732 0 0 1 14.17 311.28 A14.1732 14.1732 0 0 1 26.14 317.86 L26.24 318.2" class="st5"/>
		</g>
		<g id="shape4101-245" v:mID="4101" v:groupContext="shape" transform="translate(97.9811,-286.998)">
			<title>Kracht.4101</title>
			<path d="M7.55 325.45 L7.91 325.45 L28.35 325.45" class="st3"/>
		</g>
		<g id="shape4102-250" v:mID="4102" v:groupContext="shape" transform="translate(451.779,10.107) rotate(90)">
			<title>Kracht.4102</title>
			<path d="M7.55 325.45 L7.91 325.45 L28.35 325.45" class="st3"/>
		</g>
		<g id="shape4104-255" v:mID="4104" v:groupContext="shape" transform="translate(279.398,363.905) rotate(180)">
			<title>Kracht.4104</title>
			<path d="M7.55 325.45 L7.91 325.45 L28.35 325.45" class="st3"/>
		</g>
		<g id="shape4105-260" v:mID="4105" v:groupContext="shape" transform="translate(-74.3992,66.7999) rotate(-90)">
			<title>Kracht.4105</title>
			<path d="M7.55 325.45 L7.91 325.45 L28.35 325.45" class="st3"/>
		</g>
		<g id="shape4106-265" v:mID="4106" v:groupContext="shape" transform="translate(576.503,52.6267) rotate(90) scale(-1,1)">
			<title>Moment.4106</title>
			<path d="M-0 325.45 A14.1732 14.1732 0 0 1 14.17 311.28 A14.1732 14.1732 0 0 1 26.14 317.86 L26.24 318.2" class="st5"/>
		</g>
		<g id="shape4107-270" v:mID="4107" v:groupContext="shape" transform="translate(284.85,-276.64)">
			<title>Punt A.4107</title>
			<desc>3</desc>
			<v:textBlock v:margins="rect(4,4,4,4)" v:tabSpace="42.5197"/>
			<v:textRect cx="7.08661" cy="318.365" width="14.18" height="14.1732"/>
			<rect x="0" y="311.278" width="14.1732" height="14.1732" class="st6"/>
			<text x="4.09" y="321.96" class="st7" v:langID="1043"><v:paragraph v:horizAlign="1"/><v:tabList/>3</text>		</g>
		<g id="shape4108-273" v:mID="4108" v:groupContext="shape" transform="translate(463.65,-286.998)">
			<title>Ligger, 2 pt.4108</title>
			<path d="M0 325.45 L85.04 325.45" class="st1"/>
		</g>
		<g id="shape4118-276" v:mID="4118" v:groupContext="shape" transform="translate(138.199,52.6267) rotate(-90)">
			<title>Moment.4118</title>
			<path d="M-0 325.45 A14.1732 14.1732 0 0 1 14.17 311.28 A14.1732 14.1732 0 0 1 26.14 317.86 L26.24 318.2" class="st5"/>
		</g>
		<g id="shape4119-281" v:mID="4119" v:groupContext="shape" transform="translate(435.304,-286.998)">
			<title>Kracht.4119</title>
			<path d="M7.55 325.45 L7.91 325.45 L28.35 325.45" class="st3"/>
		</g>
		<g id="shape4120-286" v:mID="4120" v:groupContext="shape" transform="translate(789.101,10.107) rotate(90)">
			<title>Kracht.4120</title>
			<path d="M7.55 325.45 L7.91 325.45 L28.35 325.45" class="st3"/>
		</g>
		<g id="shape4124-291" v:mID="4124" v:groupContext="shape" transform="translate(874.141,66.7999) rotate(90) scale(-1,1)">
			<title>Kracht.4124</title>
			<path d="M7.55 325.45 L7.91 325.45 L28.35 325.45" class="st3"/>
		</g>
		<g id="shape4125-296" v:mID="4125" v:groupContext="shape" transform="translate(577.036,-286.998) scale(-1,1)">
			<title>Kracht.4125</title>
			<path d="M7.55 325.45 L7.91 325.45 L28.35 325.45" class="st3"/>
		</g>
		<g id="shape4126-301" v:mID="4126" v:groupContext="shape" transform="translate(578.453,-279.911)">
			<title>Punt A.4126</title>
			<desc>2</desc>
			<v:textBlock v:margins="rect(4,4,4,4)" v:tabSpace="42.5197"/>
			<v:textRect cx="7.08661" cy="318.365" width="14.18" height="14.1732"/>
			<rect x="0" y="311.278" width="14.1732" height="14.1732" class="st6"/>
			<text x="4.09" y="321.96" class="st7" v:langID="1043"><v:paragraph v:horizAlign="1"/><v:tabList/>2</text>		</g>
		<g id="group4214-304" transform="translate(463.65,-286.998)" v:mID="4214" v:groupContext="group">
			<title>q-last constnt.4214</title>
			<g id="group4215-305" v:mID="4215" v:groupContext="group">
				<title>q-last, recht.51</title>
				<g id="shape4216-306" v:mID="4216" v:groupContext="shape" transform="translate(325.451,311.278) rotate(90)">
					<title>Kracht.5</title>
					<path d="M0 325.45 L9.55 325.45" class="st8"/>
				</g>
				<g id="shape4217-312" v:mID="4217" v:groupContext="shape" transform="translate(1.59872E-14,-14.1732)">
					<title>Blad.4217</title>
					<path d="M0 325.45 L85.04 325.45" class="st10"/>
				</g>
				<g id="shape4218-315" v:mID="4218" v:groupContext="shape" transform="translate(340.913,311.278) rotate(90)">
					<title>Kracht.4</title>
					<path d="M0 325.45 L9.55 325.45" class="st8"/>
				</g>
				<g id="shape4219-320" v:mID="4219" v:groupContext="shape" transform="translate(356.375,311.278) rotate(90)">
					<title>Kracht.9</title>
					<path d="M0 325.45 L9.55 325.45" class="st8"/>
				</g>
				<g id="shape4220-325" v:mID="4220" v:groupContext="shape" transform="translate(410.49,311.278) rotate(90)">
					<title>Kracht.6</title>
					<path d="M0 325.45 L9.55 325.45" class="st8"/>
				</g>
				<g id="shape4221-330" v:mID="4221" v:groupContext="shape" transform="translate(395.029,311.278) rotate(90)">
					<title>Kracht.7</title>
					<path d="M0 325.45 L9.55 325.45" class="st8"/>
				</g>
			</g>
		</g>
	</g>
</svg>
