<?xml version="1.0" encoding="UTF-8" standalone="no"?>
<!DOCTYPE svg PUBLIC "-//W3C//DTD SVG 1.1//EN" "http://www.w3.org/Graphics/SVG/1.1/DTD/svg11.dtd">
<!-- Gegenereerd door Microsoft Visio, SVG Export Oplosmethode_optie3.svg Pagina-1 -->
<svg xmlns="http://www.w3.org/2000/svg" xmlns:xlink="http://www.w3.org/1999/xlink" xmlns:ev="http://www.w3.org/2001/xml-events"
		xmlns:v="http://schemas.microsoft.com/visio/2003/SVGExtensions/" width="3.23613in" height="1.95398in"
		viewBox="0 0 233.002 140.686" xml:space="preserve" color-interpolation-filters="sRGB" class="st8">
	<v:documentProperties v:langID="1043" v:metric="true" v:viewMarkup="false"/>

	<style type="text/css">
	<![CDATA[
		.st1 {stroke:#000000;stroke-linecap:round;stroke-linejoin:round;stroke-width:2}
		.st2 {fill:#00cc99;stroke:#000000;stroke-linecap:round;stroke-linejoin:round;stroke-width:0.75}
		.st3 {stroke:#000000;stroke-linecap:round;stroke-linejoin:round;stroke-width:0.75}
		.st4 {fill:#ffffff;stroke:#000000;stroke-linecap:round;stroke-linejoin:round;stroke-width:0.75}
		.st5 {marker-start:url(#mrkr5-46);stroke:#800000;stroke-linecap:round;stroke-linejoin:round;stroke-width:2}
		.st6 {fill:#800000;fill-opacity:1;stroke:#800000;stroke-opacity:1;stroke-width:0.44247787610619}
		.st7 {marker-end:url(#mrkr5-52);stroke:#800000;stroke-linecap:round;stroke-linejoin:round;stroke-width:2}
		.st8 {fill:none;fill-rule:evenodd;font-size:12px;overflow:visible;stroke-linecap:square;stroke-miterlimit:3}
	]]>
	</style>

	<defs id="Markers">
		<g id="lend5">
			<path d="M 2 1 L 0 0 L 1.98117 -0.993388 C 1.67173 -0.364516 1.67301 0.37264 1.98465 1.00043 " style="stroke:none"/>
		</g>
		<marker id="mrkr5-46" class="st6" v:arrowType="5" v:arrowSize="2" v:setback="3.775" refX="3.775" orient="auto"
				markerUnits="strokeWidth" overflow="visible">
			<use xlink:href="#lend5" transform="scale(2.26) "/>
		</marker>
		<marker id="mrkr5-52" class="st6" v:arrowType="5" v:arrowSize="2" v:setback="3.775" refX="-3.775" orient="auto"
				markerUnits="strokeWidth" overflow="visible">
			<use xlink:href="#lend5" transform="scale(-2.26,-2.26) "/>
		</marker>
	</defs>
	<g v:mID="0" v:index="1" v:groupContext="foregroundPage">
		<title>Pagina-1</title>
		<v:pageProperties v:drawingScale="0.0393701" v:pageScale="0.0393701" v:drawingUnits="24" v:shadowOffsetX="8.50394"
				v:shadowOffsetY="-8.50394"/>
		<g id="shape2661-1" v:mID="2661" v:groupContext="shape" transform="translate(24.2802,-116.406)">
			<title>Ligger, 2 pt.2661</title>
			<path d="M0 140.69 L113.39 140.69" class="st1"/>
		</g>
		<g id="group2662-4" transform="translate(127.745,-102.233)" v:mID="2662" v:groupContext="group">
			<title>Rol.2662</title>
			<g id="group2663-5" transform="translate(0.261477,-2.83465)" v:mID="2663" v:groupContext="group">
				<title>Scharnier</title>
				<g id="shape2664-6" v:mID="2664" v:groupContext="shape" transform="translate(2.79729,0)">
					<title>Blad.2664</title>
					<path d="M0 140.69 L13.99 140.69 L6.99 129.35 L0 140.69 Z" class="st2"/>
				</g>
				<g id="shape2665-8" v:mID="2665" v:groupContext="shape" transform="translate(2.79729,281.373) rotate(180)">
					<title>Blad.2665</title>
					<path d="M0 140.69 L2.8 140.69" class="st3"/>
				</g>
				<g id="shape2666-11" v:mID="2666" v:groupContext="shape" transform="translate(16.7838,0)">
					<title>Blad.2666</title>
					<path d="M0 140.69 L2.8 140.69" class="st3"/>
				</g>
			</g>
			<g id="shape2667-14" v:mID="2667" v:groupContext="shape">
				<title>Blad.2667</title>
				<path d="M0 140.69 L19.84 140.69" class="st3"/>
			</g>
		</g>
		<g id="shape2668-17" v:mID="2668" v:groupContext="shape" transform="translate(137.666,-116.406)">
			<title>Ligger, 2 pt.2668</title>
			<path d="M0 140.69 L85.04 140.69" class="st1"/>
		</g>
		<g id="group2669-20" transform="translate(212.784,-105.068)" v:mID="2669" v:groupContext="group">
			<title>Scharnieroplegging.2669</title>
			<g id="shape2670-21" v:mID="2670" v:groupContext="shape" transform="translate(2.83465,0)">
				<title>Blad.2670</title>
				<path d="M0 140.69 L14.17 140.69 L7.09 129.35 L0 140.69 Z" class="st2"/>
			</g>
			<g id="shape2671-23" v:mID="2671" v:groupContext="shape" transform="translate(2.83465,281.373) rotate(180)">
				<title>Blad.2671</title>
				<path d="M0 140.69 L2.83 140.69" class="st3"/>
			</g>
			<g id="shape2672-26" v:mID="2672" v:groupContext="shape" transform="translate(17.0079,0)">
				<title>Blad.2672</title>
				<path d="M0 140.69 L2.83 140.69" class="st3"/>
			</g>
		</g>
		<g id="shape2673-29" v:mID="2673" v:groupContext="shape" transform="translate(164.967,24.2803) rotate(90)">
			<title>Ligger, 2 pt.2673</title>
			<path d="M0 140.69 L85.04 140.69" class="st1"/>
		</g>
		<g id="shape2682-32" v:mID="2682" v:groupContext="shape" transform="translate(-60.1317,-3.22956) rotate(-36.8699)">
			<title>Ligger, 2 pt.2682</title>
			<path d="M0 140.69 L141.73 140.69" class="st1"/>
		</g>
		<g id="shape2683-35" v:mID="2683" v:groupContext="shape" transform="translate(22.1542,-29.2409)">
			<title>Scharnier.2683</title>
			<ellipse cx="2.12598" cy="138.561" rx="2.12598" ry="2.12598" class="st4"/>
		</g>
		<g id="shape2687-37" v:mID="2687" v:groupContext="shape" transform="translate(124.201,-105.776)">
			<title>Scharnier.2687</title>
			<ellipse cx="2.12598" cy="138.561" rx="2.12598" ry="2.12598" class="st4"/>
		</g>
		<g id="shape2688-39" v:mID="2688" v:groupContext="shape" transform="translate(22.1542,-114.28)">
			<title>Scharnier.2688</title>
			<ellipse cx="2.12598" cy="138.561" rx="2.12598" ry="2.12598" class="st4"/>
		</g>
		<g id="shape2689-41" v:mID="2689" v:groupContext="shape" transform="translate(164.967,109.32) rotate(90)">
			<title>Kracht</title>
			<path d="M7.55 140.69 L7.91 140.69 L21.26 140.69" class="st5"/>
		</g>
		<g id="shape2805-47" v:mID="2805" v:groupContext="shape" transform="translate(-95.1463,38.4535) rotate(-90)">
			<title>Moment.2805</title>
			<path d="M-0 140.69 A14.1732 14.1732 0 0 1 14.17 126.51 A14.1732 14.1732 0 0 1 26.14 133.09 L26.24 133.44" class="st7"/>
		</g>
		<g id="shape2806-53" v:mID="2806" v:groupContext="shape" transform="translate(38.4535,-95.1464) scale(-1,1)">
			<title>Moment.2806</title>
			<path d="M-0 140.69 A14.1732 14.1732 0 0 1 14.17 126.51 A14.1732 14.1732 0 0 1 26.14 133.09 L26.24 133.44" class="st7"/>
		</g>
		<g id="shape3789-58" v:mID="3789" v:groupContext="shape" transform="translate(215.066,-51.6277) rotate(53.1301)">
			<title>Moment.3789</title>
			<path d="M-0 140.69 A14.1732 14.1732 0 0 1 14.17 126.51 A14.1732 14.1732 0 0 1 26.14 133.09 L26.24 133.44" class="st7"/>
		</g>
		<g id="shape3790-63" v:mID="3790" v:groupContext="shape" transform="translate(20.5814,94.8024) rotate(53.1301) scale(1,-1)">
			<title>Moment.3790</title>
			<path d="M-0 140.69 A14.1732 14.1732 0 0 1 14.17 126.51 A14.1732 14.1732 0 0 1 26.14 133.09 L26.24 133.44" class="st7"/>
		</g>
	</g>
</svg>
