<?xml version="1.0" encoding="UTF-8" standalone="no"?>
<!DOCTYPE svg PUBLIC "-//W3C//DTD SVG 1.1//EN" "http://www.w3.org/Graphics/SVG/1.1/DTD/svg11.dtd">
<!-- Gegenereerd door Microsoft Visio, SVG Export Oplosmethode_optie5.svg Pagina-1 -->
<svg xmlns="http://www.w3.org/2000/svg" xmlns:xlink="http://www.w3.org/1999/xlink" xmlns:ev="http://www.w3.org/2001/xml-events"
		xmlns:v="http://schemas.microsoft.com/visio/2003/SVGExtensions/" width="3.10097in" height="1.72039in"
		viewBox="0 0 223.27 123.868" xml:space="preserve" color-interpolation-filters="sRGB" class="st8">
	<v:documentProperties v:langID="1043" v:metric="true" v:viewMarkup="false"/>

	<style type="text/css">
	<![CDATA[
		.st1 {fill:#00cc99;stroke:#000000;stroke-linecap:round;stroke-linejoin:round;stroke-width:0.75}
		.st2 {stroke:#000000;stroke-linecap:round;stroke-linejoin:round;stroke-width:0.75}
		.st3 {stroke:#000000;stroke-linecap:round;stroke-linejoin:round;stroke-width:2}
		.st4 {fill:#ffffff;stroke:#000000;stroke-linecap:round;stroke-linejoin:round;stroke-width:0.75}
		.st5 {marker-start:url(#mrkr5-61);stroke:#800000;stroke-linecap:round;stroke-linejoin:round;stroke-width:2}
		.st6 {fill:#800000;fill-opacity:1;stroke:#800000;stroke-opacity:1;stroke-width:0.44247787610619}
		.st7 {marker-end:url(#mrkr5-67);stroke:#800000;stroke-linecap:round;stroke-linejoin:round;stroke-width:2}
		.st8 {fill:none;fill-rule:evenodd;font-size:12px;overflow:visible;stroke-linecap:square;stroke-miterlimit:3}
	]]>
	</style>

	<defs id="Markers">
		<g id="lend5">
			<path d="M 2 1 L 0 0 L 1.98117 -0.993388 C 1.67173 -0.364516 1.67301 0.37264 1.98465 1.00043 " style="stroke:none"/>
		</g>
		<marker id="mrkr5-61" class="st6" v:arrowType="5" v:arrowSize="2" v:setback="3.775" refX="3.775" orient="auto"
				markerUnits="strokeWidth" overflow="visible">
			<use xlink:href="#lend5" transform="scale(2.26) "/>
		</marker>
		<marker id="mrkr5-67" class="st6" v:arrowType="5" v:arrowSize="2" v:setback="3.775" refX="-3.775" orient="auto"
				markerUnits="strokeWidth" overflow="visible">
			<use xlink:href="#lend5" transform="scale(-2.26,-2.26) "/>
		</marker>
	</defs>
	<g v:mID="0" v:index="1" v:groupContext="foregroundPage">
		<title>Pagina-1</title>
		<v:pageProperties v:drawingScale="0.0393701" v:pageScale="0.0393701" v:drawingUnits="24" v:shadowOffsetX="8.50394"
				v:shadowOffsetY="-8.50394"/>
		<g id="group2770-1" transform="translate(0.375,-0.375)" v:mID="2770" v:groupContext="group">
			<title>Rol.2770</title>
			<g id="group2771-2" transform="translate(0.261477,-2.83465)" v:mID="2771" v:groupContext="group">
				<title>Scharnier</title>
				<g id="shape2772-3" v:mID="2772" v:groupContext="shape" transform="translate(2.79729,0)">
					<title>Blad.2772</title>
					<path d="M0 123.87 L13.99 123.87 L6.99 112.53 L0 123.87 Z" class="st1"/>
				</g>
				<g id="shape2773-5" v:mID="2773" v:groupContext="shape" transform="translate(2.79729,247.736) rotate(180)">
					<title>Blad.2773</title>
					<path d="M0 123.87 L2.8 123.87" class="st2"/>
				</g>
				<g id="shape2774-8" v:mID="2774" v:groupContext="shape" transform="translate(16.7838,0)">
					<title>Blad.2774</title>
					<path d="M0 123.87 L2.8 123.87" class="st2"/>
				</g>
			</g>
			<g id="shape2775-11" v:mID="2775" v:groupContext="shape">
				<title>Blad.2775</title>
				<path d="M0 123.87 L19.84 123.87" class="st2"/>
			</g>
		</g>
		<g id="shape2776-14" v:mID="2776" v:groupContext="shape" transform="translate(10.2963,-99.5875)">
			<title>Ligger, 2 pt.2776</title>
			<path d="M0 123.87 L113.39 123.87" class="st3"/>
		</g>
		<g id="group2777-17" transform="translate(113.761,-85.4143)" v:mID="2777" v:groupContext="group">
			<title>Rol.2777</title>
			<g id="group2778-18" transform="translate(0.261477,-2.83465)" v:mID="2778" v:groupContext="group">
				<title>Scharnier</title>
				<g id="shape2779-19" v:mID="2779" v:groupContext="shape" transform="translate(2.79729,0)">
					<title>Blad.2779</title>
					<path d="M0 123.87 L13.99 123.87 L6.99 112.53 L0 123.87 Z" class="st1"/>
				</g>
				<g id="shape2780-21" v:mID="2780" v:groupContext="shape" transform="translate(2.79729,247.736) rotate(180)">
					<title>Blad.2780</title>
					<path d="M0 123.87 L2.8 123.87" class="st2"/>
				</g>
				<g id="shape2781-24" v:mID="2781" v:groupContext="shape" transform="translate(16.7838,0)">
					<title>Blad.2781</title>
					<path d="M0 123.87 L2.8 123.87" class="st2"/>
				</g>
			</g>
			<g id="shape2782-27" v:mID="2782" v:groupContext="shape">
				<title>Blad.2782</title>
				<path d="M0 123.87 L19.84 123.87" class="st2"/>
			</g>
		</g>
		<g id="shape2783-30" v:mID="2783" v:groupContext="shape" transform="translate(123.682,-99.5875)">
			<title>Ligger, 2 pt.2783</title>
			<path d="M0 123.87 L85.04 123.87" class="st3"/>
		</g>
		<g id="shape2784-33" v:mID="2784" v:groupContext="shape" transform="translate(134.164,24.2803) rotate(90)">
			<title>Ligger, 2 pt.2784</title>
			<path d="M0 123.87 L85.04 123.87" class="st3"/>
		</g>
		<g id="shape2785-36" v:mID="2785" v:groupContext="shape" transform="translate(-64.0244,10.2254) rotate(-36.8699)">
			<title>Ligger, 2 pt.2785</title>
			<path d="M0 123.87 L141.73 123.87" class="st3"/>
		</g>
		<g id="shape2786-39" v:mID="2786" v:groupContext="shape" transform="translate(8.17028,-12.4222)">
			<title>Scharnier.2786</title>
			<ellipse cx="2.12598" cy="121.742" rx="2.12598" ry="2.12598" class="st4"/>
		</g>
		<g id="shape2788-41" v:mID="2788" v:groupContext="shape" transform="translate(121.556,-97.4616)">
			<title>Scharnier.2788</title>
			<ellipse cx="2.12598" cy="121.742" rx="2.12598" ry="2.12598" class="st4"/>
		</g>
		<g id="group2794-43" transform="translate(99.027,34.2015) rotate(-90)" v:mID="2794" v:groupContext="group">
			<title>Rol.2794</title>
			<g id="group2795-44" transform="translate(0.261477,-2.83465)" v:mID="2795" v:groupContext="group">
				<title>Scharnier</title>
				<g id="shape2796-45" v:mID="2796" v:groupContext="shape" transform="translate(2.79729,0)">
					<title>Blad.2796</title>
					<path d="M0 123.87 L13.99 123.87 L6.99 112.53 L0 123.87 Z" class="st1"/>
				</g>
				<g id="shape2797-47" v:mID="2797" v:groupContext="shape" transform="translate(2.79729,247.736) rotate(180)">
					<title>Blad.2797</title>
					<path d="M0 123.87 L2.8 123.87" class="st2"/>
				</g>
				<g id="shape2798-50" v:mID="2798" v:groupContext="shape" transform="translate(16.7838,0)">
					<title>Blad.2798</title>
					<path d="M0 123.87 L2.8 123.87" class="st2"/>
				</g>
			</g>
			<g id="shape2799-53" v:mID="2799" v:groupContext="shape">
				<title>Blad.2799</title>
				<path d="M0 123.87 L19.84 123.87" class="st2"/>
			</g>
		</g>
		<g id="shape2800-56" v:mID="2800" v:groupContext="shape" transform="translate(332.589,24.2803) rotate(90)">
			<title>Kracht.2800</title>
			<path d="M7.55 123.87 L7.91 123.87 L28.35 123.87" class="st5"/>
		</g>
		<g id="shape3793-62" v:mID="3793" v:groupContext="shape" transform="translate(21.0741,38.4535) rotate(-90)">
			<title>Moment.3793</title>
			<path d="M-0 123.87 A14.1732 14.1732 0 0 1 14.17 109.69 A14.1732 14.1732 0 0 1 26.14 116.27 L26.24 116.62" class="st7"/>
		</g>
		<g id="shape3794-68" v:mID="3794" v:groupContext="shape" transform="translate(226.29,38.4535) rotate(90) scale(-1,1)">
			<title>Moment.3794</title>
			<path d="M-0 123.87 A14.1732 14.1732 0 0 1 14.17 109.69 A14.1732 14.1732 0 0 1 26.14 116.27 L26.24 116.62" class="st7"/>
		</g>
		<g id="shape3795-73" v:mID="3795" v:groupContext="shape" transform="translate(197.265,-48.6231) rotate(53.1301)">
			<title>Moment.3795</title>
			<path d="M-0 123.87 A14.1732 14.1732 0 0 1 14.17 109.69 A14.1732 14.1732 0 0 1 26.14 116.27 L26.24 116.62" class="st7"/>
		</g>
	</g>
</svg>
