<?xml version="1.0" encoding="UTF-8" standalone="no"?>
<!DOCTYPE svg PUBLIC "-//W3C//DTD SVG 1.1//EN" "http://www.w3.org/Graphics/SVG/1.1/DTD/svg11.dtd">
<!-- Gegenereerd door Microsoft Visio, SVG Export Oplosmethode_optie1.svg Pagina-1 -->
<svg xmlns="http://www.w3.org/2000/svg" xmlns:xlink="http://www.w3.org/1999/xlink" xmlns:ev="http://www.w3.org/2001/xml-events"
		xmlns:v="http://schemas.microsoft.com/visio/2003/SVGExtensions/" width="3.23614in" height="1.72039in"
		viewBox="0 0 233.002 123.868" xml:space="preserve" color-interpolation-filters="sRGB" class="st7">
	<v:documentProperties v:langID="1043" v:metric="true" v:viewMarkup="false"/>

	<style type="text/css">
	<![CDATA[
		.st1 {fill:#00cc99;stroke:#000000;stroke-linecap:round;stroke-linejoin:round;stroke-width:0.75}
		.st2 {stroke:#000000;stroke-linecap:round;stroke-linejoin:round;stroke-width:0.75}
		.st3 {stroke:#000000;stroke-linecap:round;stroke-linejoin:round;stroke-width:2}
		.st4 {fill:#ffffff;stroke:#000000;stroke-linecap:round;stroke-linejoin:round;stroke-width:0.75}
		.st5 {marker-end:url(#mrkr5-61);stroke:#800000;stroke-linecap:round;stroke-linejoin:round;stroke-width:2}
		.st6 {fill:#800000;fill-opacity:1;stroke:#800000;stroke-opacity:1;stroke-width:0.44247787610619}
		.st7 {fill:none;fill-rule:evenodd;font-size:12px;overflow:visible;stroke-linecap:square;stroke-miterlimit:3}
	]]>
	</style>

	<defs id="Markers">
		<g id="lend5">
			<path d="M 2 1 L 0 0 L 1.98117 -0.993388 C 1.67173 -0.364516 1.67301 0.37264 1.98465 1.00043 " style="stroke:none"/>
		</g>
		<marker id="mrkr5-61" class="st6" v:arrowType="5" v:arrowSize="2" v:setback="3.775" refX="-3.775" orient="auto"
				markerUnits="strokeWidth" overflow="visible">
			<use xlink:href="#lend5" transform="scale(-2.26,-2.26) "/>
		</marker>
	</defs>
	<g v:mID="0" v:index="1" v:groupContext="foregroundPage">
		<title>Pagina-1</title>
		<v:pageProperties v:drawingScale="0.0393701" v:pageScale="0.0393701" v:drawingUnits="24" v:shadowOffsetX="8.50394"
				v:shadowOffsetY="-8.50394"/>
		<g id="group2590-1" transform="translate(14.359,-0.375)" v:mID="2590" v:groupContext="group">
			<title>Rol.2590</title>
			<g id="group2591-2" transform="translate(0.261477,-2.83465)" v:mID="2591" v:groupContext="group">
				<title>Scharnier</title>
				<g id="shape2592-3" v:mID="2592" v:groupContext="shape" transform="translate(2.79729,1.42109E-14)">
					<title>Blad.2592</title>
					<path d="M0 123.87 L13.99 123.87 L6.99 112.53 L0 123.87 Z" class="st1"/>
				</g>
				<g id="shape2593-5" v:mID="2593" v:groupContext="shape" transform="translate(2.79729,247.736) rotate(180)">
					<title>Blad.2593</title>
					<path d="M0 123.87 L2.8 123.87" class="st2"/>
				</g>
				<g id="shape2594-8" v:mID="2594" v:groupContext="shape" transform="translate(16.7838,1.42109E-14)">
					<title>Blad.2594</title>
					<path d="M0 123.87 L2.8 123.87" class="st2"/>
				</g>
			</g>
			<g id="shape2595-11" v:mID="2595" v:groupContext="shape">
				<title>Blad.2595</title>
				<path d="M0 123.87 L19.84 123.87" class="st2"/>
			</g>
		</g>
		<g id="shape2596-14" v:mID="2596" v:groupContext="shape" transform="translate(24.2803,-99.5875)">
			<title>Ligger, 2 pt.2596</title>
			<path d="M0 123.87 L113.39 123.87" class="st3"/>
		</g>
		<g id="group2597-17" transform="translate(127.745,-85.4143)" v:mID="2597" v:groupContext="group">
			<title>Rol.2597</title>
			<g id="group2598-18" transform="translate(0.261477,-2.83465)" v:mID="2598" v:groupContext="group">
				<title>Scharnier</title>
				<g id="shape2599-19" v:mID="2599" v:groupContext="shape" transform="translate(2.79729,1.42109E-14)">
					<title>Blad.2599</title>
					<path d="M0 123.87 L13.99 123.87 L6.99 112.53 L0 123.87 Z" class="st1"/>
				</g>
				<g id="shape2600-21" v:mID="2600" v:groupContext="shape" transform="translate(2.79729,247.736) rotate(180)">
					<title>Blad.2600</title>
					<path d="M0 123.87 L2.8 123.87" class="st2"/>
				</g>
				<g id="shape2601-24" v:mID="2601" v:groupContext="shape" transform="translate(16.7838,1.42109E-14)">
					<title>Blad.2601</title>
					<path d="M0 123.87 L2.8 123.87" class="st2"/>
				</g>
			</g>
			<g id="shape2602-27" v:mID="2602" v:groupContext="shape">
				<title>Blad.2602</title>
				<path d="M0 123.87 L19.84 123.87" class="st2"/>
			</g>
		</g>
		<g id="shape2603-30" v:mID="2603" v:groupContext="shape" transform="translate(137.666,-99.5875)">
			<title>Ligger, 2 pt.2603</title>
			<path d="M0 123.87 L85.04 123.87" class="st3"/>
		</g>
		<g id="group2604-33" transform="translate(212.784,-88.249)" v:mID="2604" v:groupContext="group">
			<title>Scharnieroplegging.2604</title>
			<g id="shape2605-34" v:mID="2605" v:groupContext="shape" transform="translate(2.83465,1.42109E-14)">
				<title>Blad.2605</title>
				<path d="M0 123.87 L14.17 123.87 L7.09 112.53 L0 123.87 Z" class="st1"/>
			</g>
			<g id="shape2606-36" v:mID="2606" v:groupContext="shape" transform="translate(2.83465,247.736) rotate(180)">
				<title>Blad.2606</title>
				<path d="M0 123.87 L2.83 123.87" class="st2"/>
			</g>
			<g id="shape2607-39" v:mID="2607" v:groupContext="shape" transform="translate(17.0079,1.42109E-14)">
				<title>Blad.2607</title>
				<path d="M0 123.87 L2.83 123.87" class="st2"/>
			</g>
		</g>
		<g id="shape2608-42" v:mID="2608" v:groupContext="shape" transform="translate(148.148,24.2803) rotate(90)">
			<title>Ligger, 2 pt.2608</title>
			<path d="M0 123.87 L85.04 123.87" class="st3"/>
		</g>
		<g id="shape2640-45" v:mID="2640" v:groupContext="shape" transform="translate(-50.0404,10.2254) rotate(-36.8699)">
			<title>Ligger, 2 pt.2640</title>
			<path d="M0 123.87 L141.73 123.87" class="st3"/>
		</g>
		<g id="shape2641-48" v:mID="2641" v:groupContext="shape" transform="translate(22.1543,-12.4222)">
			<title>Scharnier.2641</title>
			<ellipse cx="2.12598" cy="121.742" rx="2.12598" ry="2.12598" class="st4"/>
		</g>
		<g id="shape2642-50" v:mID="2642" v:groupContext="shape" transform="translate(22.1543,-97.4616)">
			<title>Scharnier.2642</title>
			<ellipse cx="2.12598" cy="121.742" rx="2.12598" ry="2.12598" class="st4"/>
		</g>
		<g id="shape2646-52" v:mID="2646" v:groupContext="shape" transform="translate(178.06,-97.4616)">
			<title>Scharnier.2646</title>
			<ellipse cx="2.12598" cy="121.742" rx="2.12598" ry="2.12598" class="st4"/>
		</g>
		<g id="shape2654-54" v:mID="2654" v:groupContext="shape" transform="translate(128.454,-97.4616)">
			<title>Scharnier.2654</title>
			<ellipse cx="2.12598" cy="121.742" rx="2.12598" ry="2.12598" class="st4"/>
		</g>
		<g id="shape2801-56" v:mID="2801" v:groupContext="shape" transform="translate(-78.3277,38.4535) rotate(-90)">
			<title>Moment.2801</title>
			<path d="M-0 123.87 A14.1732 14.1732 0 0 1 14.17 109.69 A14.1732 14.1732 0 0 1 26.14 116.27 L26.24 116.62" class="st5"/>
		</g>
		<g id="shape2802-62" v:mID="2802" v:groupContext="shape" transform="translate(38.4535,-78.3277) scale(-1,1)">
			<title>Moment.2802</title>
			<path d="M-0 123.87 A14.1732 14.1732 0 0 1 14.17 109.69 A14.1732 14.1732 0 0 1 26.14 116.27 L26.24 116.62" class="st5"/>
		</g>
		<g id="shape3783-67" v:mID="3783" v:groupContext="shape" transform="translate(74.7431,38.4535) rotate(-90)">
			<title>Moment.3783</title>
			<path d="M-0 123.87 A14.1732 14.1732 0 0 1 14.17 109.69 A14.1732 14.1732 0 0 1 26.14 116.27 L26.24 116.62" class="st5"/>
		</g>
		<g id="shape3784-72" v:mID="3784" v:groupContext="shape" transform="translate(285.628,38.4535) rotate(90) scale(-1,1)">
			<title>Moment.3784</title>
			<path d="M-0 123.87 A14.1732 14.1732 0 0 1 14.17 109.69 A14.1732 14.1732 0 0 1 26.14 116.27 L26.24 116.62" class="st5"/>
		</g>
		<g id="shape3785-77" v:mID="3785" v:groupContext="shape" transform="translate(25.1368,38.4535) rotate(-90)">
			<title>Moment.3785</title>
			<path d="M-0 123.87 A14.1732 14.1732 0 0 1 14.17 109.69 A14.1732 14.1732 0 0 1 26.14 116.27 L26.24 116.62" class="st5"/>
		</g>
		<g id="shape3786-82" v:mID="3786" v:groupContext="shape" transform="translate(236.022,38.4535) rotate(90) scale(-1,1)">
			<title>Moment.3786</title>
			<path d="M-0 123.87 A14.1732 14.1732 0 0 1 14.17 109.69 A14.1732 14.1732 0 0 1 26.14 116.27 L26.24 116.62" class="st5"/>
		</g>
	</g>
</svg>
