<?xml version="1.0" encoding="UTF-8" standalone="no"?>
<!DOCTYPE svg PUBLIC "-//W3C//DTD SVG 1.1//EN" "http://www.w3.org/Graphics/SVG/1.1/DTD/svg11.dtd">
<!-- Gegenereerd door Microsoft Visio, SVG Export statisch_bepaalde_systemen.svg Pagina-1 -->
<svg xmlns="http://www.w3.org/2000/svg" xmlns:xlink="http://www.w3.org/1999/xlink" xmlns:ev="http://www.w3.org/2001/xml-events"
		xmlns:v="http://schemas.microsoft.com/visio/2003/SVGExtensions/" width="6.2444in" height="2.10873in"
		viewBox="0 0 449.597 151.829" xml:space="preserve" color-interpolation-filters="sRGB" class="st13">
	<v:documentProperties v:langID="1043" v:metric="true" v:viewMarkup="false"/>

	<style type="text/css">
	<![CDATA[
		.st1 {stroke:#000000;stroke-linecap:round;stroke-linejoin:round;stroke-width:2}
		.st2 {fill:#00cc99;stroke:#000000;stroke-linecap:round;stroke-linejoin:round;stroke-width:0.75}
		.st3 {stroke:#000000;stroke-linecap:round;stroke-linejoin:round;stroke-width:0.75}
		.st4 {marker-end:url(#mrkr5-21);stroke:#800000;stroke-linecap:round;stroke-linejoin:round;stroke-width:2}
		.st5 {fill:#800000;fill-opacity:1;stroke:#800000;stroke-opacity:1;stroke-width:0.44247787610619}
		.st6 {marker-start:url(#mrkr5-40);stroke:#800000;stroke-linecap:round;stroke-linejoin:round;stroke-width:2}
		.st7 {marker-end:url(#mrkr1-46);stroke:#000000;stroke-linecap:butt;stroke-width:3}
		.st8 {fill:#000000;fill-opacity:1;stroke:#000000;stroke-opacity:1;stroke-width:0.67567567567568}
		.st9 {fill:none;stroke:none;stroke-linecap:round;stroke-linejoin:round;stroke-width:0.24}
		.st10 {fill:#000000;font-family:Times New Roman;font-size:1.00001em;font-style:italic}
		.st11 {baseline-shift:-32.4941%;font-size:0.649882em;font-style:normal}
		.st12 {font-size:1em;font-style:normal}
		.st13 {fill:none;fill-rule:evenodd;font-size:12px;overflow:visible;stroke-linecap:square;stroke-miterlimit:3}
	]]>
	</style>

	<defs id="Markers">
		<g id="lend5">
			<path d="M 2 1 L 0 0 L 1.98117 -0.993387 C 1.67173 -0.364515 1.67301 0.372641 1.98465 1.00043 " style="stroke:none"/>
		</g>
		<marker id="mrkr5-21" class="st5" v:arrowType="5" v:arrowSize="2" v:setback="3.775" refX="-3.775" orient="auto"
				markerUnits="strokeWidth" overflow="visible">
			<use xlink:href="#lend5" transform="scale(-2.26,-2.26) "/>
		</marker>
		<marker id="mrkr5-40" class="st5" v:arrowType="5" v:arrowSize="2" v:setback="3.775" refX="3.775" orient="auto"
				markerUnits="strokeWidth" overflow="visible">
			<use xlink:href="#lend5" transform="scale(2.26) "/>
		</marker>
		<g id="lend1">
			<path d="M 1 -1 L 0 0 L 1 1 " style="stroke-linecap:round;stroke-linejoin:round;fill:none"/>
		</g>
		<marker id="mrkr1-46" class="st8" v:arrowType="1" v:arrowSize="0" orient="auto" markerUnits="strokeWidth"
				overflow="visible">
			<use xlink:href="#lend1" transform="scale(-1.48,-1.48) "/>
		</marker>
	</defs>
	<g v:mID="0" v:index="1" v:groupContext="foregroundPage">
		<title>Pagina-1</title>
		<v:pageProperties v:drawingScale="0.0393701" v:pageScale="0.0393701" v:drawingUnits="24" v:shadowOffsetX="8.50394"
				v:shadowOffsetY="-8.50394"/>
		<g id="shape215-1" v:mID="215" v:groupContext="shape" transform="translate(42.6397,-123.362)">
			<title>Ligger, 2 pt.215</title>
			<path d="M0 151.83 L170.08 151.83" class="st1"/>
		</g>
		<g id="shape216-4" v:mID="216" v:groupContext="shape" transform="translate(29.6965,29.2865) rotate(-56.3099)">
			<title>Ligger, 2 pt.216</title>
			<path d="M0 151.83 L102.2 151.83" class="st1"/>
		</g>
		<g id="group217-7" transform="translate(146.104,-26.9842)" v:mID="217" v:groupContext="group">
			<title>Scharnieroplegging.217</title>
			<g id="shape218-8" v:mID="218" v:groupContext="shape" transform="translate(2.83465,2.84217E-14)">
				<title>Blad.218</title>
				<path d="M0 151.83 L14.17 151.83 L7.09 140.49 L0 151.83 Z" class="st2"/>
			</g>
			<g id="shape219-10" v:mID="219" v:groupContext="shape" transform="translate(2.83465,303.657) rotate(180)">
				<title>Blad.219</title>
				<path d="M0 151.83 L2.83 151.83" class="st3"/>
			</g>
			<g id="shape220-13" v:mID="220" v:groupContext="shape" transform="translate(17.0079,2.84217E-14)">
				<title>Blad.220</title>
				<path d="M0 151.83 L2.83 151.83" class="st3"/>
			</g>
		</g>
		<g id="shape221-16" v:mID="221" v:groupContext="shape" transform="translate(310.056,-88.9146) rotate(45)">
			<title>Moment.221</title>
			<path d="M-0 151.83 A14.1732 14.1732 0 0 1 14.17 137.66 A14.1732 14.1732 0 0 1 26.14 144.23 L26.24 144.58" class="st4"/>
		</g>
		<g id="group247-22" transform="translate(32.7184,-109.189)" v:mID="247" v:groupContext="group">
			<title>Rol</title>
			<g id="group248-23" transform="translate(0.261477,-2.83465)" v:mID="248" v:groupContext="group">
				<title>Scharnier</title>
				<g id="shape249-24" v:mID="249" v:groupContext="shape" transform="translate(2.79729,2.84217E-14)">
					<title>Blad.249</title>
					<path d="M0 151.83 L13.99 151.83 L6.99 140.49 L0 151.83 Z" class="st2"/>
				</g>
				<g id="shape250-26" v:mID="250" v:groupContext="shape" transform="translate(2.79729,303.657) rotate(180)">
					<title>Blad.250</title>
					<path d="M0 151.83 L2.8 151.83" class="st3"/>
				</g>
				<g id="shape251-29" v:mID="251" v:groupContext="shape" transform="translate(16.7838,2.84217E-14)">
					<title>Blad.251</title>
					<path d="M0 151.83 L2.8 151.83" class="st3"/>
				</g>
			</g>
			<g id="shape252-32" v:mID="252" v:groupContext="shape">
				<title>Blad.252</title>
				<path d="M0 151.83 L19.84 151.83" class="st3"/>
			</g>
		</g>
		<g id="shape253-35" v:mID="253" v:groupContext="shape" transform="translate(42.7704,180.295) rotate(180)">
			<title>Kracht.253</title>
			<path d="M7.55 151.83 L7.91 151.83 L28.35 151.83" class="st6"/>
		</g>
		<g id="shape254-41" v:mID="254" v:groupContext="shape" transform="translate(14.2932,-130.449)">
			<title>verplaatsing</title>
			<path d="M0 151.83 L28.35 151.83" class="st7"/>
		</g>
		<g id="shape255-47" v:mID="255" v:groupContext="shape" transform="translate(7.20662,-109.189)">
			<title>Punt A.255</title>
			<desc>Ah</desc>
			<v:textBlock v:margins="rect(4,4,4,4)" v:tabSpace="42.5197"/>
			<v:textRect cx="14.1732" cy="144.742" width="28.35" height="14.1732"/>
			<rect x="0" y="137.655" width="28.3465" height="14.1732" class="st9"/>
			<text x="8.56" y="148.34" class="st10" v:langID="1043"><v:paragraph v:horizAlign="1"/><v:tabList/>A<tspan dy="-0.279em"
						class="st11" v:baseFontSize="12">h</tspan></text>		</g>
		<g id="shape256-51" v:mID="256" v:groupContext="shape" transform="translate(0.12,-137.535)">
			<title>Punt A.256</title>
			<desc>wA,h = 0</desc>
			<v:textBlock v:margins="rect(4,4,4,4)" v:tabSpace="42.5197"/>
			<v:textRect cx="28.3465" cy="144.742" width="56.7" height="14.1732"/>
			<rect x="0" y="137.655" width="56.6929" height="14.1732" class="st9"/>
			<text x="9.75" y="148.34" class="st10" v:langID="1043"><v:paragraph v:horizAlign="1"/><v:tabList/>w<tspan dy="-0.279em"
						class="st11" v:baseFontSize="12">A,h </tspan><tspan dy="0.181em" class="st12">= 0</tspan></text>		</g>
		<g id="shape257-56" v:mID="257" v:groupContext="shape" transform="translate(255.238,-123.362)">
			<title>Ligger, 2 pt.257</title>
			<path d="M0 151.83 L170.08 151.83" class="st1"/>
		</g>
		<g id="shape258-59" v:mID="258" v:groupContext="shape" transform="translate(242.295,29.2865) rotate(-56.3099)">
			<title>Ligger, 2 pt.258</title>
			<path d="M0 151.83 L102.2 151.83" class="st1"/>
		</g>
		<g id="shape263-62" v:mID="263" v:groupContext="shape" transform="translate(522.654,-88.9145) rotate(45)">
			<title>Moment.263</title>
			<path d="M-0 151.83 A14.1732 14.1732 0 0 1 14.17 137.66 A14.1732 14.1732 0 0 1 26.14 144.23 L26.24 144.58" class="st4"/>
		</g>
		<g id="shape270-67" v:mID="270" v:groupContext="shape" transform="translate(520.453,113.375) rotate(90)">
			<title>Kracht.270</title>
			<path d="M7.55 151.83 L7.91 151.83 L28.35 151.83" class="st6"/>
		</g>
		<g id="shape271-72" v:mID="271" v:groupContext="shape" transform="translate(223.882,143.27) rotate(-90)">
			<title>verplaatsing.271</title>
			<path d="M0 151.83 L28.35 151.83" class="st7"/>
		</g>
		<g id="shape272-77" v:mID="272" v:groupContext="shape" transform="translate(340.278,-9.97635)">
			<title>Punt A.272</title>
			<desc>Av</desc>
			<v:textBlock v:margins="rect(4,4,4,4)" v:tabSpace="42.5197"/>
			<v:textRect cx="14.1732" cy="144.742" width="28.35" height="14.1732"/>
			<rect x="0" y="137.655" width="28.3465" height="14.1732" class="st9"/>
			<text x="8.56" y="148.34" class="st10" v:langID="1043"><v:paragraph v:horizAlign="1"/><v:tabList/>A<tspan dy="-0.279em"
						class="st11" v:baseFontSize="12">v</tspan></text>		</g>
		<g id="shape273-81" v:mID="273" v:groupContext="shape" transform="translate(368.624,-9.97634)">
			<title>Punt A.273</title>
			<desc>wA,v = 0</desc>
			<v:textBlock v:margins="rect(4,4,4,4)" v:tabSpace="42.5197"/>
			<v:textRect cx="28.3465" cy="144.742" width="56.7" height="14.1732"/>
			<rect x="0" y="137.655" width="56.6929" height="14.1732" class="st9"/>
			<text x="9.75" y="148.34" class="st10" v:langID="1043"><v:paragraph v:horizAlign="1"/><v:tabList/>w<tspan dy="-0.279em"
						class="st11" v:baseFontSize="12">A,v </tspan><tspan dy="0.181em" class="st12">= 0</tspan></text>		</g>
		<g id="group274-86" transform="translate(245.317,-112.024)" v:mID="274" v:groupContext="group">
			<title>Scharnieroplegging.274</title>
			<g id="shape275-87" v:mID="275" v:groupContext="shape" transform="translate(2.83465,2.84217E-14)">
				<title>Blad.275</title>
				<path d="M0 151.83 L14.17 151.83 L7.09 140.49 L0 151.83 Z" class="st2"/>
			</g>
			<g id="shape276-89" v:mID="276" v:groupContext="shape" transform="translate(2.83465,303.657) rotate(180)">
				<title>Blad.276</title>
				<path d="M0 151.83 L2.83 151.83" class="st3"/>
			</g>
			<g id="shape277-92" v:mID="277" v:groupContext="shape" transform="translate(17.0079,2.84217E-14)">
				<title>Blad.277</title>
				<path d="M0 151.83 L2.83 151.83" class="st3"/>
			</g>
		</g>
		<g id="group278-95" transform="translate(506.279,105.002) rotate(90)" v:mID="278" v:groupContext="group">
			<title>Rol.278</title>
			<g id="group279-96" transform="translate(0.261477,-2.83465)" v:mID="279" v:groupContext="group">
				<title>Scharnier</title>
				<g id="shape280-97" v:mID="280" v:groupContext="shape" transform="translate(2.79729,2.84217E-14)">
					<title>Blad.280</title>
					<path d="M0 151.83 L13.99 151.83 L6.99 140.49 L0 151.83 Z" class="st2"/>
				</g>
				<g id="shape281-99" v:mID="281" v:groupContext="shape" transform="translate(2.79729,303.657) rotate(180)">
					<title>Blad.281</title>
					<path d="M0 151.83 L2.8 151.83" class="st3"/>
				</g>
				<g id="shape282-102" v:mID="282" v:groupContext="shape" transform="translate(16.7838,2.84217E-14)">
					<title>Blad.282</title>
					<path d="M0 151.83 L2.8 151.83" class="st3"/>
				</g>
			</g>
			<g id="shape283-105" v:mID="283" v:groupContext="shape">
				<title>Blad.283</title>
				<path d="M0 151.83 L19.84 151.83" class="st3"/>
			</g>
		</g>
	</g>
</svg>
