<?xml version="1.0" encoding="UTF-8" standalone="no"?>
<!DOCTYPE svg PUBLIC "-//W3C//DTD SVG 1.1//EN" "http://www.w3.org/Graphics/SVG/1.1/DTD/svg11.dtd">
<!-- Gegenereerd door Microsoft Visio, SVG Export VLS_C_1.svg Pagina-1 -->
<svg xmlns="http://www.w3.org/2000/svg" xmlns:xlink="http://www.w3.org/1999/xlink" xmlns:ev="http://www.w3.org/2001/xml-events"
		xmlns:v="http://schemas.microsoft.com/visio/2003/SVGExtensions/" width="5.06593in" height="3.05897in"
		viewBox="0 0 364.747 220.246" xml:space="preserve" color-interpolation-filters="sRGB" class="st15">
	<v:documentProperties v:langID="1043" v:metric="true" v:viewMarkup="false"/>

	<style type="text/css">
	<![CDATA[
		.st1 {stroke:#000000;stroke-linecap:round;stroke-linejoin:round;stroke-width:2}
		.st2 {fill:#ffffff;stroke:#000000;stroke-linecap:round;stroke-linejoin:round;stroke-width:0.75}
		.st3 {marker-end:url(#mrkr5-17);stroke:#800000;stroke-linecap:round;stroke-linejoin:round;stroke-width:2}
		.st4 {fill:#800000;fill-opacity:1;stroke:#800000;stroke-opacity:1;stroke-width:0.44247787610619}
		.st5 {fill:#00cc99;stroke:#000000;stroke-linecap:round;stroke-linejoin:round;stroke-width:0.75}
		.st6 {stroke:#000000;stroke-linecap:round;stroke-linejoin:round;stroke-width:0.75}
		.st7 {marker-end:url(#mrkr5-45);stroke:#31859b;stroke-linecap:round;stroke-linejoin:round;stroke-width:2}
		.st8 {fill:#31859b;fill-opacity:1;stroke:#31859b;stroke-opacity:1;stroke-width:0.44247787610619}
		.st9 {marker-start:url(#mrkr5-56);stroke:#31859b;stroke-linecap:round;stroke-linejoin:round;stroke-width:2}
		.st10 {fill:none;stroke:none;stroke-linecap:round;stroke-linejoin:round;stroke-width:0.24}
		.st11 {fill:#000000;font-family:Times New Roman;font-size:1.00001em;font-style:italic}
		.st12 {baseline-shift:-32.4941%;font-size:0.649882em;font-style:normal}
		.st13 {baseline-shift:32.4941%;font-size:0.649882em;font-style:normal}
		.st14 {fill:#000000;font-family:Times New Roman;font-size:1.00001em}
		.st15 {fill:none;fill-rule:evenodd;font-size:12px;overflow:visible;stroke-linecap:square;stroke-miterlimit:3}
	]]>
	</style>

	<defs id="Markers">
		<g id="lend5">
			<path d="M 2 1 L 0 0 L 1.98117 -0.993387 C 1.67173 -0.364515 1.67301 0.372641 1.98465 1.00043 " style="stroke:none"/>
		</g>
		<marker id="mrkr5-17" class="st4" v:arrowType="5" v:arrowSize="2" v:setback="3.775" refX="-3.775" orient="auto"
				markerUnits="strokeWidth" overflow="visible">
			<use xlink:href="#lend5" transform="scale(-2.26,-2.26) "/>
		</marker>
		<marker id="mrkr5-45" class="st8" v:arrowType="5" v:arrowSize="2" v:setback="3.775" refX="-3.775" orient="auto"
				markerUnits="strokeWidth" overflow="visible">
			<use xlink:href="#lend5" transform="scale(-2.26,-2.26) "/>
		</marker>
		<marker id="mrkr5-56" class="st8" v:arrowType="5" v:arrowSize="2" v:setback="3.775" refX="3.775" orient="auto"
				markerUnits="strokeWidth" overflow="visible">
			<use xlink:href="#lend5" transform="scale(2.26) "/>
		</marker>
	</defs>
	<g v:mID="0" v:index="1" v:groupContext="foregroundPage">
		<title>Pagina-1</title>
		<v:pageProperties v:drawingScale="0.0393701" v:pageScale="0.0393701" v:drawingUnits="24" v:shadowOffsetX="8.50394"
				v:shadowOffsetY="-8.50394"/>
		<g id="shape33-1" v:mID="33" v:groupContext="shape" transform="translate(258.328,-181.792)">
			<title>Ligger, 2 pt.33</title>
			<path d="M0 220.25 L28.35 220.25" class="st1"/>
		</g>
		<g id="shape30-4" v:mID="30" v:groupContext="shape" transform="translate(286.674,-181.792)">
			<title>Ligger, 2 pt.30</title>
			<path d="M0 220.25 L28.35 220.25" class="st1"/>
		</g>
		<g id="shape31-7" v:mID="31" v:groupContext="shape" transform="translate(116.041,-60.1312) rotate(-56.3099)">
			<title>Ligger, 2 pt.31</title>
			<path d="M0 220.25 L28.35 220.25" class="st1"/>
		</g>
		<g id="shape32-10" v:mID="32" v:groupContext="shape" transform="translate(284.548,-179.666)">
			<title>Scharnier</title>
			<ellipse cx="2.12598" cy="218.12" rx="2.12598" ry="2.12598" class="st2"/>
		</g>
		<g id="shape34-12" v:mID="34" v:groupContext="shape" transform="translate(86.2709,52.6267) rotate(-90)">
			<title>Moment.34</title>
			<path d="M-0 220.25 A14.1732 14.1732 0 0 1 14.17 206.07 A14.1732 14.1732 0 0 1 26.14 212.65 L26.24 213" class="st3"/>
		</g>
		<g id="shape35-18" v:mID="35" v:groupContext="shape" transform="translate(487.078,52.6267) rotate(90) scale(-1,1)">
			<title>Moment.35</title>
			<path d="M-0 220.25 A14.1732 14.1732 0 0 1 14.17 206.07 A14.1732 14.1732 0 0 1 26.14 212.65 L26.24 213" class="st3"/>
		</g>
		<g id="shape36-23" v:mID="36" v:groupContext="shape" transform="translate(460.736,-127.306) rotate(45)">
			<title>Moment.36</title>
			<path d="M-0 220.25 A14.1732 14.1732 0 0 1 14.17 206.07 A14.1732 14.1732 0 0 1 26.14 212.65 L26.24 213" class="st3"/>
		</g>
		<g id="group42-28" transform="translate(0.375,-170.454)" v:mID="42" v:groupContext="group">
			<title>Scharnieroplegging.42</title>
			<g id="shape43-29" v:mID="43" v:groupContext="shape" transform="translate(2.83465,2.84217E-14)">
				<title>Blad.43</title>
				<path d="M0 220.25 L14.17 220.25 L7.09 208.91 L0 220.25 Z" class="st5"/>
			</g>
			<g id="shape44-31" v:mID="44" v:groupContext="shape" transform="translate(2.83465,440.492) rotate(180)">
				<title>Blad.44</title>
				<path d="M0 220.25 L2.83 220.25" class="st6"/>
			</g>
			<g id="shape45-34" v:mID="45" v:groupContext="shape" transform="translate(17.0079,2.84217E-14)">
				<title>Blad.45</title>
				<path d="M0 220.25 L2.83 220.25" class="st6"/>
			</g>
		</g>
		<g id="shape46-37" v:mID="46" v:groupContext="shape" transform="translate(10.2963,-181.792)">
			<title>Ligger, 2 pt.46</title>
			<path d="M0 220.25 L170.08 220.25" class="st1"/>
		</g>
		<g id="shape47-40" v:mID="47" v:groupContext="shape" transform="translate(38.0819,52.6267) rotate(-90)">
			<title>Moment.47</title>
			<path d="M-0 220.25 A14.1732 14.1732 0 0 1 14.17 206.07 A14.1732 14.1732 0 0 1 26.14 212.65 L26.24 213" class="st7"/>
		</g>
		<g id="shape48-46" v:mID="48" v:groupContext="shape" transform="translate(400.621,52.6267) rotate(90) scale(-1,1)">
			<title>Moment.48</title>
			<path d="M-0 220.25 A14.1732 14.1732 0 0 1 14.17 206.07 A14.1732 14.1732 0 0 1 26.14 212.65 L26.24 213" class="st7"/>
		</g>
		<g id="shape49-51" v:mID="49" v:groupContext="shape" transform="translate(208.721,258.699) rotate(180)">
			<title>Kracht</title>
			<path d="M7.55 220.25 L7.91 220.25 L28.35 220.25" class="st9"/>
		</g>
		<g id="shape50-57" v:mID="50" v:groupContext="shape" transform="translate(-39.8708,66.7999) rotate(-90)">
			<title>Kracht.50</title>
			<path d="M7.55 220.25 L7.91 220.25 L28.35 220.25" class="st9"/>
		</g>
		<g id="shape51-62" v:mID="51" v:groupContext="shape" transform="translate(229.981,-181.792)">
			<title>Kracht.51</title>
			<path d="M7.55 220.25 L7.91 220.25 L28.35 220.25" class="st9"/>
		</g>
		<g id="shape52-67" v:mID="52" v:groupContext="shape" transform="translate(478.574,10.107) rotate(90)">
			<title>Kracht.52</title>
			<path d="M7.55 220.25 L7.91 220.25 L28.35 220.25" class="st9"/>
		</g>
		<g id="shape55-72" v:mID="55" v:groupContext="shape" transform="translate(165.39,237.433) rotate(33.6901) scale(1,-1)">
			<title>Moment.55</title>
			<path d="M-0 220.25 A14.1732 14.1732 0 0 1 14.17 206.07 A14.1732 14.1732 0 0 1 26.14 212.65 L26.24 213" class="st7"/>
		</g>
		<g id="shape57-77" v:mID="57" v:groupContext="shape" transform="translate(100.318,-36.5457) rotate(-56.3099)">
			<title>Kracht.57</title>
			<path d="M7.55 220.25 L7.91 220.25 L28.35 220.25" class="st9"/>
		</g>
		<g id="shape58-82" v:mID="58" v:groupContext="shape" transform="translate(200.712,261.018) rotate(-146.31)">
			<title>Kracht.58</title>
			<path d="M7.55 220.25 L7.91 220.25 L28.35 220.25" class="st9"/>
		</g>
		<g id="shape145-87" v:mID="145" v:groupContext="shape" transform="translate(261.162,-198.8)">
			<title>Punt A.145</title>
			<desc>MCAC</desc>
			<v:textBlock v:margins="rect(4,4,4,4)" v:tabSpace="42.5197"/>
			<v:textRect cx="28.3465" cy="213.159" width="56.7" height="14.1732"/>
			<rect x="0" y="206.073" width="56.6929" height="14.1732" class="st10"/>
			<text x="15.33" y="216.76" class="st11" v:langID="1043"><v:paragraph v:horizAlign="1"/><v:tabList/>M<tspan
						dy="-0.279em" class="st12" v:baseFontSize="12">C</tspan><tspan dy="0.081em" class="st13"
						v:baseFontSize="12">AC</tspan></text>		</g>
		<g id="shape146-92" v:mID="146" v:groupContext="shape" transform="translate(307.934,-195.966)">
			<title>Punt A.146</title>
			<desc>30 kNm</desc>
			<v:textBlock v:margins="rect(4,4,4,4)" v:tabSpace="42.5197"/>
			<v:textRect cx="28.3465" cy="213.159" width="56.7" height="14.1732"/>
			<rect x="0" y="206.073" width="56.6929" height="14.1732" class="st10"/>
			<text x="8.85" y="216.76" class="st14" v:langID="1043"><v:paragraph v:horizAlign="1"/><v:tabList/>30 kNm</text>		</g>
		<g id="shape147-95" v:mID="147" v:groupContext="shape" transform="translate(206.595,-188.879)">
			<title>Punt A.147</title>
			<desc>MCAC</desc>
			<v:textBlock v:margins="rect(4,4,4,4)" v:tabSpace="42.5197"/>
			<v:textRect cx="28.3465" cy="213.159" width="56.7" height="14.1732"/>
			<rect x="0" y="206.073" width="56.6929" height="14.1732" class="st10"/>
			<text x="15.33" y="216.76" class="st11" v:langID="1043"><v:paragraph v:horizAlign="1"/><v:tabList/>M<tspan
						dy="-0.279em" class="st12" v:baseFontSize="12">C</tspan><tspan dy="0.081em" class="st13"
						v:baseFontSize="12">AC</tspan></text>		</g>
		<g id="shape148-100" v:mID="148" v:groupContext="shape" transform="translate(279.588,-125.099)">
			<title>Punt A.148</title>
			<desc>MCBC</desc>
			<v:textBlock v:margins="rect(4,4,4,4)" v:tabSpace="42.5197"/>
			<v:textRect cx="28.3465" cy="213.159" width="56.7" height="14.1732"/>
			<rect x="0" y="206.073" width="56.6929" height="14.1732" class="st10"/>
			<text x="15.55" y="216.76" class="st11" v:langID="1043"><v:paragraph v:horizAlign="1"/><v:tabList/>M<tspan
						dy="-0.279em" class="st12" v:baseFontSize="12">C</tspan><tspan dy="0.081em" class="st13"
						v:baseFontSize="12">BC</tspan></text>		</g>
		<g id="shape161-105" v:mID="161" v:groupContext="shape" transform="translate(18.3793,86.3618) rotate(-56.3099)">
			<title>Ligger, 2 pt.161</title>
			<path d="M0 220.25 L102.2 220.25" class="st1"/>
		</g>
		<g id="group162-108" transform="translate(191.714,-0.375)" v:mID="162" v:groupContext="group">
			<title>Scharnieroplegging.162</title>
			<g id="shape163-109" v:mID="163" v:groupContext="shape" transform="translate(2.83465,2.84217E-14)">
				<title>Blad.163</title>
				<path d="M0 220.25 L14.17 220.25 L7.09 208.91 L0 220.25 Z" class="st5"/>
			</g>
			<g id="shape164-111" v:mID="164" v:groupContext="shape" transform="translate(2.83465,440.492) rotate(180)">
				<title>Blad.164</title>
				<path d="M0 220.25 L2.83 220.25" class="st6"/>
			</g>
			<g id="shape165-114" v:mID="165" v:groupContext="shape" transform="translate(17.0079,2.84217E-14)">
				<title>Blad.165</title>
				<path d="M0 220.25 L2.83 220.25" class="st6"/>
			</g>
		</g>
		<g id="shape169-117" v:mID="169" v:groupContext="shape" transform="translate(457.307,222.078) rotate(123.69)">
			<title>Kracht.169</title>
			<path d="M7.55 220.25 L7.91 220.25 L28.35 220.25" class="st9"/>
		</g>
		<g id="shape170-122" v:mID="170" v:groupContext="shape" transform="translate(356.913,-75.4865) rotate(33.6901)">
			<title>Kracht.170</title>
			<path d="M7.55 220.25 L7.91 220.25 L28.35 220.25" class="st9"/>
		</g>
		<g id="shape174-127" v:mID="174" v:groupContext="shape" transform="translate(368.705,-67.3035) rotate(33.6901)">
			<title>Moment.174</title>
			<path d="M-0 220.25 A14.1732 14.1732 0 0 1 14.17 206.07 A14.1732 14.1732 0 0 1 26.14 212.65 L26.24 213" class="st7"/>
		</g>
		<g id="shape175-132" v:mID="175" v:groupContext="shape" transform="translate(265.414,-92.501)">
			<title>Punt A.175</title>
			<desc>MCBC</desc>
			<v:textBlock v:margins="rect(4,4,4,4)" v:tabSpace="42.5197"/>
			<v:textRect cx="28.3465" cy="213.159" width="56.7" height="14.1732"/>
			<rect x="0" y="206.073" width="56.6929" height="14.1732" class="st10"/>
			<text x="15.55" y="216.76" class="st11" v:langID="1043"><v:paragraph v:horizAlign="1"/><v:tabList/>M<tspan
						dy="-0.279em" class="st12" v:baseFontSize="12">C</tspan><tspan dy="0.081em" class="st13"
						v:baseFontSize="12">BC</tspan></text>		</g>
		<g id="shape188-137" v:mID="188" v:groupContext="shape" transform="translate(152.029,-195.966)">
			<title>Punt A.188</title>
			<desc>MCAC</desc>
			<v:textBlock v:margins="rect(4,4,4,4)" v:tabSpace="42.5197"/>
			<v:textRect cx="28.3465" cy="213.159" width="56.7" height="14.1732"/>
			<rect x="0" y="206.073" width="56.6929" height="14.1732" class="st10"/>
			<text x="15.33" y="216.76" class="st11" v:langID="1043"><v:paragraph v:horizAlign="1"/><v:tabList/>M<tspan
						dy="-0.279em" class="st12" v:baseFontSize="12">C</tspan><tspan dy="0.081em" class="st13"
						v:baseFontSize="12">AC</tspan></text>		</g>
	</g>
</svg>
