<?xml version="1.0" encoding="UTF-8" standalone="no"?>
<!DOCTYPE svg PUBLIC "-//W3C//DTD SVG 1.1//EN" "http://www.w3.org/Graphics/SVG/1.1/DTD/svg11.dtd">
<!-- Gegenereerd door Microsoft Visio, SVG Export VLS_C_2.svg Pagina-1 -->
<svg xmlns="http://www.w3.org/2000/svg" xmlns:xlink="http://www.w3.org/1999/xlink" xmlns:ev="http://www.w3.org/2001/xml-events"
		xmlns:v="http://schemas.microsoft.com/visio/2003/SVGExtensions/" width="4.67223in" height="3.05897in"
		viewBox="0 0 336.401 220.246" xml:space="preserve" color-interpolation-filters="sRGB" class="st13">
	<v:documentProperties v:langID="1043" v:metric="true" v:viewMarkup="false"/>

	<style type="text/css">
	<![CDATA[
		.st1 {stroke:#000000;stroke-linecap:round;stroke-linejoin:round;stroke-width:2}
		.st2 {marker-end:url(#mrkr5-12);stroke:#800000;stroke-linecap:round;stroke-linejoin:round;stroke-width:2}
		.st3 {fill:#800000;fill-opacity:1;stroke:#800000;stroke-opacity:1;stroke-width:0.44247787610619}
		.st4 {fill:none;stroke:none;stroke-linecap:round;stroke-linejoin:round;stroke-width:0.24}
		.st5 {fill:#000000;font-family:Times New Roman;font-size:1.00001em}
		.st6 {fill:#000000;font-family:Times New Roman;font-size:1.00001em;font-style:italic}
		.st7 {baseline-shift:-32.4941%;font-size:0.649882em;font-style:normal}
		.st8 {baseline-shift:32.4941%;font-size:0.649882em;font-style:normal}
		.st9 {fill:#ffffff;stroke:#000000;stroke-linecap:round;stroke-linejoin:round;stroke-width:0.75}
		.st10 {fill:#00cc99;stroke:#000000;stroke-linecap:round;stroke-linejoin:round;stroke-width:0.75}
		.st11 {stroke:#000000;stroke-linecap:round;stroke-linejoin:round;stroke-width:0.75}
		.st12 {marker-start:url(#mrkr5-60);stroke:#800000;stroke-linecap:round;stroke-linejoin:round;stroke-width:2}
		.st13 {fill:none;fill-rule:evenodd;font-size:12px;overflow:visible;stroke-linecap:square;stroke-miterlimit:3}
	]]>
	</style>

	<defs id="Markers">
		<g id="lend5">
			<path d="M 2 1 L 0 0 L 1.98117 -0.993387 C 1.67173 -0.364515 1.67301 0.372641 1.98465 1.00043 " style="stroke:none"/>
		</g>
		<marker id="mrkr5-12" class="st3" v:arrowType="5" v:arrowSize="2" v:setback="3.775" refX="-3.775" orient="auto"
				markerUnits="strokeWidth" overflow="visible">
			<use xlink:href="#lend5" transform="scale(-2.26,-2.26) "/>
		</marker>
		<marker id="mrkr5-60" class="st3" v:arrowType="5" v:arrowSize="2" v:setback="3.775" refX="3.775" orient="auto"
				markerUnits="strokeWidth" overflow="visible">
			<use xlink:href="#lend5" transform="scale(2.26) "/>
		</marker>
	</defs>
	<g v:mID="0" v:index="1" v:groupContext="foregroundPage">
		<title>Pagina-1</title>
		<v:pageProperties v:drawingScale="0.0393701" v:pageScale="0.0393701" v:drawingUnits="24" v:shadowOffsetX="8.50394"
				v:shadowOffsetY="-8.50394"/>
		<g id="shape149-1" v:mID="149" v:groupContext="shape" transform="translate(258.328,-181.792)">
			<title>Ligger, 2 pt.149</title>
			<path d="M0 220.25 L28.35 220.25" class="st1"/>
		</g>
		<g id="shape150-4" v:mID="150" v:groupContext="shape" transform="translate(87.6948,-60.1312) rotate(-56.3099)">
			<title>Ligger, 2 pt.150</title>
			<path d="M0 220.25 L28.35 220.25" class="st1"/>
		</g>
		<g id="shape152-7" v:mID="152" v:groupContext="shape" transform="translate(38.0819,52.6267) rotate(-90)">
			<title>Moment.152</title>
			<path d="M-0 220.25 A14.1732 14.1732 0 0 1 14.17 206.07 A14.1732 14.1732 0 0 1 26.14 212.65 L26.24 213" class="st2"/>
		</g>
		<g id="shape153-13" v:mID="153" v:groupContext="shape" transform="translate(432.39,-127.306) rotate(45)">
			<title>Moment.153</title>
			<path d="M-0 220.25 A14.1732 14.1732 0 0 1 14.17 206.07 A14.1732 14.1732 0 0 1 26.14 212.65 L26.24 213" class="st2"/>
		</g>
		<g id="shape154-18" v:mID="154" v:groupContext="shape" transform="translate(137.043,237.433) rotate(33.6901) scale(1,-1)">
			<title>Moment.154</title>
			<path d="M-0 220.25 A14.1732 14.1732 0 0 1 14.17 206.07 A14.1732 14.1732 0 0 1 26.14 212.65 L26.24 213" class="st2"/>
		</g>
		<g id="shape157-23" v:mID="157" v:groupContext="shape" transform="translate(279.588,-195.966)">
			<title>Punt A.157</title>
			<desc>30 kNm</desc>
			<v:textBlock v:margins="rect(4,4,4,4)" v:tabSpace="42.5197"/>
			<v:textRect cx="28.3465" cy="213.159" width="56.7" height="14.1732"/>
			<rect x="0" y="206.073" width="56.6929" height="14.1732" class="st4"/>
			<text x="8.85" y="216.76" class="st5" v:langID="1043"><v:paragraph v:horizAlign="1"/><v:tabList/>30 kNm</text>		</g>
		<g id="shape158-26" v:mID="158" v:groupContext="shape" transform="translate(251.241,-125.099)">
			<title>Punt A.158</title>
			<desc>MCBC</desc>
			<v:textBlock v:margins="rect(4,4,4,4)" v:tabSpace="42.5197"/>
			<v:textRect cx="28.3465" cy="213.159" width="56.7" height="14.1732"/>
			<rect x="0" y="206.073" width="56.6929" height="14.1732" class="st4"/>
			<text x="15.55" y="216.76" class="st6" v:langID="1043"><v:paragraph v:horizAlign="1"/><v:tabList/>M<tspan dy="-0.279em"
						class="st7" v:baseFontSize="12">C</tspan><tspan dy="0.081em" class="st8" v:baseFontSize="12">BC</tspan></text>		</g>
		<g id="shape159-31" v:mID="159" v:groupContext="shape" transform="translate(208.721,-195.966)">
			<title>Punt A.159</title>
			<desc>MCAC</desc>
			<v:textBlock v:margins="rect(4,4,4,4)" v:tabSpace="42.5197"/>
			<v:textRect cx="28.3465" cy="213.159" width="56.7" height="14.1732"/>
			<rect x="0" y="206.073" width="56.6929" height="14.1732" class="st4"/>
			<text x="15.33" y="216.76" class="st6" v:langID="1043"><v:paragraph v:horizAlign="1"/><v:tabList/>M<tspan dy="-0.279em"
						class="st7" v:baseFontSize="12">C</tspan><tspan dy="0.081em" class="st8" v:baseFontSize="12">AC</tspan></text>		</g>
		<g id="shape160-36" v:mID="160" v:groupContext="shape" transform="translate(284.548,-179.666)">
			<title>Scharnier.160</title>
			<ellipse cx="2.12598" cy="218.12" rx="2.12598" ry="2.12598" class="st9"/>
		</g>
		<g id="group176-38" transform="translate(0.375,-170.454)" v:mID="176" v:groupContext="group">
			<title>Scharnieroplegging.176</title>
			<g id="shape177-39" v:mID="177" v:groupContext="shape" transform="translate(2.83465,2.84217E-14)">
				<title>Blad.177</title>
				<path d="M0 220.25 L14.17 220.25 L7.09 208.91 L0 220.25 Z" class="st10"/>
			</g>
			<g id="shape178-41" v:mID="178" v:groupContext="shape" transform="translate(2.83465,440.492) rotate(180)">
				<title>Blad.178</title>
				<path d="M0 220.25 L2.83 220.25" class="st11"/>
			</g>
			<g id="shape179-44" v:mID="179" v:groupContext="shape" transform="translate(17.0079,2.84217E-14)">
				<title>Blad.179</title>
				<path d="M0 220.25 L2.83 220.25" class="st11"/>
			</g>
		</g>
		<g id="shape180-47" v:mID="180" v:groupContext="shape" transform="translate(10.2963,-181.792)">
			<title>Ligger, 2 pt.180</title>
			<path d="M0 220.25 L170.08 220.25" class="st1"/>
		</g>
		<g id="shape181-50" v:mID="181" v:groupContext="shape" transform="translate(400.621,52.6267) rotate(90) scale(-1,1)">
			<title>Moment.181</title>
			<path d="M-0 220.25 A14.1732 14.1732 0 0 1 14.17 206.07 A14.1732 14.1732 0 0 1 26.14 212.65 L26.24 213" class="st2"/>
		</g>
		<g id="shape182-55" v:mID="182" v:groupContext="shape" transform="translate(208.721,258.699) rotate(180)">
			<title>Kracht.182</title>
			<path d="M7.55 220.25 L7.91 220.25 L28.35 220.25" class="st12"/>
		</g>
		<g id="shape183-61" v:mID="183" v:groupContext="shape" transform="translate(-39.8708,66.7999) rotate(-90)">
			<title>Kracht.183</title>
			<path d="M7.55 220.25 L7.91 220.25 L28.35 220.25" class="st12"/>
		</g>
		<g id="shape184-66" v:mID="184" v:groupContext="shape" transform="translate(229.981,-181.792)">
			<title>Kracht.184</title>
			<path d="M7.55 220.25 L7.91 220.25 L28.35 220.25" class="st12"/>
		</g>
		<g id="shape185-71" v:mID="185" v:groupContext="shape" transform="translate(478.574,10.107) rotate(90)">
			<title>Kracht.185</title>
			<path d="M7.55 220.25 L7.91 220.25 L28.35 220.25" class="st12"/>
		</g>
		<g id="shape186-76" v:mID="186" v:groupContext="shape" transform="translate(71.9711,-36.5457) rotate(-56.3099)">
			<title>Kracht.186</title>
			<path d="M7.55 220.25 L7.91 220.25 L28.35 220.25" class="st12"/>
		</g>
		<g id="shape187-81" v:mID="187" v:groupContext="shape" transform="translate(172.366,261.018) rotate(-146.31)">
			<title>Kracht.187</title>
			<path d="M7.55 220.25 L7.91 220.25 L28.35 220.25" class="st12"/>
		</g>
		<g id="shape189-86" v:mID="189" v:groupContext="shape" transform="translate(152.029,-195.966)">
			<title>Punt A.189</title>
			<desc>MCAC</desc>
			<v:textBlock v:margins="rect(4,4,4,4)" v:tabSpace="42.5197"/>
			<v:textRect cx="28.3465" cy="213.159" width="56.7" height="14.1732"/>
			<rect x="0" y="206.073" width="56.6929" height="14.1732" class="st4"/>
			<text x="15.33" y="216.76" class="st6" v:langID="1043"><v:paragraph v:horizAlign="1"/><v:tabList/>M<tspan dy="-0.279em"
						class="st7" v:baseFontSize="12">C</tspan><tspan dy="0.081em" class="st8" v:baseFontSize="12">AC</tspan></text>		</g>
		<g id="shape190-91" v:mID="190" v:groupContext="shape" transform="translate(-9.9672,86.3618) rotate(-56.3099)">
			<title>Ligger, 2 pt.190</title>
			<path d="M0 220.25 L102.2 220.25" class="st1"/>
		</g>
		<g id="group191-94" transform="translate(163.367,-0.375)" v:mID="191" v:groupContext="group">
			<title>Scharnieroplegging.191</title>
			<g id="shape192-95" v:mID="192" v:groupContext="shape" transform="translate(2.83465,2.84217E-14)">
				<title>Blad.192</title>
				<path d="M0 220.25 L14.17 220.25 L7.09 208.91 L0 220.25 Z" class="st10"/>
			</g>
			<g id="shape193-97" v:mID="193" v:groupContext="shape" transform="translate(2.83465,440.492) rotate(180)">
				<title>Blad.193</title>
				<path d="M0 220.25 L2.83 220.25" class="st11"/>
			</g>
			<g id="shape194-100" v:mID="194" v:groupContext="shape" transform="translate(17.0079,2.84217E-14)">
				<title>Blad.194</title>
				<path d="M0 220.25 L2.83 220.25" class="st11"/>
			</g>
		</g>
		<g id="shape195-103" v:mID="195" v:groupContext="shape" transform="translate(428.961,222.078) rotate(123.69)">
			<title>Kracht.195</title>
			<path d="M7.55 220.25 L7.91 220.25 L28.35 220.25" class="st12"/>
		</g>
		<g id="shape196-108" v:mID="196" v:groupContext="shape" transform="translate(328.566,-75.4865) rotate(33.6901)">
			<title>Kracht.196</title>
			<path d="M7.55 220.25 L7.91 220.25 L28.35 220.25" class="st12"/>
		</g>
		<g id="shape197-113" v:mID="197" v:groupContext="shape" transform="translate(340.359,-67.6246) rotate(33.6901)">
			<title>Moment.197</title>
			<path d="M-0 220.25 A14.1732 14.1732 0 0 1 14.17 206.07 A14.1732 14.1732 0 0 1 26.14 212.65 L26.24 213" class="st2"/>
		</g>
		<g id="shape199-118" v:mID="199" v:groupContext="shape" transform="translate(237.068,-96.753)">
			<title>Punt A.199</title>
			<desc>MCBC</desc>
			<v:textBlock v:margins="rect(4,4,4,4)" v:tabSpace="42.5197"/>
			<v:textRect cx="28.3465" cy="213.159" width="56.7" height="14.1732"/>
			<rect x="0" y="206.073" width="56.6929" height="14.1732" class="st4"/>
			<text x="15.55" y="216.76" class="st6" v:langID="1043"><v:paragraph v:horizAlign="1"/><v:tabList/>M<tspan dy="-0.279em"
						class="st7" v:baseFontSize="12">C</tspan><tspan dy="0.081em" class="st8" v:baseFontSize="12">BC</tspan></text>		</g>
	</g>
</svg>
