<?xml version="1.0" encoding="UTF-8" standalone="no"?>
<!DOCTYPE svg PUBLIC "-//W3C//DTD SVG 1.1//EN" "http://www.w3.org/Graphics/SVG/1.1/DTD/svg11.dtd">
<!-- Gegenereerd door Microsoft Visio, SVG Export stat_onbepaald_krachten.svg Pagina-1 -->
<svg xmlns="http://www.w3.org/2000/svg" xmlns:xlink="http://www.w3.org/1999/xlink" xmlns:ev="http://www.w3.org/2001/xml-events"
		xmlns:v="http://schemas.microsoft.com/visio/2003/SVGExtensions/" width="7.13114in" height="4.53272in"
		viewBox="0 0 513.442 326.356" xml:space="preserve" color-interpolation-filters="sRGB" class="st12">
	<v:documentProperties v:langID="1043" v:metric="true" v:viewMarkup="false"/>

	<style type="text/css">
	<![CDATA[
		.st1 {fill:none;stroke:none;stroke-linecap:round;stroke-linejoin:round;stroke-width:0.75}
		.st2 {fill:#000000;font-family:Times New Roman;font-size:1.00001em}
		.st3 {stroke:#000000;stroke-linecap:round;stroke-linejoin:round;stroke-opacity:0.5;stroke-width:2}
		.st4 {marker-start:url(#mrkr5-36);stroke:#800000;stroke-linecap:round;stroke-linejoin:round;stroke-width:2}
		.st5 {fill:#800000;fill-opacity:1;stroke:#800000;stroke-opacity:1;stroke-width:0.44247787610619}
		.st6 {marker-end:url(#mrkr5-122);stroke:#800000;stroke-linecap:round;stroke-linejoin:round;stroke-width:2}
		.st7 {marker-end:url(#mrkr5-195);stroke:#800000;stroke-linecap:round;stroke-linejoin:round;stroke-opacity:0.5;stroke-width:1.2}
		.st8 {fill:#800000;fill-opacity:0.5;stroke:#800000;stroke-opacity:0.5;stroke-width:0.45454545454545}
		.st9 {stroke:#800000;stroke-linecap:round;stroke-linejoin:round;stroke-opacity:0.5;stroke-width:1.2}
		.st10 {marker-end:url(#mrkr5-224);stroke:#800000;stroke-linecap:round;stroke-linejoin:round;stroke-opacity:0.5;stroke-width:2}
		.st11 {fill:#800000;fill-opacity:0.5;stroke:#800000;stroke-opacity:0.5;stroke-width:0.44247787610619}
		.st12 {fill:none;fill-rule:evenodd;font-size:12px;overflow:visible;stroke-linecap:square;stroke-miterlimit:3}
	]]>
	</style>

	<defs id="Markers">
		<g id="lend5">
			<path d="M 2 1 L 0 0 L 1.98117 -0.993387 C 1.67173 -0.364515 1.67301 0.372641 1.98465 1.00043 " style="stroke:none"/>
		</g>
		<marker id="mrkr5-36" class="st5" v:arrowType="5" v:arrowSize="2" v:setback="3.775" refX="3.775" orient="auto"
				markerUnits="strokeWidth" overflow="visible">
			<use xlink:href="#lend5" transform="scale(2.26) "/>
		</marker>
		<marker id="mrkr5-122" class="st5" v:arrowType="5" v:arrowSize="2" v:setback="3.775" refX="-3.775" orient="auto"
				markerUnits="strokeWidth" overflow="visible">
			<use xlink:href="#lend5" transform="scale(-2.26,-2.26) "/>
		</marker>
		<marker id="mrkr5-195" class="st8" v:arrowType="5" v:arrowSize="0" v:setback="3.85" refX="-3.85" orient="auto"
				markerUnits="strokeWidth" overflow="visible">
			<use xlink:href="#lend5" transform="scale(-2.2,-2.2) "/>
		</marker>
		<marker id="mrkr5-224" class="st11" v:arrowType="5" v:arrowSize="2" v:setback="3.775" refX="-3.775" orient="auto"
				markerUnits="strokeWidth" overflow="visible">
			<use xlink:href="#lend5" transform="scale(-2.26,-2.26) "/>
		</marker>
	</defs>
	<g v:mID="0" v:index="1" v:groupContext="foregroundPage">
		<title>Pagina-1</title>
		<v:pageProperties v:drawingScale="0.0393701" v:pageScale="0.0393701" v:drawingUnits="24" v:shadowOffsetX="8.50394"
				v:shadowOffsetY="-8.50394"/>
		<g id="shape2586-1" v:mID="2586" v:groupContext="shape" transform="translate(4.43774,-75.3039)">
			<title>Blad.2586</title>
			<desc>2</desc>
			<v:textBlock v:margins="rect(4,4,4,4)" v:tabSpace="42.5197"/>
			<v:textRect cx="14.1732" cy="319.269" width="28.35" height="14.1733"/>
			<rect x="0" y="312.183" width="28.3465" height="14.1733" class="st1"/>
			<text x="11.17" y="322.87" class="st2" v:langID="1043"><v:paragraph v:horizAlign="1"/><v:tabList/>2</text>		</g>
		<g id="shape2646-4" v:mID="2646" v:groupContext="shape" transform="translate(80.7503,-214.127) rotate(-36.8699)">
			<title>Ligger, 2 pt.2646</title>
			<path d="M0 326.36 L14.17 326.36" class="st3"/>
		</g>
		<g id="shape2647-7" v:mID="2647" v:groupContext="shape" transform="translate(548.987,-157.36) rotate(53.1301)">
			<title>Ligger, 2 pt.2647</title>
			<path d="M0 326.36 L14.17 326.36" class="st3"/>
		</g>
		<g id="shape2648-10" v:mID="2648" v:groupContext="shape" transform="translate(287.902,-287.902)">
			<title>Ligger, 2 pt.2648</title>
			<path d="M0 326.36 L14.17 326.36" class="st3"/>
		</g>
		<g id="shape2649-13" v:mID="2649" v:groupContext="shape" transform="translate(372.942,-287.902)">
			<title>Ligger, 2 pt.2649</title>
			<path d="M0 326.36 L56.69 326.36" class="st3"/>
		</g>
		<g id="shape2650-16" v:mID="2650" v:groupContext="shape" transform="translate(443.808,-287.902)">
			<title>Ligger, 2 pt.2650</title>
			<path d="M0 326.36 L14.17 326.36" class="st3"/>
		</g>
		<g id="shape2652-19" v:mID="2652" v:groupContext="shape" transform="translate(600.011,-89.3285) rotate(53.1301)">
			<title>Ligger, 2 pt.2652</title>
			<path d="M0 326.36 L141.73 326.36" class="st3"/>
		</g>
		<g id="shape2653-22" v:mID="2653" v:groupContext="shape" transform="translate(727.57,80.7503) rotate(53.1301)">
			<title>Ligger, 2 pt.2653</title>
			<path d="M0 326.36 L14.17 326.36" class="st3"/>
		</g>
		<g id="shape2654-25" v:mID="2654" v:groupContext="shape" transform="translate(-89.3285,-86.5682) rotate(-36.8699)">
			<title>Ligger, 2 pt.2654</title>
			<path d="M0 326.36 L141.73 326.36" class="st3"/>
		</g>
		<g id="shape2657-28" v:mID="2657" v:groupContext="shape" transform="translate(-157.36,-35.5446) rotate(-36.8699)">
			<title>Ligger, 2 pt.2657</title>
			<path d="M0 326.36 L14.17 326.36" class="st3"/>
		</g>
		<g id="shape2658-31" v:mID="2658" v:groupContext="shape" transform="translate(784.337,38.4535) rotate(90)">
			<title>Kracht.2658</title>
			<path d="M7.55 326.36 L7.91 326.36 L28.35 326.36" class="st4"/>
		</g>
		<g id="shape2659-37" v:mID="2659" v:groupContext="shape" transform="translate(103.279,66.7999) rotate(-90)">
			<title>Kracht.2659</title>
			<path d="M7.55 326.36 L7.91 326.36 L28.35 326.36" class="st4"/>
		</g>
		<g id="shape2660-42" v:mID="2660" v:groupContext="shape" transform="translate(770.164,10.107) rotate(90)">
			<title>Kracht.2660</title>
			<path d="M7.55 326.36 L7.91 326.36 L28.35 326.36" class="st4"/>
		</g>
		<g id="shape2661-47" v:mID="2661" v:groupContext="shape" transform="translate(344.595,-287.902)">
			<title>Kracht.2661</title>
			<path d="M7.55 326.36 L7.91 326.36 L28.35 326.36" class="st4"/>
		</g>
		<g id="shape2662-52" v:mID="2662" v:groupContext="shape" transform="translate(330.422,364.809) rotate(180)">
			<title>Kracht.2662</title>
			<path d="M7.55 326.36 L7.91 326.36 L28.35 326.36" class="st4"/>
		</g>
		<g id="shape2664-57" v:mID="2664" v:groupContext="shape" transform="translate(583.003,-112.006) rotate(53.1301)">
			<title>Kracht.2664</title>
			<path d="M7.55 326.36 L7.91 326.36 L28.35 326.36" class="st4"/>
		</g>
		<g id="shape2666-62" v:mID="2666" v:groupContext="shape" transform="translate(710.562,58.0731) rotate(53.1301)">
			<title>Kracht.2666</title>
			<path d="M7.55 326.36 L7.91 326.36 L28.35 326.36" class="st4"/>
		</g>
		<g id="shape2667-67" v:mID="2667" v:groupContext="shape" transform="translate(179.889,438.361) rotate(-126.87)">
			<title>Kracht.2667</title>
			<path d="M7.55 326.36 L7.91 326.36 L28.35 326.36" class="st4"/>
		</g>
		<g id="shape2668-72" v:mID="2668" v:groupContext="shape" transform="translate(52.3295,268.283) rotate(-126.87)">
			<title>Kracht.2668</title>
			<path d="M7.55 326.36 L7.91 326.36 L28.35 326.36" class="st4"/>
		</g>
		<g id="shape2669-77" v:mID="2669" v:groupContext="shape" transform="translate(58.0731,-197.119) rotate(-36.8699)">
			<title>Kracht.2669</title>
			<path d="M7.55 326.36 L7.91 326.36 L28.35 326.36" class="st4"/>
		</g>
		<g id="shape2670-82" v:mID="2670" v:groupContext="shape" transform="translate(-112.006,-69.5603) rotate(-36.8699)">
			<title>Kracht.2670</title>
			<path d="M7.55 326.36 L7.91 326.36 L28.35 326.36" class="st4"/>
		</g>
		<g id="shape2671-87" v:mID="2671" v:groupContext="shape" transform="translate(268.283,461.113) rotate(143.13)">
			<title>Kracht.2671</title>
			<path d="M7.55 326.36 L7.91 326.36 L28.35 326.36" class="st4"/>
		</g>
		<g id="shape2673-92" v:mID="2673" v:groupContext="shape" transform="translate(438.361,333.554) rotate(143.13)">
			<title>Kracht.2673</title>
			<path d="M7.55 326.36 L7.91 326.36 L28.35 326.36" class="st4"/>
		</g>
		<g id="shape2674-97" v:mID="2674" v:groupContext="shape" transform="translate(801.345,287.902) rotate(90)">
			<title>Kracht.2674</title>
			<path d="M7.55 326.36 L7.91 326.36 L28.35 326.36" class="st4"/>
		</g>
		<g id="shape2675-102" v:mID="2675" v:groupContext="shape" transform="translate(474.989,-38.4535)">
			<title>Kracht.2675</title>
			<path d="M7.55 326.36 L7.91 326.36 L28.35 326.36" class="st4"/>
		</g>
		<g id="shape2676-107" v:mID="2676" v:groupContext="shape" transform="translate(364.809,225.54) rotate(90)">
			<title>Kracht.2676</title>
			<path d="M7.55 326.36 L7.91 326.36 L28.35 326.36" class="st4"/>
		</g>
		<g id="shape2677-112" v:mID="2677" v:groupContext="shape" transform="translate(38.4535,551.896) rotate(180)">
			<title>Kracht.2677</title>
			<path d="M7.55 326.36 L7.91 326.36 L28.35 326.36" class="st4"/>
		</g>
		<g id="shape2678-117" v:mID="2678" v:groupContext="shape" transform="translate(46.5859,52.6267) rotate(-90)">
			<title>Moment.2678</title>
			<path d="M-0 326.36 A14.1732 14.1732 0 0 1 14.17 312.18 A14.1732 14.1732 0 0 1 26.14 318.76 L26.24 319.11" class="st6"/>
		</g>
		<g id="shape2679-123" v:mID="2679" v:groupContext="shape" transform="translate(628.431,52.6267) rotate(90) scale(-1,1)">
			<title>Moment.2679</title>
			<path d="M-0 326.36 A14.1732 14.1732 0 0 1 14.17 312.18 A14.1732 14.1732 0 0 1 26.14 318.76 L26.24 319.11" class="st6"/>
		</g>
		<g id="shape2680-128" v:mID="2680" v:groupContext="shape" transform="translate(699.297,10.107) rotate(90)">
			<title>Kracht.2680</title>
			<path d="M7.55 326.36 L7.91 326.36 L28.35 326.36" class="st4"/>
		</g>
		<g id="shape2681-133" v:mID="2681" v:groupContext="shape" transform="translate(-24.2802,66.7999) rotate(-90)">
			<title>Kracht.2681</title>
			<path d="M7.55 326.36 L7.91 326.36 L28.35 326.36" class="st4"/>
		</g>
		<g id="shape2682-138" v:mID="2682" v:groupContext="shape" transform="translate(77.9156,-194.285) rotate(-36.8699)">
			<title>Kracht.2682</title>
			<path d="M7.55 326.36 L7.91 326.36 L28.35 326.36" class="st4"/>
		</g>
		<g id="shape2684-143" v:mID="2684" v:groupContext="shape" transform="translate(520.64,-171.533) rotate(53.1301)">
			<title>Kracht.2684</title>
			<path d="M7.55 326.36 L7.91 326.36 L28.35 326.36" class="st4"/>
		</g>
		<g id="shape2685-148" v:mID="2685" v:groupContext="shape" transform="translate(557.417,350.562) rotate(143.13)">
			<title>Kracht.2685</title>
			<path d="M7.55 326.36 L7.91 326.36 L28.35 326.36" class="st4"/>
		</g>
		<g id="shape2686-153" v:mID="2686" v:groupContext="shape" transform="translate(503.558,302.089) rotate(143.13)">
			<title>Moment.2686</title>
			<path d="M-0 326.36 A14.1732 14.1732 0 0 1 14.17 312.18 A14.1732 14.1732 0 0 1 26.14 318.76 L26.24 319.11" class="st6"/>
		</g>
		<g id="shape2687-158" v:mID="2687" v:groupContext="shape"
				transform="translate(154.451,-163.104) rotate(-36.8699) scale(-1,1)">
			<title>Moment.2687</title>
			<path d="M-0 326.36 A14.1732 14.1732 0 0 1 14.17 312.18 A14.1732 14.1732 0 0 1 26.14 318.76 L26.24 319.11" class="st6"/>
		</g>
		<g id="shape2688-163" v:mID="2688" v:groupContext="shape"
				transform="translate(6.97518,231.432) rotate(53.1301) scale(1,-1)">
			<title>Moment.2688</title>
			<path d="M-0 326.36 A14.1732 14.1732 0 0 1 14.17 312.18 A14.1732 14.1732 0 0 1 26.14 318.76 L26.24 319.11" class="st6"/>
		</g>
		<g id="shape2689-168" v:mID="2689" v:groupContext="shape" transform="translate(472.451,-117.675) rotate(53.1301)">
			<title>Moment.2689</title>
			<path d="M-0 326.36 A14.1732 14.1732 0 0 1 14.17 312.18 A14.1732 14.1732 0 0 1 26.14 318.76 L26.24 319.11" class="st6"/>
		</g>
		<g id="shape2690-173" v:mID="2690" v:groupContext="shape" transform="translate(-194.285,435.527) rotate(-126.87)">
			<title>Kracht.2690</title>
			<path d="M7.55 326.36 L7.91 326.36 L28.35 326.36" class="st4"/>
		</g>
		<g id="shape2691-178" v:mID="2691" v:groupContext="shape" transform="translate(350.562,-43.9742) rotate(53.1301)">
			<title>Kracht.2691</title>
			<path d="M7.55 326.36 L7.91 326.36 L28.35 326.36" class="st4"/>
		</g>
		<g id="shape2692-183" v:mID="2692" v:groupContext="shape" transform="translate(-24.2059,307.968) rotate(-126.87)">
			<title>Kracht.2692</title>
			<path d="M7.55 326.36 L7.91 326.36 L28.35 326.36" class="st4"/>
		</g>
		<g id="group2733-188" transform="translate(372.942,-287.902)" v:mID="2733" v:groupContext="group">
			<title>q-last constnt.2733</title>
			<g id="group2734-189" v:mID="2734" v:groupContext="group">
				<title>q-last, recht.51</title>
				<g id="shape2735-190" v:mID="2735" v:groupContext="shape" transform="translate(326.356,312.183) rotate(90)">
					<title>Kracht.5</title>
					<path d="M0 326.36 L9.55 326.36" class="st7"/>
				</g>
				<g id="shape2736-196" v:mID="2736" v:groupContext="shape" transform="translate(3.9968E-15,-14.1732)">
					<title>Blad.2736</title>
					<path d="M0 326.36 L56.69 326.36" class="st9"/>
				</g>
				<g id="shape2737-199" v:mID="2737" v:groupContext="shape" transform="translate(336.664,312.183) rotate(90)">
					<title>Kracht.4</title>
					<path d="M0 326.36 L9.55 326.36" class="st7"/>
				</g>
				<g id="shape2738-204" v:mID="2738" v:groupContext="shape" transform="translate(346.971,312.183) rotate(90)">
					<title>Kracht.9</title>
					<path d="M0 326.36 L9.55 326.36" class="st7"/>
				</g>
				<g id="shape2739-209" v:mID="2739" v:groupContext="shape" transform="translate(383.049,312.183) rotate(90)">
					<title>Kracht.6</title>
					<path d="M0 326.36 L9.55 326.36" class="st7"/>
				</g>
				<g id="shape2740-214" v:mID="2740" v:groupContext="shape" transform="translate(372.741,312.183) rotate(90)">
					<title>Kracht.7</title>
					<path d="M0 326.36 L9.55 326.36" class="st7"/>
				</g>
			</g>
		</g>
		<g id="shape2741-219" v:mID="2741" v:groupContext="shape" transform="translate(-197.214,-0.876333) rotate(-43.6)">
			<title>Moment.2741</title>
			<path d="M-0 326.36 A14.1732 14.1732 0 0 1 14.17 312.18 A14.1732 14.1732 0 0 1 26.14 318.76 L26.24 319.11" class="st10"/>
		</g>
		<g id="shape2742-225" v:mID="2742" v:groupContext="shape"
				transform="translate(-163.104,358.991) rotate(53.1301) scale(1,-1)">
			<title>Moment.2742</title>
			<path d="M-0 326.36 A14.1732 14.1732 0 0 1 14.17 312.18 A14.1732 14.1732 0 0 1 26.14 318.76 L26.24 319.11" class="st6"/>
		</g>
		<g id="shape2743-230" v:mID="2743" v:groupContext="shape" transform="translate(302.373,9.8841) rotate(53.1301)">
			<title>Moment.2743</title>
			<path d="M-0 326.36 A14.1732 14.1732 0 0 1 14.17 312.18 A14.1732 14.1732 0 0 1 26.14 318.76 L26.24 319.11" class="st6"/>
		</g>
		<g id="shape2795-235" v:mID="2795" v:groupContext="shape" transform="translate(61.1307,-131.997)">
			<title>Blad.2795</title>
			<desc>3</desc>
			<v:textBlock v:margins="rect(4,4,4,4)" v:tabSpace="42.5197"/>
			<v:textRect cx="14.1732" cy="319.269" width="28.35" height="14.1733"/>
			<rect x="0" y="312.183" width="28.3465" height="14.1733" class="st1"/>
			<text x="11.17" y="322.87" class="st2" v:langID="1043"><v:paragraph v:horizAlign="1"/><v:tabList/>3</text>		</g>
		<g id="shape2796-238" v:mID="2796" v:groupContext="shape" transform="translate(231.209,-259.556)">
			<title>Blad.2796</title>
			<desc>3</desc>
			<v:textBlock v:margins="rect(4,4,4,4)" v:tabSpace="42.5197"/>
			<v:textRect cx="14.1732" cy="319.269" width="28.35" height="14.1733"/>
			<rect x="0" y="312.183" width="28.3465" height="14.1733" class="st1"/>
			<text x="11.17" y="322.87" class="st2" v:langID="1043"><v:paragraph v:horizAlign="1"/><v:tabList/>3</text>		</g>
		<g id="shape2797-241" v:mID="2797" v:groupContext="shape" transform="translate(323.335,-287.902)">
			<title>Blad.2797</title>
			<desc>3</desc>
			<v:textBlock v:margins="rect(4,4,4,4)" v:tabSpace="42.5197"/>
			<v:textRect cx="14.1732" cy="319.269" width="28.35" height="14.1733"/>
			<rect x="0" y="312.183" width="28.3465" height="14.1733" class="st1"/>
			<text x="11.17" y="322.87" class="st2" v:langID="1043"><v:paragraph v:horizAlign="1"/><v:tabList/>3</text>		</g>
		<g id="shape2798-244" v:mID="2798" v:groupContext="shape" transform="translate(294.989,-238.296)">
			<title>Blad.2798</title>
			<desc>3</desc>
			<v:textBlock v:margins="rect(4,4,4,4)" v:tabSpace="42.5197"/>
			<v:textRect cx="14.1732" cy="319.269" width="28.35" height="14.1733"/>
			<rect x="0" y="312.183" width="28.3465" height="14.1733" class="st1"/>
			<text x="11.17" y="322.87" class="st2" v:langID="1043"><v:paragraph v:horizAlign="1"/><v:tabList/>3</text>		</g>
		<g id="shape2799-247" v:mID="2799" v:groupContext="shape" transform="translate(422.548,-309.162)">
			<title>Blad.2799</title>
			<desc>1</desc>
			<v:textBlock v:margins="rect(4,4,4,4)" v:tabSpace="42.5197"/>
			<v:textRect cx="14.1732" cy="319.269" width="28.35" height="14.1733"/>
			<rect x="0" y="312.183" width="28.3465" height="14.1733" class="st1"/>
			<text x="11.17" y="322.87" class="st2" v:langID="1043"><v:paragraph v:horizAlign="1"/><v:tabList/>1</text>		</g>
		<g id="shape2800-250" v:mID="2800" v:groupContext="shape" transform="translate(457.981,-263.826)">
			<title>Blad.2800</title>
			<desc>1</desc>
			<v:textBlock v:margins="rect(4,4,4,4)" v:tabSpace="42.5197"/>
			<v:textRect cx="14.1732" cy="319.269" width="28.35" height="14.1733"/>
			<rect x="0" y="312.183" width="28.3465" height="14.1733" class="st1"/>
			<text x="11.17" y="322.87" class="st2" v:langID="1043"><v:paragraph v:horizAlign="1"/><v:tabList/>1</text>		</g>
		<g id="shape2801-253" v:mID="2801" v:groupContext="shape" transform="translate(438.139,-73.8865)">
			<title>Blad.2801</title>
			<desc>2</desc>
			<v:textBlock v:margins="rect(4,4,4,4)" v:tabSpace="42.5197"/>
			<v:textRect cx="14.1732" cy="319.269" width="28.35" height="14.1733"/>
			<rect x="0" y="312.183" width="28.3465" height="14.1733" class="st1"/>
			<text x="11.17" y="322.87" class="st2" v:langID="1043"><v:paragraph v:horizAlign="1"/><v:tabList/>2</text>		</g>
		<g id="shape2802-256" v:mID="2802" v:groupContext="shape" transform="translate(205.475,-24.2059) rotate(-36.8699)">
			<title>Kracht.2802</title>
			<path d="M7.55 326.36 L7.91 326.36 L28.35 326.36" class="st4"/>
		</g>
		<g id="shape2803-261" v:mID="2803" v:groupContext="shape" transform="translate(684.976,520.64) rotate(143.13)">
			<title>Kracht.2803</title>
			<path d="M7.55 326.36 L7.91 326.36 L28.35 326.36" class="st4"/>
		</g>
		<g id="shape2804-266" v:mID="2804" v:groupContext="shape" transform="translate(477.824,-12.9416)">
			<title>Blad.2804</title>
			<desc>2</desc>
			<v:textBlock v:margins="rect(4,4,4,4)" v:tabSpace="42.5197"/>
			<v:textRect cx="14.1732" cy="319.269" width="28.35" height="14.1733"/>
			<rect x="0" y="312.183" width="28.3465" height="14.1733" class="st1"/>
			<text x="11.17" y="322.87" class="st2" v:langID="1043"><v:paragraph v:horizAlign="1"/><v:tabList/>2</text>		</g>
	</g>
</svg>
