<?xml version="1.0" encoding="UTF-8" standalone="no"?>
<!DOCTYPE svg PUBLIC "-//W3C//DTD SVG 1.1//EN" "http://www.w3.org/Graphics/SVG/1.1/DTD/svg11.dtd">
<!-- Gegenereerd door Microsoft Visio, SVG Export stat_onbepaald_vergel.svg Pagina-1 -->
<svg xmlns="http://www.w3.org/2000/svg" xmlns:xlink="http://www.w3.org/1999/xlink" xmlns:ev="http://www.w3.org/2001/xml-events"
		xmlns:v="http://schemas.microsoft.com/visio/2003/SVGExtensions/" width="7.13114in" height="4.53272in"
		viewBox="0 0 513.442 326.356" xml:space="preserve" color-interpolation-filters="sRGB" class="st10">
	<v:documentProperties v:langID="1043" v:metric="true" v:viewMarkup="false"/>

	<style type="text/css">
	<![CDATA[
		.st1 {stroke:#000000;stroke-linecap:round;stroke-linejoin:round;stroke-width:2}
		.st2 {marker-start:url(#mrkr5-33);stroke:#800000;stroke-linecap:round;stroke-linejoin:round;stroke-opacity:0.5;stroke-width:2}
		.st3 {fill:#800000;fill-opacity:0.5;stroke:#800000;stroke-opacity:0.5;stroke-width:0.44247787610619}
		.st4 {marker-end:url(#mrkr5-119);stroke:#800000;stroke-linecap:round;stroke-linejoin:round;stroke-opacity:0.5;stroke-width:2}
		.st5 {marker-end:url(#mrkr5-192);stroke:#800000;stroke-linecap:round;stroke-linejoin:round;stroke-opacity:0.5;stroke-width:1.2}
		.st6 {fill:#800000;fill-opacity:0.5;stroke:#800000;stroke-opacity:0.5;stroke-width:0.45454545454545}
		.st7 {stroke:#800000;stroke-linecap:round;stroke-linejoin:round;stroke-opacity:0.5;stroke-width:1.2}
		.st8 {fill:none;stroke:none;stroke-linecap:round;stroke-linejoin:round;stroke-width:0.75}
		.st9 {fill:#000000;font-family:Times New Roman;font-size:1.00001em}
		.st10 {fill:none;fill-rule:evenodd;font-size:12px;overflow:visible;stroke-linecap:square;stroke-miterlimit:3}
	]]>
	</style>

	<defs id="Markers">
		<g id="lend5">
			<path d="M 2 1 L 0 0 L 1.98117 -0.993387 C 1.67173 -0.364515 1.67301 0.372641 1.98465 1.00043 " style="stroke:none"/>
		</g>
		<marker id="mrkr5-33" class="st3" v:arrowType="5" v:arrowSize="2" v:setback="3.775" refX="3.775" orient="auto"
				markerUnits="strokeWidth" overflow="visible">
			<use xlink:href="#lend5" transform="scale(2.26) "/>
		</marker>
		<marker id="mrkr5-119" class="st3" v:arrowType="5" v:arrowSize="2" v:setback="3.775" refX="-3.775" orient="auto"
				markerUnits="strokeWidth" overflow="visible">
			<use xlink:href="#lend5" transform="scale(-2.26,-2.26) "/>
		</marker>
		<marker id="mrkr5-192" class="st6" v:arrowType="5" v:arrowSize="0" v:setback="3.85" refX="-3.85" orient="auto"
				markerUnits="strokeWidth" overflow="visible">
			<use xlink:href="#lend5" transform="scale(-2.2,-2.2) "/>
		</marker>
	</defs>
	<g v:mID="0" v:index="1" v:groupContext="foregroundPage">
		<title>Pagina-1</title>
		<v:pageProperties v:drawingScale="0.0393701" v:pageScale="0.0393701" v:drawingUnits="24" v:shadowOffsetX="8.50394"
				v:shadowOffsetY="-8.50394"/>
		<g id="shape2744-1" v:mID="2744" v:groupContext="shape" transform="translate(80.7503,-214.127) rotate(-36.8699)">
			<title>Ligger, 2 pt.2744</title>
			<path d="M0 326.36 L14.17 326.36" class="st1"/>
		</g>
		<g id="shape2745-4" v:mID="2745" v:groupContext="shape" transform="translate(548.987,-157.36) rotate(53.1301)">
			<title>Ligger, 2 pt.2745</title>
			<path d="M0 326.36 L14.17 326.36" class="st1"/>
		</g>
		<g id="shape2746-7" v:mID="2746" v:groupContext="shape" transform="translate(287.902,-287.902)">
			<title>Ligger, 2 pt.2746</title>
			<path d="M0 326.36 L14.17 326.36" class="st1"/>
		</g>
		<g id="shape2747-10" v:mID="2747" v:groupContext="shape" transform="translate(372.942,-287.902)">
			<title>Ligger, 2 pt.2747</title>
			<path d="M0 326.36 L56.69 326.36" class="st1"/>
		</g>
		<g id="shape2748-13" v:mID="2748" v:groupContext="shape" transform="translate(443.808,-287.902)">
			<title>Ligger, 2 pt.2748</title>
			<path d="M0 326.36 L14.17 326.36" class="st1"/>
		</g>
		<g id="shape2749-16" v:mID="2749" v:groupContext="shape" transform="translate(600.011,-89.3285) rotate(53.1301)">
			<title>Ligger, 2 pt.2749</title>
			<path d="M0 326.36 L141.73 326.36" class="st1"/>
		</g>
		<g id="shape2750-19" v:mID="2750" v:groupContext="shape" transform="translate(727.57,80.7503) rotate(53.1301)">
			<title>Ligger, 2 pt.2750</title>
			<path d="M0 326.36 L14.17 326.36" class="st1"/>
		</g>
		<g id="shape2751-22" v:mID="2751" v:groupContext="shape" transform="translate(-89.3285,-86.5682) rotate(-36.8699)">
			<title>Ligger, 2 pt.2751</title>
			<path d="M0 326.36 L141.73 326.36" class="st1"/>
		</g>
		<g id="shape2752-25" v:mID="2752" v:groupContext="shape" transform="translate(-157.36,-35.5446) rotate(-36.8699)">
			<title>Ligger, 2 pt.2752</title>
			<path d="M0 326.36 L14.17 326.36" class="st1"/>
		</g>
		<g id="shape2753-28" v:mID="2753" v:groupContext="shape" transform="translate(784.337,38.4535) rotate(90)">
			<title>Kracht.2753</title>
			<path d="M7.55 326.36 L7.91 326.36 L28.35 326.36" class="st2"/>
		</g>
		<g id="shape2754-34" v:mID="2754" v:groupContext="shape" transform="translate(103.279,66.7999) rotate(-90)">
			<title>Kracht.2754</title>
			<path d="M7.55 326.36 L7.91 326.36 L28.35 326.36" class="st2"/>
		</g>
		<g id="shape2755-39" v:mID="2755" v:groupContext="shape" transform="translate(770.164,10.107) rotate(90)">
			<title>Kracht.2755</title>
			<path d="M7.55 326.36 L7.91 326.36 L28.35 326.36" class="st2"/>
		</g>
		<g id="shape2756-44" v:mID="2756" v:groupContext="shape" transform="translate(344.595,-287.902)">
			<title>Kracht.2756</title>
			<path d="M7.55 326.36 L7.91 326.36 L28.35 326.36" class="st2"/>
		</g>
		<g id="shape2757-49" v:mID="2757" v:groupContext="shape" transform="translate(330.422,364.809) rotate(180)">
			<title>Kracht.2757</title>
			<path d="M7.55 326.36 L7.91 326.36 L28.35 326.36" class="st2"/>
		</g>
		<g id="shape2758-54" v:mID="2758" v:groupContext="shape" transform="translate(583.003,-112.006) rotate(53.1301)">
			<title>Kracht.2758</title>
			<path d="M7.55 326.36 L7.91 326.36 L28.35 326.36" class="st2"/>
		</g>
		<g id="shape2759-59" v:mID="2759" v:groupContext="shape" transform="translate(710.562,58.0731) rotate(53.1301)">
			<title>Kracht.2759</title>
			<path d="M7.55 326.36 L7.91 326.36 L28.35 326.36" class="st2"/>
		</g>
		<g id="shape2760-64" v:mID="2760" v:groupContext="shape" transform="translate(179.889,438.361) rotate(-126.87)">
			<title>Kracht.2760</title>
			<path d="M7.55 326.36 L7.91 326.36 L28.35 326.36" class="st2"/>
		</g>
		<g id="shape2761-69" v:mID="2761" v:groupContext="shape" transform="translate(52.3295,268.283) rotate(-126.87)">
			<title>Kracht.2761</title>
			<path d="M7.55 326.36 L7.91 326.36 L28.35 326.36" class="st2"/>
		</g>
		<g id="shape2762-74" v:mID="2762" v:groupContext="shape" transform="translate(58.0731,-197.119) rotate(-36.8699)">
			<title>Kracht.2762</title>
			<path d="M7.55 326.36 L7.91 326.36 L28.35 326.36" class="st2"/>
		</g>
		<g id="shape2763-79" v:mID="2763" v:groupContext="shape" transform="translate(-112.006,-69.5603) rotate(-36.8699)">
			<title>Kracht.2763</title>
			<path d="M7.55 326.36 L7.91 326.36 L28.35 326.36" class="st2"/>
		</g>
		<g id="shape2764-84" v:mID="2764" v:groupContext="shape" transform="translate(268.283,461.113) rotate(143.13)">
			<title>Kracht.2764</title>
			<path d="M7.55 326.36 L7.91 326.36 L28.35 326.36" class="st2"/>
		</g>
		<g id="shape2765-89" v:mID="2765" v:groupContext="shape" transform="translate(438.361,333.554) rotate(143.13)">
			<title>Kracht.2765</title>
			<path d="M7.55 326.36 L7.91 326.36 L28.35 326.36" class="st2"/>
		</g>
		<g id="shape2766-94" v:mID="2766" v:groupContext="shape" transform="translate(801.345,287.902) rotate(90)">
			<title>Kracht.2766</title>
			<path d="M7.55 326.36 L7.91 326.36 L28.35 326.36" class="st2"/>
		</g>
		<g id="shape2767-99" v:mID="2767" v:groupContext="shape" transform="translate(474.989,-38.4535)">
			<title>Kracht.2767</title>
			<path d="M7.55 326.36 L7.91 326.36 L28.35 326.36" class="st2"/>
		</g>
		<g id="shape2768-104" v:mID="2768" v:groupContext="shape" transform="translate(364.809,225.54) rotate(90)">
			<title>Kracht.2768</title>
			<path d="M7.55 326.36 L7.91 326.36 L28.35 326.36" class="st2"/>
		</g>
		<g id="shape2769-109" v:mID="2769" v:groupContext="shape" transform="translate(38.4535,551.896) rotate(180)">
			<title>Kracht.2769</title>
			<path d="M7.55 326.36 L7.91 326.36 L28.35 326.36" class="st2"/>
		</g>
		<g id="shape2770-114" v:mID="2770" v:groupContext="shape" transform="translate(46.5859,52.6267) rotate(-90)">
			<title>Moment.2770</title>
			<path d="M-0 326.36 A14.1732 14.1732 0 0 1 14.17 312.18 A14.1732 14.1732 0 0 1 26.14 318.76 L26.24 319.11" class="st4"/>
		</g>
		<g id="shape2771-120" v:mID="2771" v:groupContext="shape" transform="translate(628.431,52.6267) rotate(90) scale(-1,1)">
			<title>Moment.2771</title>
			<path d="M-0 326.36 A14.1732 14.1732 0 0 1 14.17 312.18 A14.1732 14.1732 0 0 1 26.14 318.76 L26.24 319.11" class="st4"/>
		</g>
		<g id="shape2772-125" v:mID="2772" v:groupContext="shape" transform="translate(699.297,10.107) rotate(90)">
			<title>Kracht.2772</title>
			<path d="M7.55 326.36 L7.91 326.36 L28.35 326.36" class="st2"/>
		</g>
		<g id="shape2773-130" v:mID="2773" v:groupContext="shape" transform="translate(-24.2802,66.7999) rotate(-90)">
			<title>Kracht.2773</title>
			<path d="M7.55 326.36 L7.91 326.36 L28.35 326.36" class="st2"/>
		</g>
		<g id="shape2774-135" v:mID="2774" v:groupContext="shape" transform="translate(77.9156,-194.285) rotate(-36.8699)">
			<title>Kracht.2774</title>
			<path d="M7.55 326.36 L7.91 326.36 L28.35 326.36" class="st2"/>
		</g>
		<g id="shape2775-140" v:mID="2775" v:groupContext="shape" transform="translate(520.64,-171.533) rotate(53.1301)">
			<title>Kracht.2775</title>
			<path d="M7.55 326.36 L7.91 326.36 L28.35 326.36" class="st2"/>
		</g>
		<g id="shape2776-145" v:mID="2776" v:groupContext="shape" transform="translate(557.417,350.562) rotate(143.13)">
			<title>Kracht.2776</title>
			<path d="M7.55 326.36 L7.91 326.36 L28.35 326.36" class="st2"/>
		</g>
		<g id="shape2777-150" v:mID="2777" v:groupContext="shape" transform="translate(503.558,302.089) rotate(143.13)">
			<title>Moment.2777</title>
			<path d="M-0 326.36 A14.1732 14.1732 0 0 1 14.17 312.18 A14.1732 14.1732 0 0 1 26.14 318.76 L26.24 319.11" class="st4"/>
		</g>
		<g id="shape2778-155" v:mID="2778" v:groupContext="shape"
				transform="translate(154.451,-163.104) rotate(-36.8699) scale(-1,1)">
			<title>Moment.2778</title>
			<path d="M-0 326.36 A14.1732 14.1732 0 0 1 14.17 312.18 A14.1732 14.1732 0 0 1 26.14 318.76 L26.24 319.11" class="st4"/>
		</g>
		<g id="shape2779-160" v:mID="2779" v:groupContext="shape"
				transform="translate(6.97518,231.432) rotate(53.1301) scale(1,-1)">
			<title>Moment.2779</title>
			<path d="M-0 326.36 A14.1732 14.1732 0 0 1 14.17 312.18 A14.1732 14.1732 0 0 1 26.14 318.76 L26.24 319.11" class="st4"/>
		</g>
		<g id="shape2780-165" v:mID="2780" v:groupContext="shape" transform="translate(472.451,-117.675) rotate(53.1301)">
			<title>Moment.2780</title>
			<path d="M-0 326.36 A14.1732 14.1732 0 0 1 14.17 312.18 A14.1732 14.1732 0 0 1 26.14 318.76 L26.24 319.11" class="st4"/>
		</g>
		<g id="shape2781-170" v:mID="2781" v:groupContext="shape" transform="translate(-194.285,435.527) rotate(-126.87)">
			<title>Kracht.2781</title>
			<path d="M7.55 326.36 L7.91 326.36 L28.35 326.36" class="st2"/>
		</g>
		<g id="shape2782-175" v:mID="2782" v:groupContext="shape" transform="translate(350.562,-43.9742) rotate(53.1301)">
			<title>Kracht.2782</title>
			<path d="M7.55 326.36 L7.91 326.36 L28.35 326.36" class="st2"/>
		</g>
		<g id="shape2783-180" v:mID="2783" v:groupContext="shape" transform="translate(-24.2059,307.968) rotate(-126.87)">
			<title>Kracht.2783</title>
			<path d="M7.55 326.36 L7.91 326.36 L28.35 326.36" class="st2"/>
		</g>
		<g id="group2784-185" transform="translate(372.942,-287.902)" v:mID="2784" v:groupContext="group">
			<title>q-last constnt.2784</title>
			<g id="group2785-186" v:mID="2785" v:groupContext="group">
				<title>q-last, recht.51</title>
				<g id="shape2786-187" v:mID="2786" v:groupContext="shape" transform="translate(326.356,312.183) rotate(90)">
					<title>Kracht.5</title>
					<path d="M0 326.36 L9.55 326.36" class="st5"/>
				</g>
				<g id="shape2787-193" v:mID="2787" v:groupContext="shape" transform="translate(3.9968E-15,-14.1732)">
					<title>Blad.2787</title>
					<path d="M0 326.36 L56.69 326.36" class="st7"/>
				</g>
				<g id="shape2788-196" v:mID="2788" v:groupContext="shape" transform="translate(336.664,312.183) rotate(90)">
					<title>Kracht.4</title>
					<path d="M0 326.36 L9.55 326.36" class="st5"/>
				</g>
				<g id="shape2789-201" v:mID="2789" v:groupContext="shape" transform="translate(346.971,312.183) rotate(90)">
					<title>Kracht.9</title>
					<path d="M0 326.36 L9.55 326.36" class="st5"/>
				</g>
				<g id="shape2790-206" v:mID="2790" v:groupContext="shape" transform="translate(383.049,312.183) rotate(90)">
					<title>Kracht.6</title>
					<path d="M0 326.36 L9.55 326.36" class="st5"/>
				</g>
				<g id="shape2791-211" v:mID="2791" v:groupContext="shape" transform="translate(372.741,312.183) rotate(90)">
					<title>Kracht.7</title>
					<path d="M0 326.36 L9.55 326.36" class="st5"/>
				</g>
			</g>
		</g>
		<g id="shape2792-216" v:mID="2792" v:groupContext="shape" transform="translate(-197.214,-0.876333) rotate(-43.6)">
			<title>Moment.2792</title>
			<path d="M-0 326.36 A14.1732 14.1732 0 0 1 14.17 312.18 A14.1732 14.1732 0 0 1 26.14 318.76 L26.24 319.11" class="st4"/>
		</g>
		<g id="shape2793-221" v:mID="2793" v:groupContext="shape"
				transform="translate(-163.104,358.991) rotate(53.1301) scale(1,-1)">
			<title>Moment.2793</title>
			<path d="M-0 326.36 A14.1732 14.1732 0 0 1 14.17 312.18 A14.1732 14.1732 0 0 1 26.14 318.76 L26.24 319.11" class="st4"/>
		</g>
		<g id="shape2794-226" v:mID="2794" v:groupContext="shape" transform="translate(302.373,9.8841) rotate(53.1301)">
			<title>Moment.2794</title>
			<path d="M-0 326.36 A14.1732 14.1732 0 0 1 14.17 312.18 A14.1732 14.1732 0 0 1 26.14 318.76 L26.24 319.11" class="st4"/>
		</g>
		<g id="shape2805-231" v:mID="2805" v:groupContext="shape" transform="translate(469.32,-39.8708)">
			<title>Blad.2805</title>
			<desc>2</desc>
			<v:textBlock v:margins="rect(4,4,4,4)" v:tabSpace="42.5197"/>
			<v:textRect cx="14.1732" cy="319.269" width="28.35" height="14.1733"/>
			<rect x="0" y="312.183" width="28.3465" height="14.1733" class="st8"/>
			<text x="11.17" y="322.87" class="st9" v:langID="1043"><v:paragraph v:horizAlign="1"/><v:tabList/>2</text>		</g>
		<g id="shape2806-234" v:mID="2806" v:groupContext="shape" transform="translate(205.475,-24.2059) rotate(-36.8699)">
			<title>Kracht.2806</title>
			<path d="M7.55 326.36 L7.91 326.36 L28.35 326.36" class="st2"/>
		</g>
		<g id="shape2807-239" v:mID="2807" v:groupContext="shape" transform="translate(684.976,520.64) rotate(143.13)">
			<title>Kracht.2807</title>
			<path d="M7.55 326.36 L7.91 326.36 L28.35 326.36" class="st2"/>
		</g>
		<g id="shape2808-244" v:mID="2808" v:groupContext="shape" transform="translate(377.194,-164.192)">
			<title>Blad.2808</title>
			<desc>3</desc>
			<v:textBlock v:margins="rect(4,4,4,4)" v:tabSpace="42.5197"/>
			<v:textRect cx="14.1732" cy="319.269" width="28.35" height="14.1733"/>
			<rect x="0" y="312.183" width="28.3465" height="14.1733" class="st8"/>
			<text x="11.17" y="322.87" class="st9" v:langID="1043"><v:paragraph v:horizAlign="1"/><v:tabList/>3</text>		</g>
		<g id="shape2809-247" v:mID="2809" v:groupContext="shape" transform="translate(387.115,-266.642)">
			<title>Blad.2809</title>
			<desc>3</desc>
			<v:textBlock v:margins="rect(4,4,4,4)" v:tabSpace="42.5197"/>
			<v:textRect cx="14.1732" cy="319.269" width="28.35" height="14.1733"/>
			<rect x="0" y="312.183" width="28.3465" height="14.1733" class="st8"/>
			<text x="11.17" y="322.87" class="st9" v:langID="1043"><v:paragraph v:horizAlign="1"/><v:tabList/>3</text>		</g>
		<g id="shape2810-250" v:mID="2810" v:groupContext="shape" transform="translate(438.139,-290.737)">
			<title>Blad.2810</title>
			<desc>1</desc>
			<v:textBlock v:margins="rect(4,4,4,4)" v:tabSpace="42.5197"/>
			<v:textRect cx="14.1732" cy="319.269" width="28.35" height="14.1733"/>
			<rect x="0" y="312.183" width="28.3465" height="14.1733" class="st8"/>
			<text x="11.17" y="322.87" class="st9" v:langID="1043"><v:paragraph v:horizAlign="1"/><v:tabList/>1</text>		</g>
		<g id="shape2811-253" v:mID="2811" v:groupContext="shape" transform="translate(270.895,-293.572)">
			<title>Blad.2811</title>
			<desc>3</desc>
			<v:textBlock v:margins="rect(4,4,4,4)" v:tabSpace="42.5197"/>
			<v:textRect cx="14.1732" cy="319.269" width="28.35" height="14.1733"/>
			<rect x="0" y="312.183" width="28.3465" height="14.1733" class="st8"/>
			<text x="11.17" y="322.87" class="st9" v:langID="1043"><v:paragraph v:horizAlign="1"/><v:tabList/>3</text>		</g>
		<g id="shape2812-256" v:mID="2812" v:groupContext="shape" transform="translate(138.86,-202.863)">
			<title>Blad.2812</title>
			<desc>3</desc>
			<v:textBlock v:margins="rect(4,4,4,4)" v:tabSpace="42.5197"/>
			<v:textRect cx="14.1732" cy="319.269" width="28.35" height="14.1733"/>
			<rect x="0" y="312.183" width="28.3465" height="14.1733" class="st8"/>
			<text x="11.17" y="322.87" class="st9" v:langID="1043"><v:paragraph v:horizAlign="1"/><v:tabList/>3</text>		</g>
		<g id="shape2813-259" v:mID="2813" v:groupContext="shape" transform="translate(38.4535,-75.3038)">
			<title>Blad.2813</title>
			<desc>3</desc>
			<v:textBlock v:margins="rect(4,4,4,4)" v:tabSpace="42.5197"/>
			<v:textRect cx="14.1732" cy="319.269" width="28.35" height="14.1733"/>
			<rect x="0" y="312.183" width="28.3465" height="14.1733" class="st8"/>
			<text x="11.17" y="322.87" class="st9" v:langID="1043"><v:paragraph v:horizAlign="1"/><v:tabList/>3</text>		</g>
	</g>
</svg>
