<?xml version="1.0" encoding="UTF-8" standalone="no"?>
<!DOCTYPE svg PUBLIC "-//W3C//DTD SVG 1.1//EN" "http://www.w3.org/Graphics/SVG/1.1/DTD/svg11.dtd">
<!-- Generated by Microsoft Visio, SVG Export stat_onbepaald_vergel.svg Page-1 -->
<svg xmlns="http://www.w3.org/2000/svg" xmlns:xlink="http://www.w3.org/1999/xlink" xmlns:ev="http://www.w3.org/2001/xml-events"
		xmlns:v="http://schemas.microsoft.com/visio/2003/SVGExtensions/" width="7.13114in" height="4.53272in"
		viewBox="0 0 513.442 326.356" xml:space="preserve" color-interpolation-filters="sRGB" class="st14">
	<v:documentProperties v:langID="1043" v:metric="true" v:viewMarkup="false"/>

	<style type="text/css">
	<![CDATA[
		.st1 {stroke:#000000;stroke-linecap:round;stroke-linejoin:round;stroke-width:2}
		.st2 {marker-start:url(#mrkr5-33);stroke:#00cc99;stroke-linecap:round;stroke-linejoin:round;stroke-opacity:0.5;stroke-width:2}
		.st3 {fill:#00cc99;fill-opacity:0.5;stroke:#00cc99;stroke-opacity:0.5;stroke-width:0.4424778761062}
		.st4 {marker-start:url(#mrkr5-39);stroke:#31859b;stroke-linecap:round;stroke-linejoin:round;stroke-opacity:0.5;stroke-width:2}
		.st5 {fill:#31859b;fill-opacity:0.5;stroke:#31859b;stroke-opacity:0.5;stroke-width:0.4424778761062}
		.st6 {marker-end:url(#mrkr5-120);stroke:#31859b;stroke-linecap:round;stroke-linejoin:round;stroke-opacity:0.5;stroke-width:2}
		.st7 {marker-end:url(#mrkr5-193);stroke:#800000;stroke-linecap:round;stroke-linejoin:round;stroke-opacity:0.5;stroke-width:1.2}
		.st8 {fill:#800000;fill-opacity:0.5;stroke:#800000;stroke-opacity:0.5;stroke-width:0.45454545454546}
		.st9 {stroke:#800000;stroke-linecap:round;stroke-linejoin:round;stroke-opacity:0.5;stroke-width:1.2}
		.st10 {marker-end:url(#mrkr5-222);stroke:#800000;stroke-linecap:round;stroke-linejoin:round;stroke-opacity:0.5;stroke-width:2}
		.st11 {fill:#800000;fill-opacity:0.5;stroke:#800000;stroke-opacity:0.5;stroke-width:0.4424778761062}
		.st12 {fill:none;stroke:none;stroke-linecap:round;stroke-linejoin:round;stroke-width:0.75}
		.st13 {fill:#000000;font-family:Times New Roman;font-size:1.00001em}
		.st14 {fill:none;fill-rule:evenodd;font-size:12px;overflow:visible;stroke-linecap:square;stroke-miterlimit:3}
	]]>
	</style>

	<defs id="Markers">
		<g id="lend5">
			<path d="M 2 1 L 0 0 L 1.98117 -0.993387 C 1.67173 -0.364515 1.67301 0.372641 1.98465 1.00043 " style="stroke:none"/>
		</g>
		<marker id="mrkr5-33" class="st3" v:arrowType="5" v:arrowSize="2" v:setback="3.775" refX="3.775" orient="auto"
				markerUnits="strokeWidth" overflow="visible">
			<use xlink:href="#lend5" transform="scale(2.26) "/>
		</marker>
		<marker id="mrkr5-39" class="st5" v:arrowType="5" v:arrowSize="2" v:setback="3.775" refX="3.775" orient="auto"
				markerUnits="strokeWidth" overflow="visible">
			<use xlink:href="#lend5" transform="scale(2.26) "/>
		</marker>
		<marker id="mrkr5-120" class="st5" v:arrowType="5" v:arrowSize="2" v:setback="3.775" refX="-3.775" orient="auto"
				markerUnits="strokeWidth" overflow="visible">
			<use xlink:href="#lend5" transform="scale(-2.26,-2.26) "/>
		</marker>
		<marker id="mrkr5-193" class="st8" v:arrowType="5" v:arrowSize="0" v:setback="3.85" refX="-3.85" orient="auto"
				markerUnits="strokeWidth" overflow="visible">
			<use xlink:href="#lend5" transform="scale(-2.2,-2.2) "/>
		</marker>
		<marker id="mrkr5-222" class="st11" v:arrowType="5" v:arrowSize="2" v:setback="3.775" refX="-3.775" orient="auto"
				markerUnits="strokeWidth" overflow="visible">
			<use xlink:href="#lend5" transform="scale(-2.26,-2.26) "/>
		</marker>
	</defs>
	<g v:mID="0" v:index="1" v:groupContext="foregroundPage">
		<title>Page-1</title>
		<v:pageProperties v:drawingScale="0.0393701" v:pageScale="0.0393701" v:drawingUnits="24" v:shadowOffsetX="8.50394"
				v:shadowOffsetY="-8.50394"/>
		<g id="shape444-1" v:mID="444" v:groupContext="shape" transform="translate(80.7503,-214.127) rotate(-36.8699)">
			<title>Ligger, 2 pt.2744</title>
			<path d="M0 326.36 L14.17 326.36" class="st1"/>
		</g>
		<g id="shape445-4" v:mID="445" v:groupContext="shape" transform="translate(548.987,-157.36) rotate(53.1301)">
			<title>Ligger, 2 pt.2745</title>
			<path d="M0 326.36 L14.17 326.36" class="st1"/>
		</g>
		<g id="shape446-7" v:mID="446" v:groupContext="shape" transform="translate(287.902,-287.902)">
			<title>Ligger, 2 pt.2746</title>
			<path d="M0 326.36 L14.17 326.36" class="st1"/>
		</g>
		<g id="shape447-10" v:mID="447" v:groupContext="shape" transform="translate(372.942,-287.902)">
			<title>Ligger, 2 pt.2747</title>
			<path d="M0 326.36 L56.69 326.36" class="st1"/>
		</g>
		<g id="shape448-13" v:mID="448" v:groupContext="shape" transform="translate(443.808,-287.902)">
			<title>Ligger, 2 pt.2748</title>
			<path d="M0 326.36 L14.17 326.36" class="st1"/>
		</g>
		<g id="shape449-16" v:mID="449" v:groupContext="shape" transform="translate(600.011,-89.3285) rotate(53.1301)">
			<title>Ligger, 2 pt.2749</title>
			<path d="M0 326.36 L141.73 326.36" class="st1"/>
		</g>
		<g id="shape450-19" v:mID="450" v:groupContext="shape" transform="translate(727.57,80.7503) rotate(53.1301)">
			<title>Ligger, 2 pt.2750</title>
			<path d="M0 326.36 L14.17 326.36" class="st1"/>
		</g>
		<g id="shape451-22" v:mID="451" v:groupContext="shape" transform="translate(-89.3285,-86.5682) rotate(-36.8699)">
			<title>Ligger, 2 pt.2751</title>
			<path d="M0 326.36 L141.73 326.36" class="st1"/>
		</g>
		<g id="shape452-25" v:mID="452" v:groupContext="shape" transform="translate(-157.36,-35.5446) rotate(-36.8699)">
			<title>Ligger, 2 pt.2752</title>
			<path d="M0 326.36 L14.17 326.36" class="st1"/>
		</g>
		<g id="shape453-28" v:mID="453" v:groupContext="shape" transform="translate(784.337,38.4535) rotate(90)">
			<title>Kracht.2753</title>
			<path d="M7.55 326.36 L7.91 326.36 L28.35 326.36" class="st2"/>
		</g>
		<g id="shape454-34" v:mID="454" v:groupContext="shape" transform="translate(103.279,66.7999) rotate(-90)">
			<title>Kracht.2754</title>
			<path d="M7.55 326.36 L7.91 326.36 L28.35 326.36" class="st4"/>
		</g>
		<g id="shape455-40" v:mID="455" v:groupContext="shape" transform="translate(770.164,10.107) rotate(90)">
			<title>Kracht.2755</title>
			<path d="M7.55 326.36 L7.91 326.36 L28.35 326.36" class="st4"/>
		</g>
		<g id="shape456-45" v:mID="456" v:groupContext="shape" transform="translate(344.595,-287.902)">
			<title>Kracht.2756</title>
			<path d="M7.55 326.36 L7.91 326.36 L28.35 326.36" class="st4"/>
		</g>
		<g id="shape457-50" v:mID="457" v:groupContext="shape" transform="translate(330.422,364.809) rotate(180)">
			<title>Kracht.2757</title>
			<path d="M7.55 326.36 L7.91 326.36 L28.35 326.36" class="st4"/>
		</g>
		<g id="shape458-55" v:mID="458" v:groupContext="shape" transform="translate(583.003,-112.006) rotate(53.1301)">
			<title>Kracht.2758</title>
			<path d="M7.55 326.36 L7.91 326.36 L28.35 326.36" class="st4"/>
		</g>
		<g id="shape459-60" v:mID="459" v:groupContext="shape" transform="translate(710.562,58.0731) rotate(53.1301)">
			<title>Kracht.2759</title>
			<path d="M7.55 326.36 L7.91 326.36 L28.35 326.36" class="st4"/>
		</g>
		<g id="shape460-65" v:mID="460" v:groupContext="shape" transform="translate(179.889,438.361) rotate(-126.87)">
			<title>Kracht.2760</title>
			<path d="M7.55 326.36 L7.91 326.36 L28.35 326.36" class="st4"/>
		</g>
		<g id="shape461-70" v:mID="461" v:groupContext="shape" transform="translate(52.3295,268.283) rotate(-126.87)">
			<title>Kracht.2761</title>
			<path d="M7.55 326.36 L7.91 326.36 L28.35 326.36" class="st4"/>
		</g>
		<g id="shape462-75" v:mID="462" v:groupContext="shape" transform="translate(58.0731,-197.119) rotate(-36.8699)">
			<title>Kracht.2762</title>
			<path d="M7.55 326.36 L7.91 326.36 L28.35 326.36" class="st4"/>
		</g>
		<g id="shape463-80" v:mID="463" v:groupContext="shape" transform="translate(-112.006,-69.5603) rotate(-36.8699)">
			<title>Kracht.2763</title>
			<path d="M7.55 326.36 L7.91 326.36 L28.35 326.36" class="st4"/>
		</g>
		<g id="shape464-85" v:mID="464" v:groupContext="shape" transform="translate(268.283,461.113) rotate(143.13)">
			<title>Kracht.2764</title>
			<path d="M7.55 326.36 L7.91 326.36 L28.35 326.36" class="st4"/>
		</g>
		<g id="shape465-90" v:mID="465" v:groupContext="shape" transform="translate(438.361,333.554) rotate(143.13)">
			<title>Kracht.2765</title>
			<path d="M7.55 326.36 L7.91 326.36 L28.35 326.36" class="st4"/>
		</g>
		<g id="shape466-95" v:mID="466" v:groupContext="shape" transform="translate(801.345,287.902) rotate(90)">
			<title>Kracht.2766</title>
			<path d="M7.55 326.36 L7.91 326.36 L28.35 326.36" class="st2"/>
		</g>
		<g id="shape467-100" v:mID="467" v:groupContext="shape" transform="translate(474.989,-38.4535)">
			<title>Kracht.2767</title>
			<path d="M7.55 326.36 L7.91 326.36 L28.35 326.36" class="st2"/>
		</g>
		<g id="shape468-105" v:mID="468" v:groupContext="shape" transform="translate(364.809,225.54) rotate(90)">
			<title>Kracht.2768</title>
			<path d="M7.55 326.36 L7.91 326.36 L28.35 326.36" class="st2"/>
		</g>
		<g id="shape469-110" v:mID="469" v:groupContext="shape" transform="translate(38.4535,551.896) rotate(180)">
			<title>Kracht.2769</title>
			<path d="M7.55 326.36 L7.91 326.36 L28.35 326.36" class="st2"/>
		</g>
		<g id="shape470-115" v:mID="470" v:groupContext="shape" transform="translate(46.5859,52.6267) rotate(-90)">
			<title>Moment.2770</title>
			<path d="M-0 326.36 A14.1732 14.1732 0 0 1 14.17 312.18 A14.1732 14.1732 0 0 1 26.14 318.76 L26.24 319.11" class="st6"/>
		</g>
		<g id="shape471-121" v:mID="471" v:groupContext="shape" transform="translate(628.431,52.6267) rotate(90) scale(-1,1)">
			<title>Moment.2771</title>
			<path d="M-0 326.36 A14.1732 14.1732 0 0 1 14.17 312.18 A14.1732 14.1732 0 0 1 26.14 318.76 L26.24 319.11" class="st6"/>
		</g>
		<g id="shape472-126" v:mID="472" v:groupContext="shape" transform="translate(699.297,10.107) rotate(90)">
			<title>Kracht.2772</title>
			<path d="M7.55 326.36 L7.91 326.36 L28.35 326.36" class="st4"/>
		</g>
		<g id="shape473-131" v:mID="473" v:groupContext="shape" transform="translate(-24.2802,66.7999) rotate(-90)">
			<title>Kracht.2773</title>
			<path d="M7.55 326.36 L7.91 326.36 L28.35 326.36" class="st4"/>
		</g>
		<g id="shape474-136" v:mID="474" v:groupContext="shape" transform="translate(77.9156,-194.285) rotate(-36.8699)">
			<title>Kracht.2774</title>
			<path d="M7.55 326.36 L7.91 326.36 L28.35 326.36" class="st4"/>
		</g>
		<g id="shape475-141" v:mID="475" v:groupContext="shape" transform="translate(520.64,-171.533) rotate(53.1301)">
			<title>Kracht.2775</title>
			<path d="M7.55 326.36 L7.91 326.36 L28.35 326.36" class="st4"/>
		</g>
		<g id="shape476-146" v:mID="476" v:groupContext="shape" transform="translate(557.417,350.562) rotate(143.13)">
			<title>Kracht.2776</title>
			<path d="M7.55 326.36 L7.91 326.36 L28.35 326.36" class="st4"/>
		</g>
		<g id="shape477-151" v:mID="477" v:groupContext="shape" transform="translate(503.558,302.089) rotate(143.13)">
			<title>Moment.2777</title>
			<path d="M-0 326.36 A14.1732 14.1732 0 0 1 14.17 312.18 A14.1732 14.1732 0 0 1 26.14 318.76 L26.24 319.11" class="st6"/>
		</g>
		<g id="shape478-156" v:mID="478" v:groupContext="shape"
				transform="translate(154.451,-163.104) rotate(-36.8699) scale(-1,1)">
			<title>Moment.2778</title>
			<path d="M-0 326.36 A14.1732 14.1732 0 0 1 14.17 312.18 A14.1732 14.1732 0 0 1 26.14 318.76 L26.24 319.11" class="st6"/>
		</g>
		<g id="shape479-161" v:mID="479" v:groupContext="shape" transform="translate(6.97518,231.432) rotate(53.1301) scale(1,-1)">
			<title>Moment.2779</title>
			<path d="M-0 326.36 A14.1732 14.1732 0 0 1 14.17 312.18 A14.1732 14.1732 0 0 1 26.14 318.76 L26.24 319.11" class="st6"/>
		</g>
		<g id="shape480-166" v:mID="480" v:groupContext="shape" transform="translate(472.451,-117.675) rotate(53.1301)">
			<title>Moment.2780</title>
			<path d="M-0 326.36 A14.1732 14.1732 0 0 1 14.17 312.18 A14.1732 14.1732 0 0 1 26.14 318.76 L26.24 319.11" class="st6"/>
		</g>
		<g id="shape481-171" v:mID="481" v:groupContext="shape" transform="translate(-194.285,435.527) rotate(-126.87)">
			<title>Kracht.2781</title>
			<path d="M7.55 326.36 L7.91 326.36 L28.35 326.36" class="st4"/>
		</g>
		<g id="shape482-176" v:mID="482" v:groupContext="shape" transform="translate(350.562,-43.9742) rotate(53.1301)">
			<title>Kracht.2782</title>
			<path d="M7.55 326.36 L7.91 326.36 L28.35 326.36" class="st4"/>
		</g>
		<g id="shape483-181" v:mID="483" v:groupContext="shape" transform="translate(-24.2059,307.968) rotate(-126.87)">
			<title>Kracht.2783</title>
			<path d="M7.55 326.36 L7.91 326.36 L28.35 326.36" class="st4"/>
		</g>
		<g id="group484-186" transform="translate(372.942,-287.902)" v:mID="484" v:groupContext="group">
			<title>q-last constnt.2784</title>
			<g id="group485-187" v:mID="485" v:groupContext="group">
				<title>q-last, recht.51</title>
				<g id="shape486-188" v:mID="486" v:groupContext="shape" transform="translate(326.356,312.183) rotate(90)">
					<title>Kracht.5</title>
					<path d="M0 326.36 L9.55 326.36" class="st7"/>
				</g>
				<g id="shape487-194" v:mID="487" v:groupContext="shape" transform="translate(3.9968E-15,-14.1732)">
					<title>Sheet.487</title>
					<path d="M0 326.36 L56.69 326.36" class="st9"/>
				</g>
				<g id="shape488-197" v:mID="488" v:groupContext="shape" transform="translate(336.664,312.183) rotate(90)">
					<title>Kracht.4</title>
					<path d="M0 326.36 L9.55 326.36" class="st7"/>
				</g>
				<g id="shape489-202" v:mID="489" v:groupContext="shape" transform="translate(346.971,312.183) rotate(90)">
					<title>Kracht.9</title>
					<path d="M0 326.36 L9.55 326.36" class="st7"/>
				</g>
				<g id="shape490-207" v:mID="490" v:groupContext="shape" transform="translate(383.049,312.183) rotate(90)">
					<title>Kracht.6</title>
					<path d="M0 326.36 L9.55 326.36" class="st7"/>
				</g>
				<g id="shape491-212" v:mID="491" v:groupContext="shape" transform="translate(372.741,312.183) rotate(90)">
					<title>Kracht.7</title>
					<path d="M0 326.36 L9.55 326.36" class="st7"/>
				</g>
			</g>
		</g>
		<g id="shape492-217" v:mID="492" v:groupContext="shape" transform="translate(-197.214,-0.876333) rotate(-43.6)">
			<title>Moment.2792</title>
			<path d="M-0 326.36 A14.1732 14.1732 0 0 1 14.17 312.18 A14.1732 14.1732 0 0 1 26.14 318.76 L26.24 319.11" class="st10"/>
		</g>
		<g id="shape493-223" v:mID="493" v:groupContext="shape" transform="translate(-163.104,358.991) rotate(53.1301) scale(1,-1)">
			<title>Moment.2793</title>
			<path d="M-0 326.36 A14.1732 14.1732 0 0 1 14.17 312.18 A14.1732 14.1732 0 0 1 26.14 318.76 L26.24 319.11" class="st6"/>
		</g>
		<g id="shape494-228" v:mID="494" v:groupContext="shape" transform="translate(302.373,9.8841) rotate(53.1301)">
			<title>Moment.2794</title>
			<path d="M-0 326.36 A14.1732 14.1732 0 0 1 14.17 312.18 A14.1732 14.1732 0 0 1 26.14 318.76 L26.24 319.11" class="st6"/>
		</g>
		<g id="shape495-233" v:mID="495" v:groupContext="shape" transform="translate(469.32,-39.8708)">
			<title>Sheet.495</title>
			<desc>2</desc>
			<v:textBlock v:margins="rect(4,4,4,4)" v:tabSpace="42.5197"/>
			<v:textRect cx="14.1732" cy="319.269" width="28.35" height="14.1733"/>
			<rect x="0" y="312.183" width="28.3465" height="14.1733" class="st12"/>
			<text x="11.17" y="322.87" class="st13" v:langID="1043"><v:paragraph v:horizAlign="1"/><v:tabList/>2</text>		</g>
		<g id="shape496-236" v:mID="496" v:groupContext="shape" transform="translate(205.475,-24.2059) rotate(-36.8699)">
			<title>Kracht.2806</title>
			<path d="M7.55 326.36 L7.91 326.36 L28.35 326.36" class="st4"/>
		</g>
		<g id="shape497-241" v:mID="497" v:groupContext="shape" transform="translate(684.976,520.64) rotate(143.13)">
			<title>Kracht.2807</title>
			<path d="M7.55 326.36 L7.91 326.36 L28.35 326.36" class="st4"/>
		</g>
		<g id="shape498-246" v:mID="498" v:groupContext="shape" transform="translate(377.194,-164.192)">
			<title>Sheet.498</title>
			<desc>3</desc>
			<v:textBlock v:margins="rect(4,4,4,4)" v:tabSpace="42.5197"/>
			<v:textRect cx="14.1732" cy="319.269" width="28.35" height="14.1733"/>
			<rect x="0" y="312.183" width="28.3465" height="14.1733" class="st12"/>
			<text x="11.17" y="322.87" class="st13" v:langID="1043"><v:paragraph v:horizAlign="1"/><v:tabList/>3</text>		</g>
		<g id="shape499-249" v:mID="499" v:groupContext="shape" transform="translate(387.115,-266.642)">
			<title>Sheet.499</title>
			<desc>3</desc>
			<v:textBlock v:margins="rect(4,4,4,4)" v:tabSpace="42.5197"/>
			<v:textRect cx="14.1732" cy="319.269" width="28.35" height="14.1733"/>
			<rect x="0" y="312.183" width="28.3465" height="14.1733" class="st12"/>
			<text x="11.17" y="322.87" class="st13" v:langID="1043"><v:paragraph v:horizAlign="1"/><v:tabList/>3</text>		</g>
		<g id="shape500-252" v:mID="500" v:groupContext="shape" transform="translate(438.139,-290.737)">
			<title>Sheet.500</title>
			<desc>1</desc>
			<v:textBlock v:margins="rect(4,4,4,4)" v:tabSpace="42.5197"/>
			<v:textRect cx="14.1732" cy="319.269" width="28.35" height="14.1733"/>
			<rect x="0" y="312.183" width="28.3465" height="14.1733" class="st12"/>
			<text x="11.17" y="322.87" class="st13" v:langID="1043"><v:paragraph v:horizAlign="1"/><v:tabList/>1</text>		</g>
		<g id="shape501-255" v:mID="501" v:groupContext="shape" transform="translate(270.895,-293.572)">
			<title>Sheet.501</title>
			<desc>3</desc>
			<v:textBlock v:margins="rect(4,4,4,4)" v:tabSpace="42.5197"/>
			<v:textRect cx="14.1732" cy="319.269" width="28.35" height="14.1733"/>
			<rect x="0" y="312.183" width="28.3465" height="14.1733" class="st12"/>
			<text x="11.17" y="322.87" class="st13" v:langID="1043"><v:paragraph v:horizAlign="1"/><v:tabList/>3</text>		</g>
		<g id="shape502-258" v:mID="502" v:groupContext="shape" transform="translate(138.86,-202.863)">
			<title>Sheet.502</title>
			<desc>3</desc>
			<v:textBlock v:margins="rect(4,4,4,4)" v:tabSpace="42.5197"/>
			<v:textRect cx="14.1732" cy="319.269" width="28.35" height="14.1733"/>
			<rect x="0" y="312.183" width="28.3465" height="14.1733" class="st12"/>
			<text x="11.17" y="322.87" class="st13" v:langID="1043"><v:paragraph v:horizAlign="1"/><v:tabList/>3</text>		</g>
		<g id="shape503-261" v:mID="503" v:groupContext="shape" transform="translate(38.4535,-75.3038)">
			<title>Sheet.503</title>
			<desc>3</desc>
			<v:textBlock v:margins="rect(4,4,4,4)" v:tabSpace="42.5197"/>
			<v:textRect cx="14.1732" cy="319.269" width="28.35" height="14.1733"/>
			<rect x="0" y="312.183" width="28.3465" height="14.1733" class="st12"/>
			<text x="11.17" y="322.87" class="st13" v:langID="1043"><v:paragraph v:horizAlign="1"/><v:tabList/>3</text>		</g>
	</g>
</svg>
