<?xml version="1.0" encoding="UTF-8" standalone="no"?>
<!DOCTYPE svg PUBLIC "-//W3C//DTD SVG 1.1//EN" "http://www.w3.org/Graphics/SVG/1.1/DTD/svg11.dtd">
<!-- Generated by Microsoft Visio, SVG Export stat_onbepaald_krachten.svg Page-1 -->
<svg xmlns="http://www.w3.org/2000/svg" xmlns:xlink="http://www.w3.org/1999/xlink" xmlns:ev="http://www.w3.org/2001/xml-events"
		xmlns:v="http://schemas.microsoft.com/visio/2003/SVGExtensions/" width="7.13114in" height="4.53272in"
		viewBox="0 0 513.442 326.356" xml:space="preserve" color-interpolation-filters="sRGB" class="st14">
	<v:documentProperties v:langID="1043" v:metric="true" v:viewMarkup="false"/>

	<style type="text/css">
	<![CDATA[
		.st1 {fill:none;stroke:none;stroke-linecap:round;stroke-linejoin:round;stroke-width:0.75}
		.st2 {fill:#000000;font-family:Times New Roman;font-size:1.00001em}
		.st3 {stroke:#000000;stroke-linecap:round;stroke-linejoin:round;stroke-opacity:0.5;stroke-width:2}
		.st4 {marker-start:url(#mrkr5-36);stroke:#00cc99;stroke-linecap:round;stroke-linejoin:round;stroke-width:2}
		.st5 {fill:#00cc99;fill-opacity:1;stroke:#00cc99;stroke-opacity:1;stroke-width:0.4424778761062}
		.st6 {marker-start:url(#mrkr5-42);stroke:#31859b;stroke-linecap:round;stroke-linejoin:round;stroke-width:2}
		.st7 {fill:#31859b;fill-opacity:1;stroke:#31859b;stroke-opacity:1;stroke-width:0.4424778761062}
		.st8 {marker-end:url(#mrkr5-123);stroke:#31859b;stroke-linecap:round;stroke-linejoin:round;stroke-width:2}
		.st9 {marker-end:url(#mrkr5-196);stroke:#800000;stroke-linecap:round;stroke-linejoin:round;stroke-opacity:0.5;stroke-width:1.2}
		.st10 {fill:#800000;fill-opacity:0.5;stroke:#800000;stroke-opacity:0.5;stroke-width:0.45454545454546}
		.st11 {stroke:#800000;stroke-linecap:round;stroke-linejoin:round;stroke-opacity:0.5;stroke-width:1.2}
		.st12 {marker-end:url(#mrkr5-225);stroke:#800000;stroke-linecap:round;stroke-linejoin:round;stroke-opacity:0.5;stroke-width:2}
		.st13 {fill:#800000;fill-opacity:0.5;stroke:#800000;stroke-opacity:0.5;stroke-width:0.4424778761062}
		.st14 {fill:none;fill-rule:evenodd;font-size:12px;overflow:visible;stroke-linecap:square;stroke-miterlimit:3}
	]]>
	</style>

	<defs id="Markers">
		<g id="lend5">
			<path d="M 2 1 L 0 0 L 1.98117 -0.993387 C 1.67173 -0.364515 1.67301 0.372641 1.98465 1.00043 " style="stroke:none"/>
		</g>
		<marker id="mrkr5-36" class="st5" v:arrowType="5" v:arrowSize="2" v:setback="3.775" refX="3.775" orient="auto"
				markerUnits="strokeWidth" overflow="visible">
			<use xlink:href="#lend5" transform="scale(2.26) "/>
		</marker>
		<marker id="mrkr5-42" class="st7" v:arrowType="5" v:arrowSize="2" v:setback="3.775" refX="3.775" orient="auto"
				markerUnits="strokeWidth" overflow="visible">
			<use xlink:href="#lend5" transform="scale(2.26) "/>
		</marker>
		<marker id="mrkr5-123" class="st7" v:arrowType="5" v:arrowSize="2" v:setback="3.775" refX="-3.775" orient="auto"
				markerUnits="strokeWidth" overflow="visible">
			<use xlink:href="#lend5" transform="scale(-2.26,-2.26) "/>
		</marker>
		<marker id="mrkr5-196" class="st10" v:arrowType="5" v:arrowSize="0" v:setback="3.85" refX="-3.85" orient="auto"
				markerUnits="strokeWidth" overflow="visible">
			<use xlink:href="#lend5" transform="scale(-2.2,-2.2) "/>
		</marker>
		<marker id="mrkr5-225" class="st13" v:arrowType="5" v:arrowSize="2" v:setback="3.775" refX="-3.775" orient="auto"
				markerUnits="strokeWidth" overflow="visible">
			<use xlink:href="#lend5" transform="scale(-2.26,-2.26) "/>
		</marker>
	</defs>
	<g v:mID="0" v:index="1" v:groupContext="foregroundPage">
		<title>Page-1</title>
		<v:pageProperties v:drawingScale="0.0393701" v:pageScale="0.0393701" v:drawingUnits="24" v:shadowOffsetX="8.50394"
				v:shadowOffsetY="-8.50394"/>
		<g id="shape382-1" v:mID="382" v:groupContext="shape" transform="translate(4.43774,-75.3039)">
			<title>Sheet.382</title>
			<desc>2</desc>
			<v:textBlock v:margins="rect(4,4,4,4)" v:tabSpace="42.5197"/>
			<v:textRect cx="14.1732" cy="319.269" width="28.35" height="14.1733"/>
			<rect x="0" y="312.183" width="28.3465" height="14.1733" class="st1"/>
			<text x="11.17" y="322.87" class="st2" v:langID="1043"><v:paragraph v:horizAlign="1"/><v:tabList/>2</text>		</g>
		<g id="shape383-4" v:mID="383" v:groupContext="shape" transform="translate(80.7503,-214.127) rotate(-36.8699)">
			<title>Ligger, 2 pt.2646</title>
			<path d="M0 326.36 L14.17 326.36" class="st3"/>
		</g>
		<g id="shape384-7" v:mID="384" v:groupContext="shape" transform="translate(548.987,-157.36) rotate(53.1301)">
			<title>Ligger, 2 pt.2647</title>
			<path d="M0 326.36 L14.17 326.36" class="st3"/>
		</g>
		<g id="shape385-10" v:mID="385" v:groupContext="shape" transform="translate(287.902,-287.902)">
			<title>Ligger, 2 pt.2648</title>
			<path d="M0 326.36 L14.17 326.36" class="st3"/>
		</g>
		<g id="shape386-13" v:mID="386" v:groupContext="shape" transform="translate(372.942,-287.902)">
			<title>Ligger, 2 pt.2649</title>
			<path d="M0 326.36 L56.69 326.36" class="st3"/>
		</g>
		<g id="shape387-16" v:mID="387" v:groupContext="shape" transform="translate(443.808,-287.902)">
			<title>Ligger, 2 pt.2650</title>
			<path d="M0 326.36 L14.17 326.36" class="st3"/>
		</g>
		<g id="shape388-19" v:mID="388" v:groupContext="shape" transform="translate(600.011,-89.3285) rotate(53.1301)">
			<title>Ligger, 2 pt.2652</title>
			<path d="M0 326.36 L141.73 326.36" class="st3"/>
		</g>
		<g id="shape389-22" v:mID="389" v:groupContext="shape" transform="translate(727.57,80.7503) rotate(53.1301)">
			<title>Ligger, 2 pt.2653</title>
			<path d="M0 326.36 L14.17 326.36" class="st3"/>
		</g>
		<g id="shape390-25" v:mID="390" v:groupContext="shape" transform="translate(-89.3285,-86.5682) rotate(-36.8699)">
			<title>Ligger, 2 pt.2654</title>
			<path d="M0 326.36 L141.73 326.36" class="st3"/>
		</g>
		<g id="shape391-28" v:mID="391" v:groupContext="shape" transform="translate(-157.36,-35.5446) rotate(-36.8699)">
			<title>Ligger, 2 pt.2657</title>
			<path d="M0 326.36 L14.17 326.36" class="st3"/>
		</g>
		<g id="shape392-31" v:mID="392" v:groupContext="shape" transform="translate(784.337,38.4535) rotate(90)">
			<title>Kracht.2658</title>
			<path d="M7.55 326.36 L7.91 326.36 L28.35 326.36" class="st4"/>
		</g>
		<g id="shape393-37" v:mID="393" v:groupContext="shape" transform="translate(103.279,66.7999) rotate(-90)">
			<title>Kracht.2659</title>
			<path d="M7.55 326.36 L7.91 326.36 L28.35 326.36" class="st6"/>
		</g>
		<g id="shape394-43" v:mID="394" v:groupContext="shape" transform="translate(770.164,10.107) rotate(90)">
			<title>Kracht.2660</title>
			<path d="M7.55 326.36 L7.91 326.36 L28.35 326.36" class="st6"/>
		</g>
		<g id="shape395-48" v:mID="395" v:groupContext="shape" transform="translate(344.595,-287.902)">
			<title>Kracht.2661</title>
			<path d="M7.55 326.36 L7.91 326.36 L28.35 326.36" class="st6"/>
		</g>
		<g id="shape396-53" v:mID="396" v:groupContext="shape" transform="translate(330.422,364.809) rotate(180)">
			<title>Kracht.2662</title>
			<path d="M7.55 326.36 L7.91 326.36 L28.35 326.36" class="st6"/>
		</g>
		<g id="shape397-58" v:mID="397" v:groupContext="shape" transform="translate(583.003,-112.006) rotate(53.1301)">
			<title>Kracht.2664</title>
			<path d="M7.55 326.36 L7.91 326.36 L28.35 326.36" class="st6"/>
		</g>
		<g id="shape398-63" v:mID="398" v:groupContext="shape" transform="translate(710.562,58.0731) rotate(53.1301)">
			<title>Kracht.2666</title>
			<path d="M7.55 326.36 L7.91 326.36 L28.35 326.36" class="st6"/>
		</g>
		<g id="shape399-68" v:mID="399" v:groupContext="shape" transform="translate(179.889,438.361) rotate(-126.87)">
			<title>Kracht.2667</title>
			<path d="M7.55 326.36 L7.91 326.36 L28.35 326.36" class="st6"/>
		</g>
		<g id="shape400-73" v:mID="400" v:groupContext="shape" transform="translate(52.3295,268.283) rotate(-126.87)">
			<title>Kracht.2668</title>
			<path d="M7.55 326.36 L7.91 326.36 L28.35 326.36" class="st6"/>
		</g>
		<g id="shape401-78" v:mID="401" v:groupContext="shape" transform="translate(58.0731,-197.119) rotate(-36.8699)">
			<title>Kracht.2669</title>
			<path d="M7.55 326.36 L7.91 326.36 L28.35 326.36" class="st6"/>
		</g>
		<g id="shape402-83" v:mID="402" v:groupContext="shape" transform="translate(-112.006,-69.5603) rotate(-36.8699)">
			<title>Kracht.2670</title>
			<path d="M7.55 326.36 L7.91 326.36 L28.35 326.36" class="st6"/>
		</g>
		<g id="shape403-88" v:mID="403" v:groupContext="shape" transform="translate(268.283,461.113) rotate(143.13)">
			<title>Kracht.2671</title>
			<path d="M7.55 326.36 L7.91 326.36 L28.35 326.36" class="st6"/>
		</g>
		<g id="shape404-93" v:mID="404" v:groupContext="shape" transform="translate(438.361,333.554) rotate(143.13)">
			<title>Kracht.2673</title>
			<path d="M7.55 326.36 L7.91 326.36 L28.35 326.36" class="st6"/>
		</g>
		<g id="shape405-98" v:mID="405" v:groupContext="shape" transform="translate(801.345,287.902) rotate(90)">
			<title>Kracht.2674</title>
			<path d="M7.55 326.36 L7.91 326.36 L28.35 326.36" class="st4"/>
		</g>
		<g id="shape406-103" v:mID="406" v:groupContext="shape" transform="translate(474.989,-38.4535)">
			<title>Kracht.2675</title>
			<path d="M7.55 326.36 L7.91 326.36 L28.35 326.36" class="st4"/>
		</g>
		<g id="shape407-108" v:mID="407" v:groupContext="shape" transform="translate(364.809,225.54) rotate(90)">
			<title>Kracht.2676</title>
			<path d="M7.55 326.36 L7.91 326.36 L28.35 326.36" class="st4"/>
		</g>
		<g id="shape408-113" v:mID="408" v:groupContext="shape" transform="translate(38.4535,551.896) rotate(180)">
			<title>Kracht.2677</title>
			<path d="M7.55 326.36 L7.91 326.36 L28.35 326.36" class="st4"/>
		</g>
		<g id="shape409-118" v:mID="409" v:groupContext="shape" transform="translate(46.5859,52.6267) rotate(-90)">
			<title>Moment.2678</title>
			<path d="M-0 326.36 A14.1732 14.1732 0 0 1 14.17 312.18 A14.1732 14.1732 0 0 1 26.14 318.76 L26.24 319.11" class="st8"/>
		</g>
		<g id="shape410-124" v:mID="410" v:groupContext="shape" transform="translate(628.431,52.6267) rotate(90) scale(-1,1)">
			<title>Moment.2679</title>
			<path d="M-0 326.36 A14.1732 14.1732 0 0 1 14.17 312.18 A14.1732 14.1732 0 0 1 26.14 318.76 L26.24 319.11" class="st8"/>
		</g>
		<g id="shape411-129" v:mID="411" v:groupContext="shape" transform="translate(699.297,10.107) rotate(90)">
			<title>Kracht.2680</title>
			<path d="M7.55 326.36 L7.91 326.36 L28.35 326.36" class="st6"/>
		</g>
		<g id="shape412-134" v:mID="412" v:groupContext="shape" transform="translate(-24.2802,66.7999) rotate(-90)">
			<title>Kracht.2681</title>
			<path d="M7.55 326.36 L7.91 326.36 L28.35 326.36" class="st6"/>
		</g>
		<g id="shape413-139" v:mID="413" v:groupContext="shape" transform="translate(77.9156,-194.285) rotate(-36.8699)">
			<title>Kracht.2682</title>
			<path d="M7.55 326.36 L7.91 326.36 L28.35 326.36" class="st6"/>
		</g>
		<g id="shape414-144" v:mID="414" v:groupContext="shape" transform="translate(520.64,-171.533) rotate(53.1301)">
			<title>Kracht.2684</title>
			<path d="M7.55 326.36 L7.91 326.36 L28.35 326.36" class="st6"/>
		</g>
		<g id="shape415-149" v:mID="415" v:groupContext="shape" transform="translate(557.417,350.562) rotate(143.13)">
			<title>Kracht.2685</title>
			<path d="M7.55 326.36 L7.91 326.36 L28.35 326.36" class="st6"/>
		</g>
		<g id="shape416-154" v:mID="416" v:groupContext="shape" transform="translate(503.558,302.089) rotate(143.13)">
			<title>Moment.2686</title>
			<path d="M-0 326.36 A14.1732 14.1732 0 0 1 14.17 312.18 A14.1732 14.1732 0 0 1 26.14 318.76 L26.24 319.11" class="st8"/>
		</g>
		<g id="shape417-159" v:mID="417" v:groupContext="shape"
				transform="translate(154.451,-163.104) rotate(-36.8699) scale(-1,1)">
			<title>Moment.2687</title>
			<path d="M-0 326.36 A14.1732 14.1732 0 0 1 14.17 312.18 A14.1732 14.1732 0 0 1 26.14 318.76 L26.24 319.11" class="st8"/>
		</g>
		<g id="shape418-164" v:mID="418" v:groupContext="shape" transform="translate(6.97518,231.432) rotate(53.1301) scale(1,-1)">
			<title>Moment.2688</title>
			<path d="M-0 326.36 A14.1732 14.1732 0 0 1 14.17 312.18 A14.1732 14.1732 0 0 1 26.14 318.76 L26.24 319.11" class="st8"/>
		</g>
		<g id="shape419-169" v:mID="419" v:groupContext="shape" transform="translate(472.451,-117.675) rotate(53.1301)">
			<title>Moment.2689</title>
			<path d="M-0 326.36 A14.1732 14.1732 0 0 1 14.17 312.18 A14.1732 14.1732 0 0 1 26.14 318.76 L26.24 319.11" class="st8"/>
		</g>
		<g id="shape420-174" v:mID="420" v:groupContext="shape" transform="translate(-194.285,435.527) rotate(-126.87)">
			<title>Kracht.2690</title>
			<path d="M7.55 326.36 L7.91 326.36 L28.35 326.36" class="st6"/>
		</g>
		<g id="shape421-179" v:mID="421" v:groupContext="shape" transform="translate(350.562,-43.9742) rotate(53.1301)">
			<title>Kracht.2691</title>
			<path d="M7.55 326.36 L7.91 326.36 L28.35 326.36" class="st6"/>
		</g>
		<g id="shape422-184" v:mID="422" v:groupContext="shape" transform="translate(-24.2059,307.968) rotate(-126.87)">
			<title>Kracht.2692</title>
			<path d="M7.55 326.36 L7.91 326.36 L28.35 326.36" class="st6"/>
		</g>
		<g id="group423-189" transform="translate(372.942,-287.902)" v:mID="423" v:groupContext="group">
			<title>q-last constnt.2733</title>
			<g id="group424-190" v:mID="424" v:groupContext="group">
				<title>q-last, recht.51</title>
				<g id="shape425-191" v:mID="425" v:groupContext="shape" transform="translate(326.356,312.183) rotate(90)">
					<title>Kracht.5</title>
					<path d="M0 326.36 L9.55 326.36" class="st9"/>
				</g>
				<g id="shape426-197" v:mID="426" v:groupContext="shape" transform="translate(3.9968E-15,-14.1732)">
					<title>Sheet.426</title>
					<path d="M0 326.36 L56.69 326.36" class="st11"/>
				</g>
				<g id="shape427-200" v:mID="427" v:groupContext="shape" transform="translate(336.664,312.183) rotate(90)">
					<title>Kracht.4</title>
					<path d="M0 326.36 L9.55 326.36" class="st9"/>
				</g>
				<g id="shape428-205" v:mID="428" v:groupContext="shape" transform="translate(346.971,312.183) rotate(90)">
					<title>Kracht.9</title>
					<path d="M0 326.36 L9.55 326.36" class="st9"/>
				</g>
				<g id="shape429-210" v:mID="429" v:groupContext="shape" transform="translate(383.049,312.183) rotate(90)">
					<title>Kracht.6</title>
					<path d="M0 326.36 L9.55 326.36" class="st9"/>
				</g>
				<g id="shape430-215" v:mID="430" v:groupContext="shape" transform="translate(372.741,312.183) rotate(90)">
					<title>Kracht.7</title>
					<path d="M0 326.36 L9.55 326.36" class="st9"/>
				</g>
			</g>
		</g>
		<g id="shape431-220" v:mID="431" v:groupContext="shape" transform="translate(-197.214,-0.876333) rotate(-43.6)">
			<title>Moment.2741</title>
			<path d="M-0 326.36 A14.1732 14.1732 0 0 1 14.17 312.18 A14.1732 14.1732 0 0 1 26.14 318.76 L26.24 319.11" class="st12"/>
		</g>
		<g id="shape432-226" v:mID="432" v:groupContext="shape" transform="translate(-163.104,358.991) rotate(53.1301) scale(1,-1)">
			<title>Moment.2742</title>
			<path d="M-0 326.36 A14.1732 14.1732 0 0 1 14.17 312.18 A14.1732 14.1732 0 0 1 26.14 318.76 L26.24 319.11" class="st8"/>
		</g>
		<g id="shape433-231" v:mID="433" v:groupContext="shape" transform="translate(302.373,9.8841) rotate(53.1301)">
			<title>Moment.2743</title>
			<path d="M-0 326.36 A14.1732 14.1732 0 0 1 14.17 312.18 A14.1732 14.1732 0 0 1 26.14 318.76 L26.24 319.11" class="st8"/>
		</g>
		<g id="shape434-236" v:mID="434" v:groupContext="shape" transform="translate(61.1307,-131.997)">
			<title>Sheet.434</title>
			<desc>3</desc>
			<v:textBlock v:margins="rect(4,4,4,4)" v:tabSpace="42.5197"/>
			<v:textRect cx="14.1732" cy="319.269" width="28.35" height="14.1733"/>
			<rect x="0" y="312.183" width="28.3465" height="14.1733" class="st1"/>
			<text x="11.17" y="322.87" class="st2" v:langID="1043"><v:paragraph v:horizAlign="1"/><v:tabList/>3</text>		</g>
		<g id="shape435-239" v:mID="435" v:groupContext="shape" transform="translate(231.209,-259.556)">
			<title>Sheet.435</title>
			<desc>3</desc>
			<v:textBlock v:margins="rect(4,4,4,4)" v:tabSpace="42.5197"/>
			<v:textRect cx="14.1732" cy="319.269" width="28.35" height="14.1733"/>
			<rect x="0" y="312.183" width="28.3465" height="14.1733" class="st1"/>
			<text x="11.17" y="322.87" class="st2" v:langID="1043"><v:paragraph v:horizAlign="1"/><v:tabList/>3</text>		</g>
		<g id="shape436-242" v:mID="436" v:groupContext="shape" transform="translate(323.335,-287.902)">
			<title>Sheet.436</title>
			<desc>3</desc>
			<v:textBlock v:margins="rect(4,4,4,4)" v:tabSpace="42.5197"/>
			<v:textRect cx="14.1732" cy="319.269" width="28.35" height="14.1733"/>
			<rect x="0" y="312.183" width="28.3465" height="14.1733" class="st1"/>
			<text x="11.17" y="322.87" class="st2" v:langID="1043"><v:paragraph v:horizAlign="1"/><v:tabList/>3</text>		</g>
		<g id="shape437-245" v:mID="437" v:groupContext="shape" transform="translate(294.989,-238.296)">
			<title>Sheet.437</title>
			<desc>3</desc>
			<v:textBlock v:margins="rect(4,4,4,4)" v:tabSpace="42.5197"/>
			<v:textRect cx="14.1732" cy="319.269" width="28.35" height="14.1733"/>
			<rect x="0" y="312.183" width="28.3465" height="14.1733" class="st1"/>
			<text x="11.17" y="322.87" class="st2" v:langID="1043"><v:paragraph v:horizAlign="1"/><v:tabList/>3</text>		</g>
		<g id="shape438-248" v:mID="438" v:groupContext="shape" transform="translate(422.548,-309.162)">
			<title>Sheet.438</title>
			<desc>1</desc>
			<v:textBlock v:margins="rect(4,4,4,4)" v:tabSpace="42.5197"/>
			<v:textRect cx="14.1732" cy="319.269" width="28.35" height="14.1733"/>
			<rect x="0" y="312.183" width="28.3465" height="14.1733" class="st1"/>
			<text x="11.17" y="322.87" class="st2" v:langID="1043"><v:paragraph v:horizAlign="1"/><v:tabList/>1</text>		</g>
		<g id="shape439-251" v:mID="439" v:groupContext="shape" transform="translate(457.981,-263.826)">
			<title>Sheet.439</title>
			<desc>1</desc>
			<v:textBlock v:margins="rect(4,4,4,4)" v:tabSpace="42.5197"/>
			<v:textRect cx="14.1732" cy="319.269" width="28.35" height="14.1733"/>
			<rect x="0" y="312.183" width="28.3465" height="14.1733" class="st1"/>
			<text x="11.17" y="322.87" class="st2" v:langID="1043"><v:paragraph v:horizAlign="1"/><v:tabList/>1</text>		</g>
		<g id="shape440-254" v:mID="440" v:groupContext="shape" transform="translate(438.139,-73.8865)">
			<title>Sheet.440</title>
			<desc>2</desc>
			<v:textBlock v:margins="rect(4,4,4,4)" v:tabSpace="42.5197"/>
			<v:textRect cx="14.1732" cy="319.269" width="28.35" height="14.1733"/>
			<rect x="0" y="312.183" width="28.3465" height="14.1733" class="st1"/>
			<text x="11.17" y="322.87" class="st2" v:langID="1043"><v:paragraph v:horizAlign="1"/><v:tabList/>2</text>		</g>
		<g id="shape441-257" v:mID="441" v:groupContext="shape" transform="translate(205.475,-24.2059) rotate(-36.8699)">
			<title>Kracht.2802</title>
			<path d="M7.55 326.36 L7.91 326.36 L28.35 326.36" class="st6"/>
		</g>
		<g id="shape442-262" v:mID="442" v:groupContext="shape" transform="translate(684.976,520.64) rotate(143.13)">
			<title>Kracht.2803</title>
			<path d="M7.55 326.36 L7.91 326.36 L28.35 326.36" class="st6"/>
		</g>
		<g id="shape443-267" v:mID="443" v:groupContext="shape" transform="translate(477.824,-12.9416)">
			<title>Sheet.443</title>
			<desc>2</desc>
			<v:textBlock v:margins="rect(4,4,4,4)" v:tabSpace="42.5197"/>
			<v:textRect cx="14.1732" cy="319.269" width="28.35" height="14.1733"/>
			<rect x="0" y="312.183" width="28.3465" height="14.1733" class="st1"/>
			<text x="11.17" y="322.87" class="st2" v:langID="1043"><v:paragraph v:horizAlign="1"/><v:tabList/>2</text>		</g>
	</g>
</svg>
