<?xml version="1.0" encoding="UTF-8" standalone="no"?>
<!DOCTYPE svg PUBLIC "-//W3C//DTD SVG 1.1//EN" "http://www.w3.org/Graphics/SVG/1.1/DTD/svg11.dtd">
<!-- Gegenereerd door Microsoft Visio, SVG Export verplaats_2.svg Pagina-1 -->
<svg xmlns="http://www.w3.org/2000/svg" xmlns:xlink="http://www.w3.org/1999/xlink" xmlns:ev="http://www.w3.org/2001/xml-events"
		xmlns:v="http://schemas.microsoft.com/visio/2003/SVGExtensions/" width="2.25451in" height="1.55224in"
		viewBox="0 0 162.325 111.761" xml:space="preserve" color-interpolation-filters="sRGB" class="st13">
	<v:documentProperties v:langID="1043" v:metric="true" v:viewMarkup="false"/>

	<style type="text/css">
	<![CDATA[
		.st1 {marker-end:url(#mrkr1-6);stroke:#000000;stroke-linecap:butt;stroke-width:3}
		.st2 {fill:#000000;fill-opacity:1;stroke:#000000;stroke-opacity:1;stroke-width:0.67567567567568}
		.st3 {stroke:#000000;stroke-linecap:round;stroke-linejoin:round;stroke-width:0.75}
		.st4 {fill:#00cc99;stroke:#000000;stroke-linecap:round;stroke-linejoin:round;stroke-width:0.75}
		.st5 {stroke:#000000;stroke-linecap:round;stroke-linejoin:round;stroke-width:2}
		.st6 {fill:#ffffff;stroke:#000000;stroke-linecap:round;stroke-linejoin:round;stroke-width:0.75}
		.st7 {marker-end:url(#mrkr5-49);stroke:#800000;stroke-linecap:round;stroke-linejoin:round;stroke-width:2}
		.st8 {fill:#800000;fill-opacity:1;stroke:#800000;stroke-opacity:1;stroke-width:0.44247787610619}
		.st9 {fill:none;stroke:none;stroke-linecap:round;stroke-linejoin:round;stroke-width:0.75}
		.st10 {fill:#000000;font-family:Times New Roman;font-size:1.00001em;font-style:italic}
		.st11 {baseline-shift:-32.4941%;font-size:0.649882em;font-style:normal}
		.st12 {font-size:1em;font-style:normal}
		.st13 {fill:none;fill-rule:evenodd;font-size:12px;overflow:visible;stroke-linecap:square;stroke-miterlimit:3}
	]]>
	</style>

	<defs id="Markers">
		<g id="lend1">
			<path d="M 1 -1 L 0 0 L 1 1 " style="stroke-linecap:round;stroke-linejoin:round;fill:none"/>
		</g>
		<marker id="mrkr1-6" class="st2" v:arrowType="1" v:arrowSize="0" orient="auto" markerUnits="strokeWidth" overflow="visible">
			<use xlink:href="#lend1" transform="scale(-1.48,-1.48) "/>
		</marker>
		<g id="lend5">
			<path d="M 2 1 L 0 0 L 1.98117 -0.993387 C 1.67173 -0.364515 1.67301 0.372641 1.98465 1.00043 " style="stroke:none"/>
		</g>
		<marker id="mrkr5-49" class="st8" v:arrowType="5" v:arrowSize="2" v:setback="3.775" refX="-3.775" orient="auto"
				markerUnits="strokeWidth" overflow="visible">
			<use xlink:href="#lend5" transform="scale(-2.26,-2.26) "/>
		</marker>
	</defs>
	<g v:mID="0" v:index="1" v:groupContext="foregroundPage">
		<title>Pagina-1</title>
		<v:pageProperties v:drawingScale="0.0393701" v:pageScale="0.0393701" v:drawingUnits="24" v:shadowOffsetX="8.50394"
				v:shadowOffsetY="-8.50394"/>
		<g id="shape183-1" v:mID="183" v:groupContext="shape" transform="translate(2.93352,130.072) rotate(30.2409) scale(1,-1)">
			<title>Hoekverdraaiing.183</title>
			<path d="M0 111.76 C5.03 110.6 9.21 110.07 15.15 111.76" class="st1"/>
		</g>
		<g id="shape184-7" v:mID="184" v:groupContext="shape" transform="translate(189.313,35.7503) rotate(104.763)">
			<title>Blad.184</title>
			<path d="M0 111.76 L42.52 111.76" class="st3"/>
		</g>
		<g id="shape185-10" v:mID="185" v:groupContext="shape" transform="translate(188.155,105.923) rotate(-49.5591) scale(1,-1)">
			<title>Hoekverdraaiing.185</title>
			<path d="M0 111.76 C5.03 110.6 9.21 110.07 15.15 111.76" class="st1"/>
		</g>
		<g id="shape186-15" v:mID="186" v:groupContext="shape" transform="translate(128.329,-94.2133) rotate(24.9628)">
			<title>Blad.186</title>
			<path d="M0 111.76 L42.52 111.76" class="st3"/>
		</g>
		<g id="group187-18" transform="translate(0.375,-8.27585)" v:mID="187" v:groupContext="group">
			<title>Scharnieroplegging.187</title>
			<g id="shape188-19" v:mID="188" v:groupContext="shape" transform="translate(2.83465,0)">
				<title>Blad.188</title>
				<path d="M0 111.76 L14.17 111.76 L7.09 100.42 L0 111.76 Z" class="st4"/>
			</g>
			<g id="shape189-21" v:mID="189" v:groupContext="shape" transform="translate(2.83465,223.522) rotate(180)">
				<title>Blad.189</title>
				<path d="M0 111.76 L2.83 111.76" class="st3"/>
			</g>
			<g id="shape190-24" v:mID="190" v:groupContext="shape" transform="translate(17.0079,0)">
				<title>Blad.190</title>
				<path d="M0 111.76 L2.83 111.76" class="st3"/>
			</g>
		</g>
		<g id="shape191-27" v:mID="191" v:groupContext="shape" transform="translate(-75.561,20.599) rotate(-50.1944)">
			<title>Ligger, 2 pt.191</title>
			<path d="M0 111.76 L110.7 111.76" class="st5"/>
		</g>
		<g id="shape192-30" v:mID="192" v:groupContext="shape" transform="translate(66.1713,163.694) rotate(-129.806)">
			<title>Ligger, 2 pt.192</title>
			<path d="M0 111.76 L110.7 111.76" class="st5"/>
		</g>
		<g id="group193-33" transform="translate(142.107,-8.27585)" v:mID="193" v:groupContext="group">
			<title>Scharnieroplegging.193</title>
			<g id="shape194-34" v:mID="194" v:groupContext="shape" transform="translate(2.83465,0)">
				<title>Blad.194</title>
				<path d="M0 111.76 L14.17 111.76 L7.09 100.42 L0 111.76 Z" class="st4"/>
			</g>
			<g id="shape195-36" v:mID="195" v:groupContext="shape" transform="translate(2.83465,223.522) rotate(180)">
				<title>Blad.195</title>
				<path d="M0 111.76 L2.83 111.76" class="st3"/>
			</g>
			<g id="shape196-39" v:mID="196" v:groupContext="shape" transform="translate(17.0079,0)">
				<title>Blad.196</title>
				<path d="M0 111.76 L2.83 111.76" class="st3"/>
			</g>
		</g>
		<g id="shape197-42" v:mID="197" v:groupContext="shape" transform="translate(79.0364,-102.528)">
			<title>Scharnier.197</title>
			<ellipse cx="2.12598" cy="109.635" rx="2.12598" ry="2.12598" class="st6"/>
		</g>
		<g id="shape198-44" v:mID="198" v:groupContext="shape" transform="translate(15.6761,-48.9848) rotate(-39.8056)">
			<title>Moment.198</title>
			<path d="M-0 111.76 A14.1732 14.1732 0 0 1 14.17 97.59 A14.1732 14.1732 0 0 1 26.14 104.17 L26.24 104.51" class="st7"/>
		</g>
		<g id="shape199-50" v:mID="199" v:groupContext="shape" transform="translate(146.14,-48.9848) rotate(39.8056) scale(-1,1)">
			<title>Moment.199</title>
			<path d="M-0 111.76 A14.1732 14.1732 0 0 1 14.17 97.59 A14.1732 14.1732 0 0 1 26.14 104.17 L26.24 104.51" class="st7"/>
		</g>
		<g id="shape224-55" v:mID="224" v:groupContext="shape" transform="translate(24.4695,-0.834919)">
			<title>Blad.224</title>
			<desc>M1(φ) = M2(φ) → φ</desc>
			<v:textBlock v:margins="rect(4,4,4,4)" v:tabSpace="42.5197"/>
			<v:textRect cx="56.6929" cy="104.674" width="113.39" height="14.1732"/>
			<rect x="0" y="97.5879" width="113.386" height="14.1732" class="st9"/>
			<text x="10.96" y="108.28" class="st10" v:langID="1043"><v:paragraph v:horizAlign="1"/><v:tabList/>M<tspan
						dy="-0.279em" class="st11" v:baseFontSize="12">1</tspan><tspan dy="0.181em" class="st12">(</tspan>φ<tspan
						class="st12">)</tspan> <tspan class="st12">= </tspan>M<tspan dy="-0.279em" class="st11" v:baseFontSize="12">2</tspan><tspan
						dy="0.181em" class="st12">(</tspan>φ<tspan class="st12">) </tspan><tspan class="st12">→ </tspan>φ</text>		</g>
		<g id="shape228-66" v:mID="228" v:groupContext="shape" transform="translate(13.1309,-91.5436)">
			<title>Blad.228</title>
			<desc>M1</desc>
			<v:textBlock v:margins="rect(4,4,4,4)" v:tabSpace="42.5197"/>
			<v:textRect cx="21.2598" cy="104.674" width="42.52" height="14.1732"/>
			<rect x="0" y="97.5879" width="42.5197" height="14.1732" class="st9"/>
			<text x="14.31" y="108.28" class="st10" v:langID="1043"><v:paragraph v:horizAlign="1"/><v:tabList/>M<tspan
						dy="-0.279em" class="st11" v:baseFontSize="12">1</tspan></text>		</g>
		<g id="shape229-70" v:mID="229" v:groupContext="shape" transform="translate(99.5876,-97.2129)">
			<title>Blad.229</title>
			<desc>M2</desc>
			<v:textBlock v:margins="rect(4,4,4,4)" v:tabSpace="42.5197"/>
			<v:textRect cx="21.2598" cy="104.674" width="42.52" height="14.1732"/>
			<rect x="0" y="97.5879" width="42.5197" height="14.1732" class="st9"/>
			<text x="14.31" y="108.28" class="st10" v:langID="1043"><v:paragraph v:horizAlign="1"/><v:tabList/>M<tspan
						dy="-0.279em" class="st11" v:baseFontSize="12">2</tspan></text>		</g>
		<g id="shape231-74" v:mID="231" v:groupContext="shape" transform="translate(45.7294,-46.1357)">
			<title>Blad.231</title>
			<desc>φ = ?</desc>
			<v:textBlock v:margins="rect(4,4,4,4)" v:tabSpace="42.5197"/>
			<v:textRect cx="21.2598" cy="104.674" width="42.52" height="14.1732"/>
			<rect x="0" y="97.5879" width="42.5197" height="14.1732" class="st9"/>
			<text x="10.39" y="108.28" class="st10" v:langID="1043"><v:paragraph v:horizAlign="1"/><v:tabList/>φ<tspan class="st12"> </tspan><tspan
						class="st12">= ?</tspan></text>		</g>
		<g id="shape232-79" v:mID="232" v:groupContext="shape" transform="translate(114.516,-74.8887)">
			<title>Blad.232</title>
			<desc>φ = ?</desc>
			<v:textBlock v:margins="rect(4,4,4,4)" v:tabSpace="42.5197"/>
			<v:textRect cx="21.2598" cy="104.674" width="42.52" height="14.1732"/>
			<rect x="0" y="97.5879" width="42.5197" height="14.1732" class="st9"/>
			<text x="10.39" y="108.28" class="st10" v:langID="1043"><v:paragraph v:horizAlign="1"/><v:tabList/>φ<tspan class="st12"> </tspan><tspan
						class="st12">= ?</tspan></text>		</g>
	</g>
</svg>
